<?xml version="1.0" encoding="utf-8"?>
<!-- Generator: Adobe Illustrator 21.1.0, SVG Export Plug-In . SVG Version: 6.00 Build 0)  -->
<svg version="1.1" id="Layer_1" xmlns="http://www.w3.org/2000/svg" xmlns:xlink="http://www.w3.org/1999/xlink" x="0px" y="0px"
	 viewBox="0 0 16 16" style="enable-background:new 0 0 16 16;" xml:space="preserve">
<style type="text/css">
	.st0{fill:#61DAFB;}
</style>
<g id="base-layer">
	<path d="M10.8,0c0,0.1-0.3,0.2-0.5,0.3C9.9,0.6,9.5,0.9,9.2,1.2c0.2,0,0.3,0,0.4,0.1c0,0.1-0.3,0.1-0.3,0.2c0.3,0,0.8-0.3,1.3-0.3
		c-0.3,0.2-0.7,0.3-1.1,0.4c0.2,0.2,0.5,0.2,0.6,0.4C10.2,2.1,10,2,10,2c0.1,0.4,0.6,0.4,0.6,0.9c-0.1,0-0.1-0.1-0.2,0
		c-0.1,0.3,0.3,0.4,0.3,0.7c0,0.1-0.1,0-0.2,0c-0.2,0.2,0.2,0.5,0,0.8c-0.2,0,0-0.2-0.2-0.2C10,4.4,10.2,4.8,10,4.9
		c-0.1,0,0-0.2-0.2-0.1C9.6,4.9,10,5.3,9.8,5.5c-0.1,0-0.1-0.1-0.2-0.1C9.4,5.5,9.8,5.6,9.6,5.8c0,0.2-0.1-0.1-0.2-0.1
		C9.3,6,9.7,6.1,9.6,6.4c-0.1,0,0-0.1-0.2-0.1C9.3,6.5,9.7,6.6,9.6,6.9c0,0.2-0.1,0-0.2,0c0,0.2,0.3,0.3,0.2,0.5
		c1,1,2.4,0.1,2.1-1.3c-0.1-0.6-0.6-1.1-0.6-1.6c0.2,0.1,0.2,0.2,0.4,0.4c0.8,0.5,2.5,0.3,3,1c-0.3-0.1-0.8-0.4-1.3-0.3
		c0.8,0.5,1.8,1,2.3,2c1,2.1,0.4,5.2-1,6.6c0.3,0.4,1,0.6,0.7,1.2c-0.3-0.8-1.3-1.2-2.4-1.2c-1.9,0-3.3,1.3-5.2,1.7
		C7.1,16,6.5,16,5.9,16c-3.3-0.2-5.4-2.2-5.8-4.6c-0.4-2.9,1.2-4.7,3.5-5.7c0.2-0.7,1.1-0.8,2.1-1C6.1,4.6,6.4,4.4,7,4.5
		c-0.7,0.3-1.3,1-1,1.9c0.2,0.4,0.6,0.7,1,0.7c0.2,0,0.7-0.1,0.8-0.2C7.9,6.7,7.8,6.4,7.9,6c0.2-1.2,1.4-2.2,1-3.2
		c-0.2,0-0.1,0.2-0.2,0.3c-0.6,0.1-1,0.3-1,0.7c0,0.2,0.3,0.3,0.2,0.6C7.8,4.4,7.8,4.2,7.7,4.2C7.5,4.3,7.2,4.1,7.1,4
		C7.1,3.9,7.2,4,7.3,4c0-0.2,0.1-0.2,0.2-0.5c-0.2,0-0.2,0.3-0.4,0.3C7.2,3.5,7.5,3.3,7.6,3C7.3,3.1,7.3,3.4,7,3.4
		c0,0.2-0.3,0.1-0.2,0.3c0,0-0.1,0-0.2,0c0,0.2,0.1,0.2,0.2,0.3C6.8,4,6.6,3.9,6.5,3.8C6.5,3.8,6.5,4,6.5,4C6.1,3.9,6.2,3.2,6.3,2.9
		c0.1,0,0,0.2,0,0.2C6.7,3,6.8,2.7,7.1,2.6c0-0.1-0.1-0.2,0-0.3c0.1-0.2,0.3-0.2,0.5-0.4c0.5-0.5,0.5-1.3,1.2-1.6
		C8.7,0.5,8.4,0.8,8.3,1.1C8.4,1.2,8.6,1,8.8,1c0,0.1-0.2,0.1-0.2,0.3C9.3,0.8,9.9,0.3,10.8,0L10.8,0z M4.7,8.2
		C4.1,8.1,3.7,8.9,4,9.4c-0.4,0-0.5,0.2-0.5,0.5c0.2-0.1,0.6,0,0.6-0.2c0-0.1-0.1-0.1-0.2-0.1c0.1-0.1,0.6,0,0.7-0.2
		c0-0.2-0.1-0.2-0.2-0.2C4.6,9,5,9.1,5.2,9c0-0.2-0.1-0.1-0.1-0.2c0-0.1,0.1-0.1,0.1-0.1C5,8.6,5,8.3,4.7,8.2L4.7,8.2z M9,11.2
		c-0.3,0.2-0.2,0.8-0.2,0.7c0.1,0.1,0.4-0.4,0.8-0.1c-0.1,0.7-0.7,0.7-0.6,1.5c0.6,0.4,1.9,0.3,2.3,0.7c1-0.2,2.3-0.1,3.1,0.3
		c0.2-0.3,0.6-0.9,0.7-1.6c0.1-0.6,0.1-1.4-0.4-1.5c-0.4-0.1-0.6,0.2-0.8,0.2c0.1-0.1,0.1-0.3-0.1-0.3c-0.4,0.4-0.6,1.1-1.2,1.3
		c0.3-0.4,0.8-0.8,0.7-1.5c0-0.1-0.3,0-0.3-0.1c0.1-0.3,0.3-1.3-0.2-1.4c-0.5-0.1-0.8,0.3-0.9,0.6c-0.1,0,0-0.1-0.2-0.1
		c-0.2,0.2-0.4,0.5-0.8,0.6c0.1-0.2,0.4-0.5,0.2-0.8c-0.2,0-0.2-0.1-0.2-0.3C10.3,9,9.7,9.5,9.7,10c0,0.3,0.4,0.6,0.4,0.8
		c0,0,0.2,0,0.2,0.1c0.1,0.1,0.3,1,0.3,1c0,0-0.1,0.2-0.1,0.3c0,0.2,0,0.4,0,0.5c-0.1,0.2-0.4,0.2-0.6,0c0.2,0,0.3,0,0.3-0.1
		c0-0.1-0.2-0.1-0.2-0.2c-0.1,0.1-0.6,0-0.6-0.1c0.1,0.1,0.3,0,0.4,0c-0.2-0.3,0.1-0.4,0.2-0.6C10,11.7,10,11.6,10,11.5L9,11.2
		L9,11.2z M2.9,10C2.5,9.6,1.8,10.1,2,10.7c-0.8,0.1-0.1,1,0.2,1.2c0-0.1,0.1-0.1,0.1-0.2c0-0.1-0.1,0-0.1-0.1
		c0.1-0.2,0.4-0.2,0.4-0.4c0-0.1-0.1-0.1-0.1-0.2c0.2-0.2,0.6-0.1,0.6-0.4c-0.1-0.1-0.1,0.1-0.2,0c0.1-0.2,0.4-0.2,0.5-0.3
		c-0.1-0.1-0.1-0.3-0.2-0.5c-0.1,0-0.1,0-0.2,0C3,9.8,3,10,2.9,10L2.9,10z M1.2,12.3c0.1,0.9,0.7,2,1.3,2.3c-0.6-0.6-0.5-2-0.4-2.7
		c-0.3-0.1-0.4-0.4-0.6-0.5c-0.1,0.1,0,0.2,0,0.3C1.1,11.7,1.2,12,1.2,12.3L1.2,12.3z M6.6,13.9c-0.1,0-0.2,0-0.3,0
		c-0.1-0.1-0.1-0.2-0.2-0.2c-0.1,0.2-0.3,0.2-0.5,0.2c0,0.1,0.1,0.3,0.1,0.3c-0.2-0.1-0.3-0.2-0.2-0.4c-0.1,0.1-0.3,0.2-0.5,0.1
		C4.9,14,5,14.1,5,14.1c-0.2-0.1-0.3-0.3-0.2-0.5c-1.2,0.3,0.4,1,1,1.1c1.7,0.4,3.8-0.5,4.8-0.7c-0.1,0-0.1,0-0.1-0.1
		c-0.4,0-0.9,0.1-1.3,0c-0.1,0-0.2,0.2-0.3,0.2c-0.2,0-0.1-0.2-0.3-0.2c0,0,0,0-0.1,0c-0.2,0.1,0.1,0.2,0,0.3
		c-0.1,0-0.2-0.1-0.2-0.2c0-0.1,0.1-0.1,0.1-0.2c-0.4-0.2-1-0.3-1.6-0.2c0,0.2,0,0.5-0.3,0.5C6.6,14.1,6.6,14,6.6,13.9L6.6,13.9z"/>
</g>
<g>
	<path class="st0" d="M9.5,9.4c0-0.3-0.3-0.6-0.9-0.8C8.8,8,8.8,7.5,8.5,7.4c-0.1,0-0.1-0.1-0.2-0.1v0.2c0,0,0.1,0,0.1,0
		c0.1,0.1,0.2,0.3,0.1,0.7c0,0.1,0,0.2,0,0.3C8.4,8.5,8.2,8.5,8,8.4C7.9,8.3,7.8,8.1,7.6,8c0.3-0.3,0.5-0.4,0.7-0.4V7.3l0,0
		c-0.2,0-0.5,0.2-0.8,0.5C7.2,7.5,6.9,7.3,6.7,7.3v0.2c0.2,0,0.4,0.2,0.7,0.4C7.3,8.1,7.1,8.3,7,8.4c-0.2,0-0.4,0.1-0.5,0.1
		c0-0.1,0-0.2,0-0.3c0-0.4,0-0.6,0.1-0.7c0,0,0.1,0,0.1,0V7.3l0,0c-0.1,0-0.1,0-0.2,0.1C6.3,7.5,6.2,8,6.3,8.6
		C5.8,8.8,5.5,9.1,5.5,9.4c0,0.3,0.3,0.6,0.9,0.8c-0.1,0.6-0.1,1.1,0.2,1.2c0.1,0,0.1,0.1,0.2,0.1c0.2,0,0.5-0.2,0.8-0.5
		c0.3,0.3,0.6,0.5,0.8,0.5c0.1,0,0.1,0,0.2-0.1c0.2-0.2,0.3-0.6,0.2-1.2C9.2,9.9,9.5,9.7,9.5,9.4z M8.5,8.7c0,0.1-0.1,0.2-0.1,0.4
		C8.3,9,8.3,9,8.2,8.9c0-0.1-0.1-0.1-0.1-0.2C8.2,8.7,8.4,8.7,8.5,8.7z M8.1,9.7C8,9.9,8,10,7.9,10.1c-0.1,0-0.2,0-0.4,0
		c-0.1,0-0.2,0-0.4,0C7.1,10,7,9.9,6.9,9.7C6.9,9.6,6.8,9.5,6.8,9.4C6.8,9.2,6.9,9.1,6.9,9C7,8.9,7.1,8.7,7.1,8.6c0.1,0,0.2,0,0.4,0
		c0.1,0,0.2,0,0.4,0C8,8.7,8,8.9,8.1,9c0.1,0.1,0.1,0.2,0.2,0.4C8.2,9.5,8.2,9.6,8.1,9.7z M8.4,9.6c0,0.1,0.1,0.2,0.1,0.4
		c-0.1,0-0.2,0.1-0.3,0.1c0-0.1,0.1-0.1,0.1-0.2C8.3,9.8,8.3,9.7,8.4,9.6z M7.5,10.6c-0.1-0.1-0.2-0.2-0.2-0.3c0.1,0,0.2,0,0.2,0
		c0.1,0,0.2,0,0.2,0C7.7,10.4,7.6,10.5,7.5,10.6z M6.9,10.1c-0.1,0-0.2,0-0.3-0.1c0-0.1,0.1-0.2,0.1-0.4c0,0.1,0.1,0.1,0.1,0.2
		C6.8,9.9,6.9,10,6.9,10.1z M7.5,8.1c0.1,0.1,0.2,0.2,0.2,0.3c-0.1,0-0.2,0-0.2,0c-0.1,0-0.2,0-0.2,0C7.4,8.3,7.4,8.2,7.5,8.1z
		 M6.9,8.7c0,0.1-0.1,0.1-0.1,0.2C6.7,9,6.7,9,6.7,9.1c0-0.1-0.1-0.2-0.1-0.4C6.7,8.7,6.8,8.7,6.9,8.7z M6.2,9.8
		C5.9,9.7,5.7,9.5,5.7,9.4c0-0.1,0.2-0.3,0.5-0.5c0.1,0,0.1-0.1,0.2-0.1c0,0.2,0.1,0.4,0.2,0.6C6.5,9.6,6.4,9.7,6.4,9.9
		C6.3,9.9,6.2,9.9,6.2,9.8z M6.6,11.2c-0.1-0.1-0.2-0.3-0.1-0.7c0-0.1,0-0.2,0-0.3c0.2,0,0.3,0.1,0.5,0.1c0.1,0.2,0.2,0.3,0.3,0.5
		C7.1,11,6.9,11.2,6.6,11.2C6.7,11.2,6.6,11.2,6.6,11.2z M8.6,10.5c0,0.4,0,0.6-0.1,0.7c0,0-0.1,0-0.1,0c-0.2,0-0.4-0.2-0.7-0.4
		c0.1-0.1,0.2-0.3,0.3-0.5c0.2,0,0.4-0.1,0.5-0.1C8.5,10.3,8.6,10.4,8.6,10.5z M8.9,9.8c-0.1,0-0.1,0.1-0.2,0.1
		c0-0.2-0.1-0.4-0.2-0.6C8.5,9.2,8.6,9,8.6,8.8c0.1,0,0.2,0.1,0.2,0.1C9.2,9,9.4,9.2,9.4,9.4C9.4,9.5,9.2,9.7,8.9,9.8z"/>
	<path class="st0" d="M6.7,7.3L6.7,7.3L6.7,7.3z"/>
	<ellipse class="st0" cx="7.5" cy="9.4" rx="0.4" ry="0.4"/>
	<path class="st0" d="M8.3,7.3L8.3,7.3L8.3,7.3z"/>
</g>
</svg>
