<?xml version="1.0" encoding="utf-8"?>
<!-- Generator: Adobe Illustrator 21.1.0, SVG Export Plug-In . SVG Version: 6.00 Build 0)  -->
<svg version="1.1" id="Layer_1" xmlns="http://www.w3.org/2000/svg" xmlns:xlink="http://www.w3.org/1999/xlink" x="0px" y="0px"
	 viewBox="0 0 16 16" style="enable-background:new 0 0 16 16;" xml:space="preserve">
<style type="text/css">
	.st0{fill:#61DAFB;}
</style>
<g id="base-layer">
	<path d="M10.6,0c0,0.1-0.2,0.1-0.3,0.2C10,0.3,9.8,0.5,9.6,0.6c0.1,0,0.2,0,0.3,0.1c0,0.1-0.2,0-0.2,0.1c0.2,0,0.6-0.1,0.9-0.1
		c-0.2,0.1-0.5,0.1-0.8,0.2C10,1,10.2,1.1,10.3,1.2c0,0.1-0.2,0-0.1,0c0.1,0.3,0.4,0.3,0.4,0.6c-0.1,0-0.1,0-0.2,0
		c-0.1,0.2,0.2,0.3,0.2,0.5c0,0.1-0.1,0-0.2,0c-0.1,0.1,0.2,0.4,0,0.6c-0.1,0,0-0.2-0.1-0.2c-0.1,0.1,0.1,0.4-0.1,0.5
		c-0.1,0,0-0.1-0.1-0.1c-0.2,0.1,0.1,0.4,0,0.5c0,0-0.1-0.1-0.2-0.1C9.9,3.7,10.2,3.9,10.1,4c0,0.1-0.1-0.1-0.2-0.1
		c-0.1,0.1,0.2,0.3,0.2,0.5c-0.1,0,0-0.1-0.1-0.1c-0.1,0.2,0.2,0.2,0.2,0.5c0,0.1,0,0-0.1,0c0,0.2,0.2,0.3,0.2,0.5
		c0.9,0.9,1.9,0.1,1.5-1c-0.1-0.4-0.6-0.8-0.5-1.2c0.2,0.1,0.2,0.2,0.3,0.3c0.6,0.4,1.8,0.3,2.2,0.8c-0.2-0.1-0.6-0.3-0.9-0.2
		c0.6,0.4,1.4,0.8,1.9,1.6c1.1,1.8,1.3,4.8,0.5,6.6c0.3,0.4,0.9,0.7,0.9,1.4c-0.5-1-1.3-1.4-2.3-1.2c-1.8,0.2-2.9,2.2-5,3.1
		c-0.5,0.2-1.2,0.5-2,0.5c-4.3,0.4-6.9-2.4-6.6-6c0.3-3.5,2.4-5.4,4.8-6.3c0.2-0.6,1.1-0.6,2-0.7c0.4-0.1,0.7-0.2,1.1-0.1
		C7.4,3,6.8,3.6,7,4.4C7.2,4.7,7.5,5,7.9,5C8.1,5,8.5,5,8.6,4.8c0.1-0.1,0.1-0.4,0.1-0.7c0.1-1,1-1.7,0.7-2.4
		c-0.1,0-0.1,0.1-0.2,0.2c-0.4,0-0.8,0.2-0.7,0.5c0,0.2,0.3,0.3,0.2,0.5C8.6,2.8,8.6,2.7,8.5,2.6C8.3,2.7,8.1,2.5,8,2.4
		c0-0.1,0.1,0.1,0.2,0c0-0.2,0.1-0.2,0.2-0.4C8.1,2.1,8.2,2.3,8,2.3c0-0.3,0.3-0.4,0.4-0.6C8.2,1.8,8.2,2,7.9,2c0,0.2-0.2,0-0.1,0.2
		c0,0-0.1,0-0.1,0c0,0.1,0.1,0.1,0.2,0.2c-0.1,0.1-0.3,0-0.3-0.1c-0.1,0,0,0.1-0.1,0.1C7.2,2.3,7.3,1.8,7.4,1.6c0.1,0,0,0.1,0,0.2
		c0.3-0.1,0.4-0.3,0.6-0.4c0-0.1-0.1-0.1,0-0.2C8.1,1.1,8.3,1.1,8.4,1c0.4-0.3,0.3-0.8,0.9-0.9C9.2,0.2,9,0.3,8.9,0.5
		c0.1,0.1,0.2-0.1,0.3,0c0,0.1-0.1,0.1-0.1,0.2C9.6,0.4,10,0.1,10.6,0L10.6,0z M5.8,6.1C5.2,6,4.8,6.8,5,7.4c-0.4,0-0.5,0.3-0.6,0.6
		C4.5,7.8,5,7.8,5.1,7.6c0.1-0.1-0.1-0.1-0.2-0.1c0.2-0.2,0.6-0.1,0.8-0.2c0.1-0.2-0.1-0.2-0.1-0.2c0.2-0.2,0.5,0,0.7-0.2
		c0-0.2-0.1-0.1-0.1-0.2c0-0.1,0.1-0.1,0.1-0.1C6.1,6.4,6,6.1,5.8,6.1L5.8,6.1z M9.9,9.1c-0.2,0.2-0.2,1-0.2,0.8
		c0.1,0.1,0.3-0.5,0.7-0.2c0,0.8-0.6,0.9-0.4,1.8c0.6,0.4,1.8,0.2,2.2,0.6c0.9-0.4,2-0.4,2.7,0c0.1-0.4,0.3-1.1,0.2-1.8
		c-0.1-0.6-0.2-1.4-0.6-1.5C14.3,8.7,14.2,9,14,9c0-0.1,0-0.3-0.1-0.3c-0.3,0.4-0.3,1.2-0.8,1.4c0.2-0.4,0.5-0.9,0.3-1.6
		c0-0.1-0.2,0-0.2-0.1c0.1-0.3,0-1.3-0.4-1.4c-0.4-0.1-0.6,0.3-0.6,0.6c-0.1,0,0-0.1-0.1-0.1c-0.2,0.2-0.3,0.5-0.6,0.6
		c0.1-0.2,0.3-0.5,0.1-0.8c-0.1,0-0.2-0.1-0.2-0.3c-0.5-0.3-1,0.2-1,0.7c0,0.4,0.4,0.6,0.5,0.9c0,0,0.1,0,0.2,0.1
		c0.1,0.1,0.3,1.1,0.3,1c0,0-0.1,0.2-0.1,0.4c0,0.2,0.1,0.4,0,0.5c-0.1,0.2-0.3,0.3-0.5,0.1c0.1,0,0.2,0,0.3-0.1
		c0-0.1-0.2-0.1-0.2-0.2c-0.1,0.2-0.6,0.1-0.5-0.1c0.1,0.1,0.3,0,0.4-0.1c-0.2-0.3,0-0.5,0.1-0.7c-0.1-0.1-0.1-0.2-0.2-0.4L9.9,9.1
		L9.9,9.1z M3.8,8C3.3,7.6,2.4,8.2,2.6,8.9c-0.9,0.2-0.3,1.3,0,1.5c0-0.1,0.1-0.1,0.1-0.2c0-0.1-0.1,0-0.1-0.1
		c0.1-0.3,0.5-0.3,0.6-0.6c0.1-0.2-0.2-0.1-0.1-0.2c0.2-0.2,0.7-0.2,0.7-0.6c0-0.1-0.1,0.1-0.2,0c0.1-0.2,0.5-0.2,0.6-0.4
		C4.1,8.2,4.1,7.9,4.1,7.8c-0.1,0-0.1,0-0.2,0C3.8,7.8,3.9,8,3.8,8L3.8,8z M1.2,11.2c-0.1,1.3,0.4,3,1.2,3.3c-0.6-0.8-0.2-3,0-3.9
		C2.2,10.3,2.1,10,1.8,9.9c-0.1,0.1-0.1,0.2,0,0.3C1.3,10.4,1.3,10.7,1.2,11.2L1.2,11.2z M7.6,12.6c-0.1,0-0.2,0.1-0.4,0.1
		c-0.1-0.1-0.1-0.2-0.2-0.3c-0.2,0.3-0.4,0.4-0.6,0.3c-0.1,0.2,0.1,0.4,0.1,0.5c-0.2-0.1-0.3-0.2-0.3-0.6C6,12.9,5.8,13,5.6,12.8
		c-0.1,0.2,0.1,0.4,0,0.4c-0.2-0.1-0.3-0.4-0.1-0.7c-1.4,0.6,0.4,1.4,1.1,1.5c1.9,0.3,4.1-1.2,5-1.7c0,0-0.1,0-0.1-0.1
		c-0.4,0-0.8,0.3-1.3,0.1c-0.1,0.1-0.1,0.2-0.3,0.3c-0.2,0-0.1-0.2-0.3-0.2c0,0,0,0.1-0.1,0.1c-0.2,0.2,0.1,0.3,0.1,0.3
		c-0.2,0-0.2-0.1-0.3-0.2c0-0.1,0.1-0.2,0.1-0.3C9,12,8.4,12,7.7,12.3c0,0.2,0,0.7-0.3,0.8C7.5,12.9,7.6,12.8,7.6,12.6L7.6,12.6z"/>
</g>
<g>
	<path class="st0" d="M10,6.1C10,6,9.9,5.9,9.8,5.9c0-0.2,0-0.3-0.1-0.3c0,0,0,0,0,0l0,0.1c0,0,0,0,0,0c0,0,0,0.1,0,0.2
		c0,0,0,0,0,0.1c0,0-0.1,0-0.1,0c0-0.1-0.1-0.1-0.1-0.1c0.1-0.1,0.1-0.1,0.2-0.1l0-0.1l0,0c-0.1,0-0.1,0-0.2,0.1
		C9.4,5.5,9.3,5.5,9.2,5.4l0,0.1c0.1,0,0.1,0.1,0.2,0.2c0,0-0.1,0.1-0.1,0.1c-0.1,0-0.1,0-0.2,0c0,0,0-0.1,0-0.1
		c0-0.1,0-0.2,0.1-0.2c0,0,0,0,0,0l0-0.1l0,0c0,0,0,0-0.1,0C9,5.5,9,5.6,9,5.8C8.8,5.9,8.6,6,8.6,6.1c0,0.1,0.2,0.2,0.4,0.3
		C8.9,6.7,9,6.9,9.1,6.9c0,0,0.1,0,0.1,0c0.1,0,0.2-0.1,0.3-0.3c0.1,0.1,0.2,0.1,0.3,0.1c0,0,0,0,0.1,0c0.1-0.1,0.1-0.2,0-0.4
		C10,6.3,10,6.2,10,6.1z M9.7,5.9c0,0,0,0.1,0,0.1C9.7,6,9.7,6,9.7,5.9C9.7,5.9,9.7,5.9,9.7,5.9C9.7,5.9,9.7,5.9,9.7,5.9z M9.7,6.2
		c0,0,0,0.1-0.1,0.1c0,0-0.1,0-0.1,0c0,0-0.1,0-0.1,0c0,0-0.1-0.1-0.1-0.1c0,0,0-0.1-0.1-0.1c0,0,0-0.1,0.1-0.1c0,0,0-0.1,0.1-0.1
		c0,0,0.1,0,0.1,0c0,0,0.1,0,0.1,0c0,0,0,0.1,0.1,0.1c0,0,0,0.1,0.1,0.1C9.7,6.1,9.7,6.2,9.7,6.2z M9.7,6.2c0,0,0,0.1,0,0.1
		c0,0-0.1,0-0.1,0C9.7,6.3,9.7,6.3,9.7,6.2C9.7,6.2,9.7,6.2,9.7,6.2z M9.5,6.5c0,0-0.1-0.1-0.1-0.1c0,0,0.1,0,0.1,0c0,0,0.1,0,0.1,0
		C9.5,6.5,9.5,6.5,9.5,6.5z M9.3,6.3c0,0-0.1,0-0.1,0c0,0,0-0.1,0.1-0.1C9.2,6.2,9.2,6.2,9.3,6.3C9.2,6.3,9.2,6.3,9.3,6.3z M9.5,5.7
		C9.5,5.7,9.5,5.8,9.5,5.7C9.5,5.8,9.5,5.8,9.5,5.7C9.4,5.8,9.4,5.8,9.5,5.7C9.4,5.8,9.4,5.7,9.5,5.7z M9.3,5.9
		C9.2,5.9,9.2,5.9,9.3,5.9C9.2,6,9.2,6,9.2,6c0,0,0-0.1,0-0.1C9.2,5.9,9.2,5.9,9.3,5.9z M8.9,6.3C8.8,6.2,8.7,6.2,8.7,6.1
		C8.7,6,8.8,6,9,5.9c0,0,0.1,0,0.1,0c0,0.1,0,0.1,0.1,0.2c0,0.1-0.1,0.1-0.1,0.2C9,6.3,9,6.3,8.9,6.3z M9.1,6.8
		c-0.1,0-0.1-0.1,0-0.3c0,0,0-0.1,0-0.1c0.1,0,0.1,0,0.2,0c0,0.1,0.1,0.1,0.1,0.2C9.3,6.7,9.2,6.8,9.1,6.8C9.1,6.8,9.1,6.8,9.1,6.8z
		 M9.8,6.4c0,0.1,0,0.2,0,0.2c0,0,0,0,0,0c-0.1,0-0.1,0-0.2-0.1c0-0.1,0.1-0.1,0.1-0.2C9.7,6.4,9.8,6.4,9.8,6.4
		C9.8,6.4,9.8,6.4,9.8,6.4z M9.9,6.2C9.9,6.2,9.8,6.2,9.9,6.2c-0.1,0-0.1-0.1-0.1-0.1c0-0.1,0-0.1,0-0.2c0,0,0,0,0.1,0
		C9.9,6,10,6.1,10,6.1C10,6.1,10,6.2,9.9,6.2z"/>
	<path class="st0" d="M9.2,5.4L9.2,5.4L9.2,5.4z"/>
	<path class="st0" d="M9.5,6C9.5,6,9.6,6,9.6,6.1c0,0.1,0,0.1-0.1,0.1c-0.1,0-0.1-0.1-0.1-0.1C9.3,6,9.4,6,9.5,6z"/>
	<path class="st0" d="M9.7,5.5L9.7,5.5L9.7,5.5z"/>
</g>
</svg>
