<?xml version="1.0" encoding="utf-8"?>
<!-- Generator: Adobe Illustrator 21.1.0, SVG Export Plug-In . SVG Version: 6.00 Build 0)  -->
<svg version="1.1" id="Layer_1" xmlns="http://www.w3.org/2000/svg" xmlns:xlink="http://www.w3.org/1999/xlink" x="0px" y="0px"
	 viewBox="0 0 512 512" style="enable-background:new 0 0 512 512;" xml:space="preserve">
<style type="text/css">
	.st0{fill:#FDEEEC;}
	.st1{fill:#E73C23;}
	.st2{fill:#C01818;}
	.st3{fill:#F39867;}
	.st4{fill:#D52716;}
	.st5{fill:#E0BE40;}
	.st6{fill:#FBE468;}
	.st7{fill:#CFE9EB;}
	.st8{fill:#A8C5C8;}
	.st9{fill:#CBA330;}
	.st10{fill:#30140D;}
	.st11{fill:#986531;}
	.st12{fill:#9E6E1D;}
	.st13{fill:#795136;}
	.st14{fill:#93C9DD;}
	.st15{fill:#603E35;}
	.st16{fill:#7C8A96;}
	.st17{fill:#A06E1E;}
	.st18{fill:#FBE467;}
	.st19{fill:#95C9DD;}
	.st20{fill:#613F35;}
	.st21{fill:#996531;}
	.st22{fill:#414C67;}
	.st23{fill:#A16F1E;}
	.st24{fill:#444F69;}
	.st25{fill:#E1BC40;}
	.st26{fill:#E1BB40;}
	.st27{fill:#E74024;}
	.st28{fill:#8C9AA3;}
	.st29{fill:#D1C4BC;}
	.st30{fill:#FBE367;}
	.st31{fill:#FBF29F;}
	.st32{fill:#31140D;}
	.st33{fill:#32140D;}
	.st34{fill:#33150D;}
	.st35{fill:#CBA332;}
	.st36{fill:#C9A231;}
	.st37{fill:#CAA231;}
	.st38{fill:#F9F196;}
	.st39{fill:#E4C345;}
	.st40{fill:#F49968;}
	.st41{fill:#C5A54A;}
	.st42{fill:#C4A449;}
	.st43{fill:#CAA22F;}
	.st44{fill:#C5A549;}
	.st45{fill:#C8A130;}
	.st46{fill:#C3A349;}
	.st47{fill:#C3A248;}
	.st48{fill:#F39767;}
	.st49{fill:#FAE266;}
	.st50{fill:#7F92A0;}
	.st51{fill:#8096A4;}
	.st52{fill:#F49967;}
	.st53{fill:#FAE365;}
	.st54{fill:#A8C4C7;}
	.st55{fill:#CAA232;}
	.st56{fill:#F8E166;}
	.st57{fill:#F9E165;}
	.st58{fill:#FAE366;}
	.st59{fill:#F9E064;}
	.st60{fill:#B52E31;}
	.st61{fill:#F1ECE2;}
	.st62{fill:#E23237;}
	.st63{fill:#FFFFFF;}
</style>
<title  id="title4242">hero3</title>
<desc  id="desc4244">Created with Sketch.</desc>
<path id="XMLID_149_" class="st0" d="M152.9,191.7h0.5c1.2,1.1,1.2,2.1,0,3.1h-0.2H153C152.9,193.7,152.9,192.7,152.9,191.7
	L152.9,191.7z"/>
<g id="XMLID_7_" transform="translate(-0.7,90.292679)">
	<path id="XMLID_146_" class="st1" d="M113.3,104.8v-3.1c0.3-1.3,0.7-2.6,1.1-3.9c0.4-1.8,1.9-1.8,3.4-1c1.2,0.6,2.3,1,3.6,1.2
		c1.9,0.5,3.7,0.8,4.1-1.6c0.2-1.5,1.5-1.7,3-0.5c5,4,10.1,4,14.7-0.4c4.2-3.9,8.2-8.1,11.7-12.4c9.3-11.7,22.9-19,40.2-21.9
		c6.9-1.2,13.2,0.6,18.8,3.9c10.5,6.4,16.3,14.5,16.4,25.1c0.1,5.1-0.4,10.1-2.1,15c-0.3,0.7,0,1.3,0.3,1.9c-0.4,1.1-1.2,1.7-2.8,1
		c-0.7-3.3-0.5-6.5-0.1-9.8c0.5-4.3,0.7-8.5-1.4-12.6c-1.1-2-2.9-3.7-3.8-5.8c-0.1-0.1-0.1-0.2-0.2-0.2c0.1,0.2,0.2,0.3,0.4,0.5
		c3.7,6,3.3,12.4,2.2,18.7c-0.6,3.7-0.4,7.4-0.2,11.1c-0.4,1.6-1.3,2.9-3.8,2.7c-2.2-5.7-0.4-11.3,0-16.9c0.2-2.5,0.6-5.3-1.2-7.7
		c-1.5-4.8-4-9-8.2-12.8c-3-2.8-6.7-3.5-11-3c-5.3,0.5-9.8,2.1-13.9,4.9c-6.7,4.6-11.6,10-15.4,16.2c-1.4,2.3-2,4.8-2.8,7.2
		c-1.1,3.4-2.4,6.7-4.2,9.9c-0.7-0.1-1,0.3-1.3,0.7c-5.9,7.7-14.4,11-26.1,10.1c-8.1-0.7-13.9-3.6-18.7-8.5
		C113.9,110.6,113.9,107.7,113.3,104.8L113.3,104.8z"/>
	<path id="XMLID_140_" class="st2" d="M162.3,110.7c-0.3-1.5,0.6-2.8,1.3-4c2.7-4.9,2.8-10.4,6.2-15.2c5-7,10.8-13.3,19.7-17.5
		c4.5-2.1,9.7-2.5,14.7-2c3.5,0.3,5.8,2.7,7.7,4.8c2.8,3,5.1,6.3,6.2,9.9c0.2,0.6,0.4,1.2-0.2,1.6c-1.9-1.9-3.2-4.3-5.7-5.8
		c-7-4.2-17.8-4.9-24.1,2.4c-2.5,3-4.9,6-6.3,9.4c-0.2,0.7-0.3,1.3-0.3,2c-0.1,0.6,0.3,1.1,1.1,1.2c0.8,0.2,1-0.5,1.3-1
		c0.6-0.9,0.8-1.9,0.6-3c3.7,0.8,4.6,3.2,5.6,5.3c0.3,0.7-0.4,2.2,1.1,2.2c1.6,0,3.4-0.5,3.8-2.5c3.9,4.2,1.8,8.1,0.1,11.7
		c-2.4,5.2-10.1,8.4-19.3,8.4C170,118.7,164.7,115.5,162.3,110.7C162.3,110.7,162.3,110.7,162.3,110.7z"/>
	<path id="XMLID_69_" class="st2" d="M226.4,108.3c-1.3,0.8-2.7,1.6-3.9,2.5c-1.2-3.5-1-7.2-0.3-10.8c1.2-6.9,1.4-13.6-2-20.2
		c-0.2-0.5,0.1-0.6,0.5-0.4c1,1.2,1.9,2.5,3,3.8c3.8,4.4,3.8,9.4,3.2,14.3C226.4,101.1,226.6,104.7,226.4,108.3
		C226.4,108.3,226.4,108.3,226.4,108.3z"/>
	<path id="XMLID_68_" class="st3" d="M208.1,67.3c4.6-0.7,5.1-0.2,3.8,2.8c1.3,0.3,3.6-0.6,3.8,0.4c0.4,1.7,2,1.7,3.4,2.3
		c1.3,0.5,0.8,1.6,0.1,2.3c-0.8,0.8-1.8,2.1-3.5,1.5c-1.4-0.5,0.2-1.4,0-2.4c-1.2-0.2-3.2,0.1-3.1-1.8c0.1-0.7-1.2-0.6-1.9-0.6
		c-1.8,0.1-2.3-0.4-1.5-1.7c0.8-1.2,0.4-1.6-1.3-1.5c-1.4,0.1-2.7,0-2.3-1.5c0.1-0.7-0.4-0.7-1.1-0.7c-0.7,0-1.8,0.1-1.8-0.7
		c-0.1-0.7,1.1-0.7,1.7-1.1c0.5-0.2,1.1-0.4,1.6-0.6c0.7-0.2,1.4-0.6,2.1-0.2c0.8,0.5,0.7,1.2,0.4,1.8
		C208.6,66.3,208.4,66.7,208.1,67.3C208.1,67.3,208.1,67.3,208.1,67.3z"/>
	<path id="XMLID_67_" class="st4" d="M220.5,79.4c-0.2,0.2-0.4,0.3-0.5,0.4c-0.6-0.3-0.8-0.9-1-1.5C220.2,78.2,220.2,79,220.5,79.4
		L220.5,79.4z"/>
</g>
<g id="XMLID_200_" transform="translate(64.3,-0.70732088)">
	<g id="XMLID_28_" transform="translate(12,0)">
		<path id="XMLID_148_" class="st5" d="M135.1,220.1c0.7-0.9,1.6-1.8,2.3-2.7c3.9-4.4,9.3-7.7,14.7-11c2.8-1.6,5.4-3.3,8.5-4.5
			c0.8-0.3,1.6-0.8,2.7-0.6c3.9-1,7.4-2.7,11.8-3.2c11.7-1.2,21.4,1.6,29.8,7.7c1.4,1,2.7,2.1,3.9,3.2c1.5,0.6,1,1.6,0.5,2.3
			c-2.5,4.4-5.6,8.5-12.3,9.8c-1.8,0.3-2.2,1.4-2.5,2.6c-1.4,5.1-3.6,9.8-8.2,13.8c-4.5,3.9-9.8,6.4-16.6,6.8
			c-3,0.2-5.9,0.6-8.9,0.3c-1.6-0.2-2.3,0.5-2.5,1.6c-0.1,0.7-0.3,1.3-0.2,2c0.4,3,0.3,6.1,0.1,9.1c-0.1,1.2,0.5,1.7,2.1,1.8
			c1.9,0.1,3.8-0.2,5.7,0.3c0.8,0.7,0,0.9-0.6,1.1c-1,0.2-2,0.2-3.6,0.2c5.8,2.4,11.6,4.2,16.9,6.9c1.5-1.7-0.8-3.7,0.8-5.3
			c3,0.2,5.7,1.1,7.5,3c0.4,1.8,0.6,3.5-0.2,5.3c-2.3,0.9-4.1-0.4-6.4-0.8c-0.2,2.9-0.5,5.8,1,8.6c-0.1,0.7-0.7,0.8-1.5,0.9
			c-4.7,0.6-9.1,1.6-13.5,2.8c-0.6,0.2-1.3,0.2-1.9,0c-1.3-1.4-0.7-3-0.5-4.5c0.4-2.5,0.3-4.8-0.1-7.3c-0.3-2-1.5-3.3-3.5-4.4
			c-4.1-2.1-8.5-4.1-12.2-6.7c-7.3-5.3-10.6-12.2-13.4-19.4C132.2,233.3,132.8,226.6,135.1,220.1L135.1,220.1L135.1,220.1z"/>
		<path id="XMLID_147_" class="st6" d="M166.1,259.7h-6.9c-1.6,0-2.4-0.3-2-1.9c0.7-2.9,0.5-5.8,0.1-8.6c-0.2-1.4,0.2-2.6,0.3-3.9
			c0-1.1,1.2-1.4,2.4-1.3c5.7,0.4,11.1-0.2,16.7-1.6c1.7-0.4,3-1.2,4.3-2c5.4-3.2,9.1-7.3,11.1-12.3c0.7-1.7,1.4-3.4,1.6-5.2
			c0.1-1.5,1.1-2.2,3-2.5c5.2-0.7,12.1-6.9,12.4-10.8c0-0.2-0.2-0.4-0.3-0.6c1.5-1.7,3.7-1.8,6.2-2c2-0.2,4-0.9,5.9-1.6
			c3.2-1,5.4-0.6,8.2,1.3c10.6,7.1,16.8,16.1,19.7,26.7c2.7,9.4,3,18.8,0.2,28.2c-1.5,5.1-5,9.6-8.3,14.1c-1.4,1.9-3,3.6-4.5,5.4
			c-1,0.5-1.9,0.2-2.8,0.1c-13.9-3.3-26.8-8.1-36.4-16.7c-6.9-6.2-11.1-13.8-12.7-22.1c-0.1-0.4,0-0.9-0.3-1.2
			c-0.2-0.2-0.4-0.2-0.6-0.1c-5.2,3.7-11.4,5.4-18.5,4.9c-2.1-0.2-3.2,0.3-2.9,2.2c0.3,2,0.1,4,0.1,6c0,2.4,0.4,2.7,3.3,3
			c9.8,1.2,18.9,3.7,27.6,7.3c9.4,3.9,17,9.5,20.9,17.4c1.8,3.7,4.9,5.9,9.3,7.2c1,0.3,2.3,0.5,2.1,1.8c-2.2,0.9-4.3,0.5-6.3-0.3
			c-1.9-0.8-3.8-1.6-5.8-2.5c-0.7-0.4-1.4-0.9-1.7-1.6c-0.6-1.2-0.7-2.5-1.6-3.6c-0.3-0.5-0.5-1-0.7-1.5c-2-5.8-6.7-9.7-13.4-12.3
			c-2.8-1.1-5.4-2.5-8.5-3.2c-0.5-0.2-1-0.5-1.2-0.9c-2.3-0.9-4.7-1.8-7-2.6c-0.5,0.2-1.1,0.3-1.6,0.2
			C174,261.5,169.8,261.3,166.1,259.7L166.1,259.7L166.1,259.7z"/>
		<path id="XMLID_145_" class="st7" d="M293.5,78.5c0.1-0.3,0.1-0.9,0.3-1c1-0.3,1.1,0.5,1.3,0.8c1.6,3.2,3.2,6.3,4.8,9.5
			c3.1,6.3,6,12.7,9,19c1,2.1,1.1,4,0.8,6.2c-0.5,7.2-0.3,14.5-0.7,21.8c-0.5,9.1-0.7,18.2-1.3,27.3c-0.2,3.4-0.2,6.8-0.4,10.2
			c-0.5,9.6-0.8,19.2-1.3,28.8c-0.3,8.5-1.2,17.2-1,25.7c0,1.2-1.8,3,1.2,3.7c-3.9,1.3-8,0.9-12,0.2c-1.5-1.2-1-2.6-1-4v-85.1
			c0-8.1-0.2-16-0.2-24.1c0-9-0.3-17.9-0.1-26.9C292.9,86.8,291.7,82.5,293.5,78.5L293.5,78.5L293.5,78.5z"/>
		<path id="XMLID_144_" class="st8" d="M293.5,78.5c0.8,50.8,0.5,101.5,0.6,152.2c-3.5,1.2-7,1.2-10.5,0c-0.3-6.7-0.6-13.5-1-20.2
			c0-0.4,0-0.7-0.1-1.2c-0.2-7.3-0.3-14.5-0.7-21.8c-0.5-8.8-0.7-17.7-1.2-26.5c-0.3-8.1-0.8-16.2-1.1-24.2
			c-0.2-8.6-0.7-17.2-1.1-25.8c0-0.7-0.2-1.6,0.1-2.2C283.6,98.7,288.1,88.5,293.5,78.5L293.5,78.5L293.5,78.5z"/>
		<path id="XMLID_143_" class="st9" d="M220.9,336.8c-0.2,0.2-0.4,0.4-0.6,0.6c-0.5,0.8-1.5,1.1-2.5,1.4c-7.6,2.1-15.4,3.5-23.6,3.3
			c-6.5-0.2-13,0.4-19.4-1.2c-0.5-0.2-1.2-0.2-1.6-0.5c0-0.8-0.7-1.2-1.4-1.6c-5.1-2.4-5.8-6.2-6.2-10.3c-0.4-4.7,1-9.2,1.8-13.8
			c0.8-4.2,2.3-8.4,1-12.7c-0.6-1.2-0.1-1.7,1.5-1.6c8,0.6,15.9-0.5,23.8-0.3c3.2,0.1,4.1,0.7,4.2,3c0.5,9.4,5.7,17.4,13,24.6
			c2.4,2.4,5.3,4.4,8.1,6.7C219.9,335.1,221.1,335.6,220.9,336.8L220.9,336.8L220.9,336.8z"/>
		<path id="XMLID_142_" class="st5" d="M220.9,336.8c-4.8-4-10.1-7.7-14-12.3c-5.5-6.6-9.5-13.5-9.5-21.5c0-1.6-1-2.1-3.1-2.2
			c-7.6-0.1-15.3,0.8-23,0.5c-1,0-2.9-1.2-2.9,0.9c0.2-3-2.3-3.9-5.4-4.6c-0.8-0.2-1.6-0.8-2.7-0.8c-1.5-0.3-3-0.7-3.9-1.6
			c-1.5-1.6-0.6-3.6,1.9-3.6c4.5-0.1,8.9-0.9,13.5-0.5c5.3,2.5,11,3.8,17.2,3.4c4-0.2,8.3-0.1,12.1-1.6c0.6-0.2,1.3-0.3,1.9-0.1
			c0.8,0.8,0,1.6-0.4,2.2c-1,1.6-2,3-3.2,4.9c4.3-0.5,8.4-0.3,12.4-0.7c5.8-0.5,11.7-0.8,17.4-1.3c2.3-0.2,4.5-0.8,6.7-1.2
			c2.2-0.2,2.3-1.1,1.4-2.4c-0.1-1,0.8-1.2,1.7-1.5c1.1-0.4,2.2-0.9,3.3-1.3c3-1.3,2.3-3.5,2.2-5.6c0.8-0.3,1.5,0.1,2,0.6
			c1.9,1.7,3.7,3.4,5.5,5.2c1.1,1,0.8,1.9-0.3,2.8c-1.8,1.4-3.3,3-5.4,3.9c-3.8,1.8-4.5,4.4-3.7,7.6c0.4,1.6,0.5,3.1,0.1,4.6
			c-0.5,0.7-0.8,1.6-1.1,2.5C239.3,323.4,232.3,331.3,220.9,336.8L220.9,336.8z"/>
		<path id="XMLID_141_" class="st1" d="M202.6,389.2c-5.6,0.4-11.2,0.9-16.9,1.3c-1.8,0.3-1.7-0.8-1.9-1.6c0-1.8,0.1-3.7,0-5.6
			c0-0.8,0.5-2.1-1.2-2.1c-1.6-0.2-3.4-0.2-4.2,1.2c-1,1.7-2.1,3.4-3.1,5c-0.4,0.7-1,1.3-1.3,2c-0.8,1.6-2.4,2.2-4.6,1.9
			c-3.8-0.5-7.7-0.7-11.7-1.2c-1.3-0.2-2.7-0.2-3.7-1c-1.6,0-2.4-0.5-1.7-1.8c4.6-7.4,6.5-15.6,11.5-22.9c0.8-0.5,1.8-0.3,2.8-0.1
			c15.9,3.3,31.8,3.5,47.8,0.8c1.3-0.2,2.4-0.3,3.7-0.6c1.7-0.2,3.4-0.4,5-0.9c1.9-0.1,3.6-1.4,5.7-0.5c2,6.1,3.3,12.2,4.6,18.4
			c0.1,0.6,0.5,1.3-0.5,1.7c-1.2,1.3-3.2,1.6-5,2.1c-3.6,0.8-7.2,1.6-10.7,2.5c-2.4,0.6-3.5-0.2-4-2.1c-0.5-2-0.6-3.9-1-5.9
			c-0.2-1.3-0.7-2.1-2.7-1.9c-1.8,0.2-3.8,0-3.9,2.1c-0.1,2.1,0.1,4.3-0.1,6.4C205.4,388,205.5,389.7,202.6,389.2L202.6,389.2
			L202.6,389.2z"/>
		<path id="XMLID_139_" class="st9" d="M135.1,220.1c0.5,2.1-0.5,4-0.7,6c-1.6,13,3.4,24.1,15.1,33.4c2.9,2.2,6.5,4,10.1,5.5
			c4.3,1.7,5.3,4.5,5.5,7.9c0.2,3.1-1,6.2-0.6,9.3c-0.5,1.4-2.3,1.2-3.6,1.7c-3,0.6-6,0.7-9,0.8c-1.4,0.1-2.7,0.2-4,0.1
			c-3.5-0.3-4.3-1.1-4.7-3.8c-0.4-3-0.6-6.1-1.2-9c-0.5-2.5-3.2-3.9-5.6-5.1c-4.2-2.2-7.6-5.2-10.8-8.3c-5.6-5.5-5.9-11.7-3.5-18.1
			C124.6,232.9,129,226.1,135.1,220.1L135.1,220.1L135.1,220.1z"/>
		<path id="XMLID_138_" class="st10" d="M160.8,283.7c0.7-1.2,2.5-0.9,3.6-1.7c5.5-1.3,11-2.7,16.9-3.5c4.1-0.7,4.7-2.9,4.2-5.6
			c-0.1-0.7,0-1.5,0.7-2.1c0-1.9,0.1-3.9,0.1-5.8c8,2.4,15.6,5.2,20.6,10.8c1.5,1.7,2.7,3.5,2.9,5.7c-0.4,1.3-1.7,2.1-3,2.9
			c-2,1.3-2.9,2.8-2.7,4.8c0.1,0.9,0.1,1.9-0.3,2.8c-0.2,0.3-0.5,0.6-1.1,0.7c-7.7,2.7-15.8,2.8-24,1.4c-2.7-0.5-5-1.4-7.1-2.7
			c-0.6-0.5-1-1-0.6-1.7c0.3-2.5-0.8-4.2-4.2-4.7C165,284.6,162.9,284.1,160.8,283.7L160.8,283.7L160.8,283.7z"/>
		<path id="XMLID_137_" class="st5" d="M225.5,290.9c-2.2-1.6-5.3-2-7.6-3.3c-1.5-0.8-2.4-1.7-3.1-3c-3.9-8.5-11.4-14.6-21.2-19.1
			c-7.5-3.5-16-4.9-24.1-7.2c-2-0.6-4.1-0.1-6.3-0.6c-1.1-0.2-1.6-0.5-1.7-1.4c-0.2-3.3,0.4-6.5-0.4-9.8c-0.2-1.1,1-0.9,1.8-0.9
			c2.9-0.1,5.8,0.1,8.6-0.2c4.3-0.5,8.1-2.1,11.4-4.5c0.4-0.3,0.8-1.1,1.6-0.7c0.4,0.2,0.6,0.9,0.7,1.4c0.7,6.9,4.7,12.9,9,18.8
			c4.5,6,11.2,10,18.9,13.3c3.7,1.6,7.5,3.4,11.5,4.6c3.8,1.2,8,2,11.9,3c-0.7,0.9-1.4,1.8-2.1,2.8c0.7,0.7,2,0.1,2.8,0.7
			c-4.1,0.4-6,3.2-8.7,5.2C227.5,290.4,226.9,291.3,225.5,290.9L225.5,290.9z"/>
		<path id="XMLID_136_" class="st11" d="M135.6,405.6c-1.3-1.4-3.3-2.1-5-3.3c-2-1.3-1.9-2.1,0.2-3.2c5.1-2.5,10.8-3.9,16.1-6.2
			c1-0.4,2-0.2,3,0.2c2.1,0.2,3.5,1.5,5.1,2.4c4,2.6,8,5.3,12.7,7.2c0.7,0.2,1.2,0.7,1.6,1.2c2,0.9,2.5,2.2,2.7,4
			c0.2,4.1-0.8,8.1-2,12c-0.6,2.1-2.5,2.7-5.3,1.8c-2.7-0.8-4.7-2.5-7.2-3.5c-0.7,0-1.3-0.2-1.8-0.6c-6.4-3.7-12.8-7.4-19.2-11.2
			C136.1,406.2,135.8,406,135.6,405.6C135.6,405.6,135.6,405.6,135.6,405.6z"/>
		<path id="XMLID_135_" class="st12" d="M173.2,340.4c2.4-0.8,4.6,0.6,6.9,0.7c8.4,0.4,16.8,0.7,25.1-0.3c5.2-0.6,10.2-2,15.1-3.4
			c-0.1,3.9,0,7.7,1.3,11.5c-0.8,1.6-2.9,1.7-4.6,2.1c-7.7,1.6-15.6,2.9-23.8,2.7c-4.3-0.1-8.6-0.2-12.7-1.4c-3.1-0.9-5.7,0-8.5,0.8
			C172.7,348.9,173.2,344.7,173.2,340.4L173.2,340.4L173.2,340.4z"/>
		<path id="XMLID_134_" class="st11" d="M228.9,403.8c3.5,3.3,7.7,5.9,11.7,8.8c2.3,1.7,2.1,2.5-1,3.5c-2.2,0.7-4.7,0.7-7,0.8
			c-0.8,0.6-1.9,0.7-3,0.7c-8.2-0.2-16.1,0.7-24.2,1.3c-0.8,0.1-1.7,0.1-2.5-0.2c-3.2-0.2-6.3-0.4-9.4-0.5c-1.6-0.1-1.5-0.6-1-1.4
			l7.6-11.8c0.5-0.9,1.5-1.1,2.5-1.1c1.5-0.8,3.2-0.7,4.8-0.6c6.3-0.2,12.5,0.2,18.8-0.2C227.4,402.9,228.4,403.1,228.9,403.8
			L228.9,403.8L228.9,403.8z"/>
		<path id="XMLID_133_" class="st5" d="M160.3,424.4c4.2-0.7,7.4,0.4,9.7,3.5c1.6,2.1,3.6,4.2,5.4,6.2c1.4,1.7,0.6,2.6-1.9,2.7
			c-1.6,0.1-3.3,0.1-4.9,0c-7.9-0.7-15.7,0.2-23.6,0.5c-2.3,0.1-3.9-0.6-5.5-1.8c-7-5.5-13.3-11.5-20.5-16.8
			c-3.2-2.3-1.7-4.1,2.2-6.2c2.1-1.2,4.6-2.1,7-2.9c0.6,2.3-0.6,4.4-1.1,6.5c-0.2,1.2-0.3,2.1,0.8,3c5,4,9.5,8.4,13.6,12.9
			c0.8,0.9,1.8,2.5,3.7,0.8c4.3-1.5,7.5-4.2,11.1-6.4C157.6,425.8,158.8,424.9,160.3,424.4L160.3,424.4L160.3,424.4z"/>
		<path id="XMLID_132_" class="st5" d="M242.9,424.6c4.6,1.6,9.3,2.9,13.9,4.6c2.7,1.1,2.8,2.6,2.5,4.4c-0.2,1.9-1.9,2.5-4.2,2.6
			c-4,0.2-8,0.7-12,1c-3.2,0.2-6.4-0.5-9.7-0.1c-8.4,1.2-17,1.1-25.5,1c-4.9-0.1-5.6-0.7-5.6-4.4v-4.4c0-0.7-0.1-1.4,1.1-1.6
			c1.1-0.1,1.5,0.6,2,1.1c0.6,0.6,1.2,1.2,1.6,1.8c2.3,3.6,5.8,4.8,11,3.9c4-0.7,8.2-0.8,12.3-0.7c2.1,0.1,3.7-0.5,4.8-1.9
			C237.9,429.7,239.8,426.7,242.9,424.6L242.9,424.6L242.9,424.6z"/>
		<path id="XMLID_131_" class="st13" d="M160.3,424.4c-4,3-8.5,5.5-12.8,8.2c-0.6,0.4-1.3,0.7-2,0.2c-2.3-1-3.5-2.9-5.1-4.4
			c-3.1-3.2-6.4-6.3-10-9.2c-1.5-1.2-2.2-2.5-1.7-4.2c0.6-1.8-0.1-3.8,1.4-5.3c0.8-0.5,1.7-0.2,2.4,0.1c7.6,3.1,14.7,6.8,22.1,10.4
			c0.5,0.2,1.1,0.7,1.2,1.2C154.6,424.1,154.9,424.4,160.3,424.4C160.3,424.4,160.3,424.4,160.3,424.4z"/>
		<path id="XMLID_130_" class="st13" d="M302.8,242.7c3.3,0.3,6.7-0.5,9.9,0.5c-2,1.2-4.4,1.2-6.6,1.1c-3.5,0-6.9,0.7-10.2,1.3
			c-1.6,0.3-3.4,3.3-2.9,4.4c0.3,0.7,1.1,0.6,1.7,0.5c5.4-0.7,10.9,0.1,16.3-0.6c1-0.1,2.2-0.3,2.5,0.8c-1,0.5-1.8,1-2.8,1.4
			c-2.5,1.1-5.3,1-8.1,1.1c-3.3,0.1-6.5,0-9.8,0c-1.9,0-3.1,0.7-3.4,2.2c-0.3,1.6,0.4,2.6,2.7,2.6c3.3,0.1,6.7,0.1,10-0.2
			c2.7-0.2,5.5-0.8,8.1,0.5c-0.4,0.4-1,0.8-1.4,1.3c-0.6,0.8-1.7,1.1-2.8,1c-3.7-0.1-7.4,0.6-11.1,0.6c-1.3,0-3.1-0.7-3.6,0.9
			c-0.4,1.4,1.6,3.3,3.6,3.5c2.3,0.2,4.6,0.3,6.8,0.7c1.5,0.2,3.1,0.2,4.2,1.1c-0.4,1.2-2.2,2.1-1.4,3.5c-1.7,0.7-3.4,0.1-5,0
			c-1.4,0-3-0.6-3.9,0.6c-1,1.1-0.5,2.1,0.3,3.1c0.3,0.3,0.4,0.7,0.2,1.1c-1.5,1.2-3.2,0.7-5,0.7c-1.7-0.7-3.8-0.8-5.2-2.1
			c3.3-5.9,2.5-8.7-3.3-13.2c-2.2-1.7-2.1-3.9,0.7-5.4c4.2-2.2,4.8-4.4,2.3-8.5c-1.2-1.9-3.3-2-5.4-2.1c0.3-2.1,3-1.5,4.6-2.3
			c0.6-0.4,1.3-0.6,2.1-0.6h13.2C301.5,242.2,302.1,242.3,302.8,242.7L302.8,242.7L302.8,242.7z"/>
		<path id="XMLID_129_" class="st13" d="M242.9,424.6c-1.9,2.7-4.2,5.2-7,7.4c-1,0.7-2.1,0.7-3.3,0.7c-5.6-0.1-11.2,0.2-16.9,0.8
			c-2.5,0.3-4.7-0.2-6.3-2c-1.7-1.8-3.4-3.5-5.9-4.8c-1.1-0.5-0.5-1.2-0.6-1.9c0.4-0.4,1.2-0.6,1.8-0.6c8.5-0.2,16.6-2.2,24.8-3.4
			c1.1-0.2,2.2-0.5,3.4-0.1C235.8,422.7,239.8,423.1,242.9,424.6L242.9,424.6z"/>
		<path id="XMLID_128_" class="st11" d="M280.9,245c3.4-0.9,4.5-0.7,6,2c3,4.7,2.1,6.7-2.9,9.2c-2.5,1.2-2.3,3.1-0.1,4.7
			c3.4,2.4,5.3,5.4,5.4,9c0,1.8-1.1,3.2-2.9,4.3c-2.9,0.8-4.9-0.6-6.5-1.9c-3-2.5-4.7-5.7-5.3-9.2c-0.6-3.8-0.3-7.6,0-11.3
			c0.1-1.2,0.6-2.1,1.4-3.1C277.8,247.4,279.6,246.4,280.9,245L280.9,245L280.9,245z"/>
		<path id="XMLID_127_" class="st12" d="M171.3,289.7c0.2,0.6,0.4,1.2,0.6,1.7c-4.5-0.2-8.9,0.7-13.4,0.5c-0.8-0.1-1.8,0.1-2.1,0.8
			c-0.3,0.8-0.3,1.6,0.6,2.2c1.1,0.7,2.1,1.2,3.2,1.8c-7.1,0.8-14.1,0.9-21-0.8c-1.9-0.5-3.7-1.2-5.2-2.2c-2.5-1.9-2.1-4.1,1-5.4
			c2.7-1.2,5.5-1.9,8.4-2.1c6.6-0.4,13.2-0.3,19.7,0.4C166.2,287,168.9,288.2,171.3,289.7L171.3,289.7L171.3,289.7z"/>
		<path id="XMLID_126_" class="st11" d="M257.2,267.6c1.5-1.7,3.2-3.3,5.2-4.6c3.6-2.3,4.4-2.2,8.1-0.1c1.7,0.8,2.8,2.1,3.6,3.4
			c1.9,2.9,4,5.5,7,7.8c1.6,1.2,2.2,2.7,1,4.4c-0.4,3.5-1.1,6.9-2.2,10.3c-2.4-1-3.5-2.9-5.1-4.4c-5.2-5.1-10.8-9.9-16.2-14.7
			C257.8,269.1,256.7,268.6,257.2,267.6L257.2,267.6L257.2,267.6z"/>
		<path id="XMLID_125_" class="st1" d="M172.1,353.1c2.2-2.3,5.4-2.4,8.3-1.6c5.6,1.6,11.4,1.6,17.2,1.5c6.4-0.1,12.5-1.5,18.8-2.5
			c1.9-0.3,3.7-0.8,5.3-1.6c2.4-0.2,3.4,1,3.8,2.6c0.2,0.9,0.5,1.9,0.7,2.8c-1.4,1.2-3.4,1.1-5.2,1.5c-1.8,0-3.5,0.4-5.1,0.9
			c-12.5,1.6-25.1,2.5-37.9,1.6c-3-0.2-6.2,0.3-8.8-1.2C170,355.7,171,354.4,172.1,353.1L172.1,353.1L172.1,353.1z"/>
		<path id="XMLID_124_" class="st14" d="M307.3,233.9c2.5,0.6,6.6-0.7,8.7-2.7c0.7-0.7,1.6-1.6,1.9-2.5c0.5-1.6,1.5-2,3.3-1.2
			c1.8,0.7,4.1,1.2,2.2,3.3c-1.4,0.2-2.4,0.4-3.3,1.4c-4,4.8-10.2,6.8-17.3,7.1c-5.5,0.2-11.1,0.2-16.7,0
			c-7.5-0.2-14.1-2.1-18.4-7.3c-0.8-1-1.9-1.1-3.2-1.2c-1-0.7-1-1.7,0-2.3c1.2-0.8,2.8-1.3,4.5-1.4c0.7-0.1,0.6,0.7,0.8,1.2
			c1.4,3,4.1,4.7,7.7,5.8c1.2,0.3,2.2,0.2,3.3-0.2c0.4-0.4,1.1-0.5,1.7-0.6c0.8,0,1.6,0,2.4,0.2c3.1,0.4,6.3,0.1,9.4,0.2
			c4,0.1,8.1-0.1,12.2,0.1C307,233.8,307.1,233.9,307.3,233.9L307.3,233.9L307.3,233.9z"/>
		<path id="XMLID_123_" class="st12" d="M207.7,403.8h-4.8c0-4.8,0.5-9.8-0.3-14.6c2-0.1,2.1-1.2,2.1-2.4c0-2.4,0.1-4.8,0-7.1
			c-0.1-1.6,0.8-2.1,2.7-2.2c1.2,0,2.3,0,3.4-0.2c1.7-0.4,1.9,0.2,2,1.2c0.2,2.3,0.8,4.5,1.1,6.8c0.1,2.1,1.4,2.4,3.6,2
			c0.6,0.4,0.6,1.1,0.7,1.6c1.1,3.9,3.6,5.4,8.7,5.2c0.6,0,1.4-0.2,1.9,0.3c0,1.1,0,2.1,0.1,3.1c-2.2,1.2-4.7,0.7-6.9,0.2
			c-4.7-1.2-7.9-3.6-9.3-7.2c-0.3-0.8,0-2.1-2-1.9c-1.8,0.2-2.1,1.2-2.1,2.5v9.9C208.5,402.1,208.6,403.1,207.7,403.8L207.7,403.8
			L207.7,403.8z"/>
		<path id="XMLID_122_" class="st9" d="M207.7,403.8c0-4.5,0.2-9.1-0.1-13.6c-0.2-2.6,2.4-2.1,4-2.5c2.2-0.6,1.3,1.2,1.4,1.7
			c1.9,5.8,6.6,8.3,15.9,8.1v6.2c-1.7-0.8-3.3,0.1-5,0.1C218.5,403.8,213.1,403.8,207.7,403.8L207.7,403.8z"/>
		<path id="XMLID_121_" class="st6" d="M149.5,199c0.7-0.4,1.6-0.7,2.3-1.2c2.4-0.7,4.5-0.1,6.5,1.1c1.6,0.9,3.4,1.6,5,2.4
			c-8.6,3.9-16.3,8.5-23.1,14.1c-0.8,0.7-1.8,1.3-2.8,2c1.2-3.3,1.8-6.7,1.6-10c-0.1-2,2.8-2.1,3.1-3.8c1.5-0.3,2.3-1.3,3.4-2.1
			C146.2,199.9,147.6,199.2,149.5,199L149.5,199L149.5,199z"/>
		<path id="XMLID_120_" class="st15" d="M233,420.8c-9.9,1.7-19.6,4-29.9,4c-1.3-2.1,0.4-4.2,0-6.2c3.8-1.2,8-0.8,11.9-1.3
			c5.8-0.7,11.9-0.7,17.8-0.5C233.2,418.1,233.1,419.5,233,420.8L233,420.8L233,420.8z"/>
		<path id="XMLID_119_" class="st9" d="M242.7,310.6c-0.8-3-1.3-5.9-1-9c0.1-1.5,1.9-2.2,3.2-3c1.8-1.1,3.4-2.3,5.1-3.6
			c2.8-2.1,2.9-2.2,0.1-4.4c-1.9-1.5-2.9-3.6-5.6-4.6c-2.1,0.4-3.7-0.3-5.1-1.4c1.7-1.1,3.4-2.1,5.1-3.2c2.4,1.4,4,3.4,5.9,5.1
			c1.6,1.5,3.2,3,5.3,4.1c2,1.2,2.3,2.6,1,4c-1.6,1.6-1.1,2.8,0.7,3.9C252.8,303,247.7,306.6,242.7,310.6
			C242.7,310.6,242.7,310.6,242.7,310.6z"/>
		<path id="XMLID_118_" class="st9" d="M245.1,281.1c3.6-2.2,7.2-4.5,10.8-6.7c3.8,1.6,6.6,4.1,9.9,6.2c2.2,1.5,4.1,3.2,6.5,4.6
			c-5.7,3.6-9.8,8.5-14.4,12.9c-1.8-0.7-1.9-1.6-1.1-2.9c1.8-3,1.8-3-1.6-5.2C251.2,287.5,248,284.4,245.1,281.1L245.1,281.1
			L245.1,281.1z"/>
		<path id="XMLID_117_" class="st5" d="M218.7,365.1c-11.2,2.2-22.7,3.1-34.4,2.3c-7-0.5-13.8-1.3-20.5-2.9c0.1-1.1,0.8-1.9,1.7-2.6
			c1.6-0.4,3.1-0.1,4.6,0.2c7.2,1.3,14.6,1.7,22,1.7c7.4,0,14.9-0.6,22.2-2c0.8-0.2,1.7-0.2,2.5-0.3c0.3,0,0.6,0.1,1,0.2
			C218.8,362.7,218.1,364,218.7,365.1L218.7,365.1L218.7,365.1z"/>
		<path id="XMLID_116_" class="st5" d="M169.1,357c8.2,0.8,16.4,1.1,24.7,0.8c7.5-0.2,15.1-0.8,22.5-1.7c0.7,1,1.8,1.9,2.4,3
			c-0.6,0.8-1.8,1-3,1.2c-11.9,1.8-24,1.5-36,1.4c-3.2,0-6.5-0.4-9.7-0.8c-1.2-0.2-2.3-0.3-3-1.2C167.5,358.6,167.9,357.6,169.1,357
			C169.1,357,169.1,357,169.1,357z"/>
		<path id="XMLID_115_" class="st16" d="M264.8,230.7c1.6-0.8,2.5-1,3.6,0.7c2.5,3.9,7.1,6.1,12.5,6.7c8.6,1.1,17.4,1.2,26,0.1
			c5.8-0.7,10.6-3.1,13.3-7.4c1.1-1.7,2.1-0.3,3.2-0.2c-3.2,6.1-10.1,8.4-17.3,10.3c-1.1,0.2-2.2,0.3-3.4,0.5
			c-2.7,1.3-14.6,1.3-17.3,0C276.7,240,268.7,237.6,264.8,230.7L264.8,230.7z"/>
		<path id="XMLID_114_" class="st11" d="M313.7,250.7c-1.6-0.9-3.1,0-4.7,0.1c-5.2,0.2-10.3-0.2-15.5,0.5c-1.8,0.2-2.2-0.2-1.4-1.6
			s0-3.5,1.5-4c2.9-1.1,6.2-1.6,9.3-1.9c3.2-0.2,6.5-0.3,9.7-0.6c3.2,0.6,3.8,1.3,3,3.7C315.2,248.2,316,250,313.7,250.7
			L313.7,250.7L313.7,250.7z"/>
		<path id="XMLID_113_" class="st17" d="M239.3,284.7c1.7,0.5,3.4,0.9,5.1,1.4c2.7,2.9,0.6,4.7-2,6.1c-1.5,0.7-3.2,1.2-4.8,1.9
			c-0.8,0.6-1.8,0.3-2.7,0.2c-7.5-1.5-15.3-1.3-23-1.7c-1.2-0.1-2.3,0-3.4-0.3c-1.1-1.6-0.5-3,1.9-4c1-0.4,1.8-0.7,3-0.5
			c1.5,0.5,3.1,0.9,4.3,1.6c2.3,1.4,4.9,2,7.7,1.6c2-0.8,3.6-2.1,4.7-3.5c1.7-2.1,3.7-3,6.8-2.8
			C237.8,284.6,238.6,284.6,239.3,284.7L239.3,284.7L239.3,284.7z"/>
		<path id="XMLID_112_" class="st1" d="M167.2,359.6c3.5,0.9,7.2,1.2,10.7,1.2c10.4,0.3,20.9,0.7,31.3-0.6c2.3-0.2,4.8-0.4,7.1-0.6
			c0.6,0.7,1.4,1.3,1.1,2.2c-6.9,1.3-13.8,2.1-20.9,2.3c-9.8,0.4-19.4-0.3-29-1.9c-0.6-0.1-1.3-0.3-1.9-0.4
			C166.1,361.1,166.6,360.4,167.2,359.6L167.2,359.6z"/>
		<path id="XMLID_111_" class="st11" d="M310.4,258.4c-6.2-0.3-12.2,0.5-18.2,0.5c-3.2,0-3.3-1.5-3.6-3c-0.2-1.6,1.6-3.3,3.5-3.3
			c6.3,0,12.6,0.1,18.9-0.4c0.1,0.2,0.2,0.4,0.4,0.6C314.8,255.1,314.5,256.5,310.4,258.4L310.4,258.4L310.4,258.4z"/>
		<path id="XMLID_110_" class="st5" d="M184.6,388.6c0.1,0.7-0.3,1.7,1.3,1.9c0.1,1,0.3,2.1,0.2,3c-0.4,3.1-5,5.8-9.8,5.8
			c-0.6,0-1.3,0-1.9,0.1c-5.8-1.4-8-5.3-4.7-8.5c1.8,0.2,2.9-0.2,3.6-1.6c0.3-0.7,1-1.4,1.5-2.1C178.1,385.4,182.5,386,184.6,388.6
			L184.6,388.6L184.6,388.6z"/>
		<path id="XMLID_109_" class="st15" d="M282.1,278.5c0.4-2.1-0.5-3.6-2.7-5c-1.9-1.3-3.2-3.1-4.5-4.8c-1.5-2-3-3.9-4.5-5.8
			c0-2.9,0.1-5.8-0.1-8.6c-0.1-1.9,0.6-3,2.8-3.9c1.2-0.5,2.1-1.2,3.2-1.8c-1,5.1-1.8,10.2-0.4,15.2c1.4,5.3,4.5,9.7,10.8,10.3
			c1.5,0.7,3.5,0.7,4.7,1.8c1.1,1.6,0.2,2.2-1.8,2.3C287,277.7,284.5,278.3,282.1,278.5L282.1,278.5L282.1,278.5z"/>
		<path id="XMLID_108_" class="st15" d="M155.8,421.3c-7.9-3.8-15.6-7.7-23.7-11.2c-0.5-0.2-1.3-0.3-1.9-0.4
			c-0.7-0.1-0.8-0.4-0.5-0.9c2-1.1,3.9-2.1,5.9-3.2c4.7,2,8.6,4.8,12.9,7.2c3.1,1.7,6,3.6,9,5.4
			C157.4,419.4,156.8,420.4,155.8,421.3L155.8,421.3z"/>
		<path id="XMLID_107_" class="st17" d="M169.6,390.9c-1.7,4-1,5.5,3.6,7.7c0.4,0.2,0.6,0.5,1.1,0.7c-0.7,0.5-1.6,1-2.3,1.5
			c-2.9-0.1-5.1-1.2-6.7-3c-1.2-1.4-2.7-2-4.8-1.8c-2,0.2-3.9-0.1-5.9-0.2c-1.6-0.9-3.1-1.9-4.7-2.8c1.4-1.3,2.8-2.5,4-3.9
			C159.2,389.9,164.5,389.8,169.6,390.9L169.6,390.9L169.6,390.9z"/>
		<path id="XMLID_106_" class="st11" d="M306.3,267.4c-4-0.2-7.9-1-11.9-1c-1.9,0-4.9-3.9-4.1-5.2c0.3-0.7,1.1-0.6,1.7-0.5
			c4.5,0.2,8.9-0.5,13.4-0.4c1.3,0,2.4-0.2,3.6-0.5C311.4,262.6,310.7,264.3,306.3,267.4L306.3,267.4L306.3,267.4z"/>
		<path id="XMLID_105_" class="st5" d="M228.8,394.5c-7.5,1.1-11.5-1.5-11.2-7.1c5.1-1.3,10.3-2.6,15.4-3.9
			C234.4,387.7,234,391.7,228.8,394.5L228.8,394.5z"/>
		<path id="XMLID_104_" class="st18" d="M129.7,408.8c0.2,0.3,0.4,0.6,0.5,0.9v0.2c-1.1,7.5-1.1,7.5,5.6,13.2c3.5,3,6.5,6.4,9.5,9.7
			c0,0.7,0,1.4-1.1,1.7c-1.2,0.3-1.8-0.4-2.3-0.9c-2.9-2.5-4.9-5.5-7.9-8c-2.4-2-4.6-4.2-7-6.2c-1.1-0.9-1.6-1.6-1.1-3
			c0.8-2.3,1.3-4.6,1.9-6.9C128.5,409.1,128.9,408.8,129.7,408.8L129.7,408.8L129.7,408.8z"/>
		<path id="XMLID_103_" class="st18" d="M203.6,426.7c0.8-0.9,1.5-0.2,2,0.2c1.3,1,2.7,2,3.5,3.2c1.9,2.5,4.5,3,8,2.5
			c6.3-0.8,12.5-0.9,18.8-0.7c-0.6,2-2.1,2.9-5,2.7c-5.7-0.4-11.4,0.7-17.1,0.9c-2.2,0.1-3.8-0.4-5.1-2c-1.6-2-3.5-3.9-5.3-5.8
			C203.6,427.4,203.6,427.1,203.6,426.7L203.6,426.7z"/>
		<path id="XMLID_102_" class="st16" d="M298.7,280.3c0.5,0.2,0.6,0.5,0.7,0.9c-0.2,0.2-0.4,0.3-0.6,0.4c-3.1,0.8-3.9,2.2-2.9,4.4
			c0.4,0.7,1,1.3,2.1,1.2c1.3-0.2,1.6-0.9,1.5-1.8c-0.1-0.6-0.3-1.2-0.1-1.7c0.2-0.3,0.4-0.6,1-0.5c0.6,1.6,1.7,3.1,1.8,4.9
			c-4.2,2.5-12.6,2.2-16-0.4c0.8-2.5,1.6-5,3.4-7.1C292.6,279.9,295.7,279.9,298.7,280.3L298.7,280.3L298.7,280.3z"/>
		<path id="XMLID_101_" class="st19" d="M282.6,233.9h-1.5c-0.3-1.6-1-3.4,2.5-3.2h10.5h12.1c1.8,0.7,0.8,2.1,1.1,3.1l-0.1,0.1
			c-6.4-0.2-12.8-0.1-19.2,0C286.2,233.9,284.4,233.2,282.6,233.9L282.6,233.9L282.6,233.9z"/>
		<path id="XMLID_100_" class="st9" d="M154.6,395.9c3.1-0.9,6.2-0.3,9.2-0.3c0.3,0,0.7,0.2,0.8,0.5c1.3,2.6,4.5,3.7,7.3,4.9
			c-0.8,1-1.7,2-2.7,3C163.8,401.9,159.3,398.8,154.6,395.9L154.6,395.9L154.6,395.9z"/>
		<path id="XMLID_99_" class="st12" d="M272.2,285.2c-0.5-0.1-1.3-0.1-1.6-0.3c-4.9-3.5-9.8-7.1-14.6-10.5c1-1.1,2.5-1.6,3.3-2.9
			c2.8,1.2,4.2,3.3,6.4,4.9c2.4,2,4.4,4.3,6.7,6.2c0.6,0.5,1.3,1.2,1,2C273,284.9,272.6,285,272.2,285.2L272.2,285.2z"/>
		<path id="XMLID_98_" class="st16" d="M301.1,289.2c-2,2.5-4,4.8-6,7.3c-0.6,0.8-1.3,0.7-1.9,0c-2-2.4-4.1-4.8-6.2-7.2
			C291.7,290.1,296.4,289.7,301.1,289.2L301.1,289.2z"/>
		<path id="XMLID_97_" class="st20" d="M273.4,284.6c-3.7-3.9-7.9-7.6-12.1-11.3c-0.7-0.6-1.4-1.2-2-1.9c-0.8-0.7-1.6-1.4-2.5-2.1
			c-1-0.7-0.6-1.2,0.3-1.7c4.5,3.9,8.9,8,13.3,11.9c3.3,3,6.5,6,9.3,9.3c-1.1,1-1.8,0.3-2.4-0.3
			C275.9,287.2,274.7,285.9,273.4,284.6L273.4,284.6L273.4,284.6z"/>
		<path id="XMLID_96_" class="st21" d="M296.4,275.4c-2-1.2-2.3-2.6-1.3-4.3c1-1.5,2.7-1.2,4.5-0.9c1.7,0.3,3.6,0,5.3,0.6
			c-0.4,2.7-2.4,4.1-5.8,4.5C298.2,275.9,297.4,276,296.4,275.4L296.4,275.4z"/>
		<path id="XMLID_95_" class="st22" d="M296.4,275.4c1,0,1.8,0,2.8-0.1c-0.1,1.6-0.3,3.3-0.4,4.9c-3.1,0.7-6.2,0.7-9.2,0v-2.1
			c1.1-0.6,2.2-1,1.8-2.3C292.9,275.6,294.8,276.3,296.4,275.4L296.4,275.4L296.4,275.4z"/>
		<path id="XMLID_94_" class="st23" d="M245.1,281.1c1.9,0.9,3.1,2.5,4.5,3.7c2.2,2,4.3,4.1,7.3,5.7c2.3,1.2,2.3,2.9,1,4.4
			c-1.2,1.2-1.1,2.2,0,3.3c-0.2,0.2-0.4,0.3-0.5,0.5c-3.5-1-3.6-1.4-1.6-3.6c1.5-1.6,1.5-2.8-1-4.2c-4.2-2.5-7.4-5.8-10.3-9.3
			C244.6,281.3,244.8,281.3,245.1,281.1L245.1,281.1L245.1,281.1z"/>
		<path id="XMLID_93_" class="st24" d="M301.1,289.2c-4.7,1.5-9.3,2-14.1,0c-0.8-0.5-1.3-1.1-1-1.9c5.2,2.2,10.6,1.6,16,0.4
			C302.3,288.6,301.7,288.9,301.1,289.2L301.1,289.2L301.1,289.2z"/>
		<path id="XMLID_92_" class="st25" d="M228.9,363.2c-1.9,0.1-3.6,1.1-5.6,1c-0.8-0.8-1.1-2-1.9-2.8c0-0.4,0.3-0.6,0.6-0.8
			c1.9-0.4,3.8-1.2,5.9-1C228.5,360.9,229.1,361.9,228.9,363.2C228.9,363.2,228.9,363.2,228.9,363.2z"/>
		<path id="XMLID_91_" class="st26" d="M220.9,355.3c1.7-0.3,3.5-0.7,5.2-1c0.7,1,1.3,2.1,1.1,3.2c-1.4,1.3-3.2,1.4-5.2,1.2
			C221.1,357.7,221.6,356.3,220.9,355.3L220.9,355.3L220.9,355.3z"/>
		<path id="XMLID_90_" class="st22" d="M285.5,241.4c5.7,0.7,11.6,0.7,17.3,0v1.3h-17.4C285.5,242.3,285.5,241.8,285.5,241.4
			L285.5,241.4L285.5,241.4z"/>
		<path id="XMLID_89_" class="st27" d="M221.5,358.4c2,0.1,3.8-0.4,5.6-0.8c0.3,0.7,0.5,1.4,0.8,2.1c-1.9,0.7-3.8,1.2-5.8,1.3
			c-0.4-0.7-0.4-1.6-0.7-2.4C221.4,358.6,221.5,358.5,221.5,358.4L221.5,358.4L221.5,358.4z"/>
		<path id="XMLID_88_" class="st28" d="M300.3,283c-0.2,0.2-0.3,0.2-0.5,0.4c-1.7-0.3-1.4-1.3-1.2-2.2c0.2,0,0.5,0,0.7-0.1
			C299.7,281.8,300,282.3,300.3,283L300.3,283L300.3,283z"/>
		<path id="XMLID_87_" class="st29" d="M160,421.6c0.7-0.3,1.2-0.7,1.6-0.4c0.6,0.5,0,0.5-0.4,0.5
			C160.8,421.7,160.5,421.7,160,421.6L160,421.6z"/>
		<path id="XMLID_86_" class="st18" d="M184.8,211.5c-4,0-7.2-2.4-7.1-5.4c0.1-2.9,3.5-5.7,7.1-5.8s7.3,2.9,7.3,5.8
			C192.1,209.2,188.9,211.6,184.8,211.5C184.8,211.5,184.8,211.5,184.8,211.5z"/>
		<path id="XMLID_85_" class="st9" d="M166.1,259.7c4.6,0.4,8.9,1.6,13.3,2.7c-0.4,1.7,1.2,3.3,0.2,5c-0.3,0.7-0.5,1.2-1.5,0.7
			c-5.2-2.9-11.1-4.5-16.8-6.9c-0.4-0.2-0.7-0.4-1.4-0.7C162.1,259.7,164.4,260.8,166.1,259.7L166.1,259.7L166.1,259.7z"/>
		<path id="XMLID_84_" class="st18" d="M186.3,270.9c0,1.6-0.1,3.2,0.1,4.8c0.3,2.2-0.8,3.1-3.7,2.8c-0.4-0.1-1,0-1.4,0
			c-1.9-0.5-1.6-1.9-1.8-3c-0.3-1.6,0-3.4-0.1-5.1c-0.1-1.2,0.6-1.2,1.7-1C182.9,270,184.6,270.4,186.3,270.9L186.3,270.9
			L186.3,270.9z"/>
		<path id="XMLID_83_" class="st30" d="M199.6,212c-0.5,1.4-1.8,2.5-3.6,2.5c-1.8-0.2-3.5-1.2-3.3-2.9c0.2-1.5,1.5-2.5,3.5-2.4
			C198.4,209.2,199.2,210.5,199.6,212L199.6,212z"/>
		<path id="XMLID_82_" class="st31" d="M227.8,226.3c-1.2-2.1-2.4-4.2-3.6-6.2c-1.2-2-2.3-3.9-4.5-5.3c-1.6-1.2-1.4-2.2,0.6-3
			c1.4-0.5,2.8-1.1,4.1-1.6c2.2-0.7,4-0.6,5.9,0.7c4.5,3,8.4,6.3,10.9,10.6c0.8,1.4,1.4,2.3-1.3,2.4c0.7,4.3,3.4,8.1,3.9,12.5
			c0.1,1.1,1.5,1.3,2.3,1.8v13.4c-1.4,1.4-1.6,3.1-2.1,4.8c-0.4,1.4-0.4,3-1.9,4.1c-2.9,0.7-3,0.7-3.6-1.4c-0.1-1.3,0.1-2.6-0.1-3.9
			c-0.2-0.8-0.6-1.6-1.7-1.9c-1.9-0.6-2.7,0.2-2.9,1.6s-0.4,2.6-0.7,3.9c-0.2,0.8-0.3,1.6-1.4,2c-1.8,0.2-2.5-0.4-2.1-1.8
			c2.9-8.5,1.5-16.9,0-25.3c-0.1-0.7-0.3-1.3,0.3-1.9c1.5,0.4,1.4,1.5,1.7,2.4c0.4,1.2,0.6,2.3,1.2,3.5c0.5,1,1.2,1.7,2.8,1.3
			c1.3-0.4,1.3-1.2,1.2-2.1c-0.3-3.6-1.5-7.1-4.1-10.3c-0.8-1-1.9-1.7-3.6-1.1C228.7,225.6,228.4,226.1,227.8,226.3L227.8,226.3
			L227.8,226.3z"/>
		<path id="XMLID_81_" class="st32" d="M231.8,260.6c0.8-2.1,1.1-4.1,1.4-6.2c0.3-2.1,1.4-2.5,3.9-1.7c1.5,0.7,1.4,1.9,1.2,3
			c-0.6,5.5-2.9,10.6-5.7,15.6c-0.6,1.1-1.6,1.9-3,2.3c-2.9-0.2-3.5-1.1-2.3-3.2C228.9,267.1,230.9,264,231.8,260.6L231.8,260.6z"/>
		<path id="XMLID_80_" class="st32" d="M217.9,273c-2.8-0.1-3.6-0.7-2.5-2.6c2.5-4.6,3.2-9.5,3.8-14.4c0.2-1.6,0.2-3.5,3.4-3.4
			c1.6,0.5,2.1,1.5,2,2.6c-0.5,5-1.1,10-3.5,14.8C220.4,271.3,219.9,272.6,217.9,273C217.9,273,217.9,273,217.9,273z"/>
		<path id="XMLID_79_" class="st32" d="M242.1,260.2c1-2,1.5-4.1,1.8-6.2c0.2-1.2,0.7-2.1,2.3-2.4c0.8,0.1,1.1,0.7,1.6,1.1
			c1,0.7,0.5,1.6,0.3,2.5c-1.2,5.8-3.4,11.3-7.3,16.4c-0.7,1-1.7,1.6-3.3,1.2c-1.9-0.2-1.2-1.2-0.7-2c0.8-1.5,1.7-2.9,2.5-4.4
			c-0.1-0.4,0.1-0.8,0.2-1.2C240.6,263.5,240.6,261.6,242.1,260.2L242.1,260.2z"/>
		<path id="XMLID_78_" class="st32" d="M236,239.3c-2,0.9-3.2,0.3-3.7-1.3c-0.7-2.1-1.5-4.3-2.3-6.4c-0.7-1.8-1.6-3.5-2.3-5.3
			c0.1-0.5,0.2-1,0.7-1.4c1.7-0.5,3.1-0.1,3.9,1.1c2.5,3.4,4,7,4.7,10.8C237.2,237.7,237.1,238.6,236,239.3L236,239.3z"/>
		<path id="XMLID_77_" class="st33" d="M223.2,240.9c-2.2,0.9-3.4,0.4-4-1.6c-1-3-1.8-6.2-3.5-9.1c-0.5-0.9-0.5-1.7,0.6-2.4
			c1.5-0.4,2.8-0.2,3.5,0.8c2.1,3.2,3.7,6.5,4.2,10.1C224,239.6,223.9,240.4,223.2,240.9L223.2,240.9L223.2,240.9z"/>
		<path id="XMLID_76_" class="st9" d="M217.9,273c2.5-2.1,3.3-4.8,4-7.5c1.1-3.3,1.4-6.7,1.8-10.1c0.1-1.1,0-2.1-1.2-2.8
			c2.1-0.2,3.4,0.7,3.5,2.2c0.4,5.7-0.5,11.1-3.9,16.2C221.4,272.2,220.7,274,217.9,273L217.9,273L217.9,273z"/>
		<path id="XMLID_75_" class="st34" d="M246.2,238.2c-1.6,0.3-2.9,0.2-3.1-1.4c-0.5-3.7-2-7.2-3.7-10.7c-0.3-0.7-0.6-1.6,0.5-2.2
			c1.3,0.1,1.9,0.7,2.4,1.6c2.2,3.3,3.5,6.8,4.5,10.4C247.1,236.8,246.4,237.5,246.2,238.2L246.2,238.2z"/>
		<path id="XMLID_74_" class="st35" d="M229.6,273.5c4.2-4.7,6.4-10,7.4-15.5c0.3-1.7,1.5-3.6,0-5.3c2,0.4,2,1.7,2.2,2.9
			c0.2,1.1,0,2.2,0,3.3c-0.2,2.1,0.1,4.2-1.1,6.2c-0.6,1.6-1.6,3-3.1,4.1c-0.6,1-1.4,1.9-2,2.9C232.4,273.1,231.4,273.8,229.6,273.5
			C229.6,273.5,229.6,273.5,229.6,273.5z"/>
		<path id="XMLID_73_" class="st36" d="M237.6,272.7c1.6,0,2.2-0.8,2.9-1.8c4.2-5.7,6.3-11.8,7.3-18.2c1.4,0.5,1.5,1.5,1.3,2.5
			c-1,5.8-3.2,11.3-7,16.3C241.1,272.7,239.8,273.8,237.6,272.7L237.6,272.7z"/>
		<path id="XMLID_72_" class="st37" d="M223.2,240.9c0.5-4.2-1.8-7.8-3.7-11.5c-0.5-1-1.5-1.7-3.1-1.5c2.1-1.4,3.7-0.7,4.9,0.9
			c2.2,3.1,3.2,6.7,3.9,10.2C225.3,240.1,224.8,240.8,223.2,240.9C223.2,240.9,223.2,240.9,223.2,240.9z"/>
		<path id="XMLID_71_" class="st38" d="M235.2,269.1c0.8-1.3,1.6-2.7,2.4-4c1-0.3,1.9-0.7,2.3,0.5c0,0.3-0.1,0.7-0.5,0.9
			C237.7,267.1,237,268.6,235.2,269.1L235.2,269.1L235.2,269.1z"/>
		<path id="XMLID_70_" class="st39" d="M212.3,286.5c-1.7-0.8-1.9-2.1-1.6-3.6C212,284,211.7,285.4,212.3,286.5L212.3,286.5z"/>
		<path id="XMLID_66_" class="st6" d="M238.8,310.1c-0.5,5.6-3.3,10.6-7.5,15c-1.2,1.2-2.4,2.5-3.7,3.7c-0.6,0.7-1.6,1.2-2.5,1.3
			c-1.1,0.2-2.1,0.3-3-0.3c-1-0.7-0.3-1.6,0.1-2.2c3.7-5.7,3.6-11.8,3.4-18c0-0.8-0.3-1.8-1-2.5c-1.3-1.6-0.3-2.4,1.3-3
			c2.9-1,6-1.4,9.1-1.9c1.7-0.2,3.2,0.6,3.2,2C238.2,306.2,239.1,308,238.8,310.1L238.8,310.1L238.8,310.1z"/>
		<path id="XMLID_65_" class="st6" d="M203.7,292.3c1.5-0.6,3.2-0.2,4.8-0.4c8.1,0.2,16.2,0.1,24.2,1.3c1.7,0.2,3.3,0.6,5,0.8
			c0.3,0.3,0.5,0.7,0.8,0.9c2,1.6,0.7,2-1.2,2.3c-10.5,1.9-21.2,2.3-32,2.7c-2.2,0.1-4.5,0.7-7,0.2c1.6-2.5,3.2-5,4.8-7.5
			C203.3,292.6,203.5,292.4,203.7,292.3L203.7,292.3L203.7,292.3z"/>
		<path id="XMLID_64_" class="st18" d="M223.2,318.3c0.3,2.1-0.3,4.3-1.3,6.3c-0.4,1.1-1.4,2.1-2.9,1.7c-1.6-0.3-1-1.6-0.6-2.5
			c1.5-4.5,0.3-9-0.3-13.4c-0.1-0.4-0.3-0.7-0.7-0.9c-1.2-0.6-1.1-1.3-0.4-2.1c0.7-1,1.9-1.5,3.4-1.3c1.2,0.2,1.7,0.8,1.8,1.8
			C222.4,311.4,223.4,314.7,223.2,318.3L223.2,318.3L223.2,318.3z"/>
		<path id="XMLID_63_" class="st5" d="M167.5,387.2c-2.3-0.6-4.8-0.2-7.1-0.7c-2.2-0.6-3.3-1.6-2.3-3.4c0.8-1.7,1.8-3.5,2.9-5.1
			c0.8-1.3,2.2-2,4.2-1.6c2.4,0.4,5,0.1,7.4,0.6c1.6,0.3,2.2,1.1,1.8,2.3c-0.8,2.4-2.3,4.5-3.9,6.7
			C169.7,386.8,168.8,387.2,167.5,387.2L167.5,387.2z"/>
		<path id="XMLID_62_" class="st5" d="M221.3,383.8c-2.4,0.4-3.4-0.6-4-2.3c-0.6-1.7-0.8-3.5-1.3-5.2c-0.3-1,0.5-1.6,1.5-1.9
			c2.3-0.7,4.7-1.4,7-2c1.9-0.5,3.2,0.1,3.7,1.6c0.5,1.5,1.3,3,2.1,4.4c1.4,2.5,0.4,3.9-2.9,4.5C225.4,383.2,223.5,384,221.3,383.8
			L221.3,383.8L221.3,383.8z"/>
		<path id="XMLID_61_" class="st5" d="M195.7,377.1c0.8-0.1,1.7-0.2,2.5-0.2c1.7,0,2.7,0.7,3,1.9c0.1,0.6,0,1.2,0.2,1.8
			c1.4,6.7-0.1,6.5-8.5,7.1c-2.4,0.2-3.7-1-3.7-2.9c0-1.4-0.1-2.8-0.1-4.2c0-2.7,1.1-3.6,4.6-3.6C194.3,377,195.1,377,195.7,377.1
			C195.7,377,195.7,377,195.7,377.1C195.7,377.1,195.7,377.1,195.7,377.1z"/>
		<path id="XMLID_60_" class="st17" d="M184.6,388.6c-2.9-2.3-6.3-2-9.8-1.4c1.1-1.9,2-3.9,3.3-5.7c1.3-1.9,3.8-0.8,5.7-1.2
			c1.3-0.2,0.8,1.4,0.8,2.2C184.7,384.6,184.6,386.7,184.6,388.6L184.6,388.6z"/>
		<path id="XMLID_59_" class="st40" d="M222.9,366c2.7-0.2,3.6,1.1,3.8,2.8s-2.8,3.5-5.8,3.4c-2.4-0.1-2.9-1.4-2.9-3
			C218,366.9,219.5,365.9,222.9,366L222.9,366z"/>
		<path id="XMLID_58_" class="st30" d="M221.5,361.4c2.2,0.2,1.6,1.6,1.7,2.8c-1.4,0.7-3,0.9-4.6,0.9c-1.8-0.9-1.4-2-0.6-3.2
			C219,360.8,220,360.1,221.5,361.4L221.5,361.4z"/>
		<path id="XMLID_57_" class="st5" d="M145.1,264c-9,0.7-17.7-4.4-19.2-11.4c-0.2-1.2-1-2.3,0-3.5c0.4-0.7,0.6-1.4,1.9-1.5
			s1.9,0.4,2.4,1.3c1.3,2.3,2.5,4.6,4.8,6.5C138.2,258.3,141.5,261.1,145.1,264L145.1,264z"/>
		<path id="XMLID_56_" class="st41" d="M166.6,411.1c0.2,1.4-0.2,2.8-0.5,4.2c-0.1,0.7-0.4,1.3-1.4,1.5c-1.1,0.2-2-0.2-2.3-1
			c-1.2-2.5-2.2-4.8-3.1-7.4c-0.5-1.4,0.8-2.1,2.4-2.2c2-0.3,4.7,1,5,2.3C166.9,409.3,166.6,410.2,166.6,411.1L166.6,411.1
			L166.6,411.1z"/>
		<path id="XMLID_55_" class="st42" d="M154,408.8c0-0.8-0.3-1.8,1.2-2c1.3-0.1,1.9,0.7,2.2,1.6c0.3,0.9,0.4,1.9,0.6,2.8
			c0.1,0.7-0.2,1.2-1.1,1.4c-0.8,0.2-1.5-0.2-1.9-0.7C154.4,411,154,409.9,154,408.8L154,408.8L154,408.8z"/>
		<path id="XMLID_54_" class="st43" d="M212.4,346.4c0-1.7,2.1-2.1,4.1-2.2c1.7-0.1,2.4,1.1,2.5,2.2c0.1,1.6-2,3.1-3.8,3
			C213.5,349.3,212.2,348,212.4,346.4C212.4,346.4,212.4,346.4,212.4,346.4z"/>
		<path id="XMLID_53_" class="st9" d="M213.9,343.8c-0.7-0.1-1.7-0.5-1.6-1.7c0-1.1,2.5-2.5,4.1-2.4c1.4,0.1,1.7,0.7,1.6,1.6
			C217.9,343,216.6,343.8,213.9,343.8L213.9,343.8z"/>
		<path id="XMLID_52_" class="st44" d="M225.9,406.9c1.8-0.2,3,0.4,4,1.6c1,1.2,2.4,2.1,3.7,3c0.8,0.7,1.7,1.4,0.6,2.3
			c-0.8,0.7-2,0.5-2.9-0.1c-2.7-1.6-6.3-2.4-8.3-4.7c-0.4-0.5-1.8-0.7-1.3-1.5c0.4-0.7,1.6-0.7,2.5-0.7
			C224.9,407,225.2,406.9,225.9,406.9C225.9,406.9,225.9,406.9,225.9,406.9z"/>
		<path id="XMLID_51_" class="st42" d="M223.8,412.8c0,0.8-0.1,1.3-0.8,1.6c-0.7,0.3-1.3,0-1.8-0.3c-2.2-1.2-3.1-3-2-4.4
			c0.5-0.7,1.2-1.2,2-0.5C222.5,410.3,223.5,411.5,223.8,412.8L223.8,412.8z"/>
		<path id="XMLID_50_" class="st45" d="M159.6,290.5c-1.8,0-3.7,0.1-3.8-1.8c-0.1-1.6,1.5-1.8,3.2-1.8c2-0.1,3.9,0.4,4,2.1
			C163.1,290.5,161.3,290.6,159.6,290.5L159.6,290.5z"/>
		<path id="XMLID_49_" class="st46" d="M268.5,269c-1.4-0.3-2.4-1.1-2.5-2.3c-0.1-0.9,0.2-1.8,1.6-1.6c1.2,0.2,3,0.2,2.9,1.6
			C270.2,267.6,270.1,268.8,268.5,269L268.5,269z"/>
		<path id="XMLID_48_" class="st42" d="M271,269.7c1.2,0.3,1.8,1.1,1.7,2.1c0,0.7-0.2,1.4-1.2,1.2c-1.3-0.2-2.2-0.9-2.2-2
			C269.5,270.3,270.1,269.8,271,269.7L271,269.7z"/>
		<path id="XMLID_47_" class="st47" d="M274,273.3c0.4,0.2,0.4,0.5,0.2,0.7c-0.1,0.2-0.2,0.6-0.7,0.4c-0.1-0.1-0.1-0.4-0.1-0.6
			C273.4,273.5,273.5,273.3,274,273.3L274,273.3z"/>
		<path id="XMLID_46_" class="st48" d="M216.8,354.8c-1.3,0-2.2-0.3-2.2-1.5c0-1.2,2.5-2.5,4.9-2.5c1.2,0.1,2.3,0.4,2.5,1.4
			C222.1,353.4,219.3,354.7,216.8,354.8L216.8,354.8L216.8,354.8z"/>
		<path id="XMLID_45_" class="st49" d="M220.9,355.3c1.7,0.8,2,1.9,0.6,3l0,0c-0.8,0.9-1.8,1.1-3,0.4c-2-0.2-2.4-1.3-2.3-2.7
			C217.7,355.3,219.3,355.1,220.9,355.3L220.9,355.3L220.9,355.3z"/>
		<path id="XMLID_44_" class="st50" d="M282.6,233.9c0.4-0.6,1.2-0.5,1.8-0.5h20.7c0.7,0,1.5,0.1,2.1,0.5c-4.1,0.9-8.4,0.2-12.5,0.3
			c-3.3-0.6-6.6,0.2-9.9-0.4C284.1,233.9,283.4,233.9,282.6,233.9L282.6,233.9L282.6,233.9z"/>
		<path id="XMLID_43_" class="st51" d="M284.8,233.9c3.3,0.2,6.6-0.5,9.9,0.4C291.4,234.1,288,234.8,284.8,233.9L284.8,233.9z"/>
		<path id="XMLID_42_" class="st5" d="M262.8,285c-0.1,0.9-4.8,4.2-5.7,4c-0.3-0.1-0.6-0.2-0.8-0.5c-1.6-1.8-3.7-3.2-5.7-4.7
			c-1.5-1.1-0.8-1.7,0.3-2.4c0.8-0.5,1.7-1,2.4-1.5c3.2-2.3,3.3-2.4,5.6,0.4c1.2,1.3,2.1,2.6,3.2,3.9
			C262.5,284.5,262.7,284.9,262.8,285L262.8,285z"/>
		<path id="XMLID_41_" class="st52" d="M218.6,358.8c1.1,0.1,2-0.1,3-0.4c0.7,0.8,1.5,1.6,0.5,2.6c-0.2,0.2-0.4,0.3-0.6,0.4
			c-1.4-0.7-2.3,0.1-3.4,0.5c-0.2,0-0.4,0-0.6-0.1c-0.5-0.7-1.3-1.3-1.1-2.2C217.2,359.4,217.9,359.1,218.6,358.8
			C218.6,358.8,218.6,358.8,218.6,358.8z"/>
		<path id="XMLID_40_" class="st43" d="M236.7,289.2c-1.7-0.3-3.6-0.7-3.6-2.4c0-1.3,1.5-1.6,2.9-1.6c2.1,0,4.5,1.3,4.1,2.5
			C239.8,289.1,238.1,288.9,236.7,289.2L236.7,289.2z"/>
		<path id="XMLID_39_" class="st53" d="M178.9,394.7c0.1-1.3,1-2,2.5-2.1c2-0.1,2.3,1.2,2.3,2.2c0,1.1-0.3,2.3-2.4,2.2
			C179.3,397.1,179.1,395.9,178.9,394.7L178.9,394.7L178.9,394.7z"/>
		<path id="XMLID_38_" class="st53" d="M231.3,388.8c0,1.6-0.7,2.5-2.4,2.5c-1.9,0.1-2.7-0.9-2.7-2.1c0-1.2,1.1-2.1,2.8-2.1
			C230.6,387.2,231.4,387.9,231.3,388.8C231.3,388.8,231.3,388.8,231.3,388.8z"/>
		<path id="XMLID_37_" class="st54" d="M298.6,281.2c0.7,0.6,0.3,1.6,1.2,2.2c0.2,0.8,0.4,1.6,0.5,2.4c0.1,0.8-0.4,1.4-1.4,1.7
			c-1.1,0.3-2.1,0.6-2.9-0.2c-1.3-1.2-1.8-2.7-1.3-4.1C295.5,282.1,296.4,280.8,298.6,281.2L298.6,281.2L298.6,281.2z"/>
		<path id="XMLID_36_" class="st55" d="M236,239.3c1.3-2.8-0.5-5.3-1.4-7.8c-0.6-1.8-1.8-3.5-2.8-5.1c-0.6-1.2-1.7-1.7-3.4-1.5
			c1.9-1,3.4-0.5,4.6,0.8c3.1,3.5,4.2,7.4,4.6,11.5C237.7,238.1,237.5,239,236,239.3C236,239.3,236,239.3,236,239.3z"/>
		<path id="XMLID_35_" class="st56" d="M240,265.6c-0.6-0.7-1.6-0.4-2.3-0.5c0.5-2.1,1.2-4.2,1.7-6.2c-0.3,2.1,1.4,1.5,2.8,1.4
			C241.7,262,241.3,263.9,240,265.6L240,265.6L240,265.6z"/>
		<path id="XMLID_34_" class="st49" d="M167.4,379.5c0.2-1,1-1.6,2-1.5c1.4,0.1,3.1,0,3.5,1.4c0.3,1-0.8,1.6-2.1,1.6
			C169.1,381.2,168.2,380.3,167.4,379.5L167.4,379.5L167.4,379.5z"/>
		<path id="XMLID_33_" class="st57" d="M170,383.7c0.2,1.1-1,1.1-1.7,1.2c-1.2,0.2-1.8-0.5-2-1.2c-0.2-0.9,0.7-1.4,1.7-1.5
			C169.5,382,169.6,383,170,383.7L170,383.7z"/>
		<path id="XMLID_32_" class="st53" d="M226.7,375.2c-0.2,1.2-1,2-2.4,1.9c-1.1,0-2.1-0.3-2.2-1.4c-0.1-1.5,1.5-1.7,2.7-1.9
			C226,373.5,226.4,374.4,226.7,375.2L226.7,375.2z"/>
		<path id="XMLID_31_" class="st58" d="M226.3,378c1.2,0.2,2.1,0.5,2.1,1.6c0,1.2-1,1.5-2.2,1.4c-1.3-0.1-2.3-0.6-2.2-1.6
			C223.9,378.5,225,378,226.3,378L226.3,378L226.3,378z"/>
		<path id="XMLID_30_" class="st53" d="M197,378.9c0.6,0.1,2-0.1,1.7,1.2c-0.2,0.9,0.1,2.4-2.1,2.4c-1.7,0-2-0.8-2.1-1.9
			C194.2,379.3,195.1,378.9,197,378.9L197,378.9z"/>
		<path id="XMLID_29_" class="st59" d="M197.3,383c1,0.2,1.8,0.5,1.7,1.4c-0.1,0.7-0.6,1.2-1.7,1.2c-0.7-0.1-1.5-0.5-1.4-1.2
			C196,383.6,196.5,383.1,197.3,383L197.3,383z"/>
	</g>
	<g id="XMLID_5_" transform="translate(0,260)">
		<g id="XMLID_6_">
			<g id="XMLID_8_">
				<path id="XMLID_178_" class="st60" d="M172.6,151.2c-34.8-18-51.8-36.1-51.8-55.4v-50l2-1c15.5-7.2,33-11,50.5-11h1.2h0.4h0.4
					h1.2c17.5,0,35,3.8,50.5,11l2,1v50c0,19.2-17,37.4-51.8,55.4l-2.3,1.2L172.6,151.2C172.6,151.2,172.6,151.2,172.6,151.2z"/>
				<path id="XMLID_175_" class="st61" d="M176.5,37.1c17.4,0,33.8,3.9,48.3,10.6v48.1c0,19.2-18.7,36.5-49.9,52.7
					c-31.3-16.2-49.9-33.4-49.9-52.7V47.7c14.4-6.7,30.9-10.6,48.3-10.6h1.6H176.5L176.5,37.1z M176.5,30.5h-1.2H175h-0.3h-1.2
					c-18.4,0-36.5,3.9-52.7,11.5l-4.1,1.9v3.7v48.1c0,20.5,17.5,39.4,53.7,58.1l4.7,2.5l4.7-2.5c36.1-18.6,53.7-37.6,53.7-58.1V47.7
					V44l-4.1-1.9C213.1,34.6,194.9,30.5,176.5,30.5L176.5,30.5C176.5,30.5,176.5,30.5,176.5,30.5z"/>
			</g>
			<path id="XMLID_11_" class="st62" d="M173.5,37.1c-17.4,0-33.8,3.9-48.3,10.6v48.1c0,19.2,18.7,36.5,49.9,52.7V37.2
				C174.5,37.1,174,37.1,173.5,37.1L173.5,37.1z"/>
		</g>
		<path id="Fill-4" class="st63" d="M186.1,88.3l-12-19.1l-10.3,19.1H186.1L186.1,88.3L186.1,88.3z M190.6,96.4h-31.4l-7,13.6
			l-13.1,0.2l35-60.2l36.3,60.2h-12.1L190.6,96.4L190.6,96.4C190.6,96.4,190.6,96.4,190.6,96.4z"/>
	</g>
</g>
</svg>
