<?xml version="1.0" encoding="utf-8"?>
<!-- Generator: Adobe Illustrator 21.1.0, SVG Export Plug-In . SVG Version: 6.00 Build 0)  -->
<svg version="1.1" id="Layer_1" xmlns="http://www.w3.org/2000/svg" xmlns:xlink="http://www.w3.org/1999/xlink" x="0px" y="0px"
	 viewBox="0 0 512 512" style="enable-background:new 0 0 512 512;" xml:space="preserve">
<style type="text/css">
	.st0{fill:#FDEEEC;}
	.st1{fill:#E73C23;}
	.st2{fill:#C01818;}
	.st3{fill:#F39867;}
	.st4{fill:#D52716;}
	.st5{fill:#E0BE40;}
	.st6{fill:#FBE468;}
	.st7{fill:#CFE9EB;}
	.st8{fill:#A8C5C8;}
	.st9{fill:#CBA330;}
	.st10{fill:#30140D;}
	.st11{fill:#986531;}
	.st12{fill:#9E6E1D;}
	.st13{fill:#795136;}
	.st14{fill:#93C9DD;}
	.st15{fill:#603E35;}
	.st16{fill:#7C8A96;}
	.st17{fill:#A06E1E;}
	.st18{fill:#FBE467;}
	.st19{fill:#95C9DD;}
	.st20{fill:#613F35;}
	.st21{fill:#996531;}
	.st22{fill:#414C67;}
	.st23{fill:#A16F1E;}
	.st24{fill:#444F69;}
	.st25{fill:#E1BC40;}
	.st26{fill:#E1BB40;}
	.st27{fill:#E74024;}
	.st28{fill:#8C9AA3;}
	.st29{fill:#D1C4BC;}
	.st30{fill:#FBE367;}
	.st31{fill:#FBF29F;}
	.st32{fill:#31140D;}
	.st33{fill:#32140D;}
	.st34{fill:#33150D;}
	.st35{fill:#CBA332;}
	.st36{fill:#C9A231;}
	.st37{fill:#CAA231;}
	.st38{fill:#F9F196;}
	.st39{fill:#E4C345;}
	.st40{fill:#F49968;}
	.st41{fill:#C5A54A;}
	.st42{fill:#C4A449;}
	.st43{fill:#CAA22F;}
	.st44{fill:#C5A549;}
	.st45{fill:#C8A130;}
	.st46{fill:#C3A349;}
	.st47{fill:#C3A248;}
	.st48{fill:#F39767;}
	.st49{fill:#FAE266;}
	.st50{fill:#7F92A0;}
	.st51{fill:#8096A4;}
	.st52{fill:#F49967;}
	.st53{fill:#FAE365;}
	.st54{fill:#A8C4C7;}
	.st55{fill:#CAA232;}
	.st56{fill:#F8E166;}
	.st57{fill:#F9E165;}
	.st58{fill:#FAE366;}
	.st59{fill:#F9E064;}
	.st60{fill:#B52E31;}
	.st61{fill:#F1ECE2;}
	.st62{fill:#E23237;}
	.st63{fill:#FFFFFF;}
</style>
<title  id="title4242">hero3</title>
<desc  id="desc4244">Created with Sketch.</desc>
<path id="XMLID_149_" class="st0" d="M71.6,164.2h0.9c2.1,1.5,2.1,3,0,4.4h-0.4h-0.4C71.6,167.1,71.6,165.6,71.6,164.2L71.6,164.2z"
	/>
<g id="XMLID_7_" transform="translate(-0.7,90.292679)">
	<path id="XMLID_146_" class="st1" d="M1.2,78.8v-4.4c0.6-1.9,1.3-3.7,1.9-5.6c0.8-2.6,3.4-2.6,6-1.4c2.1,0.8,4.2,1.4,6.4,1.7
		c3.4,0.7,6.6,1.2,7.4-2.2c0.4-2.1,2.6-2.4,5.3-0.7c8.9,5.7,17.9,5.7,26.2-0.6c7.5-5.6,14.5-11.4,20.8-17.6
		c16.6-16.7,40.8-26.9,71.5-31c12.3-1.6,23.4,0.8,33.4,5.6c18.7,9.1,29.1,20.5,29.2,35.6c0.2,7.2-0.8,14.3-3.8,21.2
		c-0.6,1,0,1.9,0.6,2.7c-0.8,1.5-2.1,2.4-4.9,1.4c-1.3-4.7-0.9-9.2-0.2-13.9c0.9-6.1,1.3-12-2.5-17.8c-1.9-2.8-5.1-5.2-6.8-8.2
		c-0.2-0.1-0.2-0.3-0.4-0.3c0.2,0.2,0.4,0.5,0.8,0.7c6.6,8.5,5.8,17.6,4,26.6c-1.1,5.2-0.8,10.5-0.4,15.7c-0.8,2.3-2.3,4.1-6.8,3.8
		c-4-8-0.8-16,0-24c0.4-3.6,1.1-7.5-2.1-11c-2.6-6.8-7.2-12.8-14.5-18.2c-5.3-4-11.9-4.9-19.6-4.3c-9.4,0.7-17.4,2.9-24.7,7
		c-11.9,6.5-20.6,14.2-27.4,23c-2.5,3.3-3.6,6.8-4.9,10.3c-1.9,4.8-4.3,9.4-7.5,14c-1.3-0.1-1.7,0.5-2.3,1
		c-10.6,11-25.7,15.6-46.4,14.3c-14.3-0.9-24.7-5.1-33.2-12C2.3,87,2.3,82.9,1.2,78.8L1.2,78.8z"/>
	<path id="XMLID_140_" class="st2" d="M88.4,87.1c-0.6-2.1,1.1-4,2.3-5.7c4.7-7,4.9-14.8,10.9-21.6c8.9-9.9,19.2-18.9,35.1-24.8
		c7.9-3,17.2-3.6,26.2-2.8c6.2,0.5,10.4,3.8,13.8,6.8c4.9,4.3,9.1,9,10.9,14.1c0.4,0.8,0.8,1.6-0.4,2.3c-3.4-2.7-5.7-6.1-10.2-8.3
		c-12.5-5.9-31.7-7-42.8,3.4c-4.5,4.2-8.7,8.5-11.1,13.4c-0.4,0.9-0.6,1.9-0.6,2.8c-0.2,0.8,0.6,1.5,1.9,1.7
		c1.5,0.2,1.7-0.7,2.3-1.4c1.1-1.3,1.5-2.7,1.1-4.2c6.6,1.2,8.1,4.5,10,7.6c0.6,1-0.8,3.1,1.9,3.1c2.8,0,6-0.7,6.8-3.6
		c7,5.9,3.2,11.4,0.2,16.7c-4.3,7.3-17.9,11.9-34.3,11.9C102.2,98.5,92.7,94,88.4,87.1C88.4,87.1,88.4,87.1,88.4,87.1z"/>
	<path id="XMLID_69_" class="st2" d="M202.3,83.7c-2.3,1.2-4.7,2.3-7,3.5c-2.1-5-1.7-10.3-0.6-15.3c2.1-9.8,2.5-19.4-3.6-28.7
		c-0.4-0.7,0.2-0.8,0.9-0.6c1.7,1.7,3.4,3.6,5.3,5.4c6.8,6.3,6.8,13.4,5.7,20.3C202.3,73.6,202.7,78.6,202.3,83.7
		C202.3,83.7,202.3,83.7,202.3,83.7z"/>
	<path id="XMLID_68_" class="st3" d="M169.9,25.6c8.1-0.9,9.1-0.3,6.8,4c2.3,0.5,6.4-0.8,6.8,0.6c0.8,2.4,3.6,2.4,6,3.3
		c2.3,0.7,1.5,2.2,0.2,3.3c-1.5,1.2-3.2,2.9-6.2,2.1c-2.5-0.7,0.4-2,0-3.4c-2.1-0.3-5.7,0.1-5.5-2.6c0.2-1-2.1-0.8-3.4-0.8
		c-3.2,0.1-4.2-0.6-2.6-2.4c1.5-1.6,0.8-2.3-2.3-2.1c-2.5,0.1-4.7,0-4.2-2.1c0.2-0.9-0.8-0.9-1.9-0.9c-1.3,0-3.2,0.1-3.2-0.9
		c-0.2-1,1.9-1,3-1.5c0.9-0.3,1.9-0.6,2.8-0.8c1.3-0.3,2.5-0.8,3.8-0.2c1.5,0.7,1.3,1.6,0.8,2.6C170.8,24.2,170.5,24.7,169.9,25.6
		C169.9,25.6,169.9,25.6,169.9,25.6z"/>
	<path id="XMLID_67_" class="st4" d="M192,42.8c-0.4,0.2-0.8,0.5-0.9,0.6c-1.1-0.5-1.5-1.3-1.7-2.1C191.4,41.1,191.4,42.2,192,42.8
		L192,42.8z"/>
</g>
<g id="XMLID_200_" transform="translate(64.3,-0.70732088)">
	<g id="XMLID_28_" transform="translate(12,0)">
		<path id="XMLID_148_" class="st5" d="M100.1,204.2c1.3-1.3,2.8-2.6,4.2-3.8c7-6.3,16.6-11,26.2-15.6c4.9-2.3,9.6-4.7,15.1-6.4
			c1.5-0.5,2.8-1.2,4.7-0.8c7-1.4,13.2-3.8,20.9-4.5c20.8-1.7,38.1,2.2,53,11c2.5,1.4,4.7,3,7,4.5c2.6,0.8,1.7,2.2,0.9,3.3
			c-4.5,6.3-10,12.1-21.9,13.9c-3.2,0.5-4,2-4.5,3.7c-2.5,7.2-6.4,13.9-14.5,19.6c-7.9,5.5-17.4,9.1-29.4,9.7
			c-5.3,0.2-10.6,0.8-15.8,0.5c-2.8-0.2-4.2,0.7-4.5,2.2c-0.2,0.9-0.6,1.9-0.4,2.8c0.8,4.3,0.6,8.6,0.2,12.9
			c-0.2,1.7,0.9,2.4,3.8,2.6c3.4,0.1,6.8-0.3,10.2,0.5c1.5,1,0,1.3-1.1,1.5c-1.7,0.3-3.6,0.2-6.4,0.3c10.4,3.4,20.6,5.9,30,9.8
			c2.6-2.4-1.5-5.2,1.5-7.6c5.3,0.3,10.2,1.5,13.4,4.3c0.8,2.6,1.1,5-0.4,7.5c-4.2,1.3-7.4-0.6-11.3-1.2c-0.4,4.1-0.9,8.3,1.7,12.2
			c-0.2,0.9-1.3,1.2-2.6,1.3c-8.3,0.8-16.2,2.3-24,4c-1.1,0.2-2.3,0.3-3.4,0c-2.3-2-1.3-4.2-0.9-6.4c0.8-3.5,0.6-6.9-0.2-10.4
			c-0.6-2.8-2.6-4.7-6.2-6.2c-7.4-3-15.1-5.8-21.7-9.6c-13-7.5-18.9-17.3-23.8-27.5C94.8,223,95.9,213.6,100.1,204.2L100.1,204.2
			L100.1,204.2z"/>
		<path id="XMLID_147_" class="st6" d="M155.1,260.5h-12.3c-2.8,0-4.3-0.5-3.6-2.7c1.3-4.1,0.9-8.2,0.2-12.2c-0.4-2,0.4-3.7,0.6-5.6
			c0-1.5,2.1-2,4.3-1.9c10.2,0.6,19.8-0.2,29.6-2.2c3-0.6,5.3-1.7,7.7-2.8c9.6-4.5,16.2-10.4,19.8-17.5c1.3-2.4,2.5-4.8,2.8-7.3
			c0.2-2.1,1.9-3.1,5.3-3.6c9.2-1,21.5-9.8,22.1-15.4c0-0.2-0.4-0.6-0.6-0.8c2.6-2.4,6.6-2.6,10.9-2.8c3.6-0.2,7.2-1.3,10.6-2.2
			c5.7-1.4,9.6-0.8,14.5,1.9c18.9,10.1,29.8,22.9,35.1,37.9c4.7,13.4,5.3,26.7,0.4,40c-2.6,7.2-8.9,13.6-14.7,20.1
			c-2.5,2.7-5.3,5.1-7.9,7.7c-1.7,0.7-3.4,0.3-4.9,0.1c-24.7-4.7-47.7-11.4-64.7-23.7c-12.3-8.9-19.8-19.6-22.6-31.4
			c-0.2-0.6,0-1.3-0.6-1.7c-0.4-0.2-0.8-0.3-1.1-0.1c-9.2,5.2-20.2,7.7-32.8,7c-3.8-0.2-5.7,0.5-5.1,3.1c0.6,2.8,0.2,5.7,0.2,8.5
			c0,3.4,0.8,3.8,5.8,4.3c17.4,1.6,33.6,5.2,49.1,10.4c16.8,5.6,30.2,13.5,37.2,24.7c3.2,5.2,8.7,8.4,16.6,10.3
			c1.7,0.5,4.2,0.7,3.8,2.6c-4,1.3-7.7,0.7-11.1-0.5c-3.4-1.2-6.8-2.3-10.4-3.5c-1.3-0.6-2.5-1.3-3-2.2c-1.1-1.6-1.3-3.5-2.8-5.1
			c-0.6-0.7-0.9-1.4-1.3-2.1c-3.6-8.2-11.9-13.8-23.8-17.5c-4.9-1.5-9.6-3.6-15.1-4.5c-0.9-0.2-1.7-0.7-2.1-1.3
			c-4.2-1.3-8.3-2.6-12.5-3.7c-0.9,0.3-1.9,0.5-2.8,0.2C169.1,263.1,161.8,262.8,155.1,260.5L155.1,260.5L155.1,260.5z"/>
		<path id="XMLID_145_" class="st7" d="M381.7,3.3c0.2-0.5,0.2-1.3,0.6-1.4c1.7-0.5,1.9,0.7,2.3,1.2c2.8,4.5,5.7,9,8.5,13.5
			c5.5,9,10.8,18,16,26.9c1.7,2.9,1.9,5.7,1.5,8.9c-0.9,10.3-0.6,20.6-1.3,30.9c-0.9,12.9-1.3,25.9-2.3,38.7
			c-0.4,4.8-0.4,9.7-0.8,14.5c-0.9,13.6-1.5,27.3-2.3,40.9c-0.6,12.1-2.1,24.4-1.7,36.5c0,1.7-3.2,4.2,2.1,5.2
			c-7,1.9-14.2,1.3-21.3,0.3c-2.6-1.6-1.7-3.7-1.7-5.7V93c0-11.4-0.4-22.7-0.4-34.2c0-12.7-0.6-25.4-0.2-38.1
			C380.6,15.1,378.5,9.1,381.7,3.3L381.7,3.3L381.7,3.3z"/>
		<path id="XMLID_144_" class="st8" d="M381.7,3.3c1.5,72.1,0.9,144,1.1,216c-6.2,1.6-12.5,1.6-18.7,0c-0.6-9.6-1.1-19.1-1.7-28.7
			c0-0.6,0-1-0.2-1.6c-0.4-10.4-0.6-20.6-1.3-30.9c-0.9-12.5-1.3-25.1-2.1-37.5c-0.6-11.4-1.5-23-1.9-34.4
			c-0.4-12.2-1.3-24.4-1.9-36.6c0-1-0.4-2.2,0.2-3.1C364,32,372.1,17.4,381.7,3.3L381.7,3.3L381.7,3.3z"/>
		<path id="XMLID_143_" class="st9" d="M252.5,369.9c-0.4,0.2-0.8,0.6-1.1,0.8c-0.9,1.2-2.6,1.5-4.5,2c-13.6,3-27.4,4.9-41.9,4.7
			c-11.5-0.2-23.2,0.6-34.5-1.6c-0.9-0.2-2.1-0.2-2.8-0.7c0-1.2-1.3-1.7-2.5-2.2c-9.1-3.4-10.4-8.9-10.9-14.6
			c-0.8-6.6,1.7-13.1,3.2-19.6c1.5-5.9,4.2-11.9,1.7-18c-1.1-1.6-0.2-2.4,2.6-2.3c14.2,0.8,28.3-0.7,42.3-0.5
			c5.7,0.1,7.4,0.9,7.5,4.2c0.9,13.4,10.2,24.7,23.2,35c4.3,3.4,9.4,6.3,14.3,9.4C250.8,367.5,252.9,368.3,252.5,369.9L252.5,369.9
			L252.5,369.9z"/>
		<path id="XMLID_142_" class="st5" d="M252.5,369.9c-8.5-5.7-17.9-11-24.9-17.5c-9.8-9.3-17-19.1-17-30.5c0-2.2-1.7-3-5.5-3.1
			c-13.6-0.1-27.2,1.2-40.9,0.7c-1.7,0-5.1-1.7-5.1,1.3c0.4-4.2-4.2-5.6-9.6-6.5c-1.5-0.2-2.8-1.2-4.7-1.2c-2.6-0.5-5.3-0.9-7-2.3
			c-2.6-2.2-1.1-5.1,3.4-5.1c7.9-0.1,15.8-1.3,24-0.7c9.4,3.5,19.6,5.4,30.6,4.8c7.2-0.3,14.7-0.1,21.5-2.3c1.1-0.3,2.3-0.5,3.4-0.1
			c1.5,1.2,0,2.2-0.8,3.1c-1.7,2.2-3.6,4.3-5.7,7c7.7-0.7,14.9-0.5,22.1-0.9c10.4-0.7,20.8-1.2,30.9-1.9c4.2-0.2,7.9-1.2,11.9-1.6
			c4-0.3,4.2-1.5,2.5-3.4c-0.2-1.4,1.5-1.7,3-2.1c1.9-0.6,4-1.3,5.8-1.9c5.3-1.9,4.2-5,4-7.9c1.5-0.5,2.6,0.1,3.6,0.8
			c3.4,2.4,6.6,4.8,9.8,7.3c1.9,1.4,1.5,2.7-0.6,4c-3.2,2-5.8,4.2-9.6,5.6c-6.8,2.6-7.9,6.3-6.6,10.7c0.8,2.2,0.9,4.4,0.2,6.5
			c-0.9,1-1.5,2.2-1.9,3.5C285.3,350.9,272.9,362.1,252.5,369.9L252.5,369.9z"/>
		<path id="XMLID_141_" class="st1" d="M220.1,444.3c-10,0.6-20,1.3-30,1.9c-3.2,0.5-3-1.2-3.4-2.2c0-2.6,0.2-5.2,0-7.9
			c0-1.2,0.9-2.9-2.1-3c-2.8-0.2-6-0.3-7.5,1.7c-1.7,2.4-3.8,4.8-5.5,7.1c-0.8,0.9-1.7,1.9-2.3,2.8c-1.5,2.2-4.3,3.1-8.1,2.7
			c-6.8-0.7-13.8-1-20.8-1.6c-2.3-0.2-4.7-0.2-6.6-1.4c-2.8,0-4.3-0.7-3-2.6c8.1-10.5,11.5-22.2,20.4-32.5c1.5-0.7,3.2-0.5,4.9-0.1
			c28.3,4.7,56.6,4.9,85.1,1.2c2.3-0.2,4.3-0.5,6.6-0.8c3-0.3,6-0.6,8.9-1.3c3.4-0.1,6.4-2,10.2-0.7c3.6,8.6,5.8,17.4,8.1,26.1
			c0.2,0.8,0.9,1.9-0.9,2.4c-2.1,1.9-5.7,2.2-8.9,2.9c-6.4,1.2-12.8,2.3-19.1,3.5c-4.3,0.8-6.2-0.3-7.2-2.9
			c-0.9-2.8-1.1-5.6-1.7-8.4c-0.4-1.9-1.3-2.9-4.7-2.7c-3.2,0.2-6.8,0-7,2.9c-0.2,3,0.2,6.1-0.2,9.1
			C225,442.5,225.1,445,220.1,444.3L220.1,444.3L220.1,444.3z"/>
		<path id="XMLID_139_" class="st9" d="M100.1,204.2c0.9,2.9-0.9,5.7-1.3,8.5c-2.8,18.4,6,34.2,26.8,47.3c5.1,3.1,11.5,5.7,17.9,7.8
			c7.7,2.4,9.4,6.4,9.8,11.2c0.4,4.4-1.7,8.7-1.1,13.2c-0.9,2-4.2,1.6-6.4,2.4c-5.3,0.8-10.8,0.9-16,1.2c-2.5,0.1-4.7,0.3-7.2,0.1
			c-6.2-0.5-7.7-1.5-8.3-5.4c-0.8-4.3-1.1-8.6-2.1-12.8c-0.9-3.5-5.7-5.5-10-7.2c-7.5-3.1-13.6-7.3-19.2-11.8
			c-10-7.8-10.6-16.7-6.2-25.6C81.4,222.4,89.1,212.9,100.1,204.2L100.1,204.2L100.1,204.2z"/>
		<path id="XMLID_138_" class="st10" d="M145.7,294.6c1.3-1.7,4.5-1.3,6.4-2.4c9.8-1.9,19.6-3.8,30-4.9c7.4-0.9,8.3-4.1,7.5-7.9
			c-0.2-1,0-2.1,1.3-2.9c0-2.7,0.2-5.5,0.2-8.2c14.2,3.4,27.7,7.3,36.6,15.4c2.6,2.4,4.7,5,5.1,8c-0.8,1.9-3,3-5.3,4.1
			c-3.6,1.9-5.1,4-4.7,6.8c0.2,1.3,0.2,2.7-0.6,4c-0.4,0.5-0.9,0.8-1.9,0.9c-13.8,3.8-28.1,4-42.6,2c-4.7-0.7-8.9-2-12.6-3.8
			c-1.1-0.7-1.7-1.4-1.1-2.4c0.6-3.6-1.5-5.9-7.5-6.6C153.1,295.9,149.5,295.2,145.7,294.6L145.7,294.6L145.7,294.6z"/>
		<path id="XMLID_137_" class="st5" d="M260.8,304.7c-4-2.2-9.4-2.8-13.6-4.7c-2.6-1.2-4.3-2.4-5.5-4.3c-7-12-20.2-20.8-37.7-27.2
			c-13.4-4.9-28.5-7-42.8-10.3c-3.6-0.8-7.4-0.1-11.1-0.8c-1.9-0.3-2.8-0.7-3-2c-0.4-4.7,0.8-9.2-0.8-13.9c-0.4-1.5,1.7-1.3,3.2-1.3
			c5.1-0.1,10.4,0.1,15.3-0.2c7.7-0.7,14.3-3,20.2-6.4c0.8-0.5,1.5-1.5,2.8-0.9c0.8,0.3,1.1,1.3,1.3,2c1.3,9.8,8.3,18.3,16,26.7
			c7.9,8.5,20,14.2,33.6,18.9c6.6,2.3,13.4,4.8,20.4,6.5c6.8,1.7,14.2,2.8,21.1,4.2c-1.3,1.3-2.5,2.6-3.8,4c1.3,1,3.6,0.1,4.9,0.9
			c-7.4,0.6-10.8,4.5-15.5,7.3C264.4,304,263.3,305.3,260.8,304.7L260.8,304.7z"/>
		<path id="XMLID_136_" class="st11" d="M100.8,467.6c-2.3-2-5.8-3-8.9-4.7c-3.6-1.9-3.4-3,0.4-4.5c9.1-3.5,19.2-5.6,28.7-8.9
			c1.7-0.6,3.6-0.3,5.3,0.2c3.8,0.2,6.2,2.1,9.1,3.4c7.2,3.7,14.2,7.6,22.6,10.3c1.3,0.3,2.1,1,2.8,1.7c3.6,1.3,4.5,3.1,4.7,5.7
			c0.4,5.8-1.5,11.4-3.6,17c-1.1,2.9-4.5,3.8-9.4,2.6c-4.7-1.2-8.3-3.6-12.8-5c-1.3,0-2.3-0.3-3.2-0.8
			c-11.3-5.2-22.8-10.5-34.1-15.9C101.8,468.4,101.2,468.1,100.8,467.6C100.8,467.6,100.8,467.6,100.8,467.6z"/>
		<path id="XMLID_135_" class="st12" d="M167.8,375c4.3-1.2,8.1,0.8,12.3,0.9c14.9,0.6,29.8,0.9,44.7-0.5c9.2-0.8,18.1-2.8,26.8-4.8
			c-0.2,5.5,0,11,2.3,16.3c-1.5,2.2-5.1,2.4-8.1,2.9c-13.8,2.2-27.7,4.1-42.3,3.8c-7.7-0.1-15.3-0.3-22.6-2
			c-5.5-1.3-10.2,0-15.1,1.2C166.8,387,167.8,381.1,167.8,375L167.8,375L167.8,375z"/>
		<path id="XMLID_134_" class="st11" d="M266.8,465c6.2,4.7,13.8,8.4,20.8,12.5c4.2,2.4,3.8,3.5-1.7,4.9c-4,1-8.3,0.9-12.5,1.2
			c-1.5,0.8-3.4,0.9-5.3,0.9c-14.5-0.2-28.7,0.9-43,1.9c-1.5,0.1-3,0.1-4.5-0.2c-5.7-0.2-11.1-0.6-16.8-0.7c-2.8-0.1-2.6-0.8-1.7-2
			l13.6-16.8c0.9-1.3,2.6-1.5,4.5-1.5c2.6-1.2,5.7-0.9,8.5-0.8c11.1-0.2,22.3,0.2,33.4-0.2C264.2,463.8,265.9,464,266.8,465
			L266.8,465L266.8,465z"/>
		<path id="XMLID_133_" class="st5" d="M144.8,494.3c7.5-0.9,13.2,0.6,17.2,4.9c2.8,3,6.4,5.9,9.6,8.9c2.5,2.4,1.1,3.7-3.4,3.8
			c-2.8,0.1-5.8,0.1-8.7,0c-14-0.9-27.9,0.3-41.9,0.7c-4.2,0.1-7-0.8-9.8-2.6c-12.5-7.8-23.6-16.3-36.4-23.9c-5.7-3.3-3-5.8,4-8.7
			c3.8-1.6,8.1-3,12.5-4.1c1.1,3.3-1.1,6.2-1.9,9.2c-0.4,1.6-0.6,3,1.5,4.3c8.9,5.7,17,11.9,24.1,18.3c1.5,1.3,3.2,3.6,6.6,1.2
			c7.7-2.1,13.4-5.9,19.8-9.1C140.1,496.2,142.1,495,144.8,494.3L144.8,494.3L144.8,494.3z"/>
		<path id="XMLID_132_" class="st5" d="M291.7,494.5c8.1,2.3,16.6,4.1,24.7,6.5c4.7,1.5,4.9,3.7,4.5,6.3c-0.4,2.7-3.4,3.5-7.5,3.7
			c-7.2,0.3-14.2,0.9-21.3,1.4c-5.7,0.3-11.3-0.7-17.2-0.1c-14.9,1.6-30.2,1.5-45.3,1.4c-8.7-0.1-10-0.9-10-6.2v-6.3
			c0-0.9-0.2-2,1.9-2.3c1.9-0.1,2.6,0.8,3.6,1.5c1.1,0.8,2.1,1.6,2.8,2.6c4.2,5.1,10.4,6.9,19.6,5.6c7.2-0.9,14.5-1.2,21.9-0.9
			c3.8,0.1,6.6-0.7,8.5-2.7C282.9,501.8,286.1,497.6,291.7,494.5L291.7,494.5L291.7,494.5z"/>
		<path id="XMLID_131_" class="st13" d="M144.8,494.3c-7.2,4.2-15.1,7.8-22.8,11.7c-1.1,0.6-2.3,0.9-3.6,0.2
			c-4.2-1.4-6.2-4.1-9.1-6.3c-5.5-4.5-11.3-9-17.7-13.1c-2.6-1.7-4-3.6-3-5.9c1.1-2.6-0.2-5.4,2.5-7.6c1.5-0.7,3-0.2,4.3,0.1
			c13.6,4.4,26.2,9.7,39.2,14.7c0.9,0.3,1.9,0.9,2.1,1.7C134.6,493.8,135.1,494.2,144.8,494.3C144.8,494.3,144.8,494.3,144.8,494.3z
			"/>
		<path id="XMLID_130_" class="st13" d="M398.2,236.4c5.8,0.5,11.9-0.7,17.5,0.7c-3.6,1.6-7.7,1.6-11.7,1.5
			c-6.2,0-12.3,0.9-18.1,1.9c-2.8,0.5-6,4.7-5.1,6.2c0.6,0.9,1.9,0.8,3,0.7c9.6-1,19.4,0.1,29.1-0.8c1.7-0.1,4-0.5,4.5,1.2
			c-1.7,0.7-3.2,1.4-4.9,2c-4.5,1.5-9.4,1.4-14.3,1.5c-5.8,0.1-11.5,0-17.4,0c-3.4,0-5.5,1-6,3.1c-0.6,2.3,0.8,3.7,4.7,3.7
			c5.8,0.1,11.9,0.1,17.7-0.2c4.7-0.3,9.8-1.2,14.3,0.7c-0.8,0.6-1.7,1.2-2.5,1.9c-1.1,1.2-3,1.5-4.9,1.4
			c-6.6-0.1-13.2,0.8-19.8,0.8c-2.3,0-5.5-0.9-6.4,1.3c-0.8,2,2.8,4.7,6.4,4.9c4.2,0.2,8.1,0.5,12.1,0.9c2.6,0.2,5.5,0.2,7.5,1.5
			c-0.8,1.6-4,2.9-2.5,5c-3,0.9-6,0.1-8.9,0c-2.5,0-5.3-0.8-7,0.8c-1.7,1.5-0.9,3,0.6,4.4c0.6,0.5,0.8,0.9,0.4,1.5
			c-2.6,1.6-5.7,1-8.9,0.9c-3-0.9-6.8-1.2-9.2-2.9c5.8-8.4,4.5-12.4-5.8-18.8c-4-2.4-3.8-5.6,1.3-7.7c7.5-3.1,8.5-6.2,4.2-12
			c-2.1-2.7-5.8-2.8-9.6-3c0.6-3,5.3-2.1,8.1-3.3c1.1-0.6,2.3-0.8,3.8-0.8h23.4C395.9,235.6,397,235.8,398.2,236.4L398.2,236.4
			L398.2,236.4z"/>
		<path id="XMLID_129_" class="st13" d="M291.7,494.5c-3.4,3.8-7.5,7.3-12.5,10.5c-1.7,0.9-3.8,0.9-5.8,0.9c-10-0.1-20,0.2-30,1.2
			c-4.5,0.5-8.3-0.3-11.1-2.8c-3-2.6-6-5-10.6-6.8c-1.9-0.7-0.9-1.7-1.1-2.7c0.8-0.6,2.1-0.8,3.2-0.8c15.1-0.2,29.4-3.1,44.1-4.8
			c1.9-0.2,4-0.7,6-0.1C279.1,491.9,286.1,492.4,291.7,494.5L291.7,494.5z"/>
		<path id="XMLID_128_" class="st11" d="M359.3,239.7c6-1.3,7.9-0.9,10.8,2.8c5.3,6.6,3.8,9.6-5.1,13.1c-4.5,1.7-4.2,4.4-0.2,6.6
			c6,3.4,9.4,7.7,9.6,12.7c0,2.6-1.9,4.5-5.1,6.1c-5.1,1.2-8.7-0.8-11.5-2.7c-5.3-3.6-8.3-8-9.4-13.1c-1.1-5.4-0.6-10.7,0-16.1
			c0.2-1.6,1.1-3,2.5-4.4C353.8,243.1,357,241.7,359.3,239.7L359.3,239.7L359.3,239.7z"/>
		<path id="XMLID_127_" class="st12" d="M164.4,303.1c0.4,0.8,0.8,1.6,1.1,2.4c-7.9-0.3-15.8,1-23.8,0.7c-1.5-0.1-3.2,0.1-3.8,1.2
			c-0.6,1.2-0.6,2.3,1.1,3.1c1.9,0.9,3.8,1.7,5.7,2.6c-12.6,1.2-25.1,1.3-37.4-1.2c-3.4-0.7-6.6-1.6-9.2-3.1
			c-4.5-2.7-3.8-5.8,1.7-7.7c4.7-1.6,9.8-2.7,14.9-2.9c11.7-0.6,23.4-0.5,35.1,0.6C155.3,299.2,160.1,301,164.4,303.1L164.4,303.1
			L164.4,303.1z"/>
		<path id="XMLID_126_" class="st11" d="M317,271.7c2.6-2.4,5.7-4.7,9.2-6.5c6.4-3.3,7.7-3.1,14.3-0.1c3,1.2,4.9,2.9,6.4,4.8
			c3.4,4.1,7.2,7.8,12.5,11.1c2.8,1.7,4,3.8,1.7,6.3c-0.8,4.9-1.9,9.8-4,14.6c-4.3-1.4-6.2-4.1-9.1-6.3c-9.2-7.2-19.2-14-28.9-20.9
			C318.2,273.8,316.3,273.1,317,271.7L317,271.7L317,271.7z"/>
		<path id="XMLID_125_" class="st1" d="M165.7,393c4-3.3,9.6-3.4,14.7-2.3c10,2.2,20.2,2.2,30.6,2.1c11.3-0.1,22.3-2.1,33.4-3.5
			c3.4-0.5,6.6-1.2,9.4-2.3c4.3-0.2,6,1.4,6.8,3.7c0.4,1.3,0.9,2.7,1.3,4c-2.5,1.6-6,1.5-9.2,2.1c-3.2,0-6.2,0.6-9.1,1.3
			c-22.3,2.3-44.7,3.5-67.4,2.2c-5.3-0.3-10.9,0.5-15.7-1.7C162.1,396.7,163.8,394.9,165.7,393L165.7,393L165.7,393z"/>
		<path id="XMLID_124_" class="st14" d="M406.3,223.8c4.5,0.8,11.7-0.9,15.5-3.8c1.3-1,2.8-2.2,3.4-3.5c0.9-2.3,2.6-2.8,5.8-1.7
			c3.2,1,7.4,1.6,4,4.7c-2.5,0.2-4.3,0.6-5.8,2c-7.2,6.9-18.1,9.7-30.8,10.1c-9.8,0.3-19.8,0.2-29.6,0c-13.4-0.3-25.1-3-32.6-10.4
			c-1.5-1.4-3.4-1.5-5.7-1.7c-1.7-1-1.7-2.4,0-3.3c2.1-1.2,4.9-1.9,7.9-2c1.3-0.1,1.1,1,1.5,1.7c2.5,4.2,7.4,6.6,13.8,8.3
			c2.1,0.5,4,0.2,5.8-0.2c0.8-0.6,1.9-0.7,3-0.8c1.5,0,2.8,0,4.3,0.2c5.5,0.6,11.1,0.1,16.8,0.2c7.2,0.1,14.3-0.1,21.7,0.1
			C405.7,223.7,405.9,223.8,406.3,223.8L406.3,223.8L406.3,223.8z"/>
		<path id="XMLID_123_" class="st12" d="M229.1,465h-8.5c0-6.9,0.9-13.9-0.6-20.8c3.6-0.1,3.8-1.7,3.8-3.4c0-3.4,0.2-6.8,0-10.1
			c-0.2-2.2,1.5-3,4.7-3.1c2.1,0,4.2,0,6-0.3c3-0.6,3.4,0.2,3.6,1.7c0.4,3.3,1.5,6.4,1.9,9.7c0.2,3,2.5,3.4,6.4,2.8
			c1.1,0.6,1.1,1.5,1.3,2.3c1.9,5.5,6.4,7.7,15.5,7.3c1.1,0,2.5-0.2,3.4,0.5c0,1.5,0,2.9,0.2,4.4c-4,1.6-8.3,1-12.3,0.3
			c-8.3-1.6-14-5.1-16.6-10.3c-0.6-1.2,0-3-3.6-2.7c-3.2,0.3-3.8,1.7-3.8,3.5v14.1C230.4,462.6,230.6,464,229.1,465L229.1,465
			L229.1,465z"/>
		<path id="XMLID_122_" class="st9" d="M229.1,465c0-6.4,0.4-12.9-0.2-19.4c-0.4-3.7,4.3-2.9,7.2-3.5c4-0.8,2.3,1.6,2.5,2.4
			c3.4,8.3,11.7,11.8,28.3,11.5v8.9c-3-1.2-5.8,0.1-8.9,0.1C248.4,465,238.7,465,229.1,465L229.1,465z"/>
		<path id="XMLID_121_" class="st6" d="M125.5,174.3c1.3-0.6,2.8-1,4.2-1.6c4.3-0.9,7.9-0.1,11.5,1.5c2.8,1.3,6,2.3,8.9,3.4
			c-15.3,5.5-29.1,12.1-41.1,20.1c-1.5,0.9-3.2,1.9-4.9,2.8c2.1-4.7,3.2-9.4,2.8-14.2c-0.2-2.8,4.9-3,5.5-5.4c2.6-0.5,4.2-1.9,6-3
			C119.7,175.7,122.1,174.6,125.5,174.3L125.5,174.3L125.5,174.3z"/>
		<path id="XMLID_120_" class="st15" d="M274,489.2c-17.5,2.4-34.9,5.7-53.2,5.7c-2.3-2.9,0.8-5.9,0-8.9c6.8-1.6,14.2-1.2,21.1-1.9
			c10.4-0.9,21.1-0.9,31.7-0.7C274.4,485.3,274.2,487.3,274,489.2L274,489.2L274,489.2z"/>
		<path id="XMLID_119_" class="st9" d="M291.4,332.7c-1.5-4.2-2.3-8.4-1.7-12.7c0.2-2.1,3.4-3.1,5.7-4.3c3.2-1.5,6-3.3,9.1-5.1
			c4.9-3,5.1-3.1,0.2-6.3c-3.4-2.1-5.1-5.1-10-6.5c-3.8,0.6-6.6-0.5-9.1-2c3-1.5,6-3,9.1-4.5c4.3,2,7.2,4.8,10.6,7.2
			c2.8,2.1,5.7,4.2,9.4,5.8c3.6,1.6,4.2,3.7,1.7,5.7c-2.8,2.3-1.9,4,1.3,5.5C309.3,321.9,300.2,327.1,291.4,332.7
			C291.4,332.7,291.4,332.7,291.4,332.7z"/>
		<path id="XMLID_118_" class="st9" d="M295.5,290.9c6.4-3.1,12.8-6.4,19.2-9.6c6.8,2.2,11.7,5.8,17.5,8.9c4,2.1,7.4,4.5,11.5,6.5
			c-10.2,5.1-17.4,12.1-25.7,18.3c-3.2-0.9-3.4-2.3-1.9-4.1c3.2-4.2,3.2-4.3-2.8-7.3C306.5,299.9,300.8,295.5,295.5,290.9
			L295.5,290.9L295.5,290.9z"/>
		<path id="XMLID_117_" class="st5" d="M248.7,410.1c-20,3.1-40.4,4.4-61.1,3.3c-12.5-0.7-24.5-1.9-36.4-4.1c0.2-1.5,1.5-2.7,3-3.7
			c2.8-0.6,5.5-0.1,8.1,0.2c12.8,1.9,26,2.4,39.1,2.4c13.2,0,26.4-0.8,39.4-2.8c1.5-0.2,3-0.3,4.5-0.5c0.6,0,1.1,0.1,1.7,0.2
			C248.9,406.6,247.6,408.5,248.7,410.1L248.7,410.1L248.7,410.1z"/>
		<path id="XMLID_116_" class="st5" d="M160.4,398.6c14.5,1.2,29.2,1.5,44,1.2c13.4-0.3,26.8-1.2,40-2.4c1.3,1.4,3.2,2.7,4.3,4.2
			c-1.1,1.2-3.2,1.4-5.3,1.6c-21.1,2.6-42.6,2.1-64,2c-5.7,0-11.5-0.6-17.2-1.2c-2.1-0.2-4.2-0.5-5.3-1.6
			C157.6,400.8,158.4,399.4,160.4,398.6C160.4,398.6,160.4,398.6,160.4,398.6z"/>
		<path id="XMLID_115_" class="st16" d="M330.6,219.4c2.8-1.2,4.5-1.4,6.4,1c4.5,5.5,12.6,8.6,22.3,9.6c15.3,1.5,30.9,1.6,46.2,0.1
			c10.4-1,18.9-4.4,23.6-10.5c1.9-2.4,3.8-0.5,5.7-0.2c-5.7,8.6-17.9,11.9-30.8,14.6c-1.9,0.3-4,0.5-6,0.7c-4.7,1.9-26,1.9-30.8,0
			C351.7,232.6,337.6,229.2,330.6,219.4L330.6,219.4z"/>
		<path id="XMLID_114_" class="st11" d="M417.6,247.7c-2.8-1.3-5.5,0-8.3,0.1c-9.2,0.2-18.3-0.3-27.5,0.7c-3.2,0.3-4-0.3-2.5-2.2
			c1.5-1.9,0-5,2.6-5.7c5.1-1.5,10.9-2.3,16.6-2.7s11.5-0.5,17.2-0.8c5.7,0.8,6.8,1.9,5.3,5.2C420.2,244.2,421.7,246.7,417.6,247.7
			L417.6,247.7L417.6,247.7z"/>
		<path id="XMLID_113_" class="st17" d="M285.3,296c3,0.7,6,1.3,9.1,2c4.7,4.1,1.1,6.6-3.6,8.6c-2.6,1-5.7,1.7-8.5,2.7
			c-1.5,0.8-3.2,0.5-4.7,0.2c-13.4-2.1-27.2-1.9-40.9-2.4c-2.1-0.1-4.2,0-6-0.5c-1.9-2.3-0.9-4.2,3.4-5.7c1.7-0.6,3.2-1,5.3-0.7
			c2.6,0.7,5.5,1.3,7.7,2.3c4.2,2,8.7,2.8,13.8,2.3c3.6-1.2,6.4-3,8.3-4.9c3-2.9,6.6-4.3,12.1-4C282.7,295.9,284,295.9,285.3,296
			L285.3,296L285.3,296z"/>
		<path id="XMLID_112_" class="st1" d="M157,402.3c6.2,1.3,12.8,1.6,19.1,1.7c18.5,0.5,37.2,0.9,55.7-0.8c4.2-0.3,8.5-0.6,12.6-0.8
			c1.1,0.9,2.5,1.9,1.9,3.1c-12.3,1.9-24.5,2.9-37.2,3.3c-17.4,0.6-34.5-0.5-51.5-2.7c-1.1-0.1-2.3-0.5-3.4-0.6
			C155.1,404.4,156.1,403.4,157,402.3L157,402.3z"/>
		<path id="XMLID_111_" class="st11" d="M411.7,258.7c-10.9-0.5-21.7,0.7-32.5,0.7c-5.7,0-5.8-2.1-6.4-4.3c-0.4-2.3,2.8-4.7,6.2-4.7
			c11.1,0,22.5,0.1,33.6-0.6c0.2,0.2,0.4,0.6,0.8,0.8C419.5,253.9,419.1,255.9,411.7,258.7L411.7,258.7L411.7,258.7z"/>
		<path id="XMLID_110_" class="st5" d="M188,443.5c0.2,1-0.6,2.4,2.3,2.7c0.2,1.4,0.6,2.9,0.4,4.3c-0.8,4.4-8.9,8.2-17.4,8.2
			c-1.1,0-2.3,0-3.4,0.1c-10.4-2-14.2-7.5-8.3-12c3.2,0.3,5.1-0.3,6.4-2.2c0.6-1,1.7-2,2.6-3C176.5,438.9,184.2,439.7,188,443.5
			L188,443.5L188,443.5z"/>
		<path id="XMLID_109_" class="st15" d="M361.4,287.1c0.8-2.9-0.9-5.1-4.7-7.1c-3.4-1.9-5.7-4.4-7.9-6.8c-2.6-2.8-5.3-5.5-7.9-8.3
			c0-4.1,0.2-8.2-0.2-12.2c-0.2-2.7,1.1-4.3,4.9-5.5c2.1-0.7,3.8-1.7,5.7-2.6c-1.7,7.2-3.2,14.5-0.8,21.6
			c2.5,7.5,7.9,13.8,19.2,14.6c2.6,1,6.2,0.9,8.3,2.6c1.9,2.2,0.4,3.1-3.2,3.3C370,286.1,365.7,286.9,361.4,287.1L361.4,287.1
			L361.4,287.1z"/>
		<path id="XMLID_108_" class="st15" d="M136.8,489.9c-14-5.4-27.7-11-42.1-15.9c-0.9-0.3-2.3-0.5-3.4-0.6c-1.3-0.1-1.5-0.6-0.9-1.3
			c3.6-1.5,7-3,10.6-4.5c8.3,2.8,15.3,6.9,23,10.3c5.5,2.4,10.8,5.1,16,7.7C139.7,487.1,138.5,488.6,136.8,489.9L136.8,489.9z"/>
		<path id="XMLID_107_" class="st17" d="M161.4,446.7c-3,5.7-1.7,7.8,6.4,11c0.8,0.2,1.1,0.7,1.9,1c-1.3,0.7-2.8,1.4-4.2,2.1
			c-5.1-0.1-9.1-1.7-11.9-4.3c-2.1-2-4.7-2.8-8.5-2.6c-3.6,0.2-7-0.1-10.6-0.2c-2.8-1.3-5.5-2.7-8.3-4c2.5-1.9,4.9-3.6,7.2-5.5
			C142.9,445.3,152.3,445.1,161.4,446.7L161.4,446.7L161.4,446.7z"/>
		<path id="XMLID_106_" class="st11" d="M404.4,271.4c-7.2-0.2-14-1.4-21.1-1.4c-3.4,0-8.7-5.6-7.4-7.3c0.6-0.9,1.9-0.8,3-0.7
			c7.9,0.3,15.8-0.7,23.8-0.6c2.3,0,4.3-0.3,6.4-0.7C413.4,264.6,412.3,267,404.4,271.4L404.4,271.4L404.4,271.4z"/>
		<path id="XMLID_105_" class="st5" d="M266.7,451.9c-13.4,1.5-20.4-2.1-20-10.1c9.1-1.9,18.3-3.7,27.4-5.6
			C276.7,442.2,275.9,447.8,266.7,451.9L266.7,451.9z"/>
		<path id="XMLID_104_" class="st18" d="M90.4,472.2c0.4,0.5,0.8,0.8,0.9,1.3v0.3c-1.9,10.6-1.9,10.6,10,18.8
			c6.2,4.3,11.5,9.1,17,13.8c0,0.9,0,2-1.9,2.4c-2.1,0.5-3.2-0.6-4.2-1.3c-5.1-3.6-8.7-7.8-14-11.3c-4.3-2.8-8.1-5.9-12.5-8.7
			c-1.9-1.3-2.8-2.3-1.9-4.2c1.5-3.3,2.3-6.5,3.4-9.8C88.2,472.5,88.9,472,90.4,472.2L90.4,472.2L90.4,472.2z"/>
		<path id="XMLID_103_" class="st18" d="M221.7,497.6c1.5-1.3,2.6-0.3,3.6,0.3c2.3,1.4,4.7,2.8,6.2,4.5c3.4,3.5,7.9,4.2,14.2,3.6
			c11.1-1.2,22.3-1.3,33.4-1c-1.1,2.8-3.8,4.1-8.9,3.8c-10.2-0.6-20.2,0.9-30.4,1.3c-4,0.1-6.8-0.6-9.1-2.8
			c-2.8-2.8-6.2-5.5-9.4-8.3C221.7,498.5,221.7,498,221.7,497.6L221.7,497.6z"/>
		<path id="XMLID_102_" class="st16" d="M391,289.7c0.9,0.2,1.1,0.7,1.3,1.3c-0.4,0.2-0.8,0.5-1.1,0.6c-5.5,1.2-7,3.1-5.1,6.2
			c0.8,1,1.7,1.9,3.8,1.6c2.3-0.2,2.8-1.3,2.6-2.6c-0.2-0.8-0.6-1.6-0.2-2.4c0.4-0.5,0.8-0.8,1.7-0.7c1.1,2.3,3,4.4,3.2,7
			c-7.5,3.5-22.5,3.1-28.5-0.6c1.5-3.5,2.8-7.1,6-10.1C380,289.1,385.5,289.1,391,289.7L391,289.7L391,289.7z"/>
		<path id="XMLID_101_" class="st19" d="M362.3,223.8h-2.6c-0.6-2.3-1.7-4.8,4.5-4.5h18.7h21.5c3.2,1,1.5,2.9,1.9,4.4l-0.2,0.1
			c-11.3-0.2-22.8-0.1-34.1,0C368.7,223.8,365.5,222.9,362.3,223.8L362.3,223.8L362.3,223.8z"/>
		<path id="XMLID_100_" class="st9" d="M134.6,453.7c5.5-1.3,10.9-0.5,16.4-0.5c0.6,0,1.3,0.3,1.5,0.7c2.3,3.7,7.9,5.2,13,7
			c-1.5,1.4-3,2.8-4.7,4.3C151,462.4,143.1,457.9,134.6,453.7L134.6,453.7L134.6,453.7z"/>
		<path id="XMLID_99_" class="st12" d="M343.8,296.7c-0.9-0.1-2.3-0.1-2.8-0.5c-8.7-5-17.4-10-26-14.9c1.7-1.5,4.5-2.3,5.8-4.1
			c4.9,1.6,7.5,4.7,11.3,7c4.3,2.8,7.7,6.1,11.9,8.9c1.1,0.7,2.3,1.6,1.7,2.8C345.1,296.2,344.6,296.4,343.8,296.7L343.8,296.7z"/>
		<path id="XMLID_98_" class="st16" d="M395.1,302.4c-3.6,3.5-7.2,6.9-10.8,10.4c-1.1,1.2-2.3,1-3.4,0c-3.6-3.4-7.4-6.9-10.9-10.3
			C378.5,303.6,386.8,303.1,395.1,302.4L395.1,302.4z"/>
		<path id="XMLID_97_" class="st20" d="M345.9,295.9c-6.6-5.6-14-10.8-21.5-16.1c-1.3-0.8-2.5-1.7-3.6-2.7c-1.5-1-2.8-2-4.5-3
			s-1.1-1.7,0.6-2.4c7.9,5.6,15.8,11.3,23.6,16.9c5.8,4.2,11.5,8.5,16.6,13.2c-1.9,1.4-3.2,0.5-4.3-0.5
			C350.4,299.5,348.2,297.7,345.9,295.9L345.9,295.9L345.9,295.9z"/>
		<path id="XMLID_96_" class="st21" d="M386.8,282.8c-3.6-1.6-4.2-3.7-2.3-6.1c1.7-2.1,4.7-1.7,7.9-1.3c3,0.5,6.4,0,9.4,0.8
			c-0.8,3.8-4.3,5.8-10.4,6.4C390,283.5,388.5,283.6,386.8,282.8L386.8,282.8z"/>
		<path id="XMLID_95_" class="st22" d="M386.8,282.8c1.7,0,3.2,0,4.9-0.1c-0.2,2.3-0.6,4.7-0.8,7c-5.5,0.9-10.9,0.9-16.4,0v-3
			c1.9-0.8,4-1.4,3.2-3.3C380.6,283,384,284,386.8,282.8L386.8,282.8L386.8,282.8z"/>
		<path id="XMLID_94_" class="st23" d="M295.5,290.9c3.4,1.3,5.5,3.5,7.9,5.2c4,2.8,7.7,5.8,13,8c4.2,1.7,4.2,4.1,1.7,6.2
			c-2.1,1.7-1.9,3.1,0,4.7c-0.4,0.2-0.8,0.5-0.9,0.7c-6.2-1.4-6.4-2-2.8-5.1c2.6-2.3,2.6-4-1.7-5.9c-7.5-3.5-13.2-8.3-18.3-13.2
			C294.8,291.2,295.1,291.1,295.5,290.9L295.5,290.9L295.5,290.9z"/>
		<path id="XMLID_93_" class="st24" d="M395.1,302.4c-8.3,2.1-16.6,2.8-25.1,0c-1.5-0.7-2.3-1.5-1.7-2.7c9.2,3.1,18.9,2.3,28.5,0.6
			C397.4,301.5,396.3,301.9,395.1,302.4L395.1,302.4L395.1,302.4z"/>
		<path id="XMLID_92_" class="st25" d="M266.8,407.4c-3.4,0.1-6.4,1.5-10,1.4c-1.5-1.2-1.9-2.8-3.4-4c0-0.6,0.6-0.8,1.1-1.2
			c3.4-0.6,6.8-1.7,10.6-1.4C266.1,404.1,267.2,405.6,266.8,407.4C266.8,407.4,266.8,407.4,266.8,407.4z"/>
		<path id="XMLID_91_" class="st26" d="M252.5,396.1c3-0.5,6.2-0.9,9.2-1.4c1.3,1.4,2.3,2.9,1.9,4.5c-2.5,1.9-5.7,2-9.2,1.6
			C252.9,399.5,253.8,397.6,252.5,396.1L252.5,396.1L252.5,396.1z"/>
		<path id="XMLID_90_" class="st22" d="M367.4,234.5c10.2,0.9,20.6,0.9,30.8,0v1.9h-30.9C367.4,235.8,367.4,235.1,367.4,234.5
			L367.4,234.5L367.4,234.5z"/>
		<path id="XMLID_89_" class="st27" d="M253.6,400.6c3.6,0.1,6.8-0.6,10-1.2c0.6,1,0.9,2,1.5,3c-3.4,0.9-6.8,1.6-10.4,1.9
			c-0.8-1-0.8-2.2-1.3-3.4C253.4,400.8,253.6,400.7,253.6,400.6L253.6,400.6L253.6,400.6z"/>
		<path id="XMLID_88_" class="st28" d="M393.8,293.5c-0.4,0.2-0.6,0.3-0.9,0.6c-3-0.5-2.5-1.9-2.1-3.1c0.4,0,0.9,0,1.3-0.1
			C392.7,291.8,393.3,292.6,393.8,293.5L393.8,293.5L393.8,293.5z"/>
		<path id="XMLID_87_" class="st29" d="M144.2,490.2c1.3-0.5,2.1-0.9,2.8-0.6c1.1,0.7,0,0.7-0.8,0.7
			C145.7,490.5,145.1,490.3,144.2,490.2L144.2,490.2z"/>
		<path id="XMLID_86_" class="st18" d="M188.4,192.1c-7.2,0-12.8-3.4-12.6-7.7c0.2-4.1,6.2-8,12.6-8.2c6.4-0.1,13,4.1,13,8.3
			C201.4,188.8,195.7,192.2,188.4,192.1C188.4,192.1,188.4,192.1,188.4,192.1z"/>
		<path id="XMLID_85_" class="st9" d="M155.1,260.5c8.1,0.6,15.8,2.3,23.6,3.8c-0.8,2.4,2.1,4.7,0.4,7.1c-0.6,0.9-0.9,1.6-2.6,0.9
			c-9.2-4.1-19.8-6.4-29.8-9.8c-0.8-0.2-1.3-0.6-2.5-1C148,260.4,152.1,262.1,155.1,260.5L155.1,260.5L155.1,260.5z"/>
		<path id="XMLID_84_" class="st18" d="M191,276.4c0,2.3-0.2,4.5,0.2,6.9c0.6,3.1-1.5,4.4-6.6,4c-0.8-0.1-1.7,0-2.5,0
			c-3.4-0.7-2.8-2.7-3.2-4.2c-0.6-2.3,0-4.8-0.2-7.2c-0.2-1.6,1.1-1.7,3-1.4C185,275.1,188,275.7,191,276.4L191,276.4L191,276.4z"/>
		<path id="XMLID_83_" class="st30" d="M214.8,192.8c-0.9,2-3.2,3.6-6.4,3.5c-3.2-0.2-6.2-1.6-5.8-4.1c0.4-2.1,2.6-3.5,6.2-3.4
			C212.5,188.8,214,190.7,214.8,192.8L214.8,192.8z"/>
		<path id="XMLID_82_" class="st31" d="M264.8,213.1c-2.1-2.9-4.3-5.9-6.4-8.9c-2.1-2.8-4.2-5.5-7.9-7.6c-2.8-1.6-2.5-3.1,1.1-4.2
			c2.5-0.7,4.9-1.5,7.4-2.2c4-1,7.2-0.8,10.6,1c7.9,4.3,14.9,9,19.4,15c1.5,2,2.5,3.3-2.3,3.4c1.3,6.1,6,11.5,7,17.7
			c0.2,1.5,2.6,1.9,4.2,2.6v19c-2.5,2-2.8,4.4-3.8,6.8c-0.8,2-0.8,4.2-3.4,5.8c-5.1,1-5.3,1-6.4-2c-0.2-1.9,0.2-3.7-0.2-5.6
			c-0.4-1.2-1.1-2.2-3-2.7c-3.4-0.8-4.7,0.3-5.1,2.2c-0.4,1.9-0.8,3.7-1.3,5.5c-0.4,1.2-0.6,2.3-2.5,2.8c-3.2,0.2-4.5-0.6-3.8-2.6
			c5.1-12,2.6-24,0-35.9c-0.2-0.9-0.6-1.9,0.6-2.7c2.6,0.6,2.5,2.1,3,3.4c0.8,1.6,1.1,3.3,2.1,4.9c0.9,1.4,2.1,2.4,4.9,1.9
			c2.3-0.6,2.3-1.7,2.1-2.9c-0.6-5.1-2.6-10.1-7.4-14.6c-1.5-1.4-3.4-2.4-6.4-1.5C266.5,212.2,265.9,212.9,264.8,213.1L264.8,213.1
			L264.8,213.1z"/>
		<path id="XMLID_81_" class="st32" d="M271.9,261.8c1.5-2.9,1.9-5.8,2.5-8.9c0.6-3,2.5-3.6,7-2.4c2.6,1,2.5,2.7,2.1,4.3
			c-1.1,7.8-5.1,15-10.2,22.2c-1.1,1.5-2.8,2.7-5.3,3.3c-5.1-0.2-6.2-1.5-4.2-4.5C266.8,271,270.4,266.6,271.9,261.8L271.9,261.8z"
			/>
		<path id="XMLID_80_" class="st32" d="M247.2,279.4c-4.9-0.1-6.4-1-4.5-3.7c4.5-6.5,5.7-13.5,6.8-20.4c0.4-2.2,0.4-4.9,6-4.8
			c2.8,0.7,3.8,2.1,3.6,3.7c-0.9,7.1-1.9,14.2-6.2,21C251.7,277,250.8,278.8,247.2,279.4C247.2,279.4,247.2,279.4,247.2,279.4z"/>
		<path id="XMLID_79_" class="st32" d="M290.2,261.1c1.7-2.8,2.6-5.8,3.2-8.7c0.4-1.7,1.3-3,4.2-3.4c1.5,0.1,1.9,0.9,2.8,1.5
			c1.7,1,0.9,2.3,0.6,3.5c-2.1,8.3-6,16.1-13,23.3c-1.3,1.4-3,2.3-5.8,1.6c-3.4-0.3-2.1-1.6-1.3-2.8c1.5-2.1,3-4.1,4.5-6.2
			c-0.2-0.6,0.2-1.2,0.4-1.7C287.6,265.9,287.6,263.2,290.2,261.1L290.2,261.1z"/>
		<path id="XMLID_78_" class="st32" d="M279.5,231.5c-3.6,1.3-5.7,0.5-6.6-1.9c-1.3-3-2.6-6.1-4.2-9.1c-1.3-2.6-2.8-5-4.2-7.6
			c0.2-0.7,0.4-1.4,1.3-2c3-0.7,5.5-0.1,7,1.5c4.5,4.8,7.2,9.9,8.3,15.4C281.6,229.3,281.4,230.6,279.5,231.5L279.5,231.5z"/>
		<path id="XMLID_77_" class="st33" d="M256.7,233.8c-4,1.3-6,0.6-7.2-2.2c-1.7-4.3-3.2-8.7-6.2-12.9c-0.9-1.3-0.9-2.4,1.1-3.4
			c2.6-0.6,4.9-0.3,6.2,1.2c3.8,4.5,6.6,9.2,7.5,14.3C258.2,232,258,233.1,256.7,233.8L256.7,233.8L256.7,233.8z"/>
		<path id="XMLID_76_" class="st9" d="M247.2,279.4c4.5-3,5.8-6.9,7.2-10.6c1.9-4.7,2.5-9.6,3.2-14.3c0.2-1.5,0-2.9-2.1-4
			c3.8-0.2,6,0.9,6.2,3.1c0.8,8-0.9,15.7-7,23C253.4,278.3,252.1,280.8,247.2,279.4L247.2,279.4L247.2,279.4z"/>
		<path id="XMLID_75_" class="st34" d="M297.6,230c-2.8,0.5-5.1,0.2-5.5-2c-0.9-5.2-3.6-10.3-6.6-15.2c-0.6-1-1.1-2.3,0.9-3.1
			c2.3,0.1,3.4,1,4.3,2.2c4,4.7,6.2,9.7,7.9,14.7C299.1,228,298,228.9,297.6,230L297.6,230z"/>
		<path id="XMLID_74_" class="st35" d="M268,280.1c7.5-6.6,11.3-14.2,13.2-22c0.6-2.4,2.6-5.1,0-7.6c3.6,0.6,3.6,2.4,4,4.1
			c0.4,1.5,0,3.1,0,4.7c-0.4,2.9,0.2,5.9-1.9,8.7c-1.1,2.2-2.8,4.2-5.5,5.8c-1.1,1.4-2.5,2.7-3.6,4.1
			C273.1,279.5,271.2,280.5,268,280.1C268,280.1,268,280.1,268,280.1z"/>
		<path id="XMLID_73_" class="st36" d="M282.3,279c2.8,0,4-1.2,5.1-2.6c7.5-8,11.1-16.8,13-25.9c2.5,0.7,2.6,2.1,2.3,3.5
			c-1.7,8.3-5.7,16-12.5,23.2C288.5,279,286.1,280.5,282.3,279L282.3,279z"/>
		<path id="XMLID_72_" class="st37" d="M256.7,233.8c0.9-5.9-3.2-11.1-6.6-16.3c-0.9-1.4-2.6-2.4-5.5-2.1c3.8-2,6.6-1,8.7,1.3
			c4,4.4,5.7,9.4,7,14.5C260.4,232.7,259.5,233.7,256.7,233.8C256.7,233.8,256.7,233.8,256.7,233.8z"/>
		<path id="XMLID_71_" class="st38" d="M278,273.8c1.5-1.9,2.8-3.8,4.3-5.7c1.7-0.5,3.4-1,4.2,0.7c0,0.5-0.2,0.9-0.9,1.3
			C282.5,270.9,281.2,273.1,278,273.8L278,273.8L278,273.8z"/>
		<path id="XMLID_70_" class="st39" d="M237.2,298.5c-3-1.2-3.4-3-2.8-5.1C236.7,294.9,236.3,296.9,237.2,298.5L237.2,298.5z"/>
		<path id="XMLID_66_" class="st6" d="M284.4,332c-0.9,7.9-5.8,15-13.4,21.3c-2.1,1.7-4.3,3.5-6.6,5.2c-1.1,0.9-2.8,1.6-4.5,1.9
			c-1.9,0.2-3.8,0.5-5.3-0.5c-1.7-1-0.6-2.2,0.2-3.1c6.6-8,6.4-16.8,6-25.5c0-1.2-0.6-2.6-1.7-3.6c-2.3-2.2-0.6-3.4,2.3-4.2
			c5.1-1.4,10.8-2,16.2-2.7c3-0.3,5.7,0.8,5.7,2.8C283.3,326.4,285,329.1,284.4,332L284.4,332L284.4,332z"/>
		<path id="XMLID_65_" class="st6" d="M221.9,306.7c2.6-0.8,5.7-0.3,8.5-0.6c14.3,0.3,28.9,0.1,43,1.9c3,0.3,5.8,0.8,8.9,1.2
			c0.6,0.5,0.9,0.9,1.5,1.3c3.6,2.2,1.3,2.8-2.1,3.3c-18.7,2.7-37.7,3.3-57,3.8c-4,0.1-7.9,1-12.5,0.3c2.8-3.5,5.7-7.1,8.5-10.6
			C221.2,307.2,221.6,306.9,221.9,306.7L221.9,306.7L221.9,306.7z"/>
		<path id="XMLID_64_" class="st18" d="M256.7,343.7c0.6,2.9-0.6,6.1-2.3,9c-0.8,1.5-2.5,2.9-5.1,2.4c-2.8-0.5-1.7-2.2-1.1-3.5
			c2.6-6.4,0.6-12.7-0.6-19c-0.2-0.6-0.6-0.9-1.3-1.3c-2.1-0.8-1.9-1.9-0.8-3c1.3-1.4,3.4-2.1,6-1.9c2.1,0.2,3,1.2,3.2,2.6
			C255.1,333.9,257,338.5,256.7,343.7L256.7,343.7L256.7,343.7z"/>
		<path id="XMLID_63_" class="st5" d="M157.6,441.5c-4.2-0.8-8.5-0.2-12.6-1c-4-0.8-5.8-2.2-4.2-4.8c1.5-2.4,3.2-4.9,5.1-7.2
			c1.5-1.9,4-2.8,7.5-2.3c4.3,0.6,8.9,0.1,13.2,0.8c2.8,0.5,4,1.5,3.2,3.3c-1.5,3.4-4.2,6.4-7,9.4
			C161.6,440.9,159.9,441.5,157.6,441.5L157.6,441.5z"/>
		<path id="XMLID_62_" class="st5" d="M253.3,436.6c-4.3,0.6-6-0.8-7.2-3.3c-1.1-2.4-1.5-4.9-2.3-7.3c-0.6-1.4,0.9-2.2,2.6-2.7
			c4.2-1,8.3-2,12.5-2.8c3.4-0.7,5.7,0.1,6.6,2.3c0.9,2.1,2.3,4.2,3.8,6.2c2.5,3.5,0.8,5.5-5.1,6.4
			C260.6,435.8,257.2,436.9,253.3,436.6L253.3,436.6L253.3,436.6z"/>
		<path id="XMLID_61_" class="st5" d="M207.8,427.1c1.5-0.1,3-0.2,4.5-0.2c3,0,4.7,0.9,5.3,2.7c0.2,0.8,0,1.6,0.4,2.6
			c2.5,9.6-0.2,9.2-15.1,10.1c-4.3,0.2-6.6-1.4-6.6-4.1c0-2-0.2-4-0.2-5.9c0-3.8,1.9-5.1,8.1-5.1C205.3,427,206.7,427,207.8,427.1
			C207.8,427,207.8,427,207.8,427.1C207.8,427.1,207.8,427.1,207.8,427.1z"/>
		<path id="XMLID_60_" class="st17" d="M188,443.5c-5.1-3.3-11.1-2.8-17.4-2c1.9-2.7,3.6-5.5,5.8-8c2.3-2.7,6.8-1.2,10.2-1.6
			c2.3-0.3,1.5,2,1.5,3.1C188.2,437.8,188,440.7,188,443.5L188,443.5z"/>
		<path id="XMLID_59_" class="st40" d="M256.1,411.3c4.7-0.2,6.4,1.5,6.8,4c0.4,2.4-4.9,4.9-10.4,4.8c-4.3-0.1-5.1-2-5.1-4.2
			C247.4,412.6,250,411.2,256.1,411.3L256.1,411.3z"/>
		<path id="XMLID_58_" class="st30" d="M253.6,404.9c4,0.3,2.8,2.3,3,4c-2.5,0.9-5.3,1.3-8.1,1.3c-3.2-1.3-2.5-2.8-1.1-4.5
			C249.1,403.9,251,403,253.6,404.9L253.6,404.9z"/>
		<path id="XMLID_57_" class="st5" d="M117.8,266.6c-16,1-31.5-6.3-34.1-16.2c-0.4-1.6-1.7-3.3,0-4.9c0.8-0.9,1.1-2,3.4-2.1
			c2.3-0.1,3.4,0.6,4.3,1.9c2.3,3.3,4.5,6.5,8.5,9.2C105.5,258.4,111.4,262.4,117.8,266.6L117.8,266.6z"/>
		<path id="XMLID_56_" class="st41" d="M156.1,475.4c0.4,2-0.4,4-0.9,5.9c-0.2,1-0.8,1.9-2.5,2.1c-1.9,0.2-3.6-0.3-4.2-1.4
			c-2.1-3.5-4-6.9-5.5-10.5c-0.9-2,1.5-2.9,4.3-3.1c3.6-0.5,8.3,1.4,8.9,3.3C156.5,472.9,156.1,474.1,156.1,475.4L156.1,475.4
			L156.1,475.4z"/>
		<path id="XMLID_55_" class="st42" d="M133.6,472.2c0-1.2-0.6-2.6,2.1-2.8c2.3-0.1,3.4,1,4,2.3c0.6,1.3,0.8,2.7,1.1,4
			c0.2,0.9-0.4,1.6-1.9,2c-1.5,0.2-2.6-0.2-3.4-1C134.4,475.2,133.6,473.7,133.6,472.2L133.6,472.2L133.6,472.2z"/>
		<path id="XMLID_54_" class="st43" d="M237.4,383.5c0-2.4,3.8-2.9,7.4-3.1c3-0.1,4.3,1.5,4.5,3.1c0.2,2.2-3.6,4.4-6.8,4.2
			C239.5,387.6,237,385.9,237.4,383.5C237.4,383.5,237.4,383.5,237.4,383.5z"/>
		<path id="XMLID_53_" class="st9" d="M240,379.8c-1.3-0.1-3-0.7-2.8-2.4c0-1.5,4.5-3.5,7.4-3.4c2.5,0.1,3,1,2.8,2.3
			C247.2,378.6,245,379.8,240,379.8L240,379.8z"/>
		<path id="XMLID_52_" class="st44" d="M261.4,469.5c3.2-0.3,5.3,0.6,7.2,2.3c1.7,1.6,4.3,2.9,6.6,4.3c1.5,0.9,3,2,1.1,3.3
			c-1.5,1-3.6,0.7-5.1-0.1c-4.7-2.3-11.1-3.4-14.7-6.6c-0.8-0.7-3.2-0.9-2.3-2.1c0.8-0.9,2.8-1,4.5-1
			C259.7,469.6,260.2,469.5,261.4,469.5C261.4,469.5,261.4,469.5,261.4,469.5z"/>
		<path id="XMLID_51_" class="st42" d="M257.8,477.7c0,1.2-0.2,1.9-1.5,2.3c-1.3,0.5-2.3,0-3.2-0.5c-4-1.6-5.5-4.2-3.6-6.2
			c0.9-0.9,2.1-1.7,3.6-0.7C255.3,474.2,257.2,475.9,257.8,477.7L257.8,477.7z"/>
		<path id="XMLID_50_" class="st45" d="M143.6,304.3c-3.2,0-6.6,0.1-6.8-2.6c-0.2-2.2,2.6-2.6,5.7-2.6c3.6-0.1,7,0.6,7.2,2.9
			C149.9,304.1,146.7,304.4,143.6,304.3L143.6,304.3z"/>
		<path id="XMLID_49_" class="st46" d="M337.2,273.7c-2.5-0.5-4.3-1.5-4.5-3.3c-0.2-1.3,0.4-2.6,2.8-2.2c2.1,0.2,5.3,0.2,5.1,2.3
			C340.2,271.7,340,273.4,337.2,273.7L337.2,273.7z"/>
		<path id="XMLID_48_" class="st42" d="M341.7,274.6c2.1,0.5,3.2,1.5,3,2.9c0,0.9-0.4,2-2.1,1.7c-2.3-0.2-4-1.3-4-2.8
			C338.9,275.6,340,274.9,341.7,274.6L341.7,274.6z"/>
		<path id="XMLID_47_" class="st47" d="M347,279.8c0.8,0.2,0.8,0.7,0.4,1c-0.2,0.3-0.4,0.8-1.3,0.6c-0.2-0.1-0.2-0.6-0.2-0.8
			C345.9,280.1,346.1,279.8,347,279.8L347,279.8z"/>
		<path id="XMLID_46_" class="st48" d="M245.3,395.4c-2.3,0-4-0.5-4-2.1c0-1.7,4.5-3.6,8.7-3.5c2.1,0.1,4.2,0.6,4.5,2
			C254.8,393.5,249.7,395.3,245.3,395.4L245.3,395.4L245.3,395.4z"/>
		<path id="XMLID_45_" class="st49" d="M252.5,396.1c3,1.2,3.6,2.7,1.1,4.3l0,0c-1.5,1.3-3.2,1.5-5.3,0.6c-3.6-0.3-4.3-1.9-4.2-3.8
			C246.8,396.1,249.7,395.9,252.5,396.1L252.5,396.1L252.5,396.1z"/>
		<path id="XMLID_44_" class="st50" d="M362.3,223.8c0.8-0.8,2.1-0.7,3.2-0.7h36.8c1.3,0,2.6,0.1,3.8,0.7
			c-7.4,1.3-14.9,0.2-22.3,0.5c-5.8-0.8-11.7,0.2-17.5-0.6C364.9,223.8,363.6,223.8,362.3,223.8L362.3,223.8L362.3,223.8z"/>
		<path id="XMLID_43_" class="st51" d="M366.3,223.8c5.8,0.2,11.7-0.7,17.5,0.6C378,224.2,371.9,225.1,366.3,223.8L366.3,223.8z"/>
		<path id="XMLID_42_" class="st5" d="M327,296.4c-0.2,1.3-8.5,5.9-10.2,5.7c-0.6-0.1-1.1-0.3-1.5-0.7c-2.8-2.6-6.6-4.5-10.2-6.6
			c-2.6-1.5-1.5-2.4,0.6-3.4c1.5-0.7,3-1.4,4.3-2.1c5.7-3.3,5.8-3.4,10,0.6c2.1,1.9,3.8,3.7,5.7,5.6
			C326.5,295.7,326.8,296.2,327,296.4L327,296.4z"/>
		<path id="XMLID_41_" class="st52" d="M248.5,401.1c1.9,0.1,3.6-0.1,5.3-0.6c1.3,1.2,2.6,2.2,0.9,3.7c-0.4,0.2-0.8,0.5-1.1,0.6
			c-2.5-0.9-4.2,0.1-6,0.7c-0.4,0-0.8,0-1.1-0.1c-0.9-0.9-2.3-1.9-1.9-3.1C245.9,402,247.2,401.5,248.5,401.1
			C248.5,401.1,248.5,401.1,248.5,401.1z"/>
		<path id="XMLID_40_" class="st43" d="M280.6,302.4c-3-0.5-6.4-0.9-6.4-3.4c0-1.9,2.6-2.3,5.1-2.3c3.8,0,7.9,1.9,7.4,3.5
			C286.1,302.2,283.1,301.9,280.6,302.4L280.6,302.4z"/>
		<path id="XMLID_39_" class="st53" d="M177.8,452.1c0.2-1.9,1.7-2.8,4.5-2.9c3.6-0.1,4.2,1.7,4.2,3.1c0,1.5-0.6,3.3-4.3,3.1
			C178.5,455.5,178.2,453.7,177.8,452.1L177.8,452.1L177.8,452.1z"/>
		<path id="XMLID_38_" class="st53" d="M271,443.7c0,2.3-1.3,3.5-4.3,3.6c-3.4,0.1-4.7-1.3-4.7-2.9c0-1.7,1.9-2.9,4.9-2.9
			C269.9,441.4,271.2,442.4,271,443.7C271,443.7,271,443.7,271,443.7z"/>
		<path id="XMLID_37_" class="st54" d="M390.8,291c1.3,0.8,0.6,2.3,2.1,3.1c0.4,1.2,0.8,2.2,0.9,3.4s-0.8,2-2.5,2.4
			c-1.9,0.5-3.8,0.8-5.1-0.2c-2.3-1.6-3.2-3.8-2.3-5.8C385.1,292.3,386.8,290.4,390.8,291L390.8,291L390.8,291z"/>
		<path id="XMLID_36_" class="st55" d="M279.5,231.5c2.3-4-0.9-7.5-2.5-11.1c-1.1-2.6-3.2-4.9-4.9-7.2c-1.1-1.6-3-2.4-6-2.1
			c3.4-1.4,6-0.7,8.1,1.2c5.5,4.9,7.5,10.5,8.1,16.3C282.5,229.9,282.1,231.2,279.5,231.5C279.5,231.5,279.5,231.5,279.5,231.5z"/>
		<path id="XMLID_35_" class="st56" d="M286.5,268.8c-1.1-0.9-2.8-0.6-4.2-0.7c0.9-2.9,2.1-5.9,3-8.9c-0.6,2.9,2.5,2.1,4.9,2
			C289.5,263.8,288.9,266.5,286.5,268.8L286.5,268.8L286.5,268.8z"/>
		<path id="XMLID_34_" class="st49" d="M157.4,430.5c0.4-1.4,1.7-2.2,3.6-2.1c2.5,0.1,5.5,0,6.2,2c0.6,1.4-1.5,2.2-3.8,2.3
			C160.4,433,158.9,431.7,157.4,430.5L157.4,430.5L157.4,430.5z"/>
		<path id="XMLID_33_" class="st57" d="M162.1,436.5c0.4,1.5-1.7,1.5-3,1.6c-2.1,0.2-3.2-0.7-3.6-1.7c-0.4-1.3,1.3-2,3-2.1
			C161.2,434,161.4,435.5,162.1,436.5L162.1,436.5z"/>
		<path id="XMLID_32_" class="st53" d="M262.9,424.3c-0.4,1.7-1.7,2.8-4.3,2.7c-1.9,0-3.8-0.5-4-2c-0.2-2.1,2.6-2.4,4.7-2.7
			C261.6,422,262.3,423.3,262.9,424.3L262.9,424.3z"/>
		<path id="XMLID_31_" class="st58" d="M262.1,428.4c2.1,0.2,3.8,0.7,3.8,2.3s-1.7,2.1-4,2c-2.3-0.1-4.2-0.8-4-2.2
			C258,429.1,259.9,428.4,262.1,428.4L262.1,428.4L262.1,428.4z"/>
		<path id="XMLID_30_" class="st53" d="M210.1,429.6c1.1,0.1,3.6-0.1,3,1.6c-0.4,1.3,0.2,3.4-3.8,3.4c-3,0-3.6-1.2-3.8-2.7
			C205.1,430.3,206.7,429.6,210.1,429.6L210.1,429.6z"/>
		<path id="XMLID_29_" class="st59" d="M210.6,435.4c1.7,0.3,3.2,0.7,3,2c-0.2,1-1.1,1.7-3,1.6c-1.3-0.1-2.6-0.7-2.5-1.6
			C208.4,436.4,209.1,435.7,210.6,435.4L210.6,435.4z"/>
	</g>
	<g id="XMLID_5_" transform="translate(0,260)">
		<g id="XMLID_6_">
			<g id="XMLID_8_">
				<path id="XMLID_178_" class="st60" d="M157.3,215.5C95.5,190,65.3,164.2,65.3,137v-71l3.6-1.4c27.5-10.3,58.7-15.6,89.8-15.6
					h2.1h0.8h0.8h2.1c31.1,0,62.3,5.4,89.8,15.6l3.6,1.4v71c0,27.3-30.2,53-92.1,78.6l-4.2,1.7L157.3,215.5
					C157.3,215.5,157.3,215.5,157.3,215.5z"/>
				<path id="XMLID_175_" class="st61" d="M164.3,53.6c30.9,0,60.2,5.5,85.8,15V137c0,27.3-33.2,51.8-88.7,74.7
					c-55.7-23-88.7-47.5-88.7-74.7V68.6c25.7-9.6,54.9-15,85.8-15h2.8H164.3L164.3,53.6z M164.3,44.3h-2.1h-0.6h-0.6H159
					c-32.6,0-64.9,5.6-93.8,16.3l-7.4,2.7v5.2v68.3c0,29,31.1,56,95.5,82.4l8.3,3.5l8.3-3.5c64.1-26.5,95.5-53.4,95.5-82.4V68.6
					v-5.2l-7.4-2.7C229.4,50,197,44.3,164.3,44.3L164.3,44.3C164.3,44.3,164.3,44.3,164.3,44.3z"/>
			</g>
			<path id="XMLID_11_" class="st62" d="M158.8,53.6c-30.9,0-60.2,5.5-85.8,15V137c0,27.3,33.2,51.8,88.7,74.7v-158
				C160.7,53.6,159.8,53.6,158.8,53.6L158.8,53.6z"/>
		</g>
		<path id="Fill-4" class="st63" d="M181.3,126.3L160,99.2l-18.3,27.1H181.3L181.3,126.3L181.3,126.3z M189.3,137.7h-55.8L121,156.9
			l-23.2,0.3L160,71.8l64.5,85.4H203L189.3,137.7L189.3,137.7C189.3,137.7,189.3,137.7,189.3,137.7z"/>
	</g>
</g>
</svg>
