<?xml version="1.0" encoding="utf-8"?>
<!-- Generator: Adobe Illustrator 21.1.0, SVG Export Plug-In . SVG Version: 6.00 Build 0)  -->
<svg version="1.1" id="Layer_1" xmlns="http://www.w3.org/2000/svg" xmlns:xlink="http://www.w3.org/1999/xlink" x="0px" y="0px"
	 viewBox="0 0 16 16" style="enable-background:new 0 0 16 16;" xml:space="preserve">
<style type="text/css">
	.st0{fill:#FDEEEC;}
	.st1{fill:#E73C23;}
	.st2{fill:#C01818;}
	.st3{fill:#F39867;}
	.st4{fill:#D52716;}
	.st5{fill:#E0BE40;}
	.st6{fill:#FBE468;}
	.st7{fill:#CFE9EB;}
	.st8{fill:#A8C5C8;}
	.st9{fill:#CBA330;}
	.st10{fill:#30140D;}
	.st11{fill:#986531;}
	.st12{fill:#9E6E1D;}
	.st13{fill:#795136;}
	.st14{fill:#93C9DD;}
	.st15{fill:#603E35;}
	.st16{fill:#7C8A96;}
	.st17{fill:#A06E1E;}
	.st18{fill:#FBE467;}
	.st19{fill:#95C9DD;}
	.st20{fill:#613F35;}
	.st21{fill:#996531;}
	.st22{fill:#414C67;}
	.st23{fill:#A16F1E;}
	.st24{fill:#444F69;}
	.st25{fill:#E1BC40;}
	.st26{fill:#E1BB40;}
	.st27{fill:#E74024;}
	.st28{fill:#8C9AA3;}
	.st29{fill:#D1C4BC;}
	.st30{fill:#FBE367;}
	.st31{fill:#FBF29F;}
	.st32{fill:#31140D;}
	.st33{fill:#32140D;}
	.st34{fill:#33150D;}
	.st35{fill:#CBA332;}
	.st36{fill:#C9A231;}
	.st37{fill:#CAA231;}
	.st38{fill:#F9F196;}
	.st39{fill:#E4C345;}
	.st40{fill:#F49968;}
	.st41{fill:#C5A54A;}
	.st42{fill:#C4A449;}
	.st43{fill:#CAA22F;}
	.st44{fill:#C5A549;}
	.st45{fill:#C8A130;}
	.st46{fill:#C3A349;}
	.st47{fill:#C3A248;}
	.st48{fill:#F39767;}
	.st49{fill:#FAE266;}
	.st50{fill:#7F92A0;}
	.st51{fill:#8096A4;}
	.st52{fill:#F49967;}
	.st53{fill:#FAE365;}
	.st54{fill:#A8C4C7;}
	.st55{fill:#CAA232;}
	.st56{fill:#F8E166;}
	.st57{fill:#F9E165;}
	.st58{fill:#FAE366;}
	.st59{fill:#F9E064;}
	.st60{fill:#B52E31;}
	.st61{fill:#F1ECE2;}
	.st62{fill:#E23237;}
	.st63{fill:#FFFFFF;}
</style>
<path id="XMLID_149_" class="st0" d="M2.2,5.1L2.2,5.1c0.1,0,0.1,0.1,0,0.1h0h0C2.2,5.2,2.2,5.1,2.2,5.1L2.2,5.1z"/>
<g id="XMLID_7_" transform="translate(-0.7,90.292679)">
	<path id="XMLID_146_" class="st1" d="M0.7-85v-0.1c0-0.1,0-0.1,0.1-0.2c0-0.1,0.1-0.1,0.2,0c0.1,0,0.1,0,0.2,0.1
		c0.1,0,0.2,0,0.2-0.1c0-0.1,0.1-0.1,0.2,0c0.3,0.2,0.6,0.2,0.8,0C2.6-85.6,2.8-85.8,3-86c0.5-0.5,1.3-0.8,2.2-1
		c0.4-0.1,0.7,0,1,0.2c0.6,0.3,0.9,0.6,0.9,1.1c0,0.2,0,0.4-0.1,0.7c0,0,0,0.1,0,0.1c0,0-0.1,0.1-0.2,0c0-0.1,0-0.3,0-0.4
		c0-0.2,0-0.4-0.1-0.6c-0.1-0.1-0.2-0.2-0.2-0.3c0,0,0,0,0,0c0,0,0,0,0,0c0.2,0.3,0.2,0.6,0.1,0.8c0,0.2,0,0.3,0,0.5
		c0,0.1-0.1,0.1-0.2,0.1c-0.1-0.3,0-0.5,0-0.8c0-0.1,0-0.2-0.1-0.3c-0.1-0.2-0.2-0.4-0.5-0.6c-0.2-0.1-0.4-0.2-0.6-0.1
		c-0.3,0-0.5,0.1-0.8,0.2c-0.4,0.2-0.6,0.4-0.9,0.7c-0.1,0.1-0.1,0.2-0.2,0.3c-0.1,0.1-0.1,0.3-0.2,0.4c0,0-0.1,0-0.1,0
		c-0.3,0.3-0.8,0.5-1.5,0.4c-0.4,0-0.8-0.2-1-0.4C0.8-84.8,0.8-84.9,0.7-85L0.7-85z"/>
	<path id="XMLID_140_" class="st2" d="M3.4-84.8c0-0.1,0-0.1,0.1-0.2c0.1-0.2,0.2-0.5,0.3-0.7c0.3-0.3,0.6-0.6,1.1-0.8
		c0.2-0.1,0.5-0.1,0.8-0.1c0.2,0,0.3,0.1,0.4,0.2c0.2,0.1,0.3,0.3,0.3,0.4c0,0,0,0.1,0,0.1C6.4-85.9,6.4-86,6.2-86
		c-0.4-0.2-1-0.2-1.3,0.1c-0.1,0.1-0.3,0.3-0.3,0.4c0,0,0,0.1,0,0.1c0,0,0,0,0.1,0.1c0,0,0.1,0,0.1,0c0,0,0-0.1,0-0.1
		c0.2,0,0.3,0.1,0.3,0.2c0,0,0,0.1,0.1,0.1c0.1,0,0.2,0,0.2-0.1c0.2,0.2,0.1,0.4,0,0.5c-0.1,0.2-0.6,0.4-1.1,0.4
		C3.9-84.4,3.6-84.6,3.4-84.8C3.4-84.8,3.4-84.8,3.4-84.8z"/>
	<path id="XMLID_69_" class="st2" d="M7-84.9c-0.1,0-0.1,0.1-0.2,0.1c-0.1-0.2-0.1-0.3,0-0.5c0.1-0.3,0.1-0.6-0.1-0.9c0,0,0,0,0,0
		c0.1,0.1,0.1,0.1,0.2,0.2c0.2,0.2,0.2,0.4,0.2,0.6C7-85.2,7-85.1,7-84.9C7-84.9,7-84.9,7-84.9z"/>
	<path id="XMLID_68_" class="st3" d="M6-86.7c0.3,0,0.3,0,0.2,0.1c0.1,0,0.2,0,0.2,0c0,0.1,0.1,0.1,0.2,0.1c0.1,0,0,0.1,0,0.1
		c0,0-0.1,0.1-0.2,0.1c-0.1,0,0-0.1,0-0.1c-0.1,0-0.2,0-0.2-0.1c0,0-0.1,0-0.1,0c-0.1,0-0.1,0-0.1-0.1C6.1-86.6,6.1-86.7,6-86.7
		c-0.1,0.1-0.2,0.1-0.1,0c0,0,0,0-0.1,0c0,0-0.1,0-0.1,0c0,0,0.1,0,0.1,0c0,0,0.1,0,0.1,0c0,0,0.1,0,0.1,0C6-86.8,6-86.8,6-86.7
		C6-86.8,6-86.7,6-86.7C6-86.7,6-86.7,6-86.7z"/>
	<path id="XMLID_67_" class="st4" d="M6.7-86.2C6.7-86.2,6.7-86.2,6.7-86.2C6.6-86.2,6.6-86.2,6.7-86.2C6.7-86.2,6.7-86.2,6.7-86.2
		L6.7-86.2z"/>
</g>
<g id="XMLID_200_" transform="translate(64.3,-0.70732088)">
	<g id="XMLID_28_" transform="translate(12,0)">
		<path id="XMLID_148_" class="st5" d="M-70.8,7c0,0,0.1-0.1,0.1-0.1c0.2-0.2,0.5-0.3,0.8-0.5c0.2-0.1,0.3-0.1,0.5-0.2
			c0,0,0.1,0,0.1,0c0.2,0,0.4-0.1,0.7-0.1c0.6-0.1,1.2,0.1,1.7,0.3c0.1,0,0.1,0.1,0.2,0.1c0.1,0,0.1,0.1,0,0.1
			C-66.8,6.8-67,7-67.3,7.1c-0.1,0-0.1,0.1-0.1,0.1c-0.1,0.2-0.2,0.4-0.5,0.6c-0.2,0.2-0.5,0.3-0.9,0.3c-0.2,0-0.3,0-0.5,0
			c-0.1,0-0.1,0-0.1,0.1c0,0,0,0.1,0,0.1c0,0.1,0,0.3,0,0.4c0,0.1,0,0.1,0.1,0.1c0.1,0,0.2,0,0.3,0c0,0,0,0,0,0c-0.1,0-0.1,0-0.2,0
			c0.3,0.1,0.6,0.2,0.9,0.3c0.1-0.1,0-0.2,0-0.2c0.2,0,0.3,0,0.4,0.1c0,0.1,0,0.2,0,0.2c-0.1,0-0.2,0-0.4,0c0,0.1,0,0.3,0.1,0.4
			c0,0,0,0-0.1,0c-0.3,0-0.5,0.1-0.7,0.1c0,0-0.1,0-0.1,0c-0.1-0.1,0-0.1,0-0.2c0-0.1,0-0.2,0-0.3c0-0.1-0.1-0.1-0.2-0.2
			c-0.2-0.1-0.5-0.2-0.7-0.3c-0.4-0.2-0.6-0.5-0.7-0.9C-71,7.6-70.9,7.3-70.8,7L-70.8,7L-70.8,7z"/>
		<path id="XMLID_147_" class="st6" d="M-69.1,8.8h-0.4c-0.1,0-0.1,0-0.1-0.1c0-0.1,0-0.3,0-0.4c0-0.1,0-0.1,0-0.2
			c0,0,0.1-0.1,0.1-0.1c0.3,0,0.6,0,0.9-0.1c0.1,0,0.2-0.1,0.2-0.1c0.3-0.1,0.5-0.3,0.6-0.5c0-0.1,0.1-0.1,0.1-0.2
			c0-0.1,0.1-0.1,0.2-0.1c0.3,0,0.7-0.3,0.7-0.5c0,0,0,0,0,0c0.1-0.1,0.2-0.1,0.3-0.1c0.1,0,0.2,0,0.3-0.1c0.2,0,0.3,0,0.5,0.1
			c0.6,0.3,0.9,0.7,1.1,1.2c0.1,0.4,0.2,0.8,0,1.2c-0.1,0.2-0.3,0.4-0.5,0.6c-0.1,0.1-0.2,0.2-0.2,0.2c-0.1,0-0.1,0-0.2,0
			c-0.8-0.1-1.5-0.4-2-0.7C-67.7,8.7-68,8.4-68,8c0,0,0,0,0-0.1c0,0,0,0,0,0c-0.3,0.2-0.6,0.2-1,0.2c-0.1,0-0.2,0-0.2,0.1
			c0,0.1,0,0.2,0,0.3c0,0.1,0,0.1,0.2,0.1c0.5,0.1,1,0.2,1.5,0.3c0.5,0.2,0.9,0.4,1.2,0.8c0.1,0.2,0.3,0.3,0.5,0.3
			c0.1,0,0.1,0,0.1,0.1c-0.1,0-0.2,0-0.3,0c-0.1,0-0.2-0.1-0.3-0.1c0,0-0.1,0-0.1-0.1c0-0.1,0-0.1-0.1-0.2c0,0,0,0,0-0.1
			c-0.1-0.3-0.4-0.4-0.7-0.5c-0.2,0-0.3-0.1-0.5-0.1c0,0-0.1,0-0.1,0c-0.1,0-0.3-0.1-0.4-0.1c0,0-0.1,0-0.1,0
			C-68.6,8.9-68.9,8.9-69.1,8.8L-69.1,8.8L-69.1,8.8z"/>
		<path id="XMLID_145_" class="st7" d="M-62,0.8C-62,0.7-62,0.7-62,0.8C-61.9,0.7-61.9,0.7-62,0.8c0.2,0.1,0.3,0.3,0.4,0.4
			c0.2,0.3,0.3,0.6,0.5,0.8c0.1,0.1,0.1,0.2,0,0.3c0,0.3,0,0.6,0,1c0,0.4,0,0.8-0.1,1.2c0,0.1,0,0.3,0,0.5c0,0.4,0,0.9-0.1,1.3
			c0,0.4-0.1,0.8-0.1,1.1c0,0.1-0.1,0.1,0.1,0.2c-0.2,0.1-0.4,0-0.7,0C-62,7.5-62,7.4-62,7.3V3.6c0-0.4,0-0.7,0-1.1
			c0-0.4,0-0.8,0-1.2C-62,1.1-62.1,0.9-62,0.8L-62,0.8L-62,0.8z"/>
		<path id="XMLID_144_" class="st8" d="M-62,0.8c0,2.3,0,4.5,0,6.8c-0.2,0.1-0.4,0.1-0.6,0c0-0.3,0-0.6-0.1-0.9c0,0,0,0,0-0.1
			c0-0.3,0-0.6,0-1c0-0.4,0-0.8-0.1-1.2c0-0.4,0-0.7-0.1-1.1c0-0.4,0-0.8-0.1-1.1c0,0,0-0.1,0-0.1C-62.5,1.7-62.3,1.2-62,0.8
			L-62,0.8L-62,0.8z"/>
		<path id="XMLID_143_" class="st9" d="M-66,12.2C-66,12.2-66,12.2-66,12.2c-0.1,0.1-0.1,0.1-0.2,0.1c-0.4,0.1-0.9,0.2-1.3,0.1
			c-0.4,0-0.7,0-1.1-0.1c0,0-0.1,0-0.1,0c0,0,0-0.1-0.1-0.1c-0.3-0.1-0.3-0.3-0.3-0.5c0-0.2,0.1-0.4,0.1-0.6c0-0.2,0.1-0.4,0.1-0.6
			c0-0.1,0-0.1,0.1-0.1c0.4,0,0.9,0,1.3,0c0.2,0,0.2,0,0.2,0.1c0,0.4,0.3,0.8,0.7,1.1c0.1,0.1,0.3,0.2,0.4,0.3
			C-66.1,12.1-66,12.2-66,12.2L-66,12.2L-66,12.2z"/>
		<path id="XMLID_142_" class="st5" d="M-66,12.2c-0.3-0.2-0.6-0.3-0.8-0.5c-0.3-0.3-0.5-0.6-0.5-1c0-0.1-0.1-0.1-0.2-0.1
			c-0.4,0-0.8,0-1.3,0c-0.1,0-0.2-0.1-0.2,0c0-0.1-0.1-0.2-0.3-0.2c0,0-0.1,0-0.1,0c-0.1,0-0.2,0-0.2-0.1c-0.1-0.1,0-0.2,0.1-0.2
			c0.2,0,0.5,0,0.7,0c0.3,0.1,0.6,0.2,1,0.1c0.2,0,0.5,0,0.7-0.1c0,0,0.1,0,0.1,0c0,0,0,0.1,0,0.1c-0.1,0.1-0.1,0.1-0.2,0.2
			c0.2,0,0.5,0,0.7,0c0.3,0,0.6,0,1-0.1c0.1,0,0.2,0,0.4-0.1c0.1,0,0.1,0,0.1-0.1c0,0,0-0.1,0.1-0.1c0.1,0,0.1,0,0.2-0.1
			c0.2-0.1,0.1-0.2,0.1-0.2c0,0,0.1,0,0.1,0c0.1,0.1,0.2,0.1,0.3,0.2c0.1,0,0,0.1,0,0.1c-0.1,0.1-0.2,0.1-0.3,0.2
			c-0.2,0.1-0.2,0.2-0.2,0.3c0,0.1,0,0.1,0,0.2c0,0,0,0.1-0.1,0.1C-65,11.6-65.4,12-66,12.2L-66,12.2z"/>
		<path id="XMLID_141_" class="st1" d="M-67,14.5c-0.3,0-0.6,0-0.9,0.1c-0.1,0-0.1,0-0.1-0.1c0-0.1,0-0.2,0-0.2c0,0,0-0.1-0.1-0.1
			c-0.1,0-0.2,0-0.2,0.1c-0.1,0.1-0.1,0.1-0.2,0.2c0,0-0.1,0.1-0.1,0.1c0,0.1-0.1,0.1-0.3,0.1c-0.2,0-0.4,0-0.6-0.1
			c-0.1,0-0.1,0-0.2,0c-0.1,0-0.1,0-0.1-0.1c0.3-0.3,0.4-0.7,0.6-1c0,0,0.1,0,0.2,0c0.9,0.1,1.8,0.2,2.7,0c0.1,0,0.1,0,0.2,0
			c0.1,0,0.2,0,0.3,0c0.1,0,0.2-0.1,0.3,0c0.1,0.3,0.2,0.5,0.3,0.8c0,0,0,0.1,0,0.1c-0.1,0.1-0.2,0.1-0.3,0.1
			c-0.2,0-0.4,0.1-0.6,0.1c-0.1,0-0.2,0-0.2-0.1c0-0.1,0-0.2-0.1-0.3c0-0.1,0-0.1-0.1-0.1c-0.1,0-0.2,0-0.2,0.1c0,0.1,0,0.2,0,0.3
			C-66.9,14.5-66.9,14.6-67,14.5L-67,14.5L-67,14.5z"/>
		<path id="XMLID_139_" class="st9" d="M-70.8,7c0,0.1,0,0.2,0,0.3c-0.1,0.6,0.2,1.1,0.8,1.5c0.2,0.1,0.4,0.2,0.6,0.2
			c0.2,0.1,0.3,0.2,0.3,0.3c0,0.1-0.1,0.3,0,0.4c0,0.1-0.1,0.1-0.2,0.1c-0.2,0-0.3,0-0.5,0c-0.1,0-0.1,0-0.2,0c-0.2,0-0.2,0-0.3-0.2
			c0-0.1,0-0.3-0.1-0.4c0-0.1-0.2-0.2-0.3-0.2C-71,9-71.1,8.9-71.3,8.7c-0.3-0.2-0.3-0.5-0.2-0.8C-71.4,7.6-71.1,7.3-70.8,7L-70.8,7
			L-70.8,7z"/>
		<path id="XMLID_138_" class="st10" d="M-69.4,9.9c0-0.1,0.1,0,0.2-0.1c0.3-0.1,0.6-0.1,0.9-0.2c0.2,0,0.3-0.1,0.2-0.2
			c0,0,0-0.1,0-0.1c0-0.1,0-0.2,0-0.3c0.4,0.1,0.9,0.2,1.1,0.5c0.1,0.1,0.1,0.2,0.2,0.3c0,0.1-0.1,0.1-0.2,0.1
			c-0.1,0.1-0.2,0.1-0.1,0.2c0,0,0,0.1,0,0.1c0,0,0,0-0.1,0c-0.4,0.1-0.9,0.1-1.3,0.1c-0.1,0-0.3-0.1-0.4-0.1c0,0-0.1,0,0-0.1
			c0-0.1,0-0.2-0.2-0.2C-69.1,9.9-69.2,9.9-69.4,9.9L-69.4,9.9L-69.4,9.9z"/>
		<path id="XMLID_137_" class="st5" d="M-65.8,10.2c-0.1-0.1-0.3-0.1-0.4-0.1c-0.1,0-0.1-0.1-0.2-0.1C-66.6,9.5-67,9.2-67.5,9
			c-0.4-0.2-0.9-0.2-1.3-0.3c-0.1,0-0.2,0-0.3,0c-0.1,0-0.1,0-0.1-0.1c0-0.1,0-0.3,0-0.4c0,0,0.1,0,0.1,0c0.2,0,0.3,0,0.5,0
			c0.2,0,0.4-0.1,0.6-0.2c0,0,0,0,0.1,0c0,0,0,0,0,0.1c0,0.3,0.3,0.6,0.5,0.8c0.2,0.3,0.6,0.4,1,0.6c0.2,0.1,0.4,0.1,0.6,0.2
			c0.2,0.1,0.4,0.1,0.7,0.1c0,0-0.1,0.1-0.1,0.1c0,0,0.1,0,0.2,0c-0.2,0-0.3,0.1-0.5,0.2C-65.7,10.2-65.7,10.2-65.8,10.2L-65.8,10.2
			z"/>
		<path id="XMLID_136_" class="st11" d="M-70.8,15.3c-0.1-0.1-0.2-0.1-0.3-0.1c-0.1-0.1-0.1-0.1,0-0.1c0.3-0.1,0.6-0.2,0.9-0.3
			c0.1,0,0.1,0,0.2,0c0.1,0,0.2,0.1,0.3,0.1c0.2,0.1,0.4,0.2,0.7,0.3c0,0,0.1,0,0.1,0.1c0.1,0,0.1,0.1,0.1,0.2c0,0.2,0,0.4-0.1,0.5
			c0,0.1-0.1,0.1-0.3,0.1c-0.1,0-0.3-0.1-0.4-0.2c0,0-0.1,0-0.1,0C-70,15.6-70.4,15.5-70.8,15.3C-70.7,15.3-70.8,15.3-70.8,15.3
			C-70.8,15.3-70.8,15.3-70.8,15.3z"/>
		<path id="XMLID_135_" class="st12" d="M-68.7,12.4c0.1,0,0.3,0,0.4,0c0.5,0,0.9,0,1.4,0c0.3,0,0.6-0.1,0.8-0.1
			c0,0.2,0,0.3,0.1,0.5c0,0.1-0.2,0.1-0.3,0.1c-0.4,0.1-0.9,0.1-1.3,0.1c-0.2,0-0.5,0-0.7-0.1c-0.2,0-0.3,0-0.5,0
			C-68.7,12.7-68.7,12.6-68.7,12.4L-68.7,12.4L-68.7,12.4z"/>
		<path id="XMLID_134_" class="st11" d="M-65.6,15.2c0.2,0.1,0.4,0.3,0.6,0.4c0.1,0.1,0.1,0.1-0.1,0.2c-0.1,0-0.3,0-0.4,0
			c0,0-0.1,0-0.2,0c-0.5,0-0.9,0-1.3,0.1c0,0-0.1,0-0.1,0c-0.2,0-0.3,0-0.5,0c-0.1,0-0.1,0-0.1-0.1l0.4-0.5c0,0,0.1,0,0.1,0
			c0.1,0,0.2,0,0.3,0c0.3,0,0.7,0,1,0C-65.7,15.1-65.6,15.1-65.6,15.2L-65.6,15.2L-65.6,15.2z"/>
		<path id="XMLID_133_" class="st5" d="M-69.4,16.1c0.2,0,0.4,0,0.5,0.2c0.1,0.1,0.2,0.2,0.3,0.3c0.1,0.1,0,0.1-0.1,0.1
			c-0.1,0-0.2,0-0.3,0c-0.4,0-0.9,0-1.3,0c-0.1,0-0.2,0-0.3-0.1c-0.4-0.2-0.7-0.5-1.1-0.7c-0.2-0.1-0.1-0.2,0.1-0.3
			c0.1-0.1,0.3-0.1,0.4-0.1c0,0.1,0,0.2-0.1,0.3c0,0.1,0,0.1,0,0.1c0.3,0.2,0.5,0.4,0.8,0.6c0,0,0.1,0.1,0.2,0
			c0.2-0.1,0.4-0.2,0.6-0.3C-69.5,16.2-69.5,16.1-69.4,16.1L-69.4,16.1L-69.4,16.1z"/>
		<path id="XMLID_132_" class="st5" d="M-64.8,16.1c0.3,0.1,0.5,0.1,0.8,0.2c0.1,0,0.2,0.1,0.1,0.2c0,0.1-0.1,0.1-0.2,0.1
			c-0.2,0-0.4,0-0.7,0c-0.2,0-0.4,0-0.5,0c-0.5,0.1-0.9,0-1.4,0c-0.3,0-0.3,0-0.3-0.2v-0.2c0,0,0-0.1,0.1-0.1c0.1,0,0.1,0,0.1,0
			c0,0,0.1,0.1,0.1,0.1c0.1,0.2,0.3,0.2,0.6,0.2c0.2,0,0.5,0,0.7,0c0.1,0,0.2,0,0.3-0.1C-65.1,16.3-65,16.2-64.8,16.1L-64.8,16.1
			L-64.8,16.1z"/>
		<path id="XMLID_131_" class="st13" d="M-69.4,16.1c-0.2,0.1-0.5,0.2-0.7,0.4c0,0-0.1,0-0.1,0c-0.1,0-0.2-0.1-0.3-0.2
			c-0.2-0.1-0.4-0.3-0.6-0.4c-0.1-0.1-0.1-0.1-0.1-0.2c0-0.1,0-0.2,0.1-0.2c0,0,0.1,0,0.1,0c0.4,0.1,0.8,0.3,1.2,0.5
			c0,0,0.1,0,0.1,0.1C-69.7,16.1-69.7,16.1-69.4,16.1C-69.4,16.1-69.4,16.1-69.4,16.1z"/>
		<path id="XMLID_130_" class="st13" d="M-61.5,8c0.2,0,0.4,0,0.5,0c-0.1,0.1-0.2,0.1-0.4,0c-0.2,0-0.4,0-0.6,0.1
			c-0.1,0-0.2,0.1-0.2,0.2c0,0,0.1,0,0.1,0c0.3,0,0.6,0,0.9,0c0.1,0,0.1,0,0.1,0c-0.1,0-0.1,0-0.2,0.1c-0.1,0-0.3,0-0.4,0
			c-0.2,0-0.4,0-0.5,0c-0.1,0-0.2,0-0.2,0.1c0,0.1,0,0.1,0.1,0.1c0.2,0,0.4,0,0.6,0c0.1,0,0.3,0,0.4,0c0,0-0.1,0-0.1,0.1
			c0,0-0.1,0-0.2,0c-0.2,0-0.4,0-0.6,0c-0.1,0-0.2,0-0.2,0c0,0.1,0.1,0.1,0.2,0.2c0.1,0,0.3,0,0.4,0c0.1,0,0.2,0,0.2,0
			c0,0.1-0.1,0.1-0.1,0.2c-0.1,0-0.2,0-0.3,0c-0.1,0-0.2,0-0.2,0c-0.1,0,0,0.1,0,0.1c0,0,0,0,0,0c-0.1,0.1-0.2,0-0.3,0
			c-0.1,0-0.2,0-0.3-0.1c0.2-0.3,0.1-0.4-0.2-0.6c-0.1-0.1-0.1-0.2,0-0.2c0.2-0.1,0.3-0.2,0.1-0.4c-0.1-0.1-0.2-0.1-0.3-0.1
			c0-0.1,0.2-0.1,0.3-0.1c0,0,0.1,0,0.1,0h0.7C-61.5,8-61.5,8-61.5,8L-61.5,8L-61.5,8z"/>
		<path id="XMLID_129_" class="st13" d="M-64.8,16.1c-0.1,0.1-0.2,0.2-0.4,0.3c-0.1,0-0.1,0-0.2,0c-0.3,0-0.6,0-0.9,0
			c-0.1,0-0.3,0-0.3-0.1c-0.1-0.1-0.2-0.2-0.3-0.2c-0.1,0,0-0.1,0-0.1c0,0,0.1,0,0.1,0c0.5,0,0.9-0.1,1.4-0.1c0.1,0,0.1,0,0.2,0
			C-65.2,16-65,16-64.8,16.1L-64.8,16.1z"/>
		<path id="XMLID_128_" class="st11" d="M-62.7,8.1c0.2,0,0.2,0,0.3,0.1c0.2,0.2,0.1,0.3-0.2,0.4c-0.1,0.1-0.1,0.1,0,0.2
			c0.2,0.1,0.3,0.2,0.3,0.4c0,0.1-0.1,0.1-0.2,0.2c-0.2,0-0.3,0-0.4-0.1C-62.9,9.2-63,9.1-63,8.9c0-0.2,0-0.3,0-0.5
			c0-0.1,0-0.1,0.1-0.1C-62.9,8.2-62.8,8.2-62.7,8.1L-62.7,8.1L-62.7,8.1z"/>
		<path id="XMLID_127_" class="st12" d="M-68.8,10.1C-68.8,10.1-68.8,10.2-68.8,10.1c-0.2,0.1-0.5,0.1-0.7,0.1c0,0-0.1,0-0.1,0
			c0,0,0,0.1,0,0.1c0.1,0,0.1,0.1,0.2,0.1c-0.4,0-0.8,0-1.2,0c-0.1,0-0.2-0.1-0.3-0.1c-0.1-0.1-0.1-0.2,0.1-0.2
			c0.1-0.1,0.3-0.1,0.5-0.1c0.4,0,0.7,0,1.1,0C-69.1,10-68.9,10.1-68.8,10.1L-68.8,10.1L-68.8,10.1z"/>
		<path id="XMLID_126_" class="st11" d="M-64,9.1c0.1-0.1,0.2-0.1,0.3-0.2c0.2-0.1,0.2-0.1,0.4,0c0.1,0,0.2,0.1,0.2,0.1
			c0.1,0.1,0.2,0.2,0.4,0.3c0.1,0.1,0.1,0.1,0.1,0.2c0,0.2-0.1,0.3-0.1,0.5c-0.1,0-0.2-0.1-0.3-0.2C-63.3,9.7-63.6,9.4-64,9.1
			C-64,9.2-64,9.2-64,9.1L-64,9.1L-64,9.1z"/>
		<path id="XMLID_125_" class="st1" d="M-68.7,12.9c0.1-0.1,0.3-0.1,0.5-0.1c0.3,0.1,0.6,0.1,1,0.1c0.4,0,0.7-0.1,1-0.1
			c0.1,0,0.2,0,0.3-0.1c0.1,0,0.2,0,0.2,0.1c0,0,0,0.1,0,0.1c-0.1,0.1-0.2,0-0.3,0.1c-0.1,0-0.2,0-0.3,0c-0.7,0.1-1.4,0.1-2.1,0.1
			c-0.2,0-0.3,0-0.5-0.1C-68.8,13-68.8,13-68.7,12.9L-68.7,12.9L-68.7,12.9z"/>
		<path id="XMLID_124_" class="st14" d="M-61.2,7.6c0.1,0,0.4,0,0.5-0.1c0,0,0.1-0.1,0.1-0.1c0-0.1,0.1-0.1,0.2-0.1s0.2,0.1,0.1,0.1
			c-0.1,0-0.1,0-0.2,0.1c-0.2,0.2-0.6,0.3-1,0.3c-0.3,0-0.6,0-0.9,0c-0.4,0-0.8-0.1-1-0.3c0,0-0.1,0-0.2-0.1c-0.1,0-0.1-0.1,0-0.1
			c0.1,0,0.2-0.1,0.2-0.1c0,0,0,0,0,0.1c0.1,0.1,0.2,0.2,0.4,0.3c0.1,0,0.1,0,0.2,0c0,0,0.1,0,0.1,0c0,0,0.1,0,0.1,0
			c0.2,0,0.3,0,0.5,0C-61.7,7.6-61.5,7.6-61.2,7.6C-61.2,7.6-61.2,7.6-61.2,7.6L-61.2,7.6L-61.2,7.6z"/>
		<path id="XMLID_123_" class="st12" d="M-66.8,15.2H-67c0-0.2,0-0.4,0-0.6c0.1,0,0.1-0.1,0.1-0.1c0-0.1,0-0.2,0-0.3
			c0-0.1,0-0.1,0.1-0.1c0.1,0,0.1,0,0.2,0c0.1,0,0.1,0,0.1,0.1c0,0.1,0,0.2,0.1,0.3c0,0.1,0.1,0.1,0.2,0.1c0,0,0,0,0,0.1
			c0.1,0.2,0.2,0.2,0.5,0.2c0,0,0.1,0,0.1,0c0,0,0,0.1,0,0.1c-0.1,0.1-0.3,0-0.4,0c-0.3-0.1-0.4-0.2-0.5-0.3c0,0,0-0.1-0.1-0.1
			c-0.1,0-0.1,0.1-0.1,0.1v0.4C-66.7,15.1-66.7,15.1-66.8,15.2L-66.8,15.2L-66.8,15.2z"/>
		<path id="XMLID_122_" class="st9" d="M-66.8,15.2c0-0.2,0-0.4,0-0.6c0-0.1,0.1-0.1,0.2-0.1c0.1,0,0.1,0.1,0.1,0.1
			c0.1,0.3,0.4,0.4,0.9,0.4v0.3c-0.1,0-0.2,0-0.3,0C-66.2,15.2-66.5,15.2-66.8,15.2L-66.8,15.2z"/>
		<path id="XMLID_121_" class="st6" d="M-70,6.1c0,0,0.1,0,0.1-0.1c0.1,0,0.2,0,0.4,0c0.1,0,0.2,0.1,0.3,0.1
			c-0.5,0.2-0.9,0.4-1.3,0.6c0,0-0.1,0.1-0.2,0.1c0.1-0.1,0.1-0.3,0.1-0.4c0-0.1,0.2-0.1,0.2-0.2c0.1,0,0.1-0.1,0.2-0.1
			C-70.2,6.1-70.1,6.1-70,6.1L-70,6.1L-70,6.1z"/>
		<path id="XMLID_120_" class="st15" d="M-65.3,15.9c-0.5,0.1-1.1,0.2-1.7,0.2c-0.1-0.1,0-0.2,0-0.3c0.2-0.1,0.4,0,0.7-0.1
			c0.3,0,0.7,0,1,0C-65.3,15.8-65.3,15.9-65.3,15.9L-65.3,15.9L-65.3,15.9z"/>
		<path id="XMLID_119_" class="st9" d="M-64.8,11c0-0.1-0.1-0.3-0.1-0.4c0-0.1,0.1-0.1,0.2-0.1c0.1,0,0.2-0.1,0.3-0.2
			c0.2-0.1,0.2-0.1,0-0.2c-0.1-0.1-0.2-0.2-0.3-0.2c-0.1,0-0.2,0-0.3-0.1c0.1,0,0.2-0.1,0.3-0.1c0.1,0.1,0.2,0.1,0.3,0.2
			c0.1,0.1,0.2,0.1,0.3,0.2c0.1,0.1,0.1,0.1,0.1,0.2c-0.1,0.1-0.1,0.1,0,0.2C-64.2,10.7-64.5,10.9-64.8,11C-64.8,11-64.8,11-64.8,11
			z"/>
		<path id="XMLID_118_" class="st9" d="M-64.7,9.7c0.2-0.1,0.4-0.2,0.6-0.3c0.2,0.1,0.4,0.2,0.5,0.3c0.1,0.1,0.2,0.1,0.4,0.2
			c-0.3,0.2-0.5,0.4-0.8,0.6c-0.1,0-0.1-0.1-0.1-0.1c0.1-0.1,0.1-0.1-0.1-0.2C-64.3,10-64.5,9.9-64.7,9.7L-64.7,9.7L-64.7,9.7z"/>
		<path id="XMLID_117_" class="st5" d="M-66.1,13.5c-0.6,0.1-1.3,0.1-1.9,0.1c-0.4,0-0.8-0.1-1.1-0.1c0,0,0-0.1,0.1-0.1
			c0.1,0,0.2,0,0.3,0c0.4,0.1,0.8,0.1,1.2,0.1c0.4,0,0.8,0,1.2-0.1c0,0,0.1,0,0.1,0c0,0,0,0,0.1,0C-66.1,13.4-66.2,13.4-66.1,13.5
			L-66.1,13.5L-66.1,13.5z"/>
		<path id="XMLID_116_" class="st5" d="M-68.9,13.1c0.5,0,0.9,0,1.4,0c0.4,0,0.8,0,1.2-0.1c0,0,0.1,0.1,0.1,0.1c0,0-0.1,0-0.2,0.1
			c-0.7,0.1-1.3,0.1-2,0.1c-0.2,0-0.4,0-0.5,0c-0.1,0-0.1,0-0.2-0.1C-69,13.2-69,13.1-68.9,13.1C-68.9,13.1-68.9,13.1-68.9,13.1z"/>
		<path id="XMLID_115_" class="st16" d="M-63.6,7.5c0.1,0,0.1,0,0.2,0c0.1,0.2,0.4,0.3,0.7,0.3c0.5,0,1,0.1,1.4,0
			c0.3,0,0.6-0.1,0.7-0.3c0.1-0.1,0.1,0,0.2,0c-0.2,0.3-0.6,0.4-1,0.5c-0.1,0-0.1,0-0.2,0c-0.1,0.1-0.8,0.1-1,0
			C-62.9,7.9-63.4,7.8-63.6,7.5L-63.6,7.5z"/>
		<path id="XMLID_114_" class="st11" d="M-60.9,8.4c-0.1,0-0.2,0-0.3,0c-0.3,0-0.6,0-0.9,0c-0.1,0-0.1,0-0.1-0.1
			c0-0.1,0-0.2,0.1-0.2c0.2,0,0.3-0.1,0.5-0.1c0.2,0,0.4,0,0.5,0c0.2,0,0.2,0.1,0.2,0.2C-60.8,8.3-60.7,8.4-60.9,8.4L-60.9,8.4
			L-60.9,8.4z"/>
		<path id="XMLID_113_" class="st17" d="M-65,9.9c0.1,0,0.2,0,0.3,0.1c0.1,0.1,0,0.2-0.1,0.3c-0.1,0-0.2,0.1-0.3,0.1
			c0,0-0.1,0-0.1,0c-0.4-0.1-0.8-0.1-1.3-0.1c-0.1,0-0.1,0-0.2,0c-0.1-0.1,0-0.1,0.1-0.2c0.1,0,0.1,0,0.2,0c0.1,0,0.2,0,0.2,0.1
			c0.1,0.1,0.3,0.1,0.4,0.1c0.1,0,0.2-0.1,0.3-0.2c0.1-0.1,0.2-0.1,0.4-0.1C-65.1,9.9-65,9.9-65,9.9L-65,9.9L-65,9.9z"/>
		<path id="XMLID_112_" class="st1" d="M-69,13.2c0.2,0,0.4,0.1,0.6,0.1c0.6,0,1.2,0,1.7,0c0.1,0,0.3,0,0.4,0c0,0,0.1,0.1,0.1,0.1
			c-0.4,0.1-0.8,0.1-1.2,0.1c-0.5,0-1.1,0-1.6-0.1c0,0-0.1,0-0.1,0C-69.1,13.3-69,13.3-69,13.2L-69,13.2z"/>
		<path id="XMLID_111_" class="st11" d="M-61,8.7c-0.3,0-0.7,0-1,0c-0.2,0-0.2-0.1-0.2-0.1c0-0.1,0.1-0.1,0.2-0.1c0.3,0,0.7,0,1,0
			c0,0,0,0,0,0C-60.8,8.6-60.8,8.6-61,8.7L-61,8.7L-61,8.7z"/>
		<path id="XMLID_110_" class="st5" d="M-68,14.5C-68,14.5-68.1,14.6-68,14.5c0.1,0.1,0.1,0.2,0.1,0.2c0,0.1-0.3,0.3-0.5,0.3
			c0,0-0.1,0-0.1,0c-0.3-0.1-0.4-0.2-0.3-0.4c0.1,0,0.2,0,0.2-0.1c0,0,0.1-0.1,0.1-0.1C-68.4,14.4-68.2,14.4-68,14.5L-68,14.5
			L-68,14.5z"/>
		<path id="XMLID_109_" class="st15" d="M-62.6,9.6c0-0.1,0-0.2-0.1-0.2c-0.1-0.1-0.2-0.1-0.2-0.2c-0.1-0.1-0.2-0.2-0.2-0.3
			c0-0.1,0-0.3,0-0.4c0-0.1,0-0.1,0.2-0.2c0.1,0,0.1-0.1,0.2-0.1C-63,8.5-63,8.7-63,9c0.1,0.2,0.2,0.4,0.6,0.5c0.1,0,0.2,0,0.3,0.1
			c0.1,0.1,0,0.1-0.1,0.1C-62.3,9.6-62.5,9.6-62.6,9.6L-62.6,9.6L-62.6,9.6z"/>
		<path id="XMLID_108_" class="st15" d="M-69.6,16c-0.4-0.2-0.9-0.3-1.3-0.5c0,0-0.1,0-0.1,0c0,0,0,0,0,0c0.1,0,0.2-0.1,0.3-0.1
			c0.3,0.1,0.5,0.2,0.7,0.3c0.2,0.1,0.3,0.2,0.5,0.2C-69.5,15.9-69.6,15.9-69.6,16L-69.6,16z"/>
		<path id="XMLID_107_" class="st17" d="M-68.9,14.6c-0.1,0.2-0.1,0.2,0.2,0.3c0,0,0,0,0.1,0c0,0-0.1,0-0.1,0.1
			c-0.2,0-0.3-0.1-0.4-0.1c-0.1-0.1-0.1-0.1-0.3-0.1c-0.1,0-0.2,0-0.3,0c-0.1,0-0.2-0.1-0.3-0.1c0.1-0.1,0.2-0.1,0.2-0.2
			C-69.4,14.6-69.2,14.6-68.9,14.6L-68.9,14.6L-68.9,14.6z"/>
		<path id="XMLID_106_" class="st11" d="M-61.3,9.1c-0.2,0-0.4,0-0.7,0c-0.1,0-0.3-0.2-0.2-0.2c0,0,0.1,0,0.1,0c0.2,0,0.5,0,0.7,0
			c0.1,0,0.1,0,0.2,0C-61,8.9-61,9-61.3,9.1L-61.3,9.1L-61.3,9.1z"/>
		<path id="XMLID_105_" class="st5" d="M-65.6,14.8c-0.4,0-0.6-0.1-0.6-0.3c0.3-0.1,0.6-0.1,0.9-0.2C-65.3,14.5-65.3,14.6-65.6,14.8
			L-65.6,14.8z"/>
		<path id="XMLID_104_" class="st18" d="M-71.1,15.4C-71.1,15.4-71.1,15.4-71.1,15.4L-71.1,15.4c0,0.4,0,0.4,0.3,0.6
			c0.2,0.1,0.4,0.3,0.5,0.4c0,0,0,0.1-0.1,0.1c-0.1,0-0.1,0-0.1,0c-0.2-0.1-0.3-0.2-0.4-0.4c-0.1-0.1-0.3-0.2-0.4-0.3
			c-0.1,0-0.1-0.1-0.1-0.1C-71.2,15.6-71.2,15.5-71.1,15.4C-71.2,15.4-71.1,15.4-71.1,15.4L-71.1,15.4L-71.1,15.4z"/>
		<path id="XMLID_103_" class="st18" d="M-67,16.2c0,0,0.1,0,0.1,0c0.1,0,0.1,0.1,0.2,0.1c0.1,0.1,0.2,0.1,0.4,0.1c0.3,0,0.7,0,1,0
			c0,0.1-0.1,0.1-0.3,0.1c-0.3,0-0.6,0-0.9,0c-0.1,0-0.2,0-0.3-0.1C-66.8,16.4-66.9,16.3-67,16.2C-67,16.2-67,16.2-67,16.2L-67,16.2
			z"/>
		<path id="XMLID_102_" class="st16" d="M-61.7,9.7C-61.7,9.7-61.7,9.7-61.7,9.7C-61.7,9.8-61.7,9.8-61.7,9.7
			c-0.2,0.1-0.2,0.2-0.2,0.3c0,0,0.1,0.1,0.1,0.1c0.1,0,0.1,0,0.1-0.1c0,0,0-0.1,0-0.1c0,0,0,0,0.1,0c0,0.1,0.1,0.1,0.1,0.2
			c-0.2,0.1-0.7,0.1-0.9,0c0-0.1,0.1-0.2,0.2-0.3C-62,9.7-61.9,9.7-61.7,9.7L-61.7,9.7L-61.7,9.7z"/>
		<path id="XMLID_101_" class="st19" d="M-62.6,7.6L-62.6,7.6c-0.1-0.1-0.1-0.1,0.1-0.1h0.6h0.7c0.1,0,0,0.1,0.1,0.1l0,0
			c-0.4,0-0.7,0-1.1,0C-62.4,7.6-62.5,7.6-62.6,7.6L-62.6,7.6L-62.6,7.6z"/>
		<path id="XMLID_100_" class="st9" d="M-69.7,14.8c0.2,0,0.3,0,0.5,0c0,0,0,0,0,0c0.1,0.1,0.2,0.2,0.4,0.2c0,0-0.1,0.1-0.1,0.1
			C-69.2,15.1-69.4,15-69.7,14.8L-69.7,14.8L-69.7,14.8z"/>
		<path id="XMLID_99_" class="st12" d="M-63.2,9.9C-63.2,9.9-63.2,9.9-63.2,9.9c-0.4-0.2-0.6-0.3-0.9-0.5c0.1,0,0.1-0.1,0.2-0.1
			c0.2,0.1,0.2,0.1,0.4,0.2c0.1,0.1,0.2,0.2,0.4,0.3C-63.1,9.8-63.1,9.9-63.2,9.9C-63.1,9.9-63.1,9.9-63.2,9.9L-63.2,9.9z"/>
		<path id="XMLID_98_" class="st16" d="M-61.6,10.1c-0.1,0.1-0.2,0.2-0.3,0.3c0,0-0.1,0-0.1,0c-0.1-0.1-0.2-0.2-0.3-0.3
			C-62.1,10.1-61.8,10.1-61.6,10.1L-61.6,10.1z"/>
		<path id="XMLID_97_" class="st20" d="M-63.1,9.9c-0.2-0.2-0.4-0.3-0.7-0.5c0,0-0.1-0.1-0.1-0.1c0,0-0.1-0.1-0.1-0.1
			c-0.1,0,0-0.1,0-0.1c0.2,0.2,0.5,0.4,0.7,0.5c0.2,0.1,0.4,0.3,0.5,0.4c-0.1,0-0.1,0-0.1,0C-63,10-63,10-63.1,9.9L-63.1,9.9
			L-63.1,9.9z"/>
		<path id="XMLID_96_" class="st21" d="M-61.8,9.5c-0.1-0.1-0.1-0.1-0.1-0.2c0.1-0.1,0.1-0.1,0.2,0c0.1,0,0.2,0,0.3,0
			c0,0.1-0.1,0.2-0.3,0.2C-61.7,9.5-61.8,9.5-61.8,9.5L-61.8,9.5z"/>
		<path id="XMLID_95_" class="st22" d="M-61.8,9.5c0.1,0,0.1,0,0.2,0c0,0.1,0,0.1,0,0.2c-0.2,0-0.3,0-0.5,0V9.6c0.1,0,0.1,0,0.1-0.1
			C-62,9.5-61.9,9.5-61.8,9.5L-61.8,9.5L-61.8,9.5z"/>
		<path id="XMLID_94_" class="st23" d="M-64.7,9.7c0.1,0,0.2,0.1,0.2,0.2c0.1,0.1,0.2,0.2,0.4,0.3c0.1,0.1,0.1,0.1,0.1,0.2
			c-0.1,0.1-0.1,0.1,0,0.1c0,0,0,0,0,0c-0.2,0-0.2-0.1-0.1-0.2c0.1-0.1,0.1-0.1-0.1-0.2C-64.4,10.1-64.6,9.9-64.7,9.7
			C-64.7,9.8-64.7,9.7-64.7,9.7L-64.7,9.7L-64.7,9.7z"/>
		<path id="XMLID_93_" class="st24" d="M-61.6,10.1c-0.3,0.1-0.5,0.1-0.8,0c0,0-0.1,0-0.1-0.1C-62.1,10.1-61.8,10.1-61.6,10.1
			C-61.5,10.1-61.5,10.1-61.6,10.1L-61.6,10.1L-61.6,10.1z"/>
		<path id="XMLID_92_" class="st25" d="M-65.6,13.4c-0.1,0-0.2,0-0.3,0c0,0-0.1-0.1-0.1-0.1c0,0,0,0,0,0c0.1,0,0.2-0.1,0.3,0
			C-65.6,13.3-65.6,13.3-65.6,13.4C-65.6,13.4-65.6,13.4-65.6,13.4z"/>
		<path id="XMLID_91_" class="st26" d="M-66,13c0.1,0,0.2,0,0.3,0c0,0,0.1,0.1,0.1,0.1c-0.1,0.1-0.2,0.1-0.3,0.1
			C-66,13.1-66,13.1-66,13L-66,13L-66,13z"/>
		<path id="XMLID_90_" class="st22" d="M-62.4,8c0.3,0,0.6,0,1,0V8L-62.4,8C-62.4,8-62.4,8-62.4,8L-62.4,8L-62.4,8z"/>
		<path id="XMLID_89_" class="st27" d="M-66,13.2c0.1,0,0.2,0,0.3,0c0,0,0,0.1,0,0.1c-0.1,0-0.2,0.1-0.3,0.1
			C-66,13.3-66,13.2-66,13.2C-66,13.2-66,13.2-66,13.2L-66,13.2L-66,13.2z"/>
		<path id="XMLID_88_" class="st28" d="M-61.6,9.8C-61.6,9.8-61.6,9.8-61.6,9.8C-61.7,9.8-61.7,9.8-61.6,9.8
			C-61.7,9.7-61.7,9.7-61.6,9.8C-61.6,9.8-61.6,9.8-61.6,9.8L-61.6,9.8L-61.6,9.8z"/>
		<path id="XMLID_87_" class="st29" d="M-69.4,16C-69.4,16-69.3,15.9-69.4,16C-69.3,16-69.3,16-69.4,16C-69.4,16-69.4,16-69.4,16
			L-69.4,16z"/>
		<path id="XMLID_86_" class="st18" d="M-68,6.7c-0.2,0-0.4-0.1-0.4-0.2c0-0.1,0.2-0.3,0.4-0.3c0.2,0,0.4,0.1,0.4,0.3
			C-67.6,6.6-67.8,6.7-68,6.7C-68,6.7-68,6.7-68,6.7z"/>
		<path id="XMLID_85_" class="st9" d="M-69.1,8.8c0.3,0,0.5,0.1,0.7,0.1c0,0.1,0.1,0.1,0,0.2c0,0,0,0.1-0.1,0C-68.7,9-69,9-69.3,8.9
			c0,0,0,0-0.1,0C-69.3,8.8-69.2,8.8-69.1,8.8L-69.1,8.8L-69.1,8.8z"/>
		<path id="XMLID_84_" class="st18" d="M-67.9,9.3c0,0.1,0,0.1,0,0.2c0,0.1,0,0.1-0.2,0.1c0,0-0.1,0-0.1,0c-0.1,0-0.1-0.1-0.1-0.1
			c0-0.1,0-0.1,0-0.2c0-0.1,0-0.1,0.1,0C-68.1,9.2-68,9.3-67.9,9.3L-67.9,9.3L-67.9,9.3z"/>
		<path id="XMLID_83_" class="st30" d="M-67.2,6.7c0,0.1-0.1,0.1-0.2,0.1c-0.1,0-0.2-0.1-0.2-0.1c0-0.1,0.1-0.1,0.2-0.1
			C-67.3,6.6-67.2,6.6-67.2,6.7L-67.2,6.7z"/>
		<path id="XMLID_82_" class="st31" d="M-65.6,7.3c-0.1-0.1-0.1-0.2-0.2-0.3c-0.1-0.1-0.1-0.2-0.2-0.2c-0.1-0.1-0.1-0.1,0-0.1
			c0.1,0,0.2,0,0.2-0.1c0.1,0,0.2,0,0.3,0c0.2,0.1,0.5,0.3,0.6,0.5c0,0.1,0.1,0.1-0.1,0.1c0,0.2,0.2,0.4,0.2,0.6
			c0,0,0.1,0.1,0.1,0.1v0.6c-0.1,0.1-0.1,0.1-0.1,0.2c0,0.1,0,0.1-0.1,0.2c-0.2,0-0.2,0-0.2-0.1c0-0.1,0-0.1,0-0.2
			c0,0,0-0.1-0.1-0.1c-0.1,0-0.1,0-0.2,0.1c0,0.1,0,0.1,0,0.2c0,0,0,0.1-0.1,0.1c-0.1,0-0.1,0-0.1-0.1c0.2-0.4,0.1-0.8,0-1.1
			c0,0,0-0.1,0-0.1c0.1,0,0.1,0.1,0.1,0.1c0,0.1,0,0.1,0.1,0.2c0,0,0.1,0.1,0.2,0.1c0.1,0,0.1-0.1,0.1-0.1c0-0.2-0.1-0.3-0.2-0.5
			C-65.4,7.3-65.5,7.2-65.6,7.3C-65.6,7.3-65.6,7.3-65.6,7.3L-65.6,7.3L-65.6,7.3z"/>
		<path id="XMLID_81_" class="st32" d="M-65.4,8.8c0-0.1,0.1-0.2,0.1-0.3c0-0.1,0.1-0.1,0.2-0.1c0.1,0,0.1,0.1,0.1,0.1
			c0,0.2-0.2,0.5-0.3,0.7c0,0-0.1,0.1-0.2,0.1c-0.2,0-0.2,0-0.1-0.1C-65.6,9.1-65.5,9-65.4,8.8L-65.4,8.8z"/>
		<path id="XMLID_80_" class="st32" d="M-66.2,9.4c-0.2,0-0.2,0-0.1-0.1c0.1-0.2,0.2-0.4,0.2-0.6c0-0.1,0-0.2,0.2-0.1
			c0.1,0,0.1,0.1,0.1,0.1c0,0.2-0.1,0.4-0.2,0.7C-66,9.3-66.1,9.4-66.2,9.4C-66.2,9.4-66.2,9.4-66.2,9.4z"/>
		<path id="XMLID_79_" class="st32" d="M-64.8,8.8c0.1-0.1,0.1-0.2,0.1-0.3c0-0.1,0-0.1,0.1-0.1c0,0,0.1,0,0.1,0c0.1,0,0,0.1,0,0.1
			c-0.1,0.3-0.2,0.5-0.4,0.7c0,0-0.1,0.1-0.2,0.1c-0.1,0-0.1-0.1,0-0.1c0-0.1,0.1-0.1,0.1-0.2c0,0,0,0,0-0.1
			C-64.9,9-64.9,8.9-64.8,8.8L-64.8,8.8z"/>
		<path id="XMLID_78_" class="st32" d="M-65.2,7.9c-0.1,0-0.2,0-0.2-0.1c0-0.1-0.1-0.2-0.1-0.3c0-0.1-0.1-0.2-0.1-0.2c0,0,0,0,0-0.1
			c0.1,0,0.2,0,0.2,0c0.1,0.1,0.2,0.3,0.3,0.5C-65.1,7.8-65.1,7.9-65.2,7.9L-65.2,7.9z"/>
		<path id="XMLID_77_" class="st33" d="M-65.9,8c-0.1,0-0.2,0-0.2-0.1c-0.1-0.1-0.1-0.3-0.2-0.4c0,0,0-0.1,0-0.1c0.1,0,0.2,0,0.2,0
			C-66,7.6-65.9,7.7-65.9,8C-65.8,7.9-65.9,7.9-65.9,8L-65.9,8L-65.9,8z"/>
		<path id="XMLID_76_" class="st9" d="M-66.2,9.4C-66,9.3-66,9.2-66,9.1c0.1-0.1,0.1-0.3,0.1-0.4c0,0,0-0.1-0.1-0.1
			c0.1,0,0.2,0,0.2,0.1c0,0.3,0,0.5-0.2,0.7C-66,9.3-66,9.4-66.2,9.4L-66.2,9.4L-66.2,9.4z"/>
		<path id="XMLID_75_" class="st34" d="M-64.6,7.8c-0.1,0-0.2,0-0.2-0.1c0-0.2-0.1-0.3-0.2-0.5c0,0,0-0.1,0-0.1c0.1,0,0.1,0,0.1,0.1
			c0.1,0.1,0.2,0.3,0.2,0.5C-64.6,7.8-64.6,7.8-64.6,7.8L-64.6,7.8z"/>
		<path id="XMLID_74_" class="st35" d="M-65.5,9.4c0.2-0.2,0.4-0.4,0.4-0.7c0-0.1,0.1-0.2,0-0.2c0.1,0,0.1,0.1,0.1,0.1
			c0,0,0,0.1,0,0.1c0,0.1,0,0.2-0.1,0.3c0,0.1-0.1,0.1-0.2,0.2c0,0-0.1,0.1-0.1,0.1C-65.4,9.4-65.4,9.4-65.5,9.4
			C-65.5,9.4-65.5,9.4-65.5,9.4z"/>
		<path id="XMLID_73_" class="st36" d="M-65.1,9.4c0.1,0,0.1,0,0.2-0.1c0.2-0.3,0.3-0.5,0.4-0.8c0.1,0,0.1,0.1,0.1,0.1
			c-0.1,0.3-0.2,0.5-0.4,0.7C-64.9,9.4-65,9.4-65.1,9.4L-65.1,9.4z"/>
		<path id="XMLID_72_" class="st37" d="M-65.9,8c0-0.2-0.1-0.3-0.2-0.5c0,0-0.1-0.1-0.2-0.1c0.1-0.1,0.2,0,0.3,0
			c0.1,0.1,0.2,0.3,0.2,0.5C-65.8,7.9-65.8,8-65.9,8C-65.9,8-65.9,8-65.9,8z"/>
		<path id="XMLID_71_" class="st38" d="M-65.2,9.2c0-0.1,0.1-0.1,0.1-0.2c0.1,0,0.1,0,0.1,0c0,0,0,0,0,0
			C-65.1,9.1-65.1,9.2-65.2,9.2L-65.2,9.2L-65.2,9.2z"/>
		<path id="XMLID_70_" class="st39" d="M-66.5,10c-0.1,0-0.1-0.1-0.1-0.2C-66.5,9.9-66.5,9.9-66.5,10L-66.5,10z"/>
		<path id="XMLID_66_" class="st6" d="M-65,11c0,0.2-0.2,0.5-0.4,0.7c-0.1,0.1-0.1,0.1-0.2,0.2c0,0-0.1,0.1-0.1,0.1
			c-0.1,0-0.1,0-0.2,0c-0.1,0,0-0.1,0-0.1c0.2-0.3,0.2-0.5,0.2-0.8c0,0,0-0.1-0.1-0.1c-0.1-0.1,0-0.1,0.1-0.1c0.2,0,0.3-0.1,0.5-0.1
			c0.1,0,0.2,0,0.2,0.1C-65.1,10.9-65,10.9-65,11L-65,11L-65,11z"/>
		<path id="XMLID_65_" class="st6" d="M-67,10.2c0.1,0,0.2,0,0.3,0c0.4,0,0.9,0,1.3,0.1c0.1,0,0.2,0,0.3,0c0,0,0,0,0,0
			c0.1,0.1,0,0.1-0.1,0.1c-0.6,0.1-1.2,0.1-1.8,0.1c-0.1,0-0.2,0-0.4,0C-67.2,10.5-67.1,10.4-67,10.2C-67,10.2-67,10.2-67,10.2
			L-67,10.2L-67,10.2z"/>
		<path id="XMLID_64_" class="st18" d="M-65.9,11.4c0,0.1,0,0.2-0.1,0.3c0,0-0.1,0.1-0.2,0.1c-0.1,0-0.1-0.1,0-0.1
			c0.1-0.2,0-0.4,0-0.6c0,0,0,0,0,0c-0.1,0-0.1-0.1,0-0.1c0,0,0.1-0.1,0.2-0.1c0.1,0,0.1,0,0.1,0.1C-65.9,11.1-65.9,11.2-65.9,11.4
			L-65.9,11.4L-65.9,11.4z"/>
		<path id="XMLID_63_" class="st5" d="M-69,14.4c-0.1,0-0.3,0-0.4,0c-0.1,0-0.2-0.1-0.1-0.1c0-0.1,0.1-0.2,0.2-0.2
			c0-0.1,0.1-0.1,0.2-0.1c0.1,0,0.3,0,0.4,0c0.1,0,0.1,0,0.1,0.1c0,0.1-0.1,0.2-0.2,0.3C-68.9,14.4-68.9,14.4-69,14.4L-69,14.4z"/>
		<path id="XMLID_62_" class="st5" d="M-66,14.3c-0.1,0-0.2,0-0.2-0.1c0-0.1,0-0.2-0.1-0.2c0,0,0-0.1,0.1-0.1c0.1,0,0.3-0.1,0.4-0.1
			c0.1,0,0.2,0,0.2,0.1c0,0.1,0.1,0.1,0.1,0.2c0.1,0.1,0,0.2-0.2,0.2C-65.8,14.3-65.9,14.3-66,14.3L-66,14.3L-66,14.3z"/>
		<path id="XMLID_61_" class="st5" d="M-67.4,14c0,0,0.1,0,0.1,0c0.1,0,0.1,0,0.2,0.1c0,0,0,0.1,0,0.1c0.1,0.3,0,0.3-0.5,0.3
			c-0.1,0-0.2,0-0.2-0.1c0-0.1,0-0.1,0-0.2c0-0.1,0.1-0.2,0.3-0.2C-67.5,14-67.5,14-67.4,14C-67.4,14-67.4,14-67.4,14
			C-67.4,14-67.4,14-67.4,14z"/>
		<path id="XMLID_60_" class="st17" d="M-68,14.5c-0.2-0.1-0.3-0.1-0.5-0.1c0.1-0.1,0.1-0.2,0.2-0.3c0.1-0.1,0.2,0,0.3-0.1
			c0.1,0,0,0.1,0,0.1C-68,14.3-68,14.4-68,14.5L-68,14.5z"/>
		<path id="XMLID_59_" class="st40" d="M-65.9,13.5c0.1,0,0.2,0,0.2,0.1c0,0.1-0.2,0.2-0.3,0.1c-0.1,0-0.2-0.1-0.2-0.1
			C-66.2,13.5-66.1,13.5-65.9,13.5L-65.9,13.5z"/>
		<path id="XMLID_58_" class="st30" d="M-66,13.3c0.1,0,0.1,0.1,0.1,0.1c-0.1,0-0.2,0-0.3,0c-0.1,0-0.1-0.1,0-0.1
			C-66.1,13.3-66.1,13.2-66,13.3L-66,13.3z"/>
		<path id="XMLID_57_" class="st5" d="M-70.2,9c-0.5,0-1-0.2-1.1-0.5c0-0.1-0.1-0.1,0-0.2c0,0,0-0.1,0.1-0.1c0.1,0,0.1,0,0.1,0.1
			c0.1,0.1,0.1,0.2,0.3,0.3C-70.6,8.7-70.4,8.9-70.2,9L-70.2,9z"/>
		<path id="XMLID_56_" class="st41" d="M-69,15.5c0,0.1,0,0.1,0,0.2c0,0,0,0.1-0.1,0.1c-0.1,0-0.1,0-0.1,0c-0.1-0.1-0.1-0.2-0.2-0.3
			c0-0.1,0-0.1,0.1-0.1c0.1,0,0.3,0,0.3,0.1C-69,15.4-69,15.5-69,15.5L-69,15.5L-69,15.5z"/>
		<path id="XMLID_55_" class="st42" d="M-69.7,15.4C-69.7,15.4-69.8,15.3-69.7,15.4c0.1-0.1,0.2-0.1,0.2,0c0,0,0,0.1,0,0.1
			c0,0,0,0.1-0.1,0.1c0,0-0.1,0-0.1,0C-69.7,15.5-69.7,15.5-69.7,15.4L-69.7,15.4L-69.7,15.4z"/>
		<path id="XMLID_54_" class="st43" d="M-66.5,12.6c0-0.1,0.1-0.1,0.2-0.1c0.1,0,0.1,0,0.1,0.1c0,0.1-0.1,0.1-0.2,0.1
			C-66.4,12.8-66.5,12.7-66.5,12.6C-66.5,12.6-66.5,12.6-66.5,12.6z"/>
		<path id="XMLID_53_" class="st9" d="M-66.4,12.5C-66.5,12.5-66.5,12.5-66.4,12.5c-0.1-0.1,0.1-0.2,0.1-0.2c0.1,0,0.1,0,0.1,0.1
			C-66.2,12.5-66.3,12.5-66.4,12.5L-66.4,12.5z"/>
		<path id="XMLID_52_" class="st44" d="M-65.7,15.3c0.1,0,0.2,0,0.2,0.1c0.1,0.1,0.1,0.1,0.2,0.1c0,0,0.1,0.1,0,0.1c0,0-0.1,0-0.2,0
			c-0.1-0.1-0.3-0.1-0.5-0.2c0,0-0.1,0-0.1-0.1C-65.9,15.3-65.9,15.3-65.7,15.3C-65.8,15.3-65.8,15.3-65.7,15.3
			C-65.7,15.3-65.7,15.3-65.7,15.3z"/>
		<path id="XMLID_51_" class="st42" d="M-65.9,15.6C-65.9,15.6-65.9,15.6-65.9,15.6c-0.1,0.1-0.1,0.1-0.1,0.1
			c-0.1-0.1-0.2-0.1-0.1-0.2c0,0,0.1-0.1,0.1,0C-65.9,15.5-65.9,15.5-65.9,15.6L-65.9,15.6z"/>
		<path id="XMLID_50_" class="st45" d="M-69.4,10.2c-0.1,0-0.2,0-0.2-0.1c0-0.1,0.1-0.1,0.2-0.1c0.1,0,0.2,0,0.2,0.1
			C-69.2,10.2-69.3,10.2-69.4,10.2L-69.4,10.2z"/>
		<path id="XMLID_49_" class="st46" d="M-63.4,9.2c-0.1,0-0.1,0-0.1-0.1c0,0,0-0.1,0.1-0.1c0.1,0,0.2,0,0.2,0.1
			C-63.3,9.1-63.3,9.2-63.4,9.2L-63.4,9.2z"/>
		<path id="XMLID_48_" class="st42" d="M-63.2,9.2C-63.2,9.2-63.1,9.3-63.2,9.2c0.1,0.1,0.1,0.2,0,0.1C-63.3,9.4-63.3,9.3-63.2,9.2
			C-63.3,9.3-63.3,9.2-63.2,9.2L-63.2,9.2z"/>
		<path id="XMLID_47_" class="st47" d="M-63.1,9.4C-63,9.4-63,9.4-63.1,9.4C-63.1,9.4-63.1,9.5-63.1,9.4
			C-63.1,9.4-63.1,9.4-63.1,9.4C-63.1,9.4-63.1,9.4-63.1,9.4L-63.1,9.4z"/>
		<path id="XMLID_46_" class="st48" d="M-66.2,13c-0.1,0-0.1,0-0.1-0.1c0-0.1,0.1-0.1,0.3-0.1c0.1,0,0.1,0,0.1,0.1
			C-66,12.9-66.1,13-66.2,13L-66.2,13L-66.2,13z"/>
		<path id="XMLID_45_" class="st49" d="M-66,13c0.1,0,0.1,0.1,0,0.1l0,0c0,0-0.1,0-0.2,0c-0.1,0-0.1-0.1-0.1-0.1
			C-66.2,13-66.1,13-66,13L-66,13L-66,13z"/>
		<path id="XMLID_44_" class="st50" d="M-62.6,7.6c0,0,0.1,0,0.1,0h1.1c0,0,0.1,0,0.1,0c-0.2,0-0.5,0-0.7,0c-0.2,0-0.4,0-0.5,0
			C-62.5,7.6-62.5,7.6-62.6,7.6L-62.6,7.6L-62.6,7.6z"/>
		<path id="XMLID_43_" class="st51" d="M-62.5,7.6c0.2,0,0.4,0,0.5,0C-62.1,7.7-62.3,7.7-62.5,7.6L-62.5,7.6z"/>
		<path id="XMLID_42_" class="st5" d="M-63.7,9.9c0,0-0.3,0.2-0.3,0.2c0,0,0,0,0,0c-0.1-0.1-0.2-0.1-0.3-0.2c-0.1,0,0-0.1,0-0.1
			c0,0,0.1,0,0.1-0.1c0.2-0.1,0.2-0.1,0.3,0C-63.8,9.8-63.8,9.8-63.7,9.9C-63.7,9.9-63.7,9.9-63.7,9.9L-63.7,9.9z"/>
		<path id="XMLID_41_" class="st52" d="M-66.1,13.2c0.1,0,0.1,0,0.2,0c0,0,0.1,0.1,0,0.1c0,0,0,0,0,0c-0.1,0-0.1,0-0.2,0
			c0,0,0,0,0,0c0,0-0.1-0.1-0.1-0.1C-66.2,13.2-66.2,13.2-66.1,13.2C-66.1,13.2-66.1,13.2-66.1,13.2z"/>
		<path id="XMLID_40_" class="st43" d="M-65.1,10.1c-0.1,0-0.2,0-0.2-0.1c0-0.1,0.1-0.1,0.2-0.1c0.1,0,0.2,0.1,0.2,0.1
			C-65,10.1-65.1,10.1-65.1,10.1L-65.1,10.1z"/>
		<path id="XMLID_39_" class="st53" d="M-68.4,14.8c0-0.1,0.1-0.1,0.1-0.1c0.1,0,0.1,0.1,0.1,0.1c0,0,0,0.1-0.1,0.1
			C-68.3,14.9-68.3,14.8-68.4,14.8L-68.4,14.8L-68.4,14.8z"/>
		<path id="XMLID_38_" class="st53" d="M-65.4,14.5c0,0.1,0,0.1-0.1,0.1c-0.1,0-0.1,0-0.1-0.1c0-0.1,0.1-0.1,0.2-0.1
			C-65.5,14.4-65.4,14.5-65.4,14.5C-65.4,14.5-65.4,14.5-65.4,14.5z"/>
		<path id="XMLID_37_" class="st54" d="M-61.7,9.7C-61.7,9.8-61.7,9.8-61.7,9.7c0.1,0.1,0.1,0.2,0.1,0.2c0,0,0,0.1-0.1,0.1
			c-0.1,0-0.1,0-0.2,0c-0.1-0.1-0.1-0.1-0.1-0.2C-61.9,9.8-61.8,9.7-61.7,9.7L-61.7,9.7L-61.7,9.7z"/>
		<path id="XMLID_36_" class="st55" d="M-65.2,7.9c0.1-0.1,0-0.2-0.1-0.3c0-0.1-0.1-0.2-0.2-0.2c0-0.1-0.1-0.1-0.2-0.1
			c0.1,0,0.2,0,0.3,0C-65.2,7.4-65.1,7.6-65.2,7.9C-65.1,7.8-65.1,7.9-65.2,7.9C-65.2,7.9-65.2,7.9-65.2,7.9z"/>
		<path id="XMLID_35_" class="st56" d="M-65,9.1c0,0-0.1,0-0.1,0c0-0.1,0.1-0.2,0.1-0.3c0,0.1,0.1,0.1,0.2,0.1
			C-64.9,8.9-64.9,9-65,9.1L-65,9.1L-65,9.1z"/>
		<path id="XMLID_34_" class="st49" d="M-69,14.1c0,0,0.1-0.1,0.1-0.1c0.1,0,0.2,0,0.2,0.1c0,0,0,0.1-0.1,0.1
			C-68.9,14.2-68.9,14.1-69,14.1L-69,14.1L-69,14.1z"/>
		<path id="XMLID_33_" class="st57" d="M-68.8,14.3C-68.8,14.3-68.9,14.3-68.8,14.3c-0.2,0.1-0.2,0-0.2,0c0,0,0-0.1,0.1-0.1
			C-68.9,14.2-68.9,14.3-68.8,14.3L-68.8,14.3z"/>
		<path id="XMLID_32_" class="st53" d="M-65.7,13.9c0,0.1-0.1,0.1-0.1,0.1c-0.1,0-0.1,0-0.1-0.1c0-0.1,0.1-0.1,0.1-0.1
			C-65.7,13.8-65.7,13.9-65.7,13.9L-65.7,13.9z"/>
		<path id="XMLID_31_" class="st58" d="M-65.7,14c0.1,0,0.1,0,0.1,0.1c0,0.1-0.1,0.1-0.1,0.1c-0.1,0-0.1,0-0.1-0.1
			C-65.9,14.1-65.8,14-65.7,14L-65.7,14L-65.7,14z"/>
		<path id="XMLID_30_" class="st53" d="M-67.3,14.1C-67.3,14.1-67.2,14.1-67.3,14.1c0.1,0.1,0.1,0.2,0,0.2c-0.1,0-0.1,0-0.1-0.1
			C-67.5,14.1-67.5,14.1-67.3,14.1L-67.3,14.1z"/>
		<path id="XMLID_29_" class="st59" d="M-67.3,14.3C-67.3,14.3-67.2,14.3-67.3,14.3c0.1,0.1,0.1,0.1,0,0.1
			C-67.4,14.4-67.4,14.3-67.3,14.3C-67.4,14.3-67.4,14.3-67.3,14.3L-67.3,14.3z"/>
	</g>
	<g id="XMLID_5_" transform="translate(0,260)">
		<g id="XMLID_6_">
			<g id="XMLID_8_">
				<path id="XMLID_178_" class="st60" d="M-57.4-244.5c-1.9-0.8-2.9-1.6-2.9-2.5v-2.2l0.1,0c0.9-0.3,1.8-0.5,2.8-0.5h0.1h0h0h0.1
					c1,0,1.9,0.2,2.8,0.5l0.1,0v2.2c0,0.9-0.9,1.7-2.9,2.5l-0.1,0.1L-57.4-244.5C-57.4-244.5-57.4-244.5-57.4-244.5z"/>
				<path id="XMLID_175_" class="st61" d="M-57.2-249.6c1,0,1.9,0.2,2.7,0.5v2.1c0,0.9-1,1.6-2.8,2.3c-1.7-0.7-2.8-1.5-2.8-2.3v-2.1
					c0.8-0.3,1.7-0.5,2.7-0.5H-57.2L-57.2-249.6L-57.2-249.6z M-57.2-249.8L-57.2-249.8L-57.2-249.8h-0.1h-0.1c-1,0-2,0.2-2.9,0.5
					l-0.2,0.1v0.2v2.1c0,0.9,1,1.7,3,2.6l0.3,0.1l0.3-0.1c2-0.8,3-1.7,3-2.6v-2.1v-0.2l-0.2-0.1C-55.1-249.7-56.1-249.8-57.2-249.8
					L-57.2-249.8C-57.2-249.8-57.2-249.8-57.2-249.8z"/>
			</g>
			<path id="XMLID_11_" class="st62" d="M-57.3-249.6c-1,0-1.9,0.2-2.7,0.5v2.1c0,0.9,1,1.6,2.8,2.3L-57.3-249.6
				C-57.3-249.6-57.3-249.6-57.3-249.6L-57.3-249.6z"/>
		</g>
		<path id="Fill-4" class="st63" d="M-56.6-247.3l-0.7-0.8l-0.6,0.8H-56.6L-56.6-247.3L-56.6-247.3z M-56.4-246.9h-1.7l-0.4,0.6
			l-0.7,0l1.9-2.7l2,2.7h-0.7L-56.4-246.9L-56.4-246.9C-56.4-246.9-56.4-246.9-56.4-246.9z"/>
	</g>
</g>
</svg>
