<?xml version="1.0" encoding="utf-8"?>
<!-- Generator: Adobe Illustrator 21.1.0, SVG Export Plug-In . SVG Version: 6.00 Build 0)  -->
<svg version="1.1" id="Layer_1" xmlns="http://www.w3.org/2000/svg" xmlns:xlink="http://www.w3.org/1999/xlink" x="0px" y="0px"
	 viewBox="0 0 16 16" style="enable-background:new 0 0 16 16;" xml:space="preserve">
<style type="text/css">
	.st0{fill:#E73C23;}
	.st1{fill:#C01818;}
	.st2{fill:#F39867;}
	.st3{fill:#D52716;}
	.st4{fill:#E0BE40;}
	.st5{fill:#FBE468;}
	.st6{fill:#CFE9EB;}
	.st7{fill:#A8C5C8;}
	.st8{fill:#CBA330;}
	.st9{fill:#30140D;}
	.st10{fill:#986531;}
	.st11{fill:#9E6E1D;}
	.st12{fill:#795136;}
	.st13{fill:#93C9DD;}
	.st14{fill:#603E35;}
	.st15{fill:#7C8A96;}
	.st16{fill:#A06E1E;}
	.st17{fill:#FBE467;}
	.st18{fill:#95C9DD;}
	.st19{fill:#613F35;}
	.st20{fill:#996531;}
	.st21{fill:#414C67;}
	.st22{fill:#A16F1E;}
	.st23{fill:#444F69;}
	.st24{fill:#E1BC40;}
	.st25{fill:#E1BB40;}
	.st26{fill:#E74024;}
	.st27{fill:#8C9AA3;}
	.st28{fill:#D1C4BC;}
	.st29{fill:#FBE367;}
	.st30{fill:#FBF29F;}
	.st31{fill:#31140D;}
	.st32{fill:#32140D;}
	.st33{fill:#33150D;}
	.st34{fill:#CBA332;}
	.st35{fill:#C9A231;}
	.st36{fill:#CAA231;}
	.st37{fill:#F9F196;}
	.st38{fill:#E4C345;}
	.st39{fill:#F49968;}
	.st40{fill:#C5A54A;}
	.st41{fill:#C4A449;}
	.st42{fill:#CAA22F;}
	.st43{fill:#C5A549;}
	.st44{fill:#C8A130;}
	.st45{fill:#C3A349;}
	.st46{fill:#C3A248;}
	.st47{fill:#F39767;}
	.st48{fill:#FAE266;}
	.st49{fill:#7F92A0;}
	.st50{fill:#8096A4;}
	.st51{fill:#F49967;}
	.st52{fill:#FAE365;}
	.st53{fill:#A8C4C7;}
	.st54{fill:#CAA232;}
	.st55{fill:#F8E166;}
	.st56{fill:#F9E165;}
	.st57{fill:#FAE366;}
	.st58{fill:#F9E064;}
	.st59{fill:#B52E31;}
	.st60{fill:#F1ECE2;}
	.st61{fill:#E23237;}
	.st62{fill:#FFFFFF;}
</style>
<g id="XMLID_7_" transform="translate(-0.7,90.292679)">
	<path id="XMLID_146_" class="st0" d="M16.7-85v-0.1c0-0.1,0-0.1-0.1-0.2c0-0.1-0.1-0.1-0.2,0c-0.1,0-0.1,0-0.2,0.1
		c-0.1,0-0.2,0-0.2-0.1c0-0.1-0.1-0.1-0.2,0c-0.3,0.2-0.6,0.2-0.8,0c-0.2-0.2-0.5-0.4-0.6-0.6c-0.5-0.5-1.3-0.8-2.2-1
		c-0.4-0.1-0.7,0-1,0.2c-0.6,0.3-0.9,0.6-0.9,1.1c0,0.2,0,0.4,0.1,0.7c0,0,0,0.1,0,0.1c0,0,0.1,0.1,0.2,0c0-0.1,0-0.3,0-0.4
		c0-0.2,0-0.4,0.1-0.6c0.1-0.1,0.2-0.2,0.2-0.3c0,0,0,0,0,0c0,0,0,0,0,0c-0.2,0.3-0.2,0.6-0.1,0.8c0,0.2,0,0.3,0,0.5
		c0,0.1,0.1,0.1,0.2,0.1c0.1-0.3,0-0.5,0-0.8c0-0.1,0-0.2,0.1-0.3c0.1-0.2,0.2-0.4,0.5-0.6c0.2-0.1,0.4-0.2,0.6-0.1
		c0.3,0,0.5,0.1,0.8,0.2c0.4,0.2,0.6,0.4,0.9,0.7c0.1,0.1,0.1,0.2,0.2,0.3c0.1,0.1,0.1,0.3,0.2,0.4c0,0,0.1,0,0.1,0
		c0.3,0.3,0.8,0.5,1.5,0.4c0.4,0,0.8-0.2,1-0.4C16.7-84.8,16.7-84.9,16.7-85L16.7-85z"/>
	<path id="XMLID_140_" class="st1" d="M14-84.8c0-0.1,0-0.1-0.1-0.2c-0.1-0.2-0.2-0.5-0.3-0.7c-0.3-0.3-0.6-0.6-1.1-0.8
		c-0.2-0.1-0.5-0.1-0.8-0.1c-0.2,0-0.3,0.1-0.4,0.2c-0.2,0.1-0.3,0.3-0.3,0.4c0,0,0,0.1,0,0.1c0.1-0.1,0.2-0.2,0.3-0.3
		c0.4-0.2,1-0.2,1.3,0.1c0.1,0.1,0.3,0.3,0.3,0.4c0,0,0,0.1,0,0.1c0,0,0,0-0.1,0.1c0,0-0.1,0-0.1,0c0,0,0-0.1,0-0.1
		c-0.2,0-0.3,0.1-0.3,0.2c0,0,0,0.1-0.1,0.1c-0.1,0-0.2,0-0.2-0.1c-0.2,0.2-0.1,0.4,0,0.5c0.1,0.2,0.6,0.4,1.1,0.4
		C13.5-84.4,13.8-84.6,14-84.8C14-84.8,14-84.8,14-84.8z"/>
	<path id="XMLID_69_" class="st1" d="M10.4-84.9c0.1,0,0.1,0.1,0.2,0.1c0.1-0.2,0.1-0.3,0-0.5c-0.1-0.3-0.1-0.6,0.1-0.9c0,0,0,0,0,0
		c-0.1,0.1-0.1,0.1-0.2,0.2c-0.2,0.2-0.2,0.4-0.2,0.6C10.4-85.2,10.4-85.1,10.4-84.9C10.4-84.9,10.4-84.9,10.4-84.9z"/>
	<path id="XMLID_68_" class="st2" d="M11.4-86.7c-0.3,0-0.3,0-0.2,0.1c-0.1,0-0.2,0-0.2,0c0,0.1-0.1,0.1-0.2,0.1c-0.1,0,0,0.1,0,0.1
		c0,0,0.1,0.1,0.2,0.1c0.1,0,0-0.1,0-0.1c0.1,0,0.2,0,0.2-0.1c0,0,0.1,0,0.1,0c0.1,0,0.1,0,0.1-0.1C11.3-86.6,11.3-86.7,11.4-86.7
		c0.1,0.1,0.2,0.1,0.1,0c0,0,0,0,0.1,0c0,0,0.1,0,0.1,0c0,0-0.1,0-0.1,0c0,0-0.1,0-0.1,0c0,0-0.1,0-0.1,0
		C11.4-86.8,11.4-86.8,11.4-86.7C11.4-86.8,11.4-86.7,11.4-86.7C11.4-86.7,11.4-86.7,11.4-86.7z"/>
	<path id="XMLID_67_" class="st3" d="M10.7-86.2C10.8-86.2,10.8-86.2,10.7-86.2C10.8-86.2,10.8-86.2,10.7-86.2
		C10.8-86.2,10.8-86.2,10.7-86.2L10.7-86.2z"/>
</g>
<g id="XMLID_200_" transform="translate(64.3,-0.70732088)">
	<g id="XMLID_28_" transform="translate(12,0)">
		<path id="XMLID_148_" class="st4" d="M-65.8,7c0,0-0.1-0.1-0.1-0.1c-0.2-0.2-0.5-0.3-0.8-0.5c-0.2-0.1-0.3-0.1-0.5-0.2
			c0,0-0.1,0-0.1,0c-0.2,0-0.4-0.1-0.7-0.1c-0.6-0.1-1.2,0.1-1.7,0.3c-0.1,0-0.1,0.1-0.2,0.1c-0.1,0-0.1,0.1,0,0.1
			c0.1,0.2,0.3,0.4,0.7,0.4c0.1,0,0.1,0.1,0.1,0.1c0.1,0.2,0.2,0.4,0.5,0.6c0.2,0.2,0.5,0.3,0.9,0.3c0.2,0,0.3,0,0.5,0
			c0.1,0,0.1,0,0.1,0.1c0,0,0,0.1,0,0.1c0,0.1,0,0.3,0,0.4c0,0.1,0,0.1-0.1,0.1c-0.1,0-0.2,0-0.3,0c0,0,0,0,0,0c0.1,0,0.1,0,0.2,0
			c-0.3,0.1-0.6,0.2-0.9,0.3c-0.1-0.1,0-0.2,0-0.2c-0.2,0-0.3,0-0.4,0.1c0,0.1,0,0.2,0,0.2c0.1,0,0.2,0,0.4,0c0,0.1,0,0.3-0.1,0.4
			c0,0,0,0,0.1,0c0.3,0,0.5,0.1,0.7,0.1c0,0,0.1,0,0.1,0c0.1-0.1,0-0.1,0-0.2c0-0.1,0-0.2,0-0.3c0-0.1,0.1-0.1,0.2-0.2
			c0.2-0.1,0.5-0.2,0.7-0.3c0.4-0.2,0.6-0.5,0.7-0.9C-65.6,7.6-65.7,7.3-65.8,7L-65.8,7L-65.8,7z"/>
		<path id="XMLID_147_" class="st5" d="M-67.5,8.8h0.4c0.1,0,0.1,0,0.1-0.1c0-0.1,0-0.3,0-0.4c0-0.1,0-0.1,0-0.2
			c0,0-0.1-0.1-0.1-0.1c-0.3,0-0.6,0-0.9-0.1c-0.1,0-0.2-0.1-0.2-0.1c-0.3-0.1-0.5-0.3-0.6-0.5c0-0.1-0.1-0.1-0.1-0.2
			c0-0.1-0.1-0.1-0.2-0.1c-0.3,0-0.7-0.3-0.7-0.5c0,0,0,0,0,0c-0.1-0.1-0.2-0.1-0.3-0.1c-0.1,0-0.2,0-0.3-0.1c-0.2,0-0.3,0-0.5,0.1
			c-0.6,0.3-0.9,0.7-1.1,1.2c-0.1,0.4-0.2,0.8,0,1.2c0.1,0.2,0.3,0.4,0.5,0.6c0.1,0.1,0.2,0.2,0.2,0.2c0.1,0,0.1,0,0.2,0
			c0.8-0.1,1.5-0.4,2-0.7c0.4-0.3,0.6-0.6,0.7-1c0,0,0,0,0-0.1c0,0,0,0,0,0c0.3,0.2,0.6,0.2,1,0.2c0.1,0,0.2,0,0.2,0.1
			c0,0.1,0,0.2,0,0.3c0,0.1,0,0.1-0.2,0.1C-68,8.7-68.5,8.9-69,9c-0.5,0.2-0.9,0.4-1.2,0.8c-0.1,0.2-0.3,0.3-0.5,0.3
			c-0.1,0-0.1,0-0.1,0.1c0.1,0,0.2,0,0.3,0c0.1,0,0.2-0.1,0.3-0.1c0,0,0.1,0,0.1-0.1c0-0.1,0-0.1,0.1-0.2c0,0,0,0,0-0.1
			c0.1-0.3,0.4-0.4,0.7-0.5c0.2,0,0.3-0.1,0.5-0.1c0,0,0.1,0,0.1,0c0.1,0,0.3-0.1,0.4-0.1c0,0,0.1,0,0.1,0
			C-68,8.9-67.7,8.9-67.5,8.8L-67.5,8.8L-67.5,8.8z"/>
		<path id="XMLID_145_" class="st6" d="M-74.6,0.8C-74.6,0.7-74.6,0.7-74.6,0.8C-74.7,0.7-74.7,0.7-74.6,0.8
			C-74.8,0.9-74.9,1-75,1.2c-0.2,0.3-0.3,0.6-0.5,0.8c-0.1,0.1-0.1,0.2,0,0.3c0,0.3,0,0.6,0,1c0,0.4,0,0.8,0.1,1.2
			c0,0.1,0,0.3,0,0.5c0,0.4,0,0.9,0.1,1.3c0,0.4,0.1,0.8,0.1,1.1c0,0.1,0.1,0.1-0.1,0.2c0.2,0.1,0.4,0,0.7,0
			c0.1-0.1,0.1-0.1,0.1-0.2V3.6c0-0.4,0-0.7,0-1.1c0-0.4,0-0.8,0-1.2C-74.6,1.1-74.5,0.9-74.6,0.8L-74.6,0.8L-74.6,0.8z"/>
		<path id="XMLID_144_" class="st7" d="M-74.6,0.8c0,2.3,0,4.5,0,6.8c0.2,0.1,0.4,0.1,0.6,0c0-0.3,0-0.6,0.1-0.9c0,0,0,0,0-0.1
			c0-0.3,0-0.6,0-1c0-0.4,0-0.8,0.1-1.2c0-0.4,0-0.7,0.1-1.1c0-0.4,0-0.8,0.1-1.1c0,0,0-0.1,0-0.1C-74,1.7-74.3,1.2-74.6,0.8
			L-74.6,0.8L-74.6,0.8z"/>
		<path id="XMLID_143_" class="st8" d="M-70.6,12.2C-70.5,12.2-70.5,12.2-70.6,12.2c0.1,0.1,0.1,0.1,0.2,0.1
			c0.4,0.1,0.9,0.2,1.3,0.1c0.4,0,0.7,0,1.1-0.1c0,0,0.1,0,0.1,0c0,0,0-0.1,0.1-0.1c0.3-0.1,0.3-0.3,0.3-0.5c0-0.2-0.1-0.4-0.1-0.6
			c0-0.2-0.1-0.4-0.1-0.6c0-0.1,0-0.1-0.1-0.1c-0.4,0-0.9,0-1.3,0c-0.2,0-0.2,0-0.2,0.1c0,0.4-0.3,0.8-0.7,1.1
			c-0.1,0.1-0.3,0.2-0.4,0.3C-70.5,12.1-70.6,12.2-70.6,12.2L-70.6,12.2L-70.6,12.2z"/>
		<path id="XMLID_142_" class="st4" d="M-70.6,12.2c0.3-0.2,0.6-0.3,0.8-0.5c0.3-0.3,0.5-0.6,0.5-1c0-0.1,0.1-0.1,0.2-0.1
			c0.4,0,0.8,0,1.3,0c0.1,0,0.2-0.1,0.2,0c0-0.1,0.1-0.2,0.3-0.2c0,0,0.1,0,0.1,0c0.1,0,0.2,0,0.2-0.1c0.1-0.1,0-0.2-0.1-0.2
			c-0.2,0-0.5,0-0.7,0c-0.3,0.1-0.6,0.2-1,0.1c-0.2,0-0.5,0-0.7-0.1c0,0-0.1,0-0.1,0c0,0,0,0.1,0,0.1c0.1,0.1,0.1,0.1,0.2,0.2
			c-0.2,0-0.5,0-0.7,0c-0.3,0-0.6,0-1-0.1c-0.1,0-0.2,0-0.4-0.1c-0.1,0-0.1,0-0.1-0.1c0,0,0-0.1-0.1-0.1c-0.1,0-0.1,0-0.2-0.1
			c-0.2-0.1-0.1-0.2-0.1-0.2c0,0-0.1,0-0.1,0c-0.1,0.1-0.2,0.1-0.3,0.2c-0.1,0,0,0.1,0,0.1c0.1,0.1,0.2,0.1,0.3,0.2
			c0.2,0.1,0.2,0.2,0.2,0.3c0,0.1,0,0.1,0,0.2c0,0,0,0.1,0.1,0.1C-71.6,11.6-71.2,12-70.6,12.2L-70.6,12.2z"/>
		<path id="XMLID_141_" class="st0" d="M-69.5,14.5c0.3,0,0.6,0,0.9,0.1c0.1,0,0.1,0,0.1-0.1c0-0.1,0-0.2,0-0.2c0,0,0-0.1,0.1-0.1
			c0.1,0,0.2,0,0.2,0.1c0.1,0.1,0.1,0.1,0.2,0.2c0,0,0.1,0.1,0.1,0.1c0,0.1,0.1,0.1,0.3,0.1c0.2,0,0.4,0,0.6-0.1c0.1,0,0.1,0,0.2,0
			c0.1,0,0.1,0,0.1-0.1c-0.3-0.3-0.4-0.7-0.6-1c0,0-0.1,0-0.2,0c-0.9,0.1-1.8,0.2-2.7,0c-0.1,0-0.1,0-0.2,0c-0.1,0-0.2,0-0.3,0
			c-0.1,0-0.2-0.1-0.3,0c-0.1,0.3-0.2,0.5-0.3,0.8c0,0,0,0.1,0,0.1c0.1,0.1,0.2,0.1,0.3,0.1c0.2,0,0.4,0.1,0.6,0.1
			c0.1,0,0.2,0,0.2-0.1c0-0.1,0-0.2,0.1-0.3c0-0.1,0-0.1,0.1-0.1c0.1,0,0.2,0,0.2,0.1c0,0.1,0,0.2,0,0.3
			C-69.7,14.5-69.7,14.6-69.5,14.5L-69.5,14.5L-69.5,14.5z"/>
		<path id="XMLID_139_" class="st8" d="M-65.8,7c0,0.1,0,0.2,0,0.3c0.1,0.6-0.2,1.1-0.8,1.5C-66.8,8.9-67,9-67.2,9
			c-0.2,0.1-0.3,0.2-0.3,0.3c0,0.1,0.1,0.3,0,0.4c0,0.1,0.1,0.1,0.2,0.1c0.2,0,0.3,0,0.5,0c0.1,0,0.1,0,0.2,0c0.2,0,0.2,0,0.3-0.2
			c0-0.1,0-0.3,0.1-0.4c0-0.1,0.2-0.2,0.3-0.2c0.2-0.1,0.4-0.2,0.6-0.4c0.3-0.2,0.3-0.5,0.2-0.8C-65.2,7.6-65.5,7.3-65.8,7L-65.8,7
			L-65.8,7z"/>
		<path id="XMLID_138_" class="st9" d="M-67.2,9.9c0-0.1-0.1,0-0.2-0.1c-0.3-0.1-0.6-0.1-0.9-0.2c-0.2,0-0.3-0.1-0.2-0.2
			c0,0,0-0.1,0-0.1c0-0.1,0-0.2,0-0.3c-0.4,0.1-0.9,0.2-1.1,0.5c-0.1,0.1-0.1,0.2-0.2,0.3c0,0.1,0.1,0.1,0.2,0.1
			c0.1,0.1,0.2,0.1,0.1,0.2c0,0,0,0.1,0,0.1c0,0,0,0,0.1,0c0.4,0.1,0.9,0.1,1.3,0.1c0.1,0,0.3-0.1,0.4-0.1c0,0,0.1,0,0-0.1
			c0-0.1,0-0.2,0.2-0.2C-67.5,9.9-67.3,9.9-67.2,9.9L-67.2,9.9L-67.2,9.9z"/>
		<path id="XMLID_137_" class="st4" d="M-70.8,10.2c0.1-0.1,0.3-0.1,0.4-0.1c0.1,0,0.1-0.1,0.2-0.1C-70,9.5-69.6,9.2-69,9
			c0.4-0.2,0.9-0.2,1.3-0.3c0.1,0,0.2,0,0.3,0c0.1,0,0.1,0,0.1-0.1c0-0.1,0-0.3,0-0.4c0,0-0.1,0-0.1,0c-0.2,0-0.3,0-0.5,0
			c-0.2,0-0.4-0.1-0.6-0.2c0,0,0,0-0.1,0c0,0,0,0,0,0.1c0,0.3-0.3,0.6-0.5,0.8c-0.2,0.3-0.6,0.4-1,0.6c-0.2,0.1-0.4,0.1-0.6,0.2
			c-0.2,0.1-0.4,0.1-0.7,0.1c0,0,0.1,0.1,0.1,0.1c0,0-0.1,0-0.2,0c0.2,0,0.3,0.1,0.5,0.2C-70.9,10.2-70.9,10.2-70.8,10.2L-70.8,10.2
			z"/>
		<path id="XMLID_136_" class="st10" d="M-65.8,15.3c0.1-0.1,0.2-0.1,0.3-0.1c0.1-0.1,0.1-0.1,0-0.1c-0.3-0.1-0.6-0.2-0.9-0.3
			c-0.1,0-0.1,0-0.2,0c-0.1,0-0.2,0.1-0.3,0.1c-0.2,0.1-0.4,0.2-0.7,0.3c0,0-0.1,0-0.1,0.1c-0.1,0-0.1,0.1-0.1,0.2
			c0,0.2,0,0.4,0.1,0.5c0,0.1,0.1,0.1,0.3,0.1c0.1,0,0.3-0.1,0.4-0.2c0,0,0.1,0,0.1,0C-66.6,15.6-66.2,15.5-65.8,15.3
			C-65.8,15.3-65.8,15.3-65.8,15.3C-65.8,15.3-65.8,15.3-65.8,15.3z"/>
		<path id="XMLID_135_" class="st11" d="M-67.9,12.4c-0.1,0-0.3,0-0.4,0c-0.5,0-0.9,0-1.4,0c-0.3,0-0.6-0.1-0.8-0.1
			c0,0.2,0,0.3-0.1,0.5c0,0.1,0.2,0.1,0.3,0.1c0.4,0.1,0.9,0.1,1.3,0.1c0.2,0,0.5,0,0.7-0.1c0.2,0,0.3,0,0.5,0
			C-67.9,12.7-67.9,12.6-67.9,12.4L-67.9,12.4L-67.9,12.4z"/>
		<path id="XMLID_134_" class="st10" d="M-71,15.2c-0.2,0.1-0.4,0.3-0.6,0.4c-0.1,0.1-0.1,0.1,0.1,0.2c0.1,0,0.3,0,0.4,0
			c0,0,0.1,0,0.2,0c0.5,0,0.9,0,1.3,0.1c0,0,0.1,0,0.1,0c0.2,0,0.3,0,0.5,0c0.1,0,0.1,0,0.1-0.1l-0.4-0.5c0,0-0.1,0-0.1,0
			c-0.1,0-0.2,0-0.3,0c-0.3,0-0.7,0-1,0C-70.9,15.1-71,15.1-71,15.2L-71,15.2L-71,15.2z"/>
		<path id="XMLID_133_" class="st4" d="M-67.2,16.1c-0.2,0-0.4,0-0.5,0.2c-0.1,0.1-0.2,0.2-0.3,0.3c-0.1,0.1,0,0.1,0.1,0.1
			c0.1,0,0.2,0,0.3,0c0.4,0,0.9,0,1.3,0c0.1,0,0.2,0,0.3-0.1c0.4-0.2,0.7-0.5,1.1-0.7c0.2-0.1,0.1-0.2-0.1-0.3
			c-0.1-0.1-0.3-0.1-0.4-0.1c0,0.1,0,0.2,0.1,0.3c0,0.1,0,0.1,0,0.1c-0.3,0.2-0.5,0.4-0.8,0.6c0,0-0.1,0.1-0.2,0
			c-0.2-0.1-0.4-0.2-0.6-0.3C-67,16.2-67.1,16.1-67.2,16.1L-67.2,16.1L-67.2,16.1z"/>
		<path id="XMLID_132_" class="st4" d="M-71.8,16.1c-0.3,0.1-0.5,0.1-0.8,0.2c-0.1,0-0.2,0.1-0.1,0.2c0,0.1,0.1,0.1,0.2,0.1
			c0.2,0,0.4,0,0.7,0c0.2,0,0.4,0,0.5,0c0.5,0.1,0.9,0,1.4,0c0.3,0,0.3,0,0.3-0.2v-0.2c0,0,0-0.1-0.1-0.1c-0.1,0-0.1,0-0.1,0
			c0,0-0.1,0.1-0.1,0.1c-0.1,0.2-0.3,0.2-0.6,0.2c-0.2,0-0.5,0-0.7,0c-0.1,0-0.2,0-0.3-0.1C-71.5,16.3-71.6,16.2-71.8,16.1
			L-71.8,16.1L-71.8,16.1z"/>
		<path id="XMLID_131_" class="st12" d="M-67.2,16.1c0.2,0.1,0.5,0.2,0.7,0.4c0,0,0.1,0,0.1,0c0.1,0,0.2-0.1,0.3-0.2
			c0.2-0.1,0.4-0.3,0.6-0.4c0.1-0.1,0.1-0.1,0.1-0.2c0-0.1,0-0.2-0.1-0.2c0,0-0.1,0-0.1,0c-0.4,0.1-0.8,0.3-1.2,0.5
			c0,0-0.1,0-0.1,0.1C-66.9,16.1-66.9,16.1-67.2,16.1C-67.2,16.1-67.2,16.1-67.2,16.1z"/>
		<path id="XMLID_130_" class="st12" d="M-75.1,8c-0.2,0-0.4,0-0.5,0c0.1,0.1,0.2,0.1,0.4,0c0.2,0,0.4,0,0.6,0.1
			c0.1,0,0.2,0.1,0.2,0.2c0,0-0.1,0-0.1,0c-0.3,0-0.6,0-0.9,0c-0.1,0-0.1,0-0.1,0c0.1,0,0.1,0,0.2,0.1c0.1,0,0.3,0,0.4,0
			c0.2,0,0.4,0,0.5,0c0.1,0,0.2,0,0.2,0.1c0,0.1,0,0.1-0.1,0.1c-0.2,0-0.4,0-0.6,0c-0.1,0-0.3,0-0.4,0c0,0,0.1,0,0.1,0.1
			c0,0,0.1,0,0.2,0c0.2,0,0.4,0,0.6,0c0.1,0,0.2,0,0.2,0c0,0.1-0.1,0.1-0.2,0.2c-0.1,0-0.3,0-0.4,0c-0.1,0-0.2,0-0.2,0
			c0,0.1,0.1,0.1,0.1,0.2c0.1,0,0.2,0,0.3,0c0.1,0,0.2,0,0.2,0c0.1,0,0,0.1,0,0.1c0,0,0,0,0,0c0.1,0.1,0.2,0,0.3,0
			c0.1,0,0.2,0,0.3-0.1C-74.4,9.2-74.3,9-74,8.8c0.1-0.1,0.1-0.2,0-0.2c-0.2-0.1-0.3-0.2-0.1-0.4c0.1-0.1,0.2-0.1,0.3-0.1
			c0-0.1-0.2-0.1-0.3-0.1c0,0-0.1,0-0.1,0H-75C-75,8-75.1,8-75.1,8L-75.1,8L-75.1,8z"/>
		<path id="XMLID_129_" class="st12" d="M-71.8,16.1c0.1,0.1,0.2,0.2,0.4,0.3c0.1,0,0.1,0,0.2,0c0.3,0,0.6,0,0.9,0
			c0.1,0,0.3,0,0.3-0.1c0.1-0.1,0.2-0.2,0.3-0.2c0.1,0,0-0.1,0-0.1c0,0-0.1,0-0.1,0c-0.5,0-0.9-0.1-1.4-0.1c-0.1,0-0.1,0-0.2,0
			C-71.4,16-71.6,16-71.8,16.1L-71.8,16.1z"/>
		<path id="XMLID_128_" class="st10" d="M-73.9,8.1c-0.2,0-0.2,0-0.3,0.1c-0.2,0.2-0.1,0.3,0.2,0.4c0.1,0.1,0.1,0.1,0,0.2
			c-0.2,0.1-0.3,0.2-0.3,0.4c0,0.1,0.1,0.1,0.2,0.2c0.2,0,0.3,0,0.4-0.1c0.2-0.1,0.3-0.3,0.3-0.4c0-0.2,0-0.3,0-0.5
			c0-0.1,0-0.1-0.1-0.1C-73.7,8.2-73.8,8.2-73.9,8.1L-73.9,8.1L-73.9,8.1z"/>
		<path id="XMLID_127_" class="st11" d="M-67.8,10.1C-67.8,10.1-67.8,10.2-67.8,10.1c0.2,0.1,0.5,0.1,0.7,0.1c0,0,0.1,0,0.1,0
			c0,0,0,0.1,0,0.1c-0.1,0-0.1,0.1-0.2,0.1c0.4,0,0.8,0,1.2,0c0.1,0,0.2-0.1,0.3-0.1c0.1-0.1,0.1-0.2-0.1-0.2
			c-0.1-0.1-0.3-0.1-0.5-0.1c-0.4,0-0.7,0-1.1,0C-67.5,10-67.7,10.1-67.8,10.1L-67.8,10.1L-67.8,10.1z"/>
		<path id="XMLID_126_" class="st10" d="M-72.6,9.1c-0.1-0.1-0.2-0.1-0.3-0.2c-0.2-0.1-0.2-0.1-0.4,0c-0.1,0-0.2,0.1-0.2,0.1
			c-0.1,0.1-0.2,0.2-0.4,0.3C-74,9.5-74,9.5-74,9.6c0,0.2,0.1,0.3,0.1,0.5c0.1,0,0.2-0.1,0.3-0.2C-73.3,9.7-72.9,9.4-72.6,9.1
			C-72.6,9.2-72.6,9.2-72.6,9.1L-72.6,9.1L-72.6,9.1z"/>
		<path id="XMLID_125_" class="st0" d="M-67.8,12.9c-0.1-0.1-0.3-0.1-0.5-0.1c-0.3,0.1-0.6,0.1-1,0.1c-0.4,0-0.7-0.1-1-0.1
			c-0.1,0-0.2,0-0.3-0.1c-0.1,0-0.2,0-0.2,0.1c0,0,0,0.1,0,0.1c0.1,0.1,0.2,0,0.3,0.1c0.1,0,0.2,0,0.3,0c0.7,0.1,1.4,0.1,2.1,0.1
			c0.2,0,0.3,0,0.5-0.1C-67.7,13-67.8,13-67.8,12.9L-67.8,12.9L-67.8,12.9z"/>
		<path id="XMLID_124_" class="st13" d="M-75.4,7.6c-0.1,0-0.4,0-0.5-0.1c0,0-0.1-0.1-0.1-0.1c0-0.1-0.1-0.1-0.2-0.1
			c-0.1,0-0.2,0.1-0.1,0.1c0.1,0,0.1,0,0.2,0.1c0.2,0.2,0.6,0.3,1,0.3c0.3,0,0.6,0,0.9,0c0.4,0,0.8-0.1,1-0.3c0,0,0.1,0,0.2-0.1
			c0.1,0,0.1-0.1,0-0.1c-0.1,0-0.2-0.1-0.2-0.1c0,0,0,0,0,0.1c-0.1,0.1-0.2,0.2-0.4,0.3c-0.1,0-0.1,0-0.2,0c0,0-0.1,0-0.1,0
			c0,0-0.1,0-0.1,0c-0.2,0-0.3,0-0.5,0C-74.9,7.6-75.1,7.6-75.4,7.6C-75.3,7.6-75.4,7.6-75.4,7.6L-75.4,7.6L-75.4,7.6z"/>
		<path id="XMLID_123_" class="st11" d="M-69.8,15.2h0.3c0-0.2,0-0.4,0-0.6c-0.1,0-0.1-0.1-0.1-0.1c0-0.1,0-0.2,0-0.3
			c0-0.1,0-0.1-0.1-0.1c-0.1,0-0.1,0-0.2,0c-0.1,0-0.1,0-0.1,0.1c0,0.1,0,0.2-0.1,0.3c0,0.1-0.1,0.1-0.2,0.1c0,0,0,0,0,0.1
			c-0.1,0.2-0.2,0.2-0.5,0.2c0,0-0.1,0-0.1,0c0,0,0,0.1,0,0.1c0.1,0.1,0.3,0,0.4,0c0.3-0.1,0.4-0.2,0.5-0.3c0,0,0-0.1,0.1-0.1
			c0.1,0,0.1,0.1,0.1,0.1v0.4C-69.9,15.1-69.9,15.1-69.8,15.2L-69.8,15.2L-69.8,15.2z"/>
		<path id="XMLID_122_" class="st8" d="M-69.8,15.2c0-0.2,0-0.4,0-0.6c0-0.1-0.1-0.1-0.2-0.1c-0.1,0-0.1,0.1-0.1,0.1
			c-0.1,0.3-0.4,0.4-0.9,0.4v0.3c0.1,0,0.2,0,0.3,0C-70.4,15.2-70.1,15.2-69.8,15.2L-69.8,15.2z"/>
		<path id="XMLID_121_" class="st5" d="M-66.6,6.1c0,0-0.1,0-0.1-0.1c-0.1,0-0.2,0-0.4,0c-0.1,0-0.2,0.1-0.3,0.1
			c0.5,0.2,0.9,0.4,1.3,0.6c0,0,0.1,0.1,0.2,0.1C-66,6.8-66,6.6-66,6.5c0-0.1-0.2-0.1-0.2-0.2c-0.1,0-0.1-0.1-0.2-0.1
			C-66.4,6.1-66.5,6.1-66.6,6.1L-66.6,6.1L-66.6,6.1z"/>
		<path id="XMLID_120_" class="st14" d="M-71.2,15.9c0.5,0.1,1.1,0.2,1.7,0.2c0.1-0.1,0-0.2,0-0.3c-0.2-0.1-0.4,0-0.7-0.1
			c-0.3,0-0.7,0-1,0C-71.2,15.8-71.2,15.9-71.2,15.9L-71.2,15.9L-71.2,15.9z"/>
		<path id="XMLID_119_" class="st8" d="M-71.8,11c0-0.1,0.1-0.3,0.1-0.4c0-0.1-0.1-0.1-0.2-0.1c-0.1,0-0.2-0.1-0.3-0.2
			c-0.2-0.1-0.2-0.1,0-0.2c0.1-0.1,0.2-0.2,0.3-0.2c0.1,0,0.2,0,0.3-0.1c-0.1,0-0.2-0.1-0.3-0.1c-0.1,0.1-0.2,0.1-0.3,0.2
			c-0.1,0.1-0.2,0.1-0.3,0.2c-0.1,0.1-0.1,0.1-0.1,0.2c0.1,0.1,0.1,0.1,0,0.2C-72.3,10.7-72.1,10.9-71.8,11
			C-71.8,11-71.8,11-71.8,11z"/>
		<path id="XMLID_118_" class="st8" d="M-71.9,9.7c-0.2-0.1-0.4-0.2-0.6-0.3c-0.2,0.1-0.4,0.2-0.5,0.3c-0.1,0.1-0.2,0.1-0.4,0.2
			c0.3,0.2,0.5,0.4,0.8,0.6c0.1,0,0.1-0.1,0.1-0.1c-0.1-0.1-0.1-0.1,0.1-0.2C-72.2,10-72.1,9.9-71.9,9.7L-71.9,9.7L-71.9,9.7z"/>
		<path id="XMLID_117_" class="st4" d="M-70.4,13.5c0.6,0.1,1.3,0.1,1.9,0.1c0.4,0,0.8-0.1,1.1-0.1c0,0,0-0.1-0.1-0.1
			c-0.1,0-0.2,0-0.3,0c-0.4,0.1-0.8,0.1-1.2,0.1c-0.4,0-0.8,0-1.2-0.1c0,0-0.1,0-0.1,0c0,0,0,0-0.1,0
			C-70.4,13.4-70.4,13.4-70.4,13.5L-70.4,13.5L-70.4,13.5z"/>
		<path id="XMLID_116_" class="st4" d="M-67.7,13.1c-0.5,0-0.9,0-1.4,0c-0.4,0-0.8,0-1.2-0.1c0,0-0.1,0.1-0.1,0.1c0,0,0.1,0,0.2,0.1
			c0.7,0.1,1.3,0.1,2,0.1c0.2,0,0.4,0,0.5,0c0.1,0,0.1,0,0.2-0.1C-67.6,13.2-67.6,13.1-67.7,13.1C-67.7,13.1-67.7,13.1-67.7,13.1z"
			/>
		<path id="XMLID_115_" class="st15" d="M-73,7.5c-0.1,0-0.1,0-0.2,0c-0.1,0.2-0.4,0.3-0.7,0.3c-0.5,0-1,0.1-1.4,0
			c-0.3,0-0.6-0.1-0.7-0.3c-0.1-0.1-0.1,0-0.2,0c0.2,0.3,0.6,0.4,1,0.5c0.1,0,0.1,0,0.2,0c0.1,0.1,0.8,0.1,1,0
			C-73.7,7.9-73.2,7.8-73,7.5L-73,7.5z"/>
		<path id="XMLID_114_" class="st10" d="M-75.7,8.4c0.1,0,0.2,0,0.3,0c0.3,0,0.6,0,0.9,0c0.1,0,0.1,0,0.1-0.1c0-0.1,0-0.2-0.1-0.2
			c-0.2,0-0.3-0.1-0.5-0.1c-0.2,0-0.4,0-0.5,0c-0.2,0-0.2,0.1-0.2,0.2C-75.8,8.3-75.8,8.4-75.7,8.4L-75.7,8.4L-75.7,8.4z"/>
		<path id="XMLID_113_" class="st16" d="M-71.6,9.9c-0.1,0-0.2,0-0.3,0.1c-0.1,0.1,0,0.2,0.1,0.3c0.1,0,0.2,0.1,0.3,0.1
			c0,0,0.1,0,0.1,0c0.4-0.1,0.8-0.1,1.3-0.1c0.1,0,0.1,0,0.2,0c0.1-0.1,0-0.1-0.1-0.2c-0.1,0-0.1,0-0.2,0c-0.1,0-0.2,0-0.2,0.1
			c-0.1,0.1-0.3,0.1-0.4,0.1c-0.1,0-0.2-0.1-0.3-0.2c-0.1-0.1-0.2-0.1-0.4-0.1C-71.5,9.9-71.5,9.9-71.6,9.9L-71.6,9.9L-71.6,9.9z"/>
		<path id="XMLID_112_" class="st0" d="M-67.6,13.2c-0.2,0-0.4,0.1-0.6,0.1c-0.6,0-1.2,0-1.7,0c-0.1,0-0.3,0-0.4,0
			c0,0-0.1,0.1-0.1,0.1c0.4,0.1,0.8,0.1,1.2,0.1c0.5,0,1.1,0,1.6-0.1c0,0,0.1,0,0.1,0C-67.5,13.3-67.5,13.3-67.6,13.2L-67.6,13.2z"
			/>
		<path id="XMLID_111_" class="st10" d="M-75.5,8.7c0.3,0,0.7,0,1,0c0.2,0,0.2-0.1,0.2-0.1c0-0.1-0.1-0.1-0.2-0.1c-0.3,0-0.7,0-1,0
			c0,0,0,0,0,0C-75.8,8.6-75.8,8.6-75.5,8.7L-75.5,8.7L-75.5,8.7z"/>
		<path id="XMLID_110_" class="st4" d="M-68.5,14.5C-68.5,14.5-68.5,14.6-68.5,14.5c-0.1,0.1-0.1,0.2-0.1,0.2c0,0.1,0.3,0.3,0.5,0.3
			c0,0,0.1,0,0.1,0c0.3-0.1,0.4-0.2,0.3-0.4c-0.1,0-0.2,0-0.2-0.1c0,0-0.1-0.1-0.1-0.1C-68.2,14.4-68.4,14.4-68.5,14.5L-68.5,14.5
			L-68.5,14.5z"/>
		<path id="XMLID_109_" class="st14" d="M-74,9.6c0-0.1,0-0.2,0.1-0.2c0.1-0.1,0.2-0.1,0.2-0.2c0.1-0.1,0.2-0.2,0.2-0.3
			c0-0.1,0-0.3,0-0.4c0-0.1,0-0.1-0.2-0.2c-0.1,0-0.1-0.1-0.2-0.1c0.1,0.2,0.1,0.5,0,0.7c-0.1,0.2-0.2,0.4-0.6,0.5
			c-0.1,0-0.2,0-0.3,0.1c-0.1,0.1,0,0.1,0.1,0.1C-74.2,9.6-74.1,9.6-74,9.6L-74,9.6L-74,9.6z"/>
		<path id="XMLID_108_" class="st14" d="M-66.9,16c0.4-0.2,0.9-0.3,1.3-0.5c0,0,0.1,0,0.1,0c0,0,0,0,0,0c-0.1,0-0.2-0.1-0.3-0.1
			c-0.3,0.1-0.5,0.2-0.7,0.3c-0.2,0.1-0.3,0.2-0.5,0.2C-67,15.9-67,15.9-66.9,16L-66.9,16z"/>
		<path id="XMLID_107_" class="st16" d="M-67.7,14.6c0.1,0.2,0.1,0.2-0.2,0.3c0,0,0,0-0.1,0c0,0,0.1,0,0.1,0.1
			c0.2,0,0.3-0.1,0.4-0.1c0.1-0.1,0.1-0.1,0.3-0.1c0.1,0,0.2,0,0.3,0c0.1,0,0.2-0.1,0.3-0.1c-0.1-0.1-0.2-0.1-0.2-0.2
			C-67.1,14.6-67.4,14.6-67.7,14.6L-67.7,14.6L-67.7,14.6z"/>
		<path id="XMLID_106_" class="st10" d="M-75.3,9.1c0.2,0,0.4,0,0.7,0c0.1,0,0.3-0.2,0.2-0.2c0,0-0.1,0-0.1,0c-0.2,0-0.5,0-0.7,0
			c-0.1,0-0.1,0-0.2,0C-75.6,8.9-75.6,9-75.3,9.1L-75.3,9.1L-75.3,9.1z"/>
		<path id="XMLID_105_" class="st4" d="M-71,14.8c0.4,0,0.6-0.1,0.6-0.3c-0.3-0.1-0.6-0.1-0.9-0.2C-71.3,14.5-71.3,14.6-71,14.8
			L-71,14.8z"/>
		<path id="XMLID_104_" class="st17" d="M-65.5,15.4C-65.5,15.4-65.5,15.4-65.5,15.4L-65.5,15.4c0,0.4,0,0.4-0.3,0.6
			c-0.2,0.1-0.4,0.3-0.5,0.4c0,0,0,0.1,0.1,0.1c0.1,0,0.1,0,0.1,0c0.2-0.1,0.3-0.2,0.4-0.4c0.1-0.1,0.3-0.2,0.4-0.3
			c0.1,0,0.1-0.1,0.1-0.1C-65.3,15.6-65.4,15.5-65.5,15.4C-65.4,15.4-65.4,15.4-65.5,15.4L-65.5,15.4L-65.5,15.4z"/>
		<path id="XMLID_103_" class="st17" d="M-69.6,16.2c0,0-0.1,0-0.1,0c-0.1,0-0.1,0.1-0.2,0.1c-0.1,0.1-0.2,0.1-0.4,0.1
			c-0.3,0-0.7,0-1,0c0,0.1,0.1,0.1,0.3,0.1c0.3,0,0.6,0,0.9,0c0.1,0,0.2,0,0.3-0.1C-69.8,16.4-69.7,16.3-69.6,16.2
			C-69.6,16.2-69.6,16.2-69.6,16.2L-69.6,16.2z"/>
		<path id="XMLID_102_" class="st15" d="M-74.9,9.7C-74.9,9.7-74.9,9.7-74.9,9.7C-74.9,9.8-74.9,9.8-74.9,9.7
			c0.2,0.1,0.2,0.2,0.2,0.3c0,0-0.1,0.1-0.1,0.1c-0.1,0-0.1,0-0.1-0.1c0,0,0-0.1,0-0.1c0,0,0,0-0.1,0c0,0.1-0.1,0.1-0.1,0.2
			c0.2,0.1,0.7,0.1,0.9,0c0-0.1-0.1-0.2-0.2-0.3C-74.5,9.7-74.7,9.7-74.9,9.7L-74.9,9.7L-74.9,9.7z"/>
		<path id="XMLID_101_" class="st18" d="M-74,7.6L-74,7.6c0.1-0.1,0.1-0.1-0.1-0.1h-0.6h-0.7c-0.1,0,0,0.1-0.1,0.1l0,0
			c0.4,0,0.7,0,1.1,0C-74.2,7.6-74.1,7.6-74,7.6L-74,7.6L-74,7.6z"/>
		<path id="XMLID_100_" class="st8" d="M-66.9,14.8c-0.2,0-0.3,0-0.5,0c0,0,0,0,0,0c-0.1,0.1-0.2,0.2-0.4,0.2c0,0,0.1,0.1,0.1,0.1
			C-67.4,15.1-67.1,15-66.9,14.8L-66.9,14.8L-66.9,14.8z"/>
		<path id="XMLID_99_" class="st11" d="M-73.4,9.9C-73.4,9.9-73.3,9.9-73.4,9.9c0.4-0.2,0.6-0.3,0.9-0.5c-0.1,0-0.1-0.1-0.2-0.1
			c-0.2,0.1-0.2,0.1-0.4,0.2c-0.1,0.1-0.2,0.2-0.4,0.3C-73.5,9.8-73.5,9.9-73.4,9.9C-73.5,9.9-73.4,9.9-73.4,9.9L-73.4,9.9z"/>
		<path id="XMLID_98_" class="st15" d="M-75,10.1c0.1,0.1,0.2,0.2,0.3,0.3c0,0,0.1,0,0.1,0c0.1-0.1,0.2-0.2,0.3-0.3
			C-74.5,10.1-74.8,10.1-75,10.1L-75,10.1z"/>
		<path id="XMLID_97_" class="st19" d="M-73.5,9.9c0.2-0.2,0.4-0.3,0.7-0.5c0,0,0.1-0.1,0.1-0.1c0,0,0.1-0.1,0.1-0.1
			c0.1,0,0-0.1,0-0.1c-0.2,0.2-0.5,0.4-0.7,0.5c-0.2,0.1-0.4,0.3-0.5,0.4c0.1,0,0.1,0,0.1,0C-73.6,10-73.5,10-73.5,9.9L-73.5,9.9
			L-73.5,9.9z"/>
		<path id="XMLID_96_" class="st20" d="M-74.8,9.5c0.1-0.1,0.1-0.1,0.1-0.2c-0.1-0.1-0.1-0.1-0.2,0c-0.1,0-0.2,0-0.3,0
			c0,0.1,0.1,0.2,0.3,0.2C-74.9,9.5-74.8,9.5-74.8,9.5L-74.8,9.5z"/>
		<path id="XMLID_95_" class="st21" d="M-74.8,9.5c-0.1,0-0.1,0-0.2,0c0,0.1,0,0.1,0,0.2c0.2,0,0.3,0,0.5,0V9.6
			c-0.1,0-0.1,0-0.1-0.1C-74.6,9.5-74.7,9.5-74.8,9.5L-74.8,9.5L-74.8,9.5z"/>
		<path id="XMLID_94_" class="st22" d="M-71.9,9.7c-0.1,0-0.2,0.1-0.2,0.2c-0.1,0.1-0.2,0.2-0.4,0.3c-0.1,0.1-0.1,0.1-0.1,0.2
			c0.1,0.1,0.1,0.1,0,0.1c0,0,0,0,0,0c0.2,0,0.2-0.1,0.1-0.2c-0.1-0.1-0.1-0.1,0.1-0.2C-72.2,10.1-72,9.9-71.9,9.7
			C-71.9,9.8-71.9,9.7-71.9,9.7L-71.9,9.7L-71.9,9.7z"/>
		<path id="XMLID_93_" class="st23" d="M-75,10.1c0.3,0.1,0.5,0.1,0.8,0c0,0,0.1,0,0.1-0.1C-74.5,10.1-74.8,10.1-75,10.1
			C-75.1,10.1-75.1,10.1-75,10.1L-75,10.1L-75,10.1z"/>
		<path id="XMLID_92_" class="st24" d="M-71,13.4c0.1,0,0.2,0,0.3,0c0,0,0.1-0.1,0.1-0.1c0,0,0,0,0,0c-0.1,0-0.2-0.1-0.3,0
			C-71,13.3-71,13.3-71,13.4C-71,13.4-71,13.4-71,13.4z"/>
		<path id="XMLID_91_" class="st25" d="M-70.6,13c-0.1,0-0.2,0-0.3,0c0,0-0.1,0.1-0.1,0.1c0.1,0.1,0.2,0.1,0.3,0.1
			C-70.6,13.1-70.6,13.1-70.6,13L-70.6,13L-70.6,13z"/>
		<path id="XMLID_90_" class="st21" d="M-74.1,8c-0.3,0-0.6,0-1,0V8L-74.1,8C-74.1,8-74.1,8-74.1,8L-74.1,8L-74.1,8z"/>
		<path id="XMLID_89_" class="st26" d="M-70.6,13.2c-0.1,0-0.2,0-0.3,0c0,0,0,0.1,0,0.1c0.1,0,0.2,0.1,0.3,0.1
			C-70.6,13.3-70.6,13.2-70.6,13.2C-70.6,13.2-70.6,13.2-70.6,13.2L-70.6,13.2L-70.6,13.2z"/>
		<path id="XMLID_88_" class="st27" d="M-75,9.8C-75,9.8-75,9.8-75,9.8C-74.9,9.8-74.9,9.8-75,9.8C-74.9,9.7-74.9,9.7-75,9.8
			C-74.9,9.8-75,9.8-75,9.8L-75,9.8L-75,9.8z"/>
		<path id="XMLID_87_" class="st28" d="M-67.2,16C-67.2,16-67.2,15.9-67.2,16C-67.3,16-67.3,16-67.2,16C-67.2,16-67.2,16-67.2,16
			L-67.2,16z"/>
		<path id="XMLID_86_" class="st17" d="M-68.6,6.7c0.2,0,0.4-0.1,0.4-0.2c0-0.1-0.2-0.3-0.4-0.3c-0.2,0-0.4,0.1-0.4,0.3
			C-69,6.6-68.8,6.7-68.6,6.7C-68.6,6.7-68.6,6.7-68.6,6.7z"/>
		<path id="XMLID_85_" class="st8" d="M-67.5,8.8c-0.3,0-0.5,0.1-0.7,0.1c0,0.1-0.1,0.1,0,0.2c0,0,0,0.1,0.1,0
			c0.3-0.1,0.6-0.2,0.9-0.3c0,0,0,0,0.1,0C-67.3,8.8-67.4,8.8-67.5,8.8L-67.5,8.8L-67.5,8.8z"/>
		<path id="XMLID_84_" class="st17" d="M-68.6,9.3c0,0.1,0,0.1,0,0.2c0,0.1,0,0.1,0.2,0.1c0,0,0.1,0,0.1,0c0.1,0,0.1-0.1,0.1-0.1
			c0-0.1,0-0.1,0-0.2c0-0.1,0-0.1-0.1,0C-68.4,9.2-68.5,9.3-68.6,9.3L-68.6,9.3L-68.6,9.3z"/>
		<path id="XMLID_83_" class="st29" d="M-69.4,6.7c0,0.1,0.1,0.1,0.2,0.1c0.1,0,0.2-0.1,0.2-0.1c0-0.1-0.1-0.1-0.2-0.1
			C-69.3,6.6-69.4,6.6-69.4,6.7L-69.4,6.7z"/>
		<path id="XMLID_82_" class="st30" d="M-70.9,7.3c0.1-0.1,0.1-0.2,0.2-0.3c0.1-0.1,0.1-0.2,0.2-0.2c0.1-0.1,0.1-0.1,0-0.1
			c-0.1,0-0.2,0-0.2-0.1c-0.1,0-0.2,0-0.3,0c-0.2,0.1-0.5,0.3-0.6,0.5c0,0.1-0.1,0.1,0.1,0.1c0,0.2-0.2,0.4-0.2,0.6
			c0,0-0.1,0.1-0.1,0.1v0.6c0.1,0.1,0.1,0.1,0.1,0.2c0,0.1,0,0.1,0.1,0.2c0.2,0,0.2,0,0.2-0.1c0-0.1,0-0.1,0-0.2c0,0,0-0.1,0.1-0.1
			c0.1,0,0.1,0,0.2,0.1c0,0.1,0,0.1,0,0.2c0,0,0,0.1,0.1,0.1c0.1,0,0.1,0,0.1-0.1c-0.2-0.4-0.1-0.8,0-1.1c0,0,0-0.1,0-0.1
			c-0.1,0-0.1,0.1-0.1,0.1c0,0.1,0,0.1-0.1,0.2c0,0-0.1,0.1-0.2,0.1c-0.1,0-0.1-0.1-0.1-0.1c0-0.2,0.1-0.3,0.2-0.5
			C-71.2,7.3-71.1,7.2-70.9,7.3C-71,7.3-71,7.3-70.9,7.3L-70.9,7.3L-70.9,7.3z"/>
		<path id="XMLID_81_" class="st31" d="M-71.2,8.8c0-0.1-0.1-0.2-0.1-0.3c0-0.1-0.1-0.1-0.2-0.1c-0.1,0-0.1,0.1-0.1,0.1
			c0,0.2,0.2,0.5,0.3,0.7c0,0,0.1,0.1,0.2,0.1c0.2,0,0.2,0,0.1-0.1C-71,9.1-71.1,9-71.2,8.8L-71.2,8.8z"/>
		<path id="XMLID_80_" class="st31" d="M-70.4,9.4c0.2,0,0.2,0,0.1-0.1c-0.1-0.2-0.2-0.4-0.2-0.6c0-0.1,0-0.2-0.2-0.1
			c-0.1,0-0.1,0.1-0.1,0.1c0,0.2,0.1,0.4,0.2,0.7C-70.5,9.3-70.5,9.4-70.4,9.4C-70.4,9.4-70.4,9.4-70.4,9.4z"/>
		<path id="XMLID_79_" class="st31" d="M-71.7,8.8c-0.1-0.1-0.1-0.2-0.1-0.3c0-0.1,0-0.1-0.1-0.1c0,0-0.1,0-0.1,0
			c-0.1,0,0,0.1,0,0.1c0.1,0.3,0.2,0.5,0.4,0.7c0,0,0.1,0.1,0.2,0.1c0.1,0,0.1-0.1,0-0.1c0-0.1-0.1-0.1-0.1-0.2c0,0,0,0,0-0.1
			C-71.7,9-71.7,8.9-71.7,8.8L-71.7,8.8z"/>
		<path id="XMLID_78_" class="st31" d="M-71.4,7.9c0.1,0,0.2,0,0.2-0.1c0-0.1,0.1-0.2,0.1-0.3c0-0.1,0.1-0.2,0.1-0.2c0,0,0,0,0-0.1
			c-0.1,0-0.2,0-0.2,0c-0.1,0.1-0.2,0.3-0.3,0.5C-71.5,7.8-71.5,7.9-71.4,7.9L-71.4,7.9z"/>
		<path id="XMLID_77_" class="st32" d="M-70.7,8c0.1,0,0.2,0,0.2-0.1c0.1-0.1,0.1-0.3,0.2-0.4c0,0,0-0.1,0-0.1c-0.1,0-0.2,0-0.2,0
			C-70.6,7.6-70.7,7.7-70.7,8C-70.7,7.9-70.7,7.9-70.7,8L-70.7,8L-70.7,8z"/>
		<path id="XMLID_76_" class="st8" d="M-70.4,9.4c-0.1-0.1-0.2-0.2-0.2-0.3c-0.1-0.1-0.1-0.3-0.1-0.4c0,0,0-0.1,0.1-0.1
			c-0.1,0-0.2,0-0.2,0.1c0,0.3,0,0.5,0.2,0.7C-70.6,9.3-70.5,9.4-70.4,9.4L-70.4,9.4L-70.4,9.4z"/>
		<path id="XMLID_75_" class="st33" d="M-72,7.8c0.1,0,0.2,0,0.2-0.1c0-0.2,0.1-0.3,0.2-0.5c0,0,0-0.1,0-0.1c-0.1,0-0.1,0-0.1,0.1
			C-71.9,7.4-72,7.6-72,7.7C-72,7.8-72,7.8-72,7.8L-72,7.8z"/>
		<path id="XMLID_74_" class="st34" d="M-71,9.4c-0.2-0.2-0.4-0.4-0.4-0.7c0-0.1-0.1-0.2,0-0.2c-0.1,0-0.1,0.1-0.1,0.1
			c0,0,0,0.1,0,0.1c0,0.1,0,0.2,0.1,0.3c0,0.1,0.1,0.1,0.2,0.2c0,0,0.1,0.1,0.1,0.1C-71.2,9.4-71.1,9.4-71,9.4
			C-71,9.4-71,9.4-71,9.4z"/>
		<path id="XMLID_73_" class="st35" d="M-71.5,9.4c-0.1,0-0.1,0-0.2-0.1C-71.9,9-72,8.8-72.1,8.5c-0.1,0-0.1,0.1-0.1,0.1
			c0.1,0.3,0.2,0.5,0.4,0.7C-71.7,9.4-71.6,9.4-71.5,9.4L-71.5,9.4z"/>
		<path id="XMLID_72_" class="st36" d="M-70.7,8c0-0.2,0.1-0.3,0.2-0.5c0,0,0.1-0.1,0.2-0.1c-0.1-0.1-0.2,0-0.3,0
			c-0.1,0.1-0.2,0.3-0.2,0.5C-70.8,7.9-70.8,8-70.7,8C-70.7,8-70.7,8-70.7,8z"/>
		<path id="XMLID_71_" class="st37" d="M-71.4,9.2c0-0.1-0.1-0.1-0.1-0.2c-0.1,0-0.1,0-0.1,0c0,0,0,0,0,0
			C-71.5,9.1-71.5,9.2-71.4,9.2L-71.4,9.2L-71.4,9.2z"/>
		<path id="XMLID_70_" class="st38" d="M-70.1,10c0.1,0,0.1-0.1,0.1-0.2C-70.1,9.9-70.1,9.9-70.1,10L-70.1,10z"/>
		<path id="XMLID_66_" class="st5" d="M-71.6,11c0,0.2,0.2,0.5,0.4,0.7c0.1,0.1,0.1,0.1,0.2,0.2c0,0,0.1,0.1,0.1,0.1
			c0.1,0,0.1,0,0.2,0c0.1,0,0-0.1,0-0.1c-0.2-0.3-0.2-0.5-0.2-0.8c0,0,0-0.1,0.1-0.1c0.1-0.1,0-0.1-0.1-0.1c-0.2,0-0.3-0.1-0.5-0.1
			c-0.1,0-0.2,0-0.2,0.1C-71.5,10.9-71.6,10.9-71.6,11L-71.6,11L-71.6,11z"/>
		<path id="XMLID_65_" class="st5" d="M-69.6,10.2c-0.1,0-0.2,0-0.3,0c-0.4,0-0.9,0-1.3,0.1c-0.1,0-0.2,0-0.3,0c0,0,0,0,0,0
			c-0.1,0.1,0,0.1,0.1,0.1c0.6,0.1,1.2,0.1,1.8,0.1c0.1,0,0.2,0,0.4,0C-69.4,10.5-69.5,10.4-69.6,10.2
			C-69.6,10.2-69.6,10.2-69.6,10.2L-69.6,10.2L-69.6,10.2z"/>
		<path id="XMLID_64_" class="st17" d="M-70.7,11.4c0,0.1,0,0.2,0.1,0.3c0,0,0.1,0.1,0.2,0.1c0.1,0,0.1-0.1,0-0.1
			c-0.1-0.2,0-0.4,0-0.6c0,0,0,0,0,0c0.1,0,0.1-0.1,0-0.1c0,0-0.1-0.1-0.2-0.1c-0.1,0-0.1,0-0.1,0.1C-70.6,11.1-70.7,11.2-70.7,11.4
			L-70.7,11.4L-70.7,11.4z"/>
		<path id="XMLID_63_" class="st4" d="M-67.6,14.4c0.1,0,0.3,0,0.4,0c0.1,0,0.2-0.1,0.1-0.1c0-0.1-0.1-0.2-0.2-0.2
			c0-0.1-0.1-0.1-0.2-0.1c-0.1,0-0.3,0-0.4,0c-0.1,0-0.1,0-0.1,0.1c0,0.1,0.1,0.2,0.2,0.3C-67.7,14.4-67.7,14.4-67.6,14.4
			L-67.6,14.4z"/>
		<path id="XMLID_62_" class="st4" d="M-70.6,14.3c0.1,0,0.2,0,0.2-0.1s0-0.2,0.1-0.2c0,0,0-0.1-0.1-0.1c-0.1,0-0.3-0.1-0.4-0.1
			c-0.1,0-0.2,0-0.2,0.1c0,0.1-0.1,0.1-0.1,0.2c-0.1,0.1,0,0.2,0.2,0.2C-70.8,14.3-70.7,14.3-70.6,14.3L-70.6,14.3L-70.6,14.3z"/>
		<path id="XMLID_61_" class="st4" d="M-69.2,14c0,0-0.1,0-0.1,0c-0.1,0-0.1,0-0.2,0.1c0,0,0,0.1,0,0.1c-0.1,0.3,0,0.3,0.5,0.3
			c0.1,0,0.2,0,0.2-0.1c0-0.1,0-0.1,0-0.2c0-0.1-0.1-0.2-0.3-0.2C-69.1,14-69.1,14-69.2,14C-69.2,14-69.2,14-69.2,14
			C-69.2,14-69.2,14-69.2,14z"/>
		<path id="XMLID_60_" class="st16" d="M-68.5,14.5c0.2-0.1,0.3-0.1,0.5-0.1c-0.1-0.1-0.1-0.2-0.2-0.3c-0.1-0.1-0.2,0-0.3-0.1
			c-0.1,0,0,0.1,0,0.1C-68.5,14.3-68.5,14.4-68.5,14.5L-68.5,14.5z"/>
		<path id="XMLID_59_" class="st39" d="M-70.7,13.5c-0.1,0-0.2,0-0.2,0.1c0,0.1,0.2,0.2,0.3,0.1c0.1,0,0.2-0.1,0.2-0.1
			C-70.4,13.5-70.5,13.5-70.7,13.5L-70.7,13.5z"/>
		<path id="XMLID_58_" class="st29" d="M-70.6,13.3c-0.1,0-0.1,0.1-0.1,0.1c0.1,0,0.2,0,0.3,0c0.1,0,0.1-0.1,0-0.1
			C-70.5,13.3-70.5,13.2-70.6,13.3L-70.6,13.3z"/>
		<path id="XMLID_57_" class="st4" d="M-66.3,9c0.5,0,1-0.2,1.1-0.5c0-0.1,0.1-0.1,0-0.2c0,0,0-0.1-0.1-0.1c-0.1,0-0.1,0-0.1,0.1
			c-0.1,0.1-0.1,0.2-0.3,0.3C-66,8.7-66.1,8.9-66.3,9L-66.3,9z"/>
		<path id="XMLID_56_" class="st40" d="M-67.5,15.5c0,0.1,0,0.1,0,0.2c0,0,0,0.1,0.1,0.1c0.1,0,0.1,0,0.1,0c0.1-0.1,0.1-0.2,0.2-0.3
			c0-0.1,0-0.1-0.1-0.1c-0.1,0-0.3,0-0.3,0.1C-67.6,15.4-67.5,15.5-67.5,15.5L-67.5,15.5L-67.5,15.5z"/>
		<path id="XMLID_55_" class="st41" d="M-66.8,15.4C-66.8,15.4-66.8,15.3-66.8,15.4c-0.1-0.1-0.2-0.1-0.2,0c0,0,0,0.1,0,0.1
			c0,0,0,0.1,0.1,0.1c0,0,0.1,0,0.1,0C-66.9,15.5-66.8,15.5-66.8,15.4L-66.8,15.4L-66.8,15.4z"/>
		<path id="XMLID_54_" class="st42" d="M-70.1,12.6c0-0.1-0.1-0.1-0.2-0.1c-0.1,0-0.1,0-0.1,0.1c0,0.1,0.1,0.1,0.2,0.1
			C-70.2,12.8-70.1,12.7-70.1,12.6C-70.1,12.6-70.1,12.6-70.1,12.6z"/>
		<path id="XMLID_53_" class="st8" d="M-70.2,12.5C-70.1,12.5-70.1,12.5-70.2,12.5c0.1-0.1-0.1-0.2-0.1-0.2c-0.1,0-0.1,0-0.1,0.1
			C-70.4,12.5-70.3,12.5-70.2,12.5L-70.2,12.5z"/>
		<path id="XMLID_52_" class="st43" d="M-70.8,15.3c-0.1,0-0.2,0-0.2,0.1c-0.1,0.1-0.1,0.1-0.2,0.1c0,0-0.1,0.1,0,0.1
			c0,0,0.1,0,0.2,0c0.1-0.1,0.3-0.1,0.5-0.2c0,0,0.1,0,0.1-0.1C-70.6,15.3-70.7,15.3-70.8,15.3C-70.8,15.3-70.8,15.3-70.8,15.3
			C-70.8,15.3-70.8,15.3-70.8,15.3z"/>
		<path id="XMLID_51_" class="st41" d="M-70.7,15.6C-70.7,15.6-70.7,15.6-70.7,15.6c0.1,0.1,0.1,0.1,0.1,0.1
			c0.1-0.1,0.2-0.1,0.1-0.2c0,0-0.1-0.1-0.1,0C-70.6,15.5-70.7,15.5-70.7,15.6L-70.7,15.6z"/>
		<path id="XMLID_50_" class="st44" d="M-67.2,10.2c0.1,0,0.2,0,0.2-0.1c0-0.1-0.1-0.1-0.2-0.1c-0.1,0-0.2,0-0.2,0.1
			C-67.4,10.2-67.3,10.2-67.2,10.2L-67.2,10.2z"/>
		<path id="XMLID_49_" class="st45" d="M-73.2,9.2c0.1,0,0.1,0,0.1-0.1c0,0,0-0.1-0.1-0.1c-0.1,0-0.2,0-0.2,0.1
			C-73.3,9.1-73.3,9.2-73.2,9.2L-73.2,9.2z"/>
		<path id="XMLID_48_" class="st41" d="M-73.3,9.2C-73.4,9.2-73.4,9.3-73.3,9.2c-0.1,0.1-0.1,0.2,0,0.1C-73.3,9.4-73.3,9.3-73.3,9.2
			C-73.3,9.3-73.3,9.2-73.3,9.2L-73.3,9.2z"/>
		<path id="XMLID_47_" class="st46" d="M-73.5,9.4C-73.5,9.4-73.5,9.4-73.5,9.4C-73.5,9.4-73.5,9.5-73.5,9.4
			C-73.5,9.4-73.5,9.4-73.5,9.4C-73.5,9.4-73.5,9.4-73.5,9.4L-73.5,9.4z"/>
		<path id="XMLID_46_" class="st47" d="M-70.3,13c0.1,0,0.1,0,0.1-0.1c0-0.1-0.1-0.1-0.3-0.1c-0.1,0-0.1,0-0.1,0.1
			C-70.6,12.9-70.5,13-70.3,13L-70.3,13L-70.3,13z"/>
		<path id="XMLID_45_" class="st48" d="M-70.6,13c-0.1,0-0.1,0.1,0,0.1l0,0c0,0,0.1,0,0.2,0c0.1,0,0.1-0.1,0.1-0.1
			C-70.4,13-70.5,13-70.6,13L-70.6,13L-70.6,13z"/>
		<path id="XMLID_44_" class="st49" d="M-74,7.6c0,0-0.1,0-0.1,0h-1.1c0,0-0.1,0-0.1,0c0.2,0,0.5,0,0.7,0c0.2,0,0.4,0,0.5,0
			C-74.1,7.6-74,7.6-74,7.6L-74,7.6L-74,7.6z"/>
		<path id="XMLID_43_" class="st50" d="M-74.1,7.6c-0.2,0-0.4,0-0.5,0C-74.5,7.7-74.3,7.7-74.1,7.6L-74.1,7.6z"/>
		<path id="XMLID_42_" class="st4" d="M-72.9,9.9c0,0,0.3,0.2,0.3,0.2c0,0,0,0,0,0c0.1-0.1,0.2-0.1,0.3-0.2c0.1,0,0-0.1,0-0.1
			c0,0-0.1,0-0.1-0.1c-0.2-0.1-0.2-0.1-0.3,0C-72.7,9.8-72.8,9.8-72.9,9.9C-72.9,9.9-72.9,9.9-72.9,9.9L-72.9,9.9z"/>
		<path id="XMLID_41_" class="st51" d="M-70.4,13.2c-0.1,0-0.1,0-0.2,0c0,0-0.1,0.1,0,0.1c0,0,0,0,0,0c0.1,0,0.1,0,0.2,0
			c0,0,0,0,0,0c0,0,0.1-0.1,0.1-0.1C-70.4,13.2-70.4,13.2-70.4,13.2C-70.4,13.2-70.4,13.2-70.4,13.2z"/>
		<path id="XMLID_40_" class="st42" d="M-71.4,10.1c0.1,0,0.2,0,0.2-0.1c0-0.1-0.1-0.1-0.2-0.1c-0.1,0-0.2,0.1-0.2,0.1
			C-71.6,10.1-71.5,10.1-71.4,10.1L-71.4,10.1z"/>
		<path id="XMLID_39_" class="st52" d="M-68.2,14.8c0-0.1-0.1-0.1-0.1-0.1c-0.1,0-0.1,0.1-0.1,0.1c0,0,0,0.1,0.1,0.1
			C-68.2,14.9-68.2,14.8-68.2,14.8L-68.2,14.8L-68.2,14.8z"/>
		<path id="XMLID_38_" class="st52" d="M-71.1,14.5c0,0.1,0,0.1,0.1,0.1c0.1,0,0.1,0,0.1-0.1c0-0.1-0.1-0.1-0.2-0.1
			C-71.1,14.4-71.1,14.5-71.1,14.5C-71.1,14.5-71.1,14.5-71.1,14.5z"/>
		<path id="XMLID_37_" class="st53" d="M-74.9,9.7C-74.9,9.8-74.9,9.8-74.9,9.7C-75,9.9-75,9.9-75,9.9c0,0,0,0.1,0.1,0.1
			c0.1,0,0.1,0,0.2,0c0.1-0.1,0.1-0.1,0.1-0.2C-74.7,9.8-74.8,9.7-74.9,9.7L-74.9,9.7L-74.9,9.7z"/>
		<path id="XMLID_36_" class="st54" d="M-71.4,7.9c-0.1-0.1,0-0.2,0.1-0.3c0-0.1,0.1-0.2,0.2-0.2c0-0.1,0.1-0.1,0.2-0.1
			c-0.1,0-0.2,0-0.3,0C-71.4,7.4-71.5,7.6-71.4,7.9C-71.5,7.8-71.5,7.9-71.4,7.9C-71.4,7.9-71.4,7.9-71.4,7.9z"/>
		<path id="XMLID_35_" class="st55" d="M-71.6,9.1c0,0,0.1,0,0.1,0c0-0.1-0.1-0.2-0.1-0.3c0,0.1-0.1,0.1-0.2,0.1
			C-71.7,8.9-71.7,9-71.6,9.1L-71.6,9.1L-71.6,9.1z"/>
		<path id="XMLID_34_" class="st48" d="M-67.6,14.1c0,0-0.1-0.1-0.1-0.1c-0.1,0-0.2,0-0.2,0.1c0,0,0,0.1,0.1,0.1
			C-67.7,14.2-67.6,14.1-67.6,14.1L-67.6,14.1L-67.6,14.1z"/>
		<path id="XMLID_33_" class="st56" d="M-67.7,14.3C-67.7,14.3-67.7,14.3-67.7,14.3c0.2,0.1,0.2,0,0.2,0c0,0,0-0.1-0.1-0.1
			C-67.7,14.2-67.7,14.3-67.7,14.3L-67.7,14.3z"/>
		<path id="XMLID_32_" class="st52" d="M-70.9,13.9c0,0.1,0.1,0.1,0.1,0.1c0.1,0,0.1,0,0.1-0.1c0-0.1-0.1-0.1-0.1-0.1
			C-70.8,13.8-70.9,13.9-70.9,13.9L-70.9,13.9z"/>
		<path id="XMLID_31_" class="st57" d="M-70.9,14c-0.1,0-0.1,0-0.1,0.1c0,0.1,0.1,0.1,0.1,0.1c0.1,0,0.1,0,0.1-0.1
			C-70.7,14.1-70.8,14-70.9,14L-70.9,14L-70.9,14z"/>
		<path id="XMLID_30_" class="st52" d="M-69.2,14.1C-69.3,14.1-69.3,14.1-69.2,14.1c-0.1,0.1-0.1,0.2,0,0.2c0.1,0,0.1,0,0.1-0.1
			C-69.1,14.1-69.1,14.1-69.2,14.1L-69.2,14.1z"/>
		<path id="XMLID_29_" class="st58" d="M-69.3,14.3C-69.3,14.3-69.4,14.3-69.3,14.3c-0.1,0.1-0.1,0.1,0,0.1
			C-69.2,14.4-69.2,14.3-69.3,14.3C-69.2,14.3-69.2,14.3-69.3,14.3L-69.3,14.3z"/>
	</g>
	<g id="XMLID_5_" transform="translate(0,260)">
		<g id="XMLID_6_">
			<g id="XMLID_8_">
				<path id="XMLID_178_" class="st59" d="M-55.2-244.5c1.9-0.8,2.9-1.6,2.9-2.5v-2.2l-0.1,0c-0.9-0.3-1.8-0.5-2.8-0.5h-0.1h0h0
					h-0.1c-1,0-1.9,0.2-2.8,0.5l-0.1,0v2.2c0,0.9,0.9,1.7,2.9,2.5l0.1,0.1L-55.2-244.5C-55.2-244.5-55.2-244.5-55.2-244.5z"/>
				<path id="XMLID_175_" class="st60" d="M-55.4-249.6c-1,0-1.9,0.2-2.7,0.5v2.1c0,0.9,1,1.6,2.8,2.3c1.7-0.7,2.8-1.5,2.8-2.3v-2.1
					c-0.8-0.3-1.7-0.5-2.7-0.5H-55.4L-55.4-249.6L-55.4-249.6z M-55.4-249.8L-55.4-249.8L-55.4-249.8h0.1h0.1c1,0,2,0.2,2.9,0.5
					l0.2,0.1v0.2v2.1c0,0.9-1,1.7-3,2.6l-0.3,0.1l-0.3-0.1c-2-0.8-3-1.7-3-2.6v-2.1v-0.2l0.2-0.1C-57.5-249.7-56.4-249.8-55.4-249.8
					L-55.4-249.8C-55.4-249.8-55.4-249.8-55.4-249.8z"/>
			</g>
			<path id="XMLID_11_" class="st61" d="M-55.3-249.6c1,0,1.9,0.2,2.7,0.5v2.1c0,0.9-1,1.6-2.8,2.3L-55.3-249.6
				C-55.3-249.6-55.3-249.6-55.3-249.6L-55.3-249.6z"/>
		</g>
		<path id="Fill-4" class="st62" d="M-56-247.3l0.7-0.8l0.6,0.8H-56L-56-247.3L-56-247.3z M-56.2-246.9h1.7l0.4,0.6l0.7,0l-1.9-2.7
			l-2,2.7h0.7L-56.2-246.9L-56.2-246.9C-56.2-246.9-56.2-246.9-56.2-246.9z"/>
	</g>
</g>
</svg>
