<?xml version="1.0" encoding="utf-8"?>
<!-- Generator: Adobe Illustrator 21.1.0, SVG Export Plug-In . SVG Version: 6.00 Build 0)  -->
<svg version="1.1" id="Layer_1" xmlns="http://www.w3.org/2000/svg" xmlns:xlink="http://www.w3.org/1999/xlink" x="0px" y="0px"
	 viewBox="0 0 288 360" style="enable-background:new 0 0 288 360;" xml:space="preserve">
<style type="text/css">
	.st0{fill:#990000;}
	.st1{fill:#61DAFB;}
</style>
<g id="base-layer">
	<path class="st0" d="M194.3,0c0.6,2.4-6,5.4-8.6,7.3c-7,5.4-13.9,13-19.3,19c3.3-0.2,6.2,0,7.9,1.5c-0.6,2.8-5.4,1.3-5.7,4.4
		c6.1-0.9,14.5-5.6,23.6-5.8c-5.4,4.3-13.5,5.7-20,8.8c3,4,9.3,4.6,11.4,9.5c0.3,2-3.9-0.6-3.6,1.5c1,9,10.5,9.2,10,19.7
		c-1.7,0-2.1-1.3-4.3-0.7c-2.4,7,4.8,9.4,5,16.1c0,3.4-2-1.1-4.3,0c-3.5,4.5,3.8,11.8-0.7,17.5c-3,0.7,0-4.8-2.9-4.4
		c-3.5,3.7,1.6,12.7-2.9,16.1c-1.5-0.5-0.2-3.7-2.9-2.9c-3.8,3.3,2.7,11.2-1.4,15.3c-1.1-1.1-1.1-3.3-3.6-2.9
		c-2.3,4,4.4,6.9,1.4,11.7c-0.7,4-1.2-2.6-3.6-1.5c-3.3,4,4.5,6.9,2.9,13.9c-1.4-0.3-0.6-2.8-2.9-2.2c-2.6,5.1,4,6.5,2.9,12.4
		c-0.1,3.4-1-0.8-2.9,0c-0.2,5.5,4.9,7.1,3.6,11.7c17.7,23,42.9,3.3,37.2-28.5c-2.3-12.7-11.7-23.8-10-35.8c3.8,1.8,3.4,5.5,6.4,8
		c14,11.6,44.5,5.8,54.3,21.9c-5.5-1.3-13.8-8.1-22.9-5.8c13.7,11.9,32.8,23,40.8,45.3c17.1,48.1,7.4,116.8-17.9,149.1
		c4.6,8.1,17.2,14.6,12.2,27.8c-5.4-18.9-22.6-27.8-42.9-27.8c-35,0-58.5,29.6-94.4,37.3c-8.4,1.8-18.8,3.3-30.8,2.2
		C46.5,354.1,7.6,311,1.2,256.6c-7.6-65,20.9-105.3,62.2-129.4c3.6-16,20.1-17.7,37.9-21.9c8.9-2.1,13.8-7.1,24.3-4.4
		c-11.8,6.7-24.2,22.5-18.6,42.4c2.7,9.7,10.2,15.3,17.2,16.1c4.3,0.5,12.5-1.8,15-5.1c2.7-3.6,2-11.3,2.9-18.3
		c3.4-27,25.5-49,18.6-71.6c-2.8,0.8-2.6,4.6-4.3,6.6c-10.1,1.5-18.2,6.4-17.9,16.1c0.1,4.8,5.7,7.8,3.6,13.9
		c-1.4-2.5-2.4-5.4-4.3-7.3c-3.1,3.3-8.5-2-10.7-4.4c1.1-2.4,1.8,1.5,3.6,0.7c-0.4-5,2.2-5.6,3.6-11c-4,0.5-2.9,6.3-6.4,7.3
		c1.1-8.1,6.4-11.9,9.3-18.3c-5.7,0.8-5.3,7.7-11.4,8c0.1,5-5,1.7-2.9,6.6c-0.6-0.6-1.6-0.8-2.9-0.7c-0.7,4.1,2.6,4.2,4.3,5.8
		c-1.6,1.8-6.1,0.4-6.4-1.5c-1.5,0.2-0.2,3.2-1.4,3.7c-6.6-2.9-4.7-18.1-2.1-24.1c1.6,0.3,0.3,3.6,0.7,5.1c5.6-3,8.2-9.2,13.6-12.4
		c0-2.4-1.2-3.6-0.7-6.6c1.5-4.2,5.9-4.8,8.6-8c8.8-10.7,8.8-29.5,22.2-35.8c-1.6,3.9-7,10.4-8.6,16.8c2,1.5,4.3-2.9,7.9-2.2
		c-0.7,2.2-3,2.8-2.9,5.8C167.8,18.7,177.5,5.7,194.3,0L194.3,0z M84.2,184.9c-10.7-2.1-17.1,15.7-12.9,27c-7.4-0.7-8.1,5.3-9.3,11
		c3-2.6,10.1-0.9,11.4-5.1c0.8-2.7-2.4-1.4-2.9-2.9c2.4-3.1,9.9-1.1,12.9-3.7c0.9-3.6-1.2-4.2-2.9-5.1c3.1-3.5,9.8-0.7,12.9-2.9
		c0.7-3.6-1.5-3.1-2.1-3.7c0.2-1.5,1.9-1.4,2.1-2.9C89.8,192.8,89.1,185.9,84.2,184.9L84.2,184.9z M162.8,251.4
		c-4.7,4.3-4.2,18.7-4.3,16.1c2.3,1.3,6.9-8.4,13.8-3.1c-1.4,16.3-12.3,15.7-10.2,33.1c10.2,8.2,33.6,6.4,40.8,15.3
		c18.8-5.3,41.4-2.2,55.1,5.8c4.2-6.6,11.5-20.2,12.9-35.1c1.2-12.6,1-30.6-6.4-32.9c-7.1-2.1-11.1,4.2-15,4.4
		c0.9-2.2,0.9-6.4-2.1-6.6c-7.8,8.3-10.7,25.6-21.4,28.5c6.1-8.5,13.9-18.8,12.2-32.9c-0.6-1.6-4.6,0.3-5-1.5
		c2.5-7,5.1-29.5-4.3-32.2c-8.7-2.5-13.6,6.5-16.4,13.9c-1.9,0.2-0.6-2.8-2.9-2.2c-4.2,5-7.2,11.2-13.6,13.9
		c2.3-4.7,6.9-10.8,4.3-18.3c-2.9-0.2-3.4-2.9-2.9-6.6c-11.3-7.8-22.6,3-22.2,14.6c0.3,7.8,6.8,12.6,7.9,19c0.8,0.7,3,0.6,4.3,2.2
		c1.6,1.9,5,22.2,5,21.9c0,0.9-1.7,4.1-2.1,7.3c-0.5,3.9,0.8,8.5,0,10.2c-1.6,3.8-6.9,4.9-10,0.7c2.7,0.4,4.6-0.2,5.7-1.5
		c-0.7-2.2-3.7-2.1-4.3-4.4c-2.6,3.3-11.5,0.6-10-2.2c1.8,2.6,5.5,1,7.2-0.7c-3.7-5.9,1.4-9.1,3.6-13.2c-1.3-2-1.8-5-2.9-7.3
		L162.8,251.4L162.8,251.4z M52.7,225.1c-8.6-9-21.1,1.5-16.4,14.6c-13.7,3.4-2.2,22.7,3.6,26.3c0.3-1.4,1.5-1.8,1.4-3.7
		c0-1.2-2-0.4-2.1-1.5c1.3-4.6,6.5-5.1,7.9-9.5c0.8-2.7-2.7-1.2-2.1-3.7c2.9-3.6,10.5-2.4,10-9.5c-0.9-1.8-2.2,1.3-2.9-0.7
		c1-4.3,6.9-3.7,9.3-6.6c-2.4-2.7-2.7-7.5-4.3-11c-1.4,0.2-1.6-0.8-2.9-0.7C53.1,220.7,54.1,224.1,52.7,225.1L52.7,225.1z
		 M21.3,277.8c1.4,19.9,12.2,45.3,23.6,51.2c-10.2-13-8.8-46-7.2-60.7c-4.5-2.9-6.5-8.4-11.4-11c-1,2.2-0.2,3.8,0.7,5.8
		C20.5,264.4,20.7,270.4,21.3,277.8L21.3,277.8z M119.2,312.1c-1.7,0.4-3.3,1.1-5.7,0.7c-1.7-1.2-1.8-4.1-3.6-5.1
		c-2.5,3.7-5.5,5.4-9.3,4.4c-0.7,3.2,2.3,6.4,1.4,7.3c-2.8-1.8-5-4.2-4.3-9.5c-2.6,2.9-5.7,4.9-9.3,1.5c-1.1,3.1,1.9,5.8,0.7,6.6
		c-3.1-1.5-4.6-6.9-2.9-11c-20.8,6.8,7.9,21.8,17.9,24.9c29.7,9,68.5-10.4,85.8-16.1c-0.9-0.3-1.5-0.9-1.4-2.2
		c-6.8-1.1-15.4,2.7-23.6-0.7c-2.1,1-2.7,3.6-5.7,3.7c-2.8-0.1-2.2-3.6-5-3.7c-0.2,0.6-0.6,0.9-1.4,0.7c-2.8,2.3,2.1,5.1,0.7,5.8
		c-2.6-0.3-4-1.7-4.3-4.4c0.2-2.2,1.5-3.3,2.1-5.1c-7.1-5.1-18.7-6-29.3-3.7c0.2,3.8,0.1,11.1-5,11.7
		C118,316.2,119.7,315.3,119.2,312.1L119.2,312.1z"/>
	<g>
		<path class="st1" d="M171.9,223.1c0-5.7-7.2-11.2-18.2-14.5c2.5-11.2,1.4-20.2-3.6-23c-1.1-0.7-2.5-1-4-1v3.9c0.8,0,1.5,0.2,2,0.5
			c2.4,1.4,3.4,6.6,2.6,13.4c-0.2,1.7-0.5,3.4-0.9,5.2c-3.5-0.8-7.2-1.5-11.2-1.9c-2.4-3.3-4.9-6.2-7.3-8.8
			c5.8-5.4,11.2-8.3,14.8-8.3v-3.9l0,0c-4.9,0-11.2,3.5-17.6,9.5c-6.4-6-12.8-9.4-17.6-9.4v3.9c3.7,0,9.1,2.9,14.8,8.2
			c-2.5,2.6-4.9,5.5-7.3,8.8c-4,0.4-7.8,1.1-11.2,1.9c-0.4-1.8-0.7-3.5-0.9-5.1c-0.8-6.7,0.2-12,2.6-13.4c0.5-0.3,1.2-0.5,2-0.5
			v-3.9l0,0c-1.5,0-2.8,0.3-4,1c-5,2.9-6.1,11.8-3.5,23c-11,3.4-18.1,8.8-18.1,14.5c0,5.7,7.2,11.2,18.2,14.5
			c-2.5,11.2-1.4,20.2,3.6,23c1.1,0.7,2.5,1,4,1c4.9,0,11.2-3.5,17.6-9.5c6.4,6,12.8,9.4,17.6,9.4c1.5,0,2.8-0.3,4-1
			c5-2.9,6.1-11.8,3.5-23C164.8,234.2,171.9,228.8,171.9,223.1z M148.9,211.3c-0.7,2.3-1.5,4.6-2.4,7c-0.7-1.4-1.5-2.8-2.3-4.2
			c-0.8-1.4-1.7-2.8-2.5-4.1C144.2,210.3,146.6,210.7,148.9,211.3z M140.8,230.1c-1.4,2.4-2.8,4.6-4.3,6.7c-2.6,0.2-5.3,0.4-8,0.4
			c-2.7,0-5.3-0.1-7.9-0.3c-1.5-2.1-2.9-4.3-4.3-6.7c-1.3-2.3-2.6-4.7-3.7-7c1.1-2.4,2.3-4.7,3.7-7c1.4-2.4,2.8-4.6,4.3-6.7
			c2.6-0.2,5.3-0.4,8-0.4c2.7,0,5.3,0.1,7.9,0.3c1.5,2.1,2.9,4.3,4.3,6.7c1.3,2.3,2.6,4.7,3.7,7
			C143.4,225.4,142.2,227.8,140.8,230.1z M146.5,227.8c1,2.4,1.8,4.7,2.4,7c-2.3,0.6-4.7,1-7.3,1.4c0.9-1.4,1.7-2.8,2.5-4.2
			C145,230.6,145.8,229.2,146.5,227.8z M128.6,246.6c-1.6-1.7-3.3-3.6-4.9-5.7c1.6,0.1,3.2,0.1,4.9,0.1c1.7,0,3.3,0,4.9-0.1
			C131.9,243.1,130.3,244.9,128.6,246.6z M115.5,236.2c-2.5-0.4-4.9-0.8-7.2-1.4c0.7-2.3,1.5-4.6,2.4-7c0.7,1.4,1.5,2.8,2.3,4.2
			C113.8,233.5,114.6,234.9,115.5,236.2z M128.5,199.5c1.6,1.7,3.3,3.6,4.9,5.7c-1.6-0.1-3.2-0.1-4.9-0.1c-1.7,0-3.3,0-4.9,0.1
			C125.3,203.1,126.9,201.2,128.5,199.5z M115.5,209.9c-0.9,1.4-1.7,2.8-2.5,4.2c-0.8,1.4-1.6,2.8-2.3,4.2c-1-2.4-1.8-4.7-2.4-7
			C110.5,210.7,112.9,210.3,115.5,209.9z M99.5,232c-6.3-2.7-10.3-6.2-10.3-8.9c0-2.8,4-6.3,10.3-8.9c1.5-0.7,3.2-1.2,4.9-1.8
			c1,3.5,2.3,7.1,4,10.8c-1.6,3.7-2.9,7.3-3.9,10.7C102.7,233.3,101,232.7,99.5,232z M109,257.2c-2.4-1.4-3.4-6.6-2.6-13.4
			c0.2-1.7,0.5-3.4,0.9-5.2c3.5,0.8,7.2,1.5,11.2,1.9c2.4,3.3,4.9,6.2,7.3,8.8c-5.8,5.4-11.2,8.3-14.8,8.3
			C110.2,257.7,109.5,257.5,109,257.2z M150.9,243.8c0.8,6.7-0.2,12-2.6,13.4c-0.5,0.3-1.2,0.5-2,0.5c-3.7,0-9.1-2.9-14.8-8.2
			c2.5-2.6,4.9-5.5,7.3-8.8c4-0.4,7.8-1.1,11.2-1.9C150.4,240.4,150.7,242.1,150.9,243.8z M157.7,232c-1.5,0.7-3.2,1.2-4.9,1.8
			c-1-3.5-2.3-7.1-4-10.8c1.6-3.7,2.9-7.3,3.9-10.7c1.7,0.5,3.4,1.1,5,1.8c6.3,2.7,10.3,6.2,10.3,8.9
			C168,225.8,163.9,229.4,157.7,232z"/>
		<path class="st1" d="M110.9,184.6L110.9,184.6L110.9,184.6z"/>
		<circle class="st1" cx="128.6" cy="223.1" r="8.1"/>
		<path class="st1" d="M146.2,184.5L146.2,184.5L146.2,184.5z"/>
	</g>
</g>
</svg>
