<?xml version="1.0" encoding="utf-8"?>
<!-- Generator: Adobe Illustrator 21.1.0, SVG Export Plug-In . SVG Version: 6.00 Build 0)  -->
<svg version="1.1" id="Layer_1" xmlns="http://www.w3.org/2000/svg" xmlns:xlink="http://www.w3.org/1999/xlink" x="0px" y="0px"
	 viewBox="0 0 288 360" style="enable-background:new 0 0 288 360;" xml:space="preserve">
<style type="text/css">
	.st0{fill:#990000;}
	.st1{fill:#61DAFB;}
</style>
<g id="base-layer">
	<path class="st0" d="M94.7,0.5c-0.6,2.4,6,5.4,8.6,7.3c7,5.4,13.9,13,19.3,19c-3.3-0.2-6.2,0-7.9,1.5c0.6,2.8,5.4,1.3,5.7,4.4
		c-6.1-0.9-14.5-5.6-23.6-5.8c5.4,4.3,13.5,5.7,20,8.8c-3,4-9.3,4.6-11.4,9.5c-0.3,2,3.9-0.6,3.6,1.5c-1,9-10.5,9.2-10,19.7
		c1.7,0,2.1-1.3,4.3-0.7c2.4,7-4.8,9.4-5,16.1c0,3.4,2-1.1,4.3,0c3.5,4.5-3.8,11.8,0.7,17.5c3,0.7,0-4.8,2.9-4.4
		c3.5,3.7-1.6,12.7,2.9,16.1c1.5-0.5,0.2-3.7,2.9-2.9c3.8,3.3-2.7,11.2,1.4,15.3c1.1-1.1,1.1-3.3,3.6-2.9c2.3,4-4.4,6.9-1.4,11.7
		c0.7,4,1.2-2.6,3.6-1.5c3.3,4-4.5,6.9-2.9,13.9c1.4-0.3,0.6-2.8,2.9-2.2c2.6,5.1-4,6.5-2.9,12.4c0.1,3.4,1-0.8,2.9,0
		c0.2,5.5-4.9,7.1-3.6,11.7c-17.7,23-42.8,3.3-37.2-28.5c2.3-12.7,11.7-23.8,10-35.8c-3.8,1.8-3.4,5.5-6.4,8
		c-14,11.6-44.5,5.8-54.3,21.9c5.5-1.3,13.8-8.1,22.9-5.8c-13.7,11.9-32.8,23-40.8,45.3c-17.1,48.1-7.4,116.8,17.9,149.1
		c-4.6,8.1-17.2,14.6-12.2,27.8c5.4-18.9,22.6-27.8,42.9-27.8c35,0,58.5,29.6,94.4,37.3c8.4,1.8,18.8,3.3,30.7,2.2
		c59.1-5.5,98.1-48.7,104.4-103.1c7.6-65-20.9-105.3-62.2-129.4c-3.6-16-20.1-17.7-37.9-21.9c-8.9-2.1-13.8-7.1-24.3-4.4
		c11.8,6.7,24.2,22.5,18.6,42.4c-2.7,9.7-10.2,15.3-17.2,16.1c-4.3,0.5-12.5-1.8-15-5.1c-2.7-3.6-2-11.3-2.9-18.3
		c-3.4-27-25.5-49-18.6-71.6c2.8,0.8,2.6,4.6,4.3,6.6c10.1,1.5,18.2,6.4,17.9,16.1c-0.1,4.8-5.7,7.8-3.6,13.9
		c1.4-2.5,2.4-5.4,4.3-7.3c3.1,3.3,8.5-2,10.7-4.4c-1.1-2.4-1.8,1.5-3.6,0.7c0.4-5-2.2-5.6-3.6-11c4,0.5,2.9,6.3,6.4,7.3
		c-1.1-8.1-6.4-11.9-9.3-18.3c5.7,0.8,5.3,7.7,11.4,8c-0.1,5,5,1.7,2.9,6.6c0.6-0.6,1.6-0.8,2.9-0.7c0.7,4.1-2.6,4.2-4.3,5.8
		c1.6,1.8,6.1,0.4,6.4-1.5c1.5,0.2,0.2,3.2,1.4,3.7c6.6-2.9,4.7-18.1,2.1-24.1c-1.6,0.3-0.3,3.6-0.7,5.1c-5.6-3-8.2-9.2-13.6-12.4
		c0-2.4,1.2-3.6,0.7-6.6c-1.5-4.2-5.9-4.8-8.6-8c-8.8-10.7-8.8-29.5-22.2-35.8c1.6,3.9,7,10.4,8.6,16.8c-2,1.5-4.3-2.9-7.9-2.2
		c0.7,2.2,3,2.8,2.9,5.8C121.2,19.2,111.5,6.2,94.7,0.5L94.7,0.5z M204.8,185.4c10.7-2.1,17.1,15.7,12.9,27c7.4-0.7,8.1,5.3,9.3,11
		c-3-2.6-10.1-0.9-11.4-5.1c-0.8-2.7,2.4-1.4,2.9-2.9c-2.4-3.1-9.9-1.1-12.9-3.7c-0.9-3.6,1.2-4.2,2.9-5.1
		c-3.1-3.5-9.8-0.7-12.9-2.9c-0.7-3.6,1.5-3.1,2.1-3.7c-0.2-1.5-1.9-1.4-2.1-2.9C199.2,193.3,199.9,186.4,204.8,185.4L204.8,185.4z
		 M126.2,251.9c4.7,4.3,4.2,18.7,4.3,16.1c-2.3,1.3-6.9-8.4-13.8-3.1c1.4,16.3,12.3,15.7,10.2,33.1c-10.2,8.2-33.6,6.4-40.8,15.3
		c-18.8-5.3-41.4-2.2-55.1,5.8c-4.2-6.6-11.5-20.2-12.9-35.1c-1.2-12.6-1-30.6,6.4-32.9c7.1-2.1,11.1,4.2,15,4.4
		c-0.9-2.2-0.9-6.4,2.1-6.6c7.8,8.3,10.7,25.6,21.4,28.5c-6.1-8.5-13.9-18.8-12.2-32.9c0.6-1.6,4.6,0.3,5-1.5
		c-2.5-7-5.1-29.5,4.3-32.2c8.7-2.5,13.6,6.5,16.4,13.9c1.9,0.2,0.6-2.8,2.9-2.2c4.2,5,7.2,11.2,13.6,13.9
		c-2.3-4.7-6.9-10.8-4.3-18.3c2.9-0.2,3.4-2.9,2.9-6.6c11.3-7.8,22.6,3,22.2,14.6c-0.3,7.8-6.8,12.6-7.9,19c-0.8,0.7-3,0.6-4.3,2.2
		c-1.6,1.9-5,22.2-5,21.9c0,0.9,1.7,4.1,2.1,7.3c0.5,3.9-0.8,8.5,0,10.2c1.6,3.8,6.9,4.9,10,0.7c-2.7,0.4-4.6-0.2-5.7-1.5
		c0.7-2.2,3.7-2.1,4.3-4.4c2.6,3.3,11.5,0.6,10-2.2c-1.8,2.6-5.5,1-7.2-0.7c3.7-5.9-1.4-9.1-3.6-13.2c1.3-2,1.8-5,2.9-7.3
		L126.2,251.9L126.2,251.9z M236.3,225.6c8.6-9,21.1,1.5,16.4,14.6c13.7,3.4,2.2,22.7-3.6,26.3c-0.3-1.4-1.5-1.8-1.4-3.7
		c0-1.2,2-0.4,2.1-1.5c-1.3-4.6-6.5-5.1-7.9-9.5c-0.8-2.7,2.7-1.2,2.1-3.7c-2.9-3.6-10.5-2.4-10-9.5c0.9-1.8,2.2,1.3,2.9-0.7
		c-1-4.3-6.9-3.7-9.3-6.6c2.4-2.7,2.7-7.5,4.3-11c1.4,0.2,1.6-0.8,2.9-0.7C235.9,221.2,234.9,224.6,236.3,225.6L236.3,225.6z
		 M267.8,278.3c-1.4,19.9-12.2,45.3-23.6,51.2c10.2-13,8.8-46,7.2-60.7c4.5-2.9,6.5-8.4,11.4-11c1,2.2,0.2,3.8-0.7,5.8
		C268.5,264.9,268.3,270.9,267.8,278.3L267.8,278.3z M169.8,312.6c1.7,0.4,3.3,1.1,5.7,0.7c1.7-1.2,1.8-4.1,3.6-5.1
		c2.5,3.7,5.5,5.4,9.3,4.4c0.7,3.2-2.3,6.4-1.4,7.3c2.8-1.8,5-4.2,4.3-9.5c2.6,2.9,5.7,4.9,9.3,1.5c1.1,3.1-1.9,5.8-0.7,6.6
		c3.1-1.5,4.6-6.9,2.9-11c20.8,6.8-7.9,21.8-17.9,24.9c-29.7,9-68.5-10.4-85.8-16.1c0.9-0.3,1.5-0.9,1.4-2.2
		c6.8-1.1,15.4,2.7,23.6-0.7c2.1,1,2.7,3.6,5.7,3.7c2.8-0.1,2.2-3.6,5-3.7c0.2,0.6,0.6,0.9,1.4,0.7c2.8,2.3-2.1,5.1-0.7,5.8
		c2.6-0.3,4-1.7,4.3-4.4c-0.2-2.2-1.5-3.3-2.1-5.1c7.1-5.1,18.7-6,29.3-3.7c-0.2,3.8-0.1,11.1,5,11.7
		C171,316.7,169.3,315.8,169.8,312.6L169.8,312.6z"/>
	<g>
		<path class="st1" d="M117.1,223.6c0-5.7,7.2-11.2,18.2-14.5c-2.5-11.2-1.4-20.2,3.6-23c1.1-0.7,2.5-1,4-1v3.9
			c-0.8,0-1.5,0.2-2,0.5c-2.4,1.4-3.4,6.6-2.6,13.4c0.2,1.7,0.5,3.4,0.9,5.2c3.5-0.8,7.2-1.5,11.2-1.9c2.4-3.3,4.9-6.2,7.3-8.8
			c-5.8-5.4-11.2-8.3-14.8-8.3V185l0,0c4.9,0,11.2,3.5,17.6,9.5c6.4-6,12.8-9.4,17.6-9.4v3.9c-3.7,0-9.1,2.9-14.8,8.2
			c2.5,2.6,4.9,5.5,7.3,8.8c4,0.4,7.8,1.1,11.2,1.9c0.4-1.8,0.7-3.5,0.9-5.1c0.8-6.7-0.2-12-2.6-13.4c-0.5-0.3-1.2-0.5-2-0.5V185
			l0,0c1.5,0,2.8,0.3,4,1c5,2.9,6.1,11.8,3.5,23c11,3.4,18.1,8.8,18.1,14.5s-7.2,11.2-18.2,14.5c2.5,11.2,1.4,20.2-3.6,23
			c-1.1,0.7-2.5,1-4,1c-4.9,0-11.2-3.5-17.6-9.5c-6.4,6-12.8,9.4-17.6,9.4c-1.5,0-2.8-0.3-4-1c-5-2.9-6.1-11.8-3.5-23
			C124.2,234.7,117.1,229.3,117.1,223.6z M140.1,211.8c0.7,2.3,1.5,4.6,2.4,7c0.7-1.4,1.5-2.8,2.3-4.2s1.7-2.8,2.5-4.1
			C144.8,210.8,142.4,211.2,140.1,211.8z M148.2,230.6c1.4,2.4,2.8,4.6,4.3,6.7c2.6,0.2,5.3,0.4,8,0.4s5.3-0.1,7.9-0.3
			c1.5-2.1,2.9-4.3,4.3-6.7c1.3-2.3,2.6-4.7,3.7-7c-1.1-2.4-2.3-4.7-3.7-7c-1.4-2.4-2.8-4.6-4.3-6.7c-2.6-0.2-5.3-0.4-8-0.4
			s-5.3,0.1-7.9,0.3c-1.5,2.1-2.9,4.3-4.3,6.7c-1.3,2.3-2.6,4.7-3.7,7C145.6,225.9,146.8,228.3,148.2,230.6z M142.5,228.3
			c-1,2.4-1.8,4.7-2.4,7c2.3,0.6,4.7,1,7.3,1.4c-0.9-1.4-1.7-2.8-2.5-4.2C144,231.1,143.2,229.7,142.5,228.3z M160.4,247.1
			c1.6-1.7,3.3-3.6,4.9-5.7c-1.6,0.1-3.2,0.1-4.9,0.1s-3.3,0-4.9-0.1C157.1,243.6,158.7,245.4,160.4,247.1z M173.5,236.7
			c2.5-0.4,4.9-0.8,7.2-1.4c-0.7-2.3-1.5-4.6-2.4-7c-0.7,1.4-1.5,2.8-2.3,4.2C175.2,234,174.4,235.4,173.5,236.7z M160.5,200
			c-1.6,1.7-3.3,3.6-4.9,5.7c1.6-0.1,3.2-0.1,4.9-0.1s3.3,0,4.9,0.1C163.7,203.6,162.1,201.7,160.5,200z M173.5,210.4
			c0.9,1.4,1.7,2.8,2.5,4.2s1.6,2.8,2.3,4.2c1-2.4,1.8-4.7,2.4-7C178.5,211.2,176.1,210.8,173.5,210.4z M189.5,232.5
			c6.3-2.7,10.3-6.2,10.3-8.9c0-2.8-4-6.3-10.3-8.9c-1.5-0.7-3.2-1.2-4.9-1.8c-1,3.5-2.3,7.1-4,10.8c1.6,3.7,2.9,7.3,3.9,10.7
			C186.3,233.8,188,233.2,189.5,232.5z M180,257.7c2.4-1.4,3.4-6.6,2.6-13.4c-0.2-1.7-0.5-3.4-0.9-5.2c-3.5,0.8-7.2,1.5-11.2,1.9
			c-2.4,3.3-4.9,6.2-7.3,8.8c5.8,5.4,11.2,8.3,14.8,8.3C178.8,258.2,179.5,258,180,257.7z M138.1,244.3c-0.8,6.7,0.2,12,2.6,13.4
			c0.5,0.3,1.2,0.5,2,0.5c3.7,0,9.1-2.9,14.8-8.2c-2.5-2.6-4.9-5.5-7.3-8.8c-4-0.4-7.8-1.1-11.2-1.9
			C138.6,240.9,138.3,242.6,138.1,244.3z M131.3,232.5c1.5,0.7,3.2,1.2,4.9,1.8c1-3.5,2.3-7.1,4-10.8c-1.6-3.7-2.9-7.3-3.9-10.7
			c-1.7,0.5-3.4,1.1-5,1.8c-6.3,2.7-10.3,6.2-10.3,8.9C121,226.3,125.1,229.9,131.3,232.5z"/>
		<path class="st1" d="M178.1,185.1L178.1,185.1L178.1,185.1z"/>
		<circle class="st1" cx="160.4" cy="223.6" r="8.1"/>
		<path class="st1" d="M142.8,185L142.8,185L142.8,185z"/>
	</g>
</g>
</svg>
