<?xml version="1.0" encoding="utf-8"?>
<!-- Generator: Adobe Illustrator 21.1.0, SVG Export Plug-In . SVG Version: 6.00 Build 0)  -->
<svg version="1.1" id="Layer_1" xmlns="http://www.w3.org/2000/svg" xmlns:xlink="http://www.w3.org/1999/xlink" x="0px" y="0px"
	 viewBox="0 0 16 16" style="enable-background:new 0 0 16 16;" xml:space="preserve">
<style type="text/css">
	.st0{fill:#006600;}
	.st1{fill:#336633;}
	.st2{fill:#003300;}
</style>
<path class="st0" d="M3.8,12.8l-0.1-0.4c0,0.2,0,0.4,0,0.5c0,0.2,0,0.3-0.1,0.5l-0.1,0.3c-0.1-0.1-0.1-0.3-0.1-0.5s0-0.3,0-0.5
	c0-0.1,0-0.3,0.1-0.4L3.2,13c0,0,0-0.1-0.1-0.3c0-0.2-0.1-0.3-0.1-0.4c0-0.2,0-0.3,0.1-0.4l0.2-0.6c-0.1,0.2-0.2,0.3-0.3,0.5
	c0,0-0.1,0.1-0.2,0.2s-0.2,0.1-0.2,0.1c0-0.1,0-0.1,0-0.2c0-0.1,0-0.2,0.1-0.4c0-0.1,0-0.1,0.1-0.2l-0.4,0.1c0-0.2,0-0.3,0.1-0.5
	s0.1-0.3,0.3-0.4l0.1-0.1l-0.7,0.2c0-0.1,0-0.2,0-0.3s0-0.1,0-0.2c0-0.1,0-0.2,0.1-0.2l0.2-0.3C2.3,9.8,2.3,9.9,2.2,9.9L2.1,10H2
	c-0.2,0-0.2,0-0.2,0C1.7,9.9,1.7,9.8,1.6,9.8V9.7C1.5,9.6,1.5,9.5,1.5,9.5s0.1,0,0.2,0S1.9,9.4,2,9.4C2,9.3,2.1,9.2,2.2,9L2,9.1H1.9
	H1.8c0-0.2,0-0.4,0.2-0.6l0.1-0.1c0,0,0-0.1,0-0.2L1.9,7.8c0-0.1,0-0.1-0.1-0.2c0.1,0,0.2,0.1,0.4,0.2l0.3,0.1L2.4,7.8V7.7
	C2.1,7.5,2,7.4,2,7.3h0.3C2.2,7.2,2.1,7.1,2.1,6.9C2,6.6,1.9,6.4,1.9,6.1c0.2,0.1,0.4,0.2,0.5,0.3C2.3,6.3,2.3,6.1,2.2,6
	c0-0.2-0.1-0.4-0.1-0.7c0.2,0,0.3,0.1,0.5,0.3l0.1,0.2V5.4c0.3,0,0.5,0.2,0.6,0.5C3.2,5.6,3.2,5.3,3.2,5V4.9l0.3,0.2
	c-0.1-0.3,0-0.7,0-1c0.2,0.1,0.3,0.3,0.4,0.6c0-0.2,0-0.3,0-0.5C4,4.1,4,4.1,4,4l0.2-0.5c0.1,0.3,0.1,0.6,0.1,0.9
	c0-0.3,0.1-0.6,0.2-0.9C4.6,3.8,4.7,4,4.8,4.4c0-0.3,0.1-0.5,0.2-0.7l0.4,1.1c0-0.3,0-0.6,0-0.9c0-0.2,0.1-0.4,0.2-0.5
	c0,0,0-0.1,0.1-0.1l0.1,0.9c0-0.3,0.1-0.4,0.3-0.5h0.1l0,0c0-0.2,0.1-0.5,0.2-0.6c0-0.1,0-0.2,0.1-0.2c0,0.2,0,0.4,0,0.6
	c0.1-0.2,0.2-0.3,0.4-0.4l0,0v0.1L7,3.3l0.1,0.1v0.2v0.1c-0.2,0-0.3-0.1-0.4-0.2c-0.1,0-0.1,0-0.2,0S6.3,3.6,6.1,3.7l0.4,0.6
	L6.1,4.6c0,0.1,0.1,0.2,0.1,0.3L6.3,5c0.2,0.2,0.4,0.3,0.6,0.2L6.7,5.5h0.4l0,0h0.3C7.3,5.4,7.2,5.2,7.2,5.1C7.1,4.8,7,4.6,7,4.3
	l0.5,0.3c0-0.1-0.1-0.2-0.1-0.3s0-0.1,0-0.2c0-0.2-0.1-0.4-0.1-0.7l0,0c0.2,0,0.3,0.1,0.5,0.3c0,0,0.1,0.1,0.1,0.2V3.5
	c0.2,0.1,0.4,0.3,0.6,0.6C8.3,3.8,8.3,3.5,8.3,3.2V3.1l0.3,0.2c-0.1-0.3,0-0.7,0-1C8.8,2.4,8.9,2.6,9,2.9c0-0.2,0-0.3,0-0.5
	c0-0.1,0-0.1,0-0.2l0.2-0.5c0.2,0.3,0.2,0.6,0.2,1c0-0.3,0.1-0.6,0.2-0.9C9.7,2,9.8,2.3,9.9,2.6c0-0.3,0.1-0.5,0.2-0.7L10.4,3
	c0-0.3,0-0.6,0-0.9c0-0.2,0.1-0.4,0.2-0.6l0.1-0.1l0.1,0.9c0-0.3,0.1-0.4,0.3-0.5h0.1c0-0.3,0.1-0.5,0.2-0.7c0-0.1,0.1-0.1,0.2-0.2
	c0,0.2,0,0.4,0,0.6c0.1-0.2,0.2-0.3,0.4-0.4c0-0.2,0-0.3,0-0.5c0-0.1,0-0.1,0-0.2c0,0.1,0,0.1,0.1,0.2c0,0.2,0,0.3,0,0.5h0.1l0,0
	l0,0l0,0c0,0.1,0,0.2,0,0.3s0,0.1-0.1,0.2l0,0v0.5c-0.1,0,0.1-0.1,0.2-0.2v0.3c0,0.2,0,0.4-0.1,0.5h0.1c0.1,0,0.1-0.1,0.2-0.2
	l0.2-0.3v0.2c0,0.1,0,0.2,0,0.3v0.2c0,0,0,0,0.1-0.1c0.1-0.2,0.3-0.3,0.4-0.4l0.2-0.1l-0.1,0.3c0,0.1-0.1,0.2-0.1,0.3s0,0.2-0.1,0.3
	v0.1l0,0l0.2-0.2C13.4,3,13.4,3,13.5,3l0,0v0.1c0,0.1,0,0.2,0,0.2v0.1c0,0.1,0,0.1,0,0.2v0.2h0.3l-0.3,0.5c0.1,0.1,0.2,0.2,0.3,0.3
	l0.1,0.2l0,0C13.9,4.9,14,5,14,5.1c0,0-0.1,0-0.2,0c-0.1,0-0.3,0-0.4,0.1c0.1,0.1,0.2,0.2,0.3,0.2h0.1v0.1c0.2,0,0.3,0,0.3,0.1
	c0,0,0.1,0.1,0.1,0.2l0,0l0,0c0,0.1-0.1,0.2-0.2,0.5c0,0.1-0.1,0.2-0.2,0.3c0.3,0,0.6,0,0.8,0.2c0.1,0.1,0.1,0.1,0.2,0.3l0,0l0,0
	l0,0l0,0l0,0c0,0.1-0.1,0.2-0.2,0.3L14,7.6c0.1,0.1,0.2,0.1,0.3,0.2c0,0.1,0.1,0.1,0.1,0.2c0,0.3-0.2,0.5-0.5,0.6l0,0
	c0.4,0.3,0.6,0.6,0.6,1c0,0.1,0,0.1,0,0.1h-0.6c0,0,0.1,0.1,0.1,0.2c0,0.1,0.1,0.2,0.1,0.3s-0.1,0.2-0.2,0.3
	c-0.1,0.1-0.3,0.1-0.4,0.1h-0.3c0.3,0.2,0.5,0.4,0.5,0.7v0.1l0,0l0,0l0,0l0,0l-0.1,0.1h-0.4l0.1,0.2c0.1,0.1,0.1,0.2,0.1,0.3
	s0,0.1,0,0.1c-0.1,0-0.2,0-0.2,0h-0.3c0,0,0.1,0.1,0.1,0.3c0,0.1,0.1,0.2,0.1,0.3v0.1c-0.3,0-0.6,0-0.9,0c0,0.1,0.1,0.2,0.1,0.4
	c0,0,0,0.1-0.1,0.1s-0.2-0.1-0.5-0.2c-0.2-0.1-0.4-0.2-0.4-0.2l0.1,0.3c0,0.1,0,0.1,0,0.2v0.2c0,0,0,0-0.1,0c-0.2,0-0.4,0-0.6-0.1
	l-0.3-0.2c0,0.3,0,0.6,0,0.8c-0.3-0.4-0.5-0.7-0.6-0.9c0,0.2,0,0.3,0,0.5s0,0.3-0.1,0.3c-0.2,0-0.4-0.2-0.5-0.5
	C9.1,13.1,9,12.9,9,12.8v0.8l0,0l0,0c-0.1-0.1-0.2-0.3-0.2-0.6c0-0.2,0-0.4-0.1-0.6v-0.6c0-0.1,0-0.2,0-0.3v-0.2l0,0l-0.2,0.4
	c0,0,0-0.1-0.1-0.3c0-0.2-0.1-0.3-0.1-0.4c0-0.1,0-0.3,0.1-0.4c0.1-0.2,0.1-0.4,0.2-0.6c-0.3-0.3-0.4-0.1-0.5,0l-0.4,0.3v-0.1
	c-0.2,0.3-0.6,0.4-1,0.4H6.5l0,0c-0.1,0.2-0.2,0.3-0.4,0.3l0,0l0,0l0.2,0.2c0.1,0.1,0.1,0.1,0.2,0.1h0.1l-0.2,0.3
	c0,0.1-0.1,0.1-0.1,0.1c-0.1,0-0.1,0-0.2,0c0.1,0.1,0.2,0.2,0.3,0.3l0,0h0.1c0.2-0.1,0.4-0.1,0.4-0.1H7c0,0,0,0,0,0.1c0,0,0,0-0.1,0
	c-0.1,0.1-0.2,0.2-0.3,0.4c-0.1,0.1-0.2,0.2-0.2,0.3l0,0l0,0l0,0l0,0l0,0l0,0v0.1c-0.1,0.1-0.1,0.2-0.1,0.3s0,0.1,0,0.2L6.2,13l0,0
	l0,0c0-0.1-0.1-0.2-0.1-0.3s0-0.2,0-0.3L6.2,12c-0.1,0.1-0.2,0.2-0.3,0.2H5.8c-0.1,0-0.2,0-0.2-0.1v0.2l-0.3-0.5l0.2-0.1l0,0h0.1V12
	l0.1-0.2l0.2-0.3l0,0l0,0c-0.1,0.1-0.1,0.1-0.2,0.1l0,0H5.5l-0.1-0.1l0,0l-0.1,0.2l-0.1,0.2l0,0l0.1-0.1l0,0c0,0.2,0.1,0.4,0,0.6
	H5.2H5.1l0.2,0.3c0,0.1,0,0.2,0,0.3s0,0.1-0.1,0.2C5.1,12.9,5,12.6,5,12.3V12v-0.2c0-0.2,0.1-0.4,0.1-0.6l-0.2,0.5l-0.1,0.1
	l-0.1-0.3c0-0.2,0-0.3,0-0.4l-0.1,0.6c0,0.4,0.1,0.8,0.2,1.1c0,0.4-0.1,0.7-0.1,1l-0.2-0.9c0-0.2-0.1-0.4-0.1-0.4L4,13.6
	c-0.2-0.1-0.2-0.5-0.1-1c0-0.1,0.1-0.2,0.1-0.3s0.1-0.2,0.1-0.3s0-0.2,0-0.3c0-0.2,0-0.4-0.1-0.5l-0.2,0.4l-0.1-0.4L4,10.4
	c-0.1,0.1-0.1,0.2-0.2,0.2c-0.1,0.1-0.2,0.3-0.3,0.4c-0.1,0.1-0.1,0.2-0.1,0.4c0,0.1,0,0.1,0,0.2l0.2-0.1v0.2c0,0.1,0,0.3,0,0.4
	L3.8,12.8L3.8,12.8z M3.7,9.4L3.7,9.4L3.7,9.4L3.7,9.4C3.4,9.2,3.2,9.3,3.1,9.5C3,9.7,2.9,9.9,2.9,10.1l0,0c0,0,0,0.1,0,0l0,0
	c0,0,0.1,0,0.3,0c0.1,0,0.2-0.1,0.3-0.3C3.6,9.7,3.7,9.5,3.7,9.4L3.7,9.4z M0.9,9C0.8,8.9,0.8,8.9,0.8,8.8L0.5,8.4
	c0.2,0,0.3-0.1,0.5-0.2c0.1,0,0.2-0.1,0.3-0.2c0.2,0,0.4,0,0.5-0.1c-0.3,0.2-0.5,0.5-0.6,1C1.1,8.9,1,8.9,0.9,9z M0.7,14L0.7,14
	L0.7,14c-0.1,0-0.1,0-0.1,0H0.5c0,0-0.1,0-0.1-0.1l0,0l0,0c0,0,0,0,0.1-0.1c0,0,0.1-0.1,0.1-0.2l0,0l0.2-0.3l0,0l0,0
	c-0.1,0.1-0.2,0.1-0.2,0.1s-0.1,0-0.2,0l-0.1-0.1l0,0l-0.1-0.1c0,0,0,0-0.1,0c0,0,0,0,0-0.1l0,0l0,0l0,0l0,0l0,0
	c0.1-0.1,0.1-0.2,0.2-0.3l0,0l0,0l0.1-0.1c0.1-0.1,0.2-0.2,0.4-0.3L0.9,12c-0.1,0-0.1,0.1-0.1,0.1s-0.2,0.1-0.3,0.1
	c0.1-0.1,0.1-0.2,0.1-0.3v-0.1l0,0l0.1-0.3c0-0.1,0.1-0.1,0.2-0.2H1c-0.2-0.1-0.3-0.1-0.3-0.1c-0.1,0-0.2,0.1-0.2,0.1s0,0-0.1,0.1
	c0,0-0.1,0.1-0.1,0.2c0-0.1,0-0.2,0-0.5l0,0v-0.2c0-0.1,0.1-0.2,0.1-0.2v-0.1l0,0l0,0h0.1c0.1,0,0.1,0,0.2,0c0,0-0.1,0-0.1-0.1l0,0
	l0,0l-0.3-0.3h0.1c0.1-0.1,0.2-0.1,0.3-0.3c0.1,0,0.2-0.1,0.3-0.2c0.2,0.1,0.4,0.1,0.6,0.1c-0.3,0-0.5,0.3-0.6,0.6
	c0.3-0.1,0.5-0.1,0.8,0.2L2.1,11c0,0-0.1-0.1-0.2-0.1c-0.3-0.1-0.6-0.1-0.8,0.1c0,0,0,0,0,0.1l0,0l0,0c0.1,0.2,0.3,0.3,0.4,0.3
	s0.3-0.1,0.4-0.1l0,0c-0.2,0.2-0.5,0.3-0.9,0.4c0.2,0.3,0.5,0.5,0.8,0.6c-0.2-0.1-0.3,0-0.3,0.1c-0.1,0.2-0.2,0.3-0.4,0.2l0.3,0.2
	c0,0.1,0.1,0.2,0.1,0.2s0,0.1-0.1,0.3l0,0c-0.1,0.1-0.2,0.2-0.4,0.1c0.1,0.1,0.3,0.2,0.4,0.3h0.1c0.2-0.1,0.3-0.1,0.4-0.1H2
	c0,0,0,0,0.1,0.1c0,0,0,0-0.1,0s-0.2,0.2-0.3,0.4s-0.2,0.3-0.3,0.3l-0.1,0.1c-0.1,0.1-0.1,0.2-0.1,0.3s0,0.1,0,0.2
	c0,0,0-0.1-0.1-0.2v-0.1C1,14.6,1,14.5,1,14.4s0-0.2,0.1-0.5v-0.1l0,0C0.9,14,0.8,14,0.7,14L0.7,14L0.7,14z M1.3,14.8L1.3,14.8
	c0,0.1,0,0.1,0,0.2v0.3c0,0.1,0,0.2,0.1,0.3l0,0c0-0.1-0.1-0.2-0.1-0.3V15V14.8L1.3,14.8z M0.5,15.2C0.4,15.2,0.4,15.2,0.5,15.2
	L0.5,15.2c0.1-0.1,0.1-0.1,0.1-0.1C0.5,15.2,0.5,15.2,0.5,15.2L0.5,15.2z M0.8,14.7C0.8,14.7,0.7,14.7,0.8,14.7c-0.2,0-0.2,0-0.2,0
	H0.8L0.8,14.7L0.8,14.7C0.8,14.6,0.8,14.7,0.8,14.7z M2.1,14.6L2.1,14.6C2,14.4,2,14.2,2,14.1V14l0,0c0-0.1,0-0.2,0.1-0.3
	c0.1-0.2,0.1-0.3,0.2-0.4c0,0,0.1,0.1,0.1,0.4c0,0.1,0,0.2,0,0.4s-0.1,0.3-0.1,0.4C2.2,14.5,2.1,14.5,2.1,14.6z M7.4,15.3L7.4,15.3
	l0.1-0.4L7.4,15.3C7.4,15.2,7.4,15.2,7.4,15.3z M6.4,14.7v-0.1l0,0V14.7z M6.8,15.5L6.8,15.5C6.8,15.4,6.8,15.4,6.8,15.5
	C6.8,15.4,6.8,15.4,6.8,15.5L6.8,15.5z M5.7,15.8L5.7,15.8c0-0.1,0-0.3,0-0.5v-0.7l0,0v0.7C5.7,15.4,5.7,15.6,5.7,15.8z M5.2,15.9
	L5.2,15.9c-0.1-0.1-0.1-0.2-0.1-0.3C5.1,15.7,5.2,15.8,5.2,15.9z M4.7,15.5L4.7,15.5l-0.1-0.3c-0.1-0.2-0.2-0.4-0.2-0.4l0,0
	c0,0,0.1,0.1,0.2,0.4L4.7,15.5z M14,14c0.1-0.1,0.2-0.4,0.3-0.7l0.1-0.3l0,0l0,0c0,0.1,0,0.2,0,0.3l0,0l0,0c0-0.1,0-0.2,0-0.2v0.1
	c0,0.1,0,0.1,0,0.1v0.1C14.3,13.4,14.2,13.7,14,14L14,14L14,14z M14.6,13.6c0,0.1,0.1,0.1,0.1,0.1s0.1,0,0.1-0.1l0,0v0.1l0,0
	l-0.1,0.1C14.7,13.8,14.6,13.7,14.6,13.6z M15,12.7L15,12.7l-0.1-0.1C14.9,12.6,15,12.7,15,12.7z M15.5,13.2L15.5,13.2L15.5,13.2
	L15.5,13.2v-0.1C15.5,13.1,15.5,13.2,15.5,13.2L15.5,13.2L15.5,13.2z M15.5,13.2L15.5,13.2L15.5,13.2L15.5,13.2L15.5,13.2z M15.4,12
	L15.4,12L15.4,12L15.4,12L15.4,12z M15,8.2L15,8.2l0.1,0.2c0.1,0.1,0.1,0.1,0.2,0.2l0,0c-0.1,0-0.1-0.1-0.2-0.2
	C15.1,8.3,15.1,8.3,15,8.2L15,8.2z M15.4,7.2L15.4,7.2L15.4,7.2C15.4,7.1,15.4,7.1,15.4,7.2C15.4,7.1,15.4,7.1,15.4,7.2L15.4,7.2
	C15.4,7.1,15.4,7.2,15.4,7.2z M15.3,6.6L15.3,6.6c0,0.2-0.1,0.2-0.1,0.2s0,0.1,0.1,0.1l-0.1-0.1C15.2,6.8,15.3,6.8,15.3,6.6
	C15.3,6.7,15.3,6.7,15.3,6.6L15.3,6.6z M14.6,5.9L14.6,5.9c0.1,0,0.1,0,0.2,0c0,0,0,0,0.1,0.1l0,0l0,0L14.6,5.9L14.6,5.9L14.6,5.9
	L14.6,5.9z M11.2,9.1c0-0.1,0-0.1,0-0.2C11.1,9,11,9.1,11,9.3v1c0,0.2,0.1,0.4,0.1,0.5c0.2-0.2,0.2-0.4,0.3-0.5c0-0.1,0-0.2,0-0.4
	s0-0.3,0-0.4C11.4,9.4,11.3,9.3,11.2,9.1z M10.3,7.7L10.3,7.7L10.3,7.7L10.3,7.7C10.3,7.6,10.3,7.6,10.3,7.7V7.5V7.7
	C10.1,7.8,10,8,9.8,8.4L9.7,8.7C9.6,9.1,9.5,9.3,9.5,9.4c0,0.1,0,0.1,0,0.1C9.7,9.6,9.9,9.3,10,8.8C10.2,8.3,10.3,8,10.3,7.7
	C10.3,7.8,10.3,7.7,10.3,7.7z M11.7,4.8c0,0.1,0,0.3,0,0.5s0,0.3,0.1,0.3c0-0.3,0-0.7,0-1.2C11.7,4.6,11.7,4.7,11.7,4.8z M9.5,8.1
	L9.5,8.1L9.5,8.1L9.5,8.1C9.4,8,9.3,8.1,9.1,8.3C9,8.4,8.9,8.5,8.9,8.6l0,0l0,0c0,0,0.1,0,0.3,0c0.1,0,0.2-0.1,0.3-0.3
	C9.4,8.3,9.5,8.2,9.5,8.1z M10,4.6L9.8,4.4C9.6,4.3,9.3,4.2,9.1,4.3H9l0,0l0,0l0,0l0,0l0,0l0.3,0.4H8.5l0,0c0,0,0,0,0,0.1
	s0,0.1,0.1,0.2L9,5.2v0.1C8.8,5.4,8.7,5.5,8.6,5.7C8.5,5.9,8.5,6.1,8.5,6.2s0,0.1,0,0.1s0.1-0.1,0.2-0.2C8.8,6,8.9,5.9,8.9,5.9l0,0
	l0,0C8.7,6.1,8.7,6.5,8.7,7c0,0.1,0,0.1,0,0.2L9,6.7c0.1-0.2,0.2-0.4,0.3-0.4v0.4c0,0.1,0,0.2,0,0.4c0.3-0.4,0.4-0.7,0.4-0.9V6.1
	l0,0H9.6L9.7,6L9.4,5.8c0,0,0,0,0-0.1s0-0.1,0.1-0.1l0,0c0.1,0,0.1,0,0.2,0.1h0.1V5.6c0-0.1,0-0.1-0.1-0.2h0.6l0,0c0,0,0,0,0-0.1
	S10.2,5,10,4.9l0,0C10.1,4.8,10,4.8,10,4.6C10,4.7,10,4.7,10,4.6L10,4.6L10,4.6z M10.3,3.7C10.3,3.6,10.3,3.6,10.3,3.7
	C10.3,3.6,10.3,3.7,10.3,3.7c-0.1,0.1,0,0.2,0,0.5c0.1,0.2,0.1,0.3,0.2,0.4l0,0c0.1,0.1,0.2,0.1,0.3,0.1c0,0,0,0,0-0.1V4.2
	c0-0.1-0.1-0.2-0.1-0.3S10.6,3.8,10.3,3.7C10.4,3.7,10.4,3.7,10.3,3.7z M11.3,1.1C11.3,1.2,11.3,1.2,11.3,1.1L11.3,1.1L11.3,1.1
	L11.3,1.1z M11.3,0.5c0,0.1,0,0.2,0,0.3v0.1V0.8C11.3,0.7,11.3,0.6,11.3,0.5z M9.7,9c0,0.1,0,0.2,0,0.2v0.1H9.6L9.7,9z M10.8,8.7
	L10.8,8.7L10.8,8.7L10.8,8.7L10.8,8.7c-0.2,0.2-0.4,0.5-0.5,0.8s-0.2,0.6-0.3,0.9l0,0v0.1l0,0l0,0l0,0c0.3,0,0.6-0.2,0.7-0.7
	c0.1-0.3,0.1-0.6,0.1-1C10.8,8.8,10.8,8.8,10.8,8.7z M6.7,6.5L6.7,6.5c-0.1,0-0.2,0.1-0.2,0.2v0.1C6.5,6.9,6.4,7,6.4,7l0,0v0.1
	c0,0,0.1,0,0.3,0H7C6.9,7.3,6.8,7.4,6.7,7.5C6.6,7.8,6.6,7.9,6.6,7.9V8l0,0h0.3l0.4-0.2c0.3-0.1,0.4-0.3,0.4-0.4V7.3
	c0,0-0.1-0.1-0.2-0.1l0,0l0,0c0,0,0.2-0.1,0.4-0.2V6.9c0-0.1-0.1-0.1-0.2-0.2c0-0.4-0.3-0.5-0.7-0.3C6.9,6.4,6.9,6.5,6.7,6.5
	L6.7,6.5C6.8,6.5,6.7,6.5,6.7,6.5z M4.2,8.3L4.2,8.3L4.2,8.3L4.2,8.3L4.2,8.3C4,8,3.9,8,3.6,8.1c-0.1,0-0.3,0.1-0.3,0.2l0,0
	c0,0.1,0,0.1,0,0.2l0.1,0.1c0.1,0.1,0.2,0.1,0.4,0.1c0.1,0,0.3,0,0.3-0.1S4.2,8.4,4.2,8.3L4.2,8.3z M4.7,5.6v0.5L4.1,6H3.9l0,0v0.1
	c0,0.1,0,0.1,0,0.1l0.3,0.3c-0.1-0.1-0.3,0-0.5,0.2C3.5,6.9,3.3,7.1,3.3,7.1c0,0.1,0,0.1,0,0.1c0.2,0,0.4,0.1,0.5,0.1h0.8
	c0,0,0-0.1,0-0.2c0,0,0-0.1,0-0.2L5.1,7h0.1c0-0.1,0-0.2,0-0.3l0.1,0.1h0.1h0.1V6.4c0-0.1-0.2-0.3-0.3-0.5C5,5.7,4.8,5.6,4.7,5.6z
	 M7,3.4L7,3.4c0,0,0,0.1,0,0.2l0,0V3.4z M6.5,7.1L6.5,7.1L6.5,7.1L6.5,7.1z M7.6,6.5L7.4,6.4l0,0C7.5,6.4,7.5,6.5,7.6,6.5z M3.4,7.1
	L3.4,7.1L3.4,7.1L3.4,7.1z M0.1,13.6L0.1,13.6c0.1-0.1,0.2-0.1,0.3-0.1l0,0c0,0,0.1,0,0.2,0.1l0,0l0,0c-0.1,0-0.1-0.1-0.2-0.1l0,0
	C0.3,13.5,0.3,13.6,0.1,13.6L0.1,13.6z M0.1,13.7L0.1,13.7L0.1,13.7L0.1,13.7z M7.1,12.2l0.1-0.3c0-0.1,0.1-0.2,0.1-0.3
	s0.1-0.1,0.1-0.1s0,0.1,0.1,0.2v0.1c0,0.1,0,0.3,0,0.4c0,0.2-0.1,0.3-0.1,0.4c-0.1,0.1-0.1,0.2-0.2,0.2l-0.1,0.1
	C7.1,12.6,7.1,12.4,7.1,12.2L7.1,12.2z"/>
<path class="st1" d="M12.5,2.5c-0.1,0.1-0.1,0.2-0.2,0.2h-0.1c0.1-0.1,0.1-0.3,0.1-0.5V1.9C12.2,2,12,2.1,11.9,2.3V1.8l0,0L12.4,1
	c0,0.1,0,0.2,0,0.3c0,0.2,0,0.3-0.1,0.4h0.1C12.7,1.7,12.7,1.9,12.5,2.5L12.5,2.5z M3.7,9.4L3.7,9.4c0,0.2,0,0.3-0.1,0.4
	c-0.1,0.2-0.2,0.3-0.3,0.3c-0.2,0-0.3,0-0.3,0l0,0l0,0l0,0C3,10,3.1,9.8,3.2,9.6C3.2,9.3,3.4,9.2,3.7,9.4L3.7,9.4L3.7,9.4L3.7,9.4z
	 M3.8,12.8L3.7,12c0-0.1,0-0.3,0-0.4v-0.2l-0.2,0.1c0,0,0-0.1,0-0.2c0-0.1,0.1-0.3,0.1-0.4c0.1-0.2,0.2-0.3,0.3-0.4
	c0,0,0.1-0.1,0.1-0.1l-0.2,0.9l0.1,0.4l0.2-0.4c0,0.1,0,0.3,0.1,0.5c0,0.1,0,0.2,0,0.3s0,0.2-0.1,0.3C4,12.4,4,12.5,4,12.6L3.8,12.8
	z M11.3,1.1c0-0.1,0.1-0.2,0.1-0.3s0.1-0.2,0.2-0.3l0.1-0.1c0,0,0.1,0,0.1-0.1v0.1v0.1l0,0c0,0.1,0,0.1,0,0.2c0,0.2,0,0.3,0,0.5
	c-0.1,0.1-0.3,0.2-0.4,0.4c0-0.2,0-0.4,0-0.6c-0.1,0.1-0.1,0.1-0.2,0.2C11.1,1.4,11,1.6,11,1.9h-0.1c-0.1,0.1-0.2,0.2-0.3,0.5
	l-0.1-0.9l-0.1,0.1c-0.1,0.2-0.1,0.4-0.2,0.6c0,0.3,0,0.6,0,0.9L10,1.9C9.9,2.1,9.9,2.3,9.9,2.6c0-0.3-0.1-0.6-0.3-0.9
	C9.5,2,9.4,2.3,9.4,2.7c0-0.3,0-0.6-0.1-0.9L9.1,2.2c0,0,0,0.1,0,0.2c0,0.2,0,0.3,0,0.5C8.9,2.6,8.8,2.4,8.6,2.3
	c-0.1,0.3-0.1,0.7,0,1L8.3,3.1v0.1c0,0.3,0,0.6,0.2,0.9C8.3,3.8,8.1,3.6,7.9,3.5v0.4c0-0.1-0.1-0.1-0.1-0.2C7.6,3.6,7.5,3.5,7.3,3.5
	l0,0c0,0.3,0,0.5,0.1,0.7c0,0,0,0.1,0,0.2s0.1,0.2,0.2,0.3L7,4.3c0,0.3,0.1,0.5,0.2,0.8c0.1,0.2,0.2,0.3,0.3,0.4H7.2l0,0H6.7
	l0.2-0.2c-0.2,0.1-0.4,0-0.6-0.2L6.2,4.9c0-0.1-0.1-0.2-0.1-0.3l0.4-0.3L6.1,3.8c0.1-0.1,0.2-0.2,0.4-0.2c0.1,0,0.1,0,0.2,0
	c0.1,0.1,0.2,0.1,0.4,0.2c0,0,0,0,0-0.1V3.4c0,0,0-0.1-0.1-0.1L6.9,3.2V3.1c0-0.1,0-0.1,0-0.1v0.1c-0.1,0-0.3,0.2-0.4,0.4
	c0-0.2,0-0.4,0-0.6C6.4,2.9,6.4,3,6.3,3.1C6.2,3.3,6.1,3.5,6.1,3.7l0,0H6C5.8,3.8,5.7,3.9,5.7,4.2L5.6,3.3c0,0,0,0.1-0.1,0.1
	C5.4,3.5,5.3,3.7,5.3,3.9c0,0.3,0,0.6,0,0.9L4.9,3.7C4.8,3.9,4.8,4.1,4.8,4.4C4.7,4.1,4.6,3.8,4.5,3.5c-0.1,0.3-0.2,0.6-0.2,1
	c0-0.3,0-0.6-0.1-0.9L4,4c0,0,0,0.1,0,0.2c0,0.2,0,0.3,0,0.5C3.8,4.4,3.7,4.2,3.5,4.1c-0.1,0.3-0.1,0.6,0,1L3.2,4.9V5
	c0,0.3,0,0.6,0.2,0.9C3.2,5.6,3,5.4,2.8,5.3v0.4L2.6,5.5C2.5,5.4,2.3,5.3,2.2,5.3c0,0.2,0,0.5,0.1,0.7c0,0.2,0.1,0.3,0.2,0.5
	C2.3,6.3,2.1,6.2,1.9,6.1C1.9,6.4,2,6.6,2,6.9c0.1,0.2,0.2,0.3,0.3,0.4H2c0,0.1,0.1,0.2,0.2,0.4v0.1c0,0.1,0.1,0.1,0.1,0.1L2.2,7.8
	C2,7.7,1.9,7.6,1.8,7.6c0,0.1,0,0.1,0.1,0.2L2,8.2c0,0.1,0,0.1,0,0.2L1.9,8.5C1.8,8.6,1.8,8.8,1.8,9.1C1.5,9.3,1.2,9.4,1.2,9.3V8.8
	c0.1-0.4,0.3-0.8,0.6-1C1.6,8,1.5,8,1.3,8C1.2,8,1.1,8,0.9,8l0.9-0.9c-0.2,0.1-0.4,0-0.6-0.2L1.1,6.8C1.1,6.7,1,6.6,1,6.4l0.4-0.3
	L1,5.6c0.3-0.3,0.6-0.3,1-0.2C1.8,5.2,1.8,5,1.7,4.7c0.4-0.2,0.8-0.2,1.2,0H3H2.9C2.7,4.4,2.5,4,2.5,3.4c0.4,0,0.8,0.1,1.2,0.4
	C3.6,3.6,3.6,3.3,3.6,3.1s0-0.3,0-0.5V2.4l0.8,0.8V3.1c0-0.1,0-0.3-0.1-0.5c0-0.3,0-0.5,0-0.8C4.6,2,4.8,2.3,5,2.6
	c0,0.1,0.1,0.2,0.2,0.5v0.1l0.1-0.7c0,0,0,0,0,0.1l0.1,0.1C5.5,2.8,5.6,3,5.6,3.2v0.1V3.2l0,0c0-0.2,0.1-0.3,0.1-0.5
	C5.9,2.3,6,2.1,6.1,1.8C6.2,2,6.2,2.3,6.2,2.6c0,0.1,0,0.2,0,0.4c0-0.1,0.1-0.3,0.1-0.4c0.1-0.2,0.2-0.3,0.3-0.4c0,0,0,0,0,0.1
	c0.1,0.1,0.1,0.2,0.1,0.4c0,0.1,0,0.2,0,0.3c0.4-0.2,0.8-0.2,1.1,0h0.1L8,2.9C7.8,2.6,7.6,2.2,7.6,1.6C8,1.6,8.4,1.8,8.9,2
	C8.8,1.8,8.7,1.5,8.7,1.3c0-0.1,0-0.3,0-0.5V0.6l0.8,0.8V1.3c0-0.2,0-0.3-0.1-0.5c0-0.2,0-0.5,0-0.8C9.7,0.2,9.9,0.5,10,0.8
	c0.1,0.2,0.2,0.3,0.2,0.5v0.1l0.1-0.7v0.1l0.1,0.1c0.1,0.1,0.2,0.3,0.2,0.5v0.1V1.4c0-0.1,0-0.2,0.1-0.5C11,0.5,11.1,0.3,11.2,0
	c0,0.1,0,0.1,0,0.2l0.1,0.3c0,0.1,0,0.2,0,0.3v0.1l0,0V1V1.1L11.3,1.1L11.3,1.1C11.3,1.2,11.3,1.2,11.3,1.1L11.3,1.1z M10.3,3.7
	C10.4,3.7,10.4,3.7,10.3,3.7c0.2,0.1,0.4,0.2,0.4,0.3s0.1,0.2,0.1,0.3v0.4v0.1c-0.1,0-0.2,0-0.3-0.1l0,0c-0.1-0.1-0.2-0.2-0.2-0.4
	C10.3,3.9,10.3,3.7,10.3,3.7S10.3,3.6,10.3,3.7C10.3,3.6,10.3,3.6,10.3,3.7z M10,4.6L10,4.6C10,4.7,10,4.7,10,4.6
	c0.1,0.1,0.1,0.2,0.2,0.2l0,0c0.2,0.2,0.3,0.3,0.3,0.4v0.1l0,0H9.9C10,5.3,10,5.4,10,5.5v0.1H9.9c-0.1,0-0.2-0.1-0.2-0.1l0,0
	c-0.1,0-0.1,0-0.1,0.1s0,0.1,0,0.1L9.7,6L9.6,6.2h0.1l0,0v0.1c0,0.1-0.1,0.4-0.4,0.9c0-0.1,0-0.2,0-0.4V6.4C9.2,6.3,9.1,6.5,8.9,6.7
	L8.7,7.2c0,0,0-0.1,0-0.2c0-0.5,0.1-0.9,0.3-1.1l0,0l0,0c0,0-0.1,0.1-0.2,0.2C8.6,6.2,8.5,6.2,8.5,6.2s0,0,0-0.1s0-0.3,0.1-0.5
	C8.7,5.5,8.8,5.4,9,5.3V5.2L8.6,5L8.5,4.9V4.8l0,0h0.8L9,4.5l0,0l0,0l0,0l0,0l0,0h0.1c0.3-0.1,0.5-0.1,0.7,0.1
	C9.8,4.4,10,4.6,10,4.6z M9.5,8.1c0,0.1,0,0.2-0.1,0.3C9.3,8.6,9.3,8.7,9.1,8.7s-0.3,0-0.3,0l0,0l0,0c0-0.1,0.1-0.2,0.3-0.4
	S9.4,8,9.5,8.1L9.5,8.1L9.5,8.1L9.5,8.1z M11.7,4.8c0-0.2,0-0.3,0.1-0.3c0,0.5,0,0.9,0,1.2c-0.1-0.1-0.1-0.2-0.1-0.3
	C11.6,5.2,11.6,5,11.7,4.8z M10.3,7.7L10.3,7.7c0,0.2-0.1,0.6-0.2,1C9.9,9.3,9.7,9.6,9.5,9.5c0,0,0,0,0-0.1s0.1-0.3,0.2-0.7l0.1-0.3
	C10,8,10.1,7.8,10.3,7.7V7.5V7.7C10.2,7.7,10.3,7.7,10.3,7.7L10.3,7.7L10.3,7.7L10.3,7.7L10.3,7.7z M11.2,9.1
	c0.1,0.2,0.2,0.3,0.3,0.4c0,0,0,0.2,0,0.4s0,0.4,0,0.4c0,0.1-0.1,0.3-0.3,0.5c-0.1-0.1-0.1-0.2-0.1-0.5v-1c0-0.2,0.1-0.3,0.2-0.4
	C11.2,9,11.2,9.1,11.2,9.1z M11.2,9.4C11.2,9.4,11.2,9.3,11.2,9.4L11.2,9.4L11.2,9.4C11.3,9.4,11.2,9.4,11.2,9.4z M10.8,8.7
	c0,0.1,0,0.1,0,0.2c0,0.4,0,0.7-0.1,1c-0.1,0.5-0.3,0.7-0.7,0.7l0,0l0,0l0,0v-0.1l0,0c0.1-0.3,0.2-0.6,0.3-0.9
	C10.4,9.2,10.6,9,10.8,8.7L10.8,8.7L10.8,8.7L10.8,8.7L10.8,8.7z M9.7,9L9.6,9.4h0.1V9.3C9.6,9.2,9.6,9.1,9.7,9z M7,3.4L7,3.4L7,3.4
	C7,3.4,7,3.4,7,3.4L7,3.4z M4.7,5.6C4.8,5.6,5,5.8,5.1,6c0.2,0.2,0.3,0.4,0.3,0.5v0.3c0,0,0,0-0.1,0c0,0,0,0-0.1,0l0-0.1
	c0,0.1,0,0.2,0,0.3H5.1L4.7,6.9c0,0.1,0,0.2,0,0.2c0,0.1,0,0.1,0,0.2H3.9c-0.1,0-0.3-0.1-0.5-0.1c0,0,0,0,0-0.1s0.1-0.2,0.4-0.4
	C4,6.5,4.2,6.4,4.3,6.4L3.9,6.1c0,0,0,0,0-0.1l0,0l0,0h0.2l0.6,0.1V5.6z M4.2,8.3L4.2,8.3c0,0.1,0,0.2-0.1,0.3c-0.1,0-0.2,0-0.4,0
	s-0.3,0-0.4-0.1H3.2c0-0.1,0-0.1,0-0.2l0,0c0.1-0.1,0.2-0.2,0.4-0.2C3.9,8,4,8,4.2,8.3L4.2,8.3L4.2,8.3L4.2,8.3
	C4.1,8.3,4.2,8.3,4.2,8.3z M6.7,6.5L6.7,6.5L6.7,6.5c0.2,0,0.2-0.1,0.3-0.1c0.4-0.2,0.6,0,0.7,0.4C7.8,6.9,7.9,6.9,7.9,7v0.1
	C7.7,7.2,7.5,7.2,7.5,7.2l0,0l0,0c0.1,0,0.2,0.1,0.2,0.1s0,0,0,0.1c0,0.2-0.1,0.3-0.4,0.4L6.9,8.1L6.6,8l0,0V7.9
	c0,0,0.1-0.2,0.2-0.4c0-0.1,0.1-0.2,0.2-0.3H6.7c-0.2,0-0.3,0-0.3,0V7.1l0,0c0-0.1,0-0.2,0.1-0.3V6.7C6.6,6.6,6.6,6.5,6.7,6.5
	C6.8,6.5,6.7,6.5,6.7,6.5z M6.5,7.1L6.5,7.1L6.5,7.1L6.5,7.1z M7.6,6.5C7.6,6.4,7.5,6.4,7.6,6.5L7.6,6.5C7.4,6.4,7.6,6.5,7.6,6.5z
	 M3.4,7.1L3.4,7.1L3.4,7.1L3.4,7.1z"/>
<path class="st2" d="M14.6,5.9L14.6,5.9L14.6,5.9L14.8,6l0,0c0.2,0.1,0.3,0.2,0.4,0.2c0.1,0.1,0.1,0.2,0.1,0.3l0,0v0.1
	c0,0.1-0.1,0.1-0.1,0.1l0.1,0.1l0.1,0.1c0,0,0,0,0,0.1l0,0l0,0l0,0v0.1l0,0C15.3,7.1,15.2,7,15,7l0.1,0.2c0.1,0.2,0.1,0.3,0.1,0.4
	l0.1,0.7l0,0l0,0c0,0-0.1-0.1-0.2-0.2l-0.1,0v0.5h0.3l0,0l0,0L16,9.5v0.1c-0.2,0-0.3,0-0.3,0h-0.1h0.1l0,0C15.9,9.7,16,9.9,16,10
	v0.1c0,0.1,0,0.2,0,0.3v0.1l0,0l-0.6-0.4l0,0l0,0l0.2,0.5c0.1,0.2,0.2,0.4,0.2,0.5v0.1c-0.1,0-0.2-0.1-0.3-0.2
	c0.2,0.2,0.3,0.4,0.4,0.6C16,11.8,16,12,16,12.1l0,0v0.1c0,0,0,0,0,0.1c-0.1-0.1-0.3-0.2-0.6-0.3l0,0l0,0l0.1,0.4v0.1
	c0,0.1,0,0.2,0.1,0.3V13v0c0,0.1,0,0.1,0,0.1l0,0l0,0l0,0l0,0l0,0V13L15,12.7l-0.1-0.1l0,0V13c0,0.2,0,0.3,0,0.4v0.1l0,0l0,0
	c0,0.1,0,0.1-0.1,0.1s-0.1,0-0.1-0.1l0,0c0-0.1-0.1-0.1-0.1-0.2l0,0l0,0c0-0.1,0-0.1,0-0.2l0,0l0,0c0-0.1,0-0.2,0-0.3l0,0l0,0
	l-0.1,0.3c-0.1,0.3-0.2,0.6-0.3,0.7c0,0,0,0.1-0.1,0.1v-1.2c0,0.1-0.1,0.4-0.2,0.7l-0.2,0.7c0-0.1-0.1-0.1-0.1-0.2v-0.2
	c0,0.2-0.1,0.4-0.2,0.7c-0.1,0.3-0.3,0.5-0.4,0.7l0,0c0-0.2,0-0.4-0.1-0.8l0,0c0,0,0,0.1-0.1,0.3c0,0.1-0.1,0.2-0.1,0.3
	c0,0,0,0,0,0.1l-0.1-0.4c0-0.2-0.1-0.3-0.1-0.4c0,0,0,0,0,0.1s0,0.1,0,0.2l0,0v0.1c0,0.2-0.1,0.3-0.1,0.4c-0.1-0.1-0.2-0.2-0.2-0.3
	l-0.1-0.3l0,0v0.4c0,0.2,0,0.3-0.1,0.4c-0.1-0.2-0.2-0.4-0.2-0.5l0,0c-0.1,0.2-0.3,0.4-0.4,0.5c0-0.1,0-0.1,0-0.2v-0.2l0,0v0.5
	c0,0.2,0,0.3-0.1,0.3s-0.2-0.1-0.3-0.2c-0.1-0.1-0.2-0.2-0.2-0.3l-0.2,0.3c0,0,0,0-0.1,0v-0.1l-0.2,0.4c-0.1,0.2-0.2,0.3-0.2,0.4
	c-0.1-0.2-0.2-0.5-0.2-1l0,0c0,0-0.1,0.1-0.3,0.3l-0.3,0.4v-0.5c0,0-0.1,0-0.2,0.1l-0.2,0.1c0,0,0,0,0-0.1c0-0.2,0.1-0.5,0.2-0.9
	l0.1-0.2l-0.3-0.1c0,0.2,0,0.4,0,0.4c0,0.1,0,0.2,0,0.4c-0.8,0-0.9,0-1-0.1c-0.1,0-0.1-0.1-0.1-0.1l0,0l-0.1-0.3v0.3v0.1l-0.1,0.4
	v0.1v0.1l0,0v-0.2c0-0.1,0-0.2,0-0.3c-0.1,0.1-0.1,0.2-0.1,0.3s0,0.1,0,0.1c0,0.1,0,0.2,0,0.2l0,0l0,0l0,0c0,0-0.1,0-0.2-0.1H7.2
	l0,0l0,0c-0.1,0-0.2-0.1-0.2-0.2c-0.1-0.1-0.1-0.3-0.1-0.5l0,0v-0.2l0,0v0.1l0,0c0,0.2,0,0.4-0.1,0.5v0.1l0,0l-0.6,0.4
	c0-0.2,0-0.3,0.1-0.5v-0.7l0,0v0.1c0,0,0,0,0,0.1v0.1c0,0.1,0,0.2-0.1,0.3v0.1c0,0,0,0,0,0.1c-0.1,0.1-0.1,0.3-0.2,0.4l-0.1,0.1
	c0,0.1-0.1,0.1-0.1,0.2c-0.1-0.1-0.1-0.2-0.1-0.3L5,15.2c0-0.2,0-0.3,0-0.5c0-0.1,0-0.1,0-0.2l0,0c0-0.1,0-0.1,0,0.1
	c0,0,0,0.1,0,0.2l-0.2,0.8l0,0l-0.1-0.3c-0.1-0.3-0.2-0.4-0.2-0.4l0,0c0,0,0,0.2,0,0.4v0.1c0,0.2,0,0.4,0,0.5v0.2
	c-0.1,0-0.2-0.1-0.3-0.2C4,15.5,4,15.4,3.9,15.2v-0.1v0.1c0,0.1,0,0.3,0,0.5l0,0l0,0l0,0c-0.1-0.1-0.1-0.3-0.2-0.5
	c-0.1-0.2-0.1-0.3-0.1-0.3V15c0,0.1,0,0.1,0,0.2l0,0c0,0.2,0,0.3,0.1,0.5c-0.1-0.2-0.2-0.3-0.3-0.3c-0.1-0.1-0.1-0.2-0.1-0.2l0,0
	l0,0c0-0.1,0-0.2,0-0.4C3,15,3,15.1,3,15.2l0,0v0.1c-0.1,0.2-0.2,0.2-0.5,0.2v-0.3l0.1-0.5c0-0.1,0-0.1,0-0.1s0,0-0.1,0.1l-0.1,0.1
	C2.3,15,2.2,15.1,2,15.2c0-0.1,0-0.2,0-0.4v-0.1c0.1-0.1,0.1-0.2,0.2-0.2c0.1-0.1,0.1-0.2,0.1-0.4s0-0.3,0-0.4
	c0-0.3-0.1-0.4-0.1-0.4C2.1,13.4,2,13.6,2,13.7s0,0.2,0,0.3l0,0v0.1v0.2l-0.1,0.4v0.1c0,0.1-0.1,0.3-0.2,0.4
	c-0.1,0.1-0.2,0.3-0.2,0.3l0,0c0-0.1-0.1-0.2-0.1-0.3v-0.3c0-0.1,0-0.1,0-0.2l0,0v-0.1v0.1l0,0L1.2,15c0,0.1-0.1,0.1-0.1,0.1v0.1
	c-0.1,0.1-0.2,0.2-0.3,0.2H0.7l-0.1-0.1l0,0h0.1l0,0c0,0,0-0.1,0.1-0.1v-0.1L1,14.8v-0.1l0,0H0.9H0.8c-0.1,0-0.1,0-0.2-0.1l-0.1-0.1
	L0,14.1h0.1h0.2c0.1,0,0.2-0.1,0.2-0.1h0.2l0,0h0.1c0.1,0,0.2,0,0.3-0.1l0,0V14C1,14.1,1,14.3,1,14.4c0,0.1,0,0.2,0.1,0.3v0.1
	c0,0.1,0,0.1,0.1,0.2c0-0.1,0-0.1,0-0.2c0-0.1,0.1-0.2,0.1-0.3l0.1-0.1c0.1,0,0.2-0.1,0.3-0.3c0.1-0.2,0.2-0.4,0.3-0.4
	c0,0,0,0,0.1,0c0-0.1,0-0.1-0.1-0.1H1.9c0,0-0.2,0-0.4,0.1H1.4c-0.1-0.1-0.2-0.2-0.4-0.3c0.2,0.1,0.3,0,0.4-0.1l0,0
	C1.5,13.1,1.6,13,1.5,13s-0.2,0-0.3-0.1L1,12.7c0.2,0.1,0.3,0,0.4-0.2c0.1-0.1,0.2-0.2,0.3-0.1C1.4,12.2,1.2,12,1,11.6
	c0.3-0.1,0.6-0.2,0.9-0.4l0,0c-0.1,0.1-0.3,0.1-0.4,0.1c-0.1,0-0.3-0.1-0.4-0.3l0,0l0,0c0,0,0,0,0-0.1c0.2-0.2,0.5-0.2,0.8-0.1
	C2,10.9,2.1,11,2.1,11l-0.3-0.4c-0.3-0.2-0.6-0.3-0.8-0.2C1.2,10,1.4,9.8,1.6,9.8c-0.2,0-0.4,0-0.6-0.1C0.9,9.6,0.8,9.5,0.7,9.3
	L0.6,9.2C0.7,9.1,0.8,9.1,0.9,9s0.2-0.1,0.3-0.1v0.5c0.1,0,0.3-0.1,0.6-0.3l0.1,0.1c0,0,0,0,0.1,0L2.2,9C2.1,9.2,2,9.3,1.9,9.4
	C1.8,9.5,1.8,9.5,1.6,9.5c-0.1,0-0.1,0-0.2,0c0,0,0,0.1,0.1,0.2v0.1c0,0.1,0.1,0.1,0.2,0.2l0.1,0.1c0.1,0,0.1,0,0.1,0
	C2.1,10,2.2,10,2.2,9.9c0.1-0.1,0.2-0.2,0.2-0.3L2.3,10c0,0.1-0.1,0.2-0.1,0.2s0,0.1,0,0.2c0,0.1,0,0.2,0,0.3l0.7-0.2l-0.1,0.1
	c-0.1,0.1-0.2,0.3-0.3,0.4c-0.1,0.1-0.1,0.3-0.1,0.5l0.4-0.1c0,0.1-0.1,0.1-0.1,0.2c0,0.1-0.1,0.3-0.1,0.4c0,0.1,0,0.1,0,0.2
	c0,0,0.1,0,0.2-0.1C2.9,11.9,3,11.9,3,11.8c0.1-0.2,0.2-0.3,0.3-0.5L3.1,12c0,0.1-0.1,0.3-0.1,0.4c0,0,0,0.2,0.1,0.4
	c0,0.2,0.1,0.3,0.1,0.3l0.3-0.6c0,0.1-0.1,0.2-0.1,0.4s0,0.3,0,0.5s0.1,0.3,0.1,0.5l0.1-0.3c0-0.2,0.1-0.3,0.1-0.5s0-0.4,0-0.5
	L3.8,13L4,12.6c-0.1,0.5-0.1,0.9,0.1,1l0.3-1.1c0,0.1,0,0.2,0.1,0.4l0.2,0.9c0-0.3,0.1-0.6,0.1-1c-0.1-0.3-0.2-0.6-0.2-1.1l0.1-0.6
	c0,0.1,0,0.2,0,0.4l0.1,0.3l0.1-0.1l0.2-0.5c0,0.2,0,0.4-0.1,0.6V12v0.3c0,0.3,0.1,0.6,0.2,0.9c0-0.1,0.1-0.2,0.1-0.2
	c0-0.1,0-0.2,0-0.3l-0.2-0.3h0.1h0.1c0-0.2,0-0.4,0-0.6l0,0l-0.1,0.1l0,0l0.1-0.2l0.1-0.2l0,0c0,0,0.1,0,0.1,0.1h0.2l0,0
	c0.1,0,0.1-0.1,0.2-0.1l0,0l0,0l-0.2,0.3L5.6,12v-0.3H5.5l0,0l-0.2,0.1l0.3,0.5v-0.2c0.1,0,0.1,0.1,0.2,0.1h0.1
	c0.1,0,0.2-0.1,0.3-0.2l-0.1,0.3c0,0.1,0,0.2,0,0.3s0,0.2,0.1,0.3l0,0l0,0l0.1,0.2c0-0.1,0-0.1,0-0.2c0-0.1,0.1-0.2,0.1-0.3v-0.1
	l0,0l0,0l0,0l0,0l0,0l0,0c0.1,0,0.1-0.1,0.2-0.3C6.8,12,6.9,11.9,7,11.8c0,0,0,0,0.1,0c0-0.1,0-0.1,0-0.1H7c0,0-0.2,0-0.4,0.1H6.5
	l0,0c-0.1-0.1-0.2-0.2-0.3-0.3c0.1,0,0.2,0,0.2,0c0.1,0,0.1-0.1,0.1-0.1l0.2-0.3H6.6c-0.1,0-0.1-0.1-0.2-0.1l-0.2-0.2l0,0l0,0
	c0.2,0.1,0.3,0,0.4-0.3l0,0h0.2c0.5,0,0.8-0.1,1-0.4v0.1L8.1,10c0.1-0.2,0.2-0.3,0.3-0.5c-0.1,0.2-0.1,0.4-0.2,0.6
	c0,0.1-0.1,0.3-0.1,0.4c0,0,0,0.2,0.1,0.4c0,0.2,0.1,0.3,0.1,0.3l0.2-0.4l0,0V11c0,0.1,0,0.2,0,0.3V12c0,0.2,0.1,0.4,0.1,0.6
	c0,0.2,0.1,0.4,0.2,0.6l0,0l0,0v-0.8c0,0.1,0.1,0.3,0.2,0.7c0.1,0.3,0.3,0.5,0.5,0.5c0.1,0,0.1-0.1,0.1-0.3s0-0.3,0-0.5
	c0.1,0.2,0.3,0.6,0.6,0.9c0-0.2,0-0.5,0-0.8l0.3,0.2c0.1,0.1,0.3,0.1,0.6,0.1h0.1V13c0-0.1,0-0.1,0-0.2l-0.1-0.3
	c0.1,0,0.2,0.1,0.4,0.2c0.2,0.1,0.4,0.2,0.5,0.2s0.1,0,0.1-0.1C12,12.6,12,12.5,12,12.4c0.3,0,0.6,0,0.9,0v-0.1c0-0.1,0-0.2-0.1-0.3
	c0-0.2-0.1-0.3-0.1-0.3H13c0,0,0.1,0,0.2,0c0,0,0,0,0-0.1s0-0.2-0.1-0.3L13,11.1h0.4l0.1-0.1l0,0l0,0l0,0l0,0v-0.1
	c0-0.2-0.2-0.5-0.5-0.7h0.3c0.1,0,0.3,0,0.4-0.1c0.1-0.1,0.2-0.2,0.2-0.3s0-0.2-0.1-0.3c0-0.1-0.1-0.1-0.2-0.2h0.6c0,0,0,0,0-0.1
	c0-0.3-0.2-0.7-0.6-1l0,0c0.3-0.1,0.5-0.3,0.5-0.6c0-0.1,0-0.2-0.1-0.2c0-0.1-0.1-0.1-0.3-0.2l0.5-0.3c0.1-0.1,0.2-0.2,0.2-0.3l0,0
	l0,0l0,0l0,0l0,0c-0.1-0.1-0.1-0.2-0.2-0.3c-0.2-0.1-0.4-0.2-0.8-0.2c0.1-0.1,0.1-0.2,0.2-0.3C14,5.9,14,5.8,14,5.7l0,0l0,0
	c0-0.1-0.1-0.1-0.1-0.2c-0.1-0.1-0.2-0.1-0.3-0.1V5.3h-0.1c-0.1,0-0.2-0.1-0.3-0.2c0.1,0,0.3-0.1,0.4-0.1s0.2,0,0.2,0
	c0-0.1,0-0.2-0.1-0.3l0,0l-0.1-0.2c-0.1-0.1-0.1-0.2-0.3-0.3C13.7,4,13.9,3.9,14,3.6l0,0V4l-0.2,0.6l0,0l0.7-0.5
	c0,0.3-0.1,0.6-0.2,0.8l-0.1,0.2l-0.1,0.1l0.1-0.1c0.2-0.1,0.4-0.1,0.7,0c-0.1,0.3-0.3,0.6-0.5,0.8H14.6L14.6,5.9L14.6,5.9z
	 M11.2,9.4L11.2,9.4L11.2,9.4L11.2,9.4C11.2,9.3,11.2,9.4,11.2,9.4L11.2,9.4z M15.5,13.1L15.5,13.1L15.5,13.1L15.5,13.1L15.5,13.1z
	 M0.5,12.7L0.5,12.7c-0.1-0.1-0.2-0.1-0.2-0.2c-0.1-0.1-0.1-0.2-0.1-0.3S0.1,12.1,0.1,12L0,11.8c0,0,0,0,0.1,0.1h0.1l0,0h0.1h0.1
	c0,0,0.1,0,0.2-0.1l0,0v0.1V12c0,0.1-0.1,0.2-0.1,0.3c0.2,0,0.3-0.1,0.3-0.1l0.1-0.1l-0.1,0.4C0.7,12.5,0.6,12.6,0.5,12.7z
	 M0.1,13.6L0.1,13.6c0,0,0-0.1,0.1-0.2c0,0,0,0,0-0.1s0.1-0.1,0.1-0.2l0,0l0.1,0.1c0.1,0,0.1,0,0.2,0s0.2,0,0.2-0.1l0,0l0,0
	l-0.2,0.3l0,0c-0.1,0-0.1-0.1-0.2-0.1l0,0C0.3,13.5,0.3,13.5,0.1,13.6L0.1,13.6L0.1,13.6L0.1,13.6z M7.1,12.2c0,0.1,0,0.3,0,0.7
	l0.1-0.1c0.1-0.1,0.1-0.1,0.2-0.2c0.1-0.1,0.1-0.2,0.1-0.4s0-0.3,0-0.4v-0.1c0-0.2-0.1-0.3-0.1-0.2l-0.1,0.1
	c-0.1,0.1-0.1,0.2-0.1,0.3L7.1,12.2L7.1,12.2z"/>
</svg>
