<?xml version="1.0" encoding="utf-8"?>
<!-- Generator: Adobe Illustrator 21.1.0, SVG Export Plug-In . SVG Version: 6.00 Build 0)  -->
<svg version="1.1" id="Layer_1" xmlns="http://www.w3.org/2000/svg" xmlns:xlink="http://www.w3.org/1999/xlink" x="0px" y="0px"
	 viewBox="0 0 16 16" style="enable-background:new 0 0 16 16;" xml:space="preserve">
<style type="text/css">
	.st0{fill:#63724F;}
	.st1{fill:#899772;}
	.st2{fill:#4F583F;}
</style>
<path class="st0" d="M3.8,12.8l-0.1-0.4c0,0.2,0,0.4,0,0.5c0,0.2,0,0.3-0.1,0.5l-0.1,0.3c-0.1-0.1-0.1-0.3-0.1-0.5
	c0-0.2,0-0.3,0-0.5c0-0.1,0-0.3,0.1-0.4L3.2,13c0,0,0-0.1-0.1-0.3c0-0.2-0.1-0.3-0.1-0.4c0-0.2,0-0.3,0.1-0.4l0.2-0.6
	c-0.1,0.2-0.2,0.3-0.3,0.5c0,0-0.1,0.1-0.2,0.2s-0.2,0.1-0.2,0.1c0-0.1,0-0.1,0-0.2c0-0.1,0-0.2,0.1-0.4c0-0.1,0-0.1,0.1-0.2
	l-0.4,0.1c0-0.2,0-0.3,0.1-0.5c0.1-0.2,0.1-0.3,0.3-0.4l0.1-0.1l-0.7,0.2c0-0.1,0-0.2,0-0.3c0-0.1,0-0.1,0-0.2c0-0.1,0-0.2,0.1-0.2
	l0.2-0.3C2.3,9.8,2.3,9.9,2.2,9.9c0,0-0.1,0.1-0.1,0.1c0,0-0.1,0-0.1,0C1.8,10,1.8,10,1.8,10C1.7,9.9,1.7,9.8,1.6,9.8l0-0.1
	C1.5,9.6,1.5,9.5,1.5,9.5c0,0,0.1,0,0.2,0c0.1,0,0.2-0.1,0.3-0.1C2,9.3,2.1,9.2,2.2,9L2,9.1c0,0-0.1,0-0.1,0L1.8,9.1
	c0-0.2,0-0.4,0.2-0.6l0.1-0.1c0,0,0-0.1,0-0.2L1.9,7.8c0-0.1,0-0.1-0.1-0.2C1.9,7.6,2,7.7,2.2,7.8l0.3,0.1c0,0-0.1-0.1-0.1-0.1
	l0-0.1C2.1,7.5,2,7.4,2,7.3l0.3,0C2.2,7.2,2.1,7.1,2.1,6.9C2,6.6,1.9,6.4,1.9,6.1c0.2,0.1,0.4,0.2,0.5,0.3C2.3,6.3,2.3,6.1,2.2,6
	c0-0.2-0.1-0.4-0.1-0.7c0.2,0,0.3,0.1,0.5,0.3l0.1,0.2l0-0.4C3,5.4,3.2,5.6,3.3,5.9C3.2,5.6,3.2,5.3,3.2,5l0-0.1l0.3,0.2
	c-0.1-0.3,0-0.7,0-1c0.2,0.1,0.3,0.3,0.4,0.6c0-0.2,0-0.3,0-0.5C4,4.1,4,4.1,4,4l0.2-0.5c0.1,0.3,0.1,0.6,0.1,0.9
	c0-0.3,0.1-0.6,0.2-0.9c0.1,0.3,0.2,0.5,0.3,0.9c0-0.3,0.1-0.5,0.2-0.7l0.4,1.1c0-0.3,0-0.6,0-0.9c0-0.2,0.1-0.4,0.2-0.5
	c0,0,0-0.1,0.1-0.1l0.1,0.9c0-0.3,0.1-0.4,0.3-0.5l0.1,0v0c0-0.2,0.1-0.5,0.2-0.6C6.4,3,6.4,2.9,6.5,2.9c0,0.2,0,0.4,0,0.6
	c0.1-0.2,0.2-0.3,0.4-0.4l0,0l0,0.1L7,3.3C7,3.3,7.1,3.4,7.1,3.4v0.2c0,0,0,0.1,0,0.1c-0.2,0-0.3-0.1-0.4-0.2c-0.1,0-0.1,0-0.2,0
	c-0.1,0-0.2,0.1-0.4,0.2l0.4,0.6L6.1,4.6c0,0.1,0.1,0.2,0.1,0.3l0.1,0.1c0.2,0.2,0.4,0.3,0.6,0.2L6.7,5.5h0.4l0,0l0.3,0
	C7.3,5.4,7.2,5.2,7.2,5.1C7.1,4.8,7,4.6,7,4.3l0.5,0.3C7.5,4.5,7.4,4.4,7.4,4.3c0-0.1,0-0.1,0-0.2c0-0.2-0.1-0.4-0.1-0.7v0
	c0.2,0,0.3,0.1,0.5,0.3c0,0,0.1,0.1,0.1,0.2l0-0.4c0.2,0.1,0.4,0.3,0.6,0.6C8.3,3.8,8.3,3.5,8.3,3.2l0-0.1l0.3,0.2
	c-0.1-0.3,0-0.7,0-1c0.2,0.1,0.3,0.3,0.4,0.6c0-0.2,0-0.3,0-0.5c0-0.1,0-0.1,0-0.2l0.2-0.5C9.4,2,9.4,2.3,9.4,2.7
	c0-0.3,0.1-0.6,0.2-0.9C9.7,2,9.8,2.3,9.9,2.6c0-0.3,0.1-0.5,0.2-0.7L10.4,3c0-0.3,0-0.6,0-0.9c0-0.2,0.1-0.4,0.2-0.6l0.1-0.1
	l0.1,0.9c0-0.3,0.1-0.4,0.3-0.5c0,0,0.1,0,0.1,0c0-0.3,0.1-0.5,0.2-0.7c0-0.1,0.1-0.1,0.2-0.2c0,0.2,0,0.4,0,0.6
	c0.1-0.2,0.2-0.3,0.4-0.4c0-0.2,0-0.3,0-0.5c0-0.1,0-0.1,0-0.2c0,0.1,0,0.1,0.1,0.2c0,0.2,0,0.3,0,0.5l0.1,0v0l0,0v0
	c0,0.1,0,0.2,0,0.3c0,0.1,0,0.1-0.1,0.2l0,0l0,0.5C12,2.1,12.2,2,12.3,1.9l0,0.3c0,0.2,0,0.4-0.1,0.5l0.1,0c0.1,0,0.1-0.1,0.2-0.2
	l0.2-0.3v0.2c0,0.1,0,0.2,0,0.3l0,0.2c0,0,0,0,0.1-0.1c0.1-0.2,0.3-0.3,0.4-0.4l0.2-0.1l-0.1,0.3c0,0.1-0.1,0.2-0.1,0.3
	c0,0.1,0,0.2-0.1,0.3l0,0.1l0,0l0.2-0.2c0.1-0.1,0.1-0.1,0.2-0.1l0,0l0,0.1c0,0.1,0,0.2,0,0.2l0,0.1c0,0.1,0,0.1,0,0.2l0,0.2l0.3,0
	l-0.3,0.5c0.1,0.1,0.2,0.2,0.3,0.3l0.1,0.2l0,0c0,0.1,0.1,0.2,0.1,0.3c0,0-0.1,0-0.2,0c-0.1,0-0.3,0-0.4,0.1
	c0.1,0.1,0.2,0.2,0.3,0.2l0.1,0l0,0.1c0.2,0,0.3,0,0.3,0.1c0,0,0.1,0.1,0.1,0.2l0,0v0c0,0.1-0.1,0.2-0.2,0.5c0,0.1-0.1,0.2-0.2,0.3
	c0.3,0,0.6,0,0.8,0.2c0.1,0.1,0.1,0.1,0.2,0.3l0,0c0,0,0,0,0,0l0,0l0,0l0,0c0,0.1-0.1,0.2-0.2,0.3L14,7.6c0.1,0.1,0.2,0.1,0.3,0.2
	c0,0.1,0.1,0.1,0.1,0.2c0,0.3-0.2,0.5-0.5,0.6v0c0.4,0.3,0.6,0.6,0.6,1c0,0.1,0,0.1,0,0.1l-0.6,0C13.9,9.7,14,9.8,14,9.9
	c0,0.1,0.1,0.2,0.1,0.3c0,0.1-0.1,0.2-0.2,0.3c-0.1,0.1-0.3,0.1-0.4,0.1l-0.3,0c0.3,0.2,0.5,0.4,0.5,0.7v0.1l0,0h0l0,0l0,0l-0.1,0.1
	h-0.4l0.1,0.2c0.1,0.1,0.1,0.2,0.1,0.3c0,0.1,0,0.1,0,0.1c-0.1,0-0.2,0-0.2,0h-0.3c0,0,0.1,0.1,0.1,0.3c0,0.1,0.1,0.2,0.1,0.3l0,0.1
	c-0.3,0-0.6,0-0.9,0c0,0.1,0.1,0.2,0.1,0.4c0,0,0,0.1-0.1,0.1c-0.1,0-0.2-0.1-0.5-0.2c-0.2-0.1-0.4-0.2-0.4-0.2l0.1,0.3
	c0,0.1,0,0.1,0,0.2l0,0.2c0,0,0,0-0.1,0c-0.2,0-0.4,0-0.6-0.1l-0.3-0.2c0,0.3,0,0.6,0,0.8c-0.3-0.4-0.5-0.7-0.6-0.9
	c0,0.2,0,0.3,0,0.5c0,0.2,0,0.3-0.1,0.3c-0.2,0-0.4-0.2-0.5-0.5c-0.1-0.4-0.2-0.6-0.2-0.7l0,0.8l0,0h0c-0.1-0.1-0.2-0.3-0.2-0.6
	c0-0.2,0-0.4-0.1-0.6v-0.6c0-0.1,0-0.2,0-0.3v-0.2l0,0l-0.2,0.4c0,0,0-0.1-0.1-0.3c0-0.2-0.1-0.3-0.1-0.4c0-0.1,0-0.3,0.1-0.4
	c0.1-0.2,0.1-0.4,0.2-0.6C8.3,9.7,8.2,9.9,8.1,10l-0.4,0.3l0-0.1c-0.2,0.3-0.6,0.4-1,0.4H6.5l0,0c-0.1,0.2-0.2,0.3-0.4,0.3l0,0h0
	l0.2,0.2c0.1,0.1,0.1,0.1,0.2,0.1c0,0,0.1,0,0.1,0l-0.2,0.3c0,0.1-0.1,0.1-0.1,0.1c-0.1,0-0.1,0-0.2,0c0.1,0.1,0.2,0.2,0.3,0.3l0,0
	l0.1,0c0.2-0.1,0.4-0.1,0.4-0.1l0.1,0c0,0,0,0,0,0.1c0,0,0,0-0.1,0c-0.1,0.1-0.2,0.2-0.3,0.4c-0.1,0.1-0.2,0.2-0.2,0.3l0,0l0,0l0,0
	l0,0h0l0,0l0,0.1c-0.1,0.1-0.1,0.2-0.1,0.3c0,0.1,0,0.1,0,0.2l-0.1-0.2l0,0l0,0c0-0.1-0.1-0.2-0.1-0.3c0-0.1,0-0.2,0-0.3L6.2,12
	c-0.1,0.1-0.2,0.2-0.3,0.2H5.8c-0.1,0-0.2,0-0.2-0.1l0,0.2l-0.3-0.5l0.2-0.1h0l0.1,0l0,0.3l0.1-0.2l0.2-0.3l0,0l0,0
	c-0.1,0.1-0.1,0.1-0.2,0.1l0,0l-0.2,0c0,0-0.1-0.1-0.1-0.1h0l-0.1,0.2l-0.1,0.2l0,0l0.1-0.1v0c0,0.2,0.1,0.4,0,0.6c0,0-0.1,0-0.1,0
	l-0.1,0l0.2,0.3c0,0.1,0,0.2,0,0.3c0,0.1,0,0.1-0.1,0.2C5.1,12.9,5,12.6,5,12.3l0-0.3l0-0.2c0-0.2,0.1-0.4,0.1-0.6l-0.2,0.5
	l-0.1,0.1l-0.1-0.3c0-0.2,0-0.3,0-0.4l-0.1,0.6c0,0.4,0.1,0.8,0.2,1.1c0,0.4-0.1,0.7-0.1,1l-0.2-0.9c0-0.2-0.1-0.4-0.1-0.4L4,13.6
	c-0.2-0.1-0.2-0.5-0.1-1c0-0.1,0.1-0.2,0.1-0.3c0-0.1,0.1-0.2,0.1-0.3c0-0.1,0-0.2,0-0.3c0-0.2,0-0.4-0.1-0.5l-0.2,0.4l-0.1-0.4
	L4,10.4c-0.1,0.1-0.1,0.2-0.2,0.2c-0.1,0.1-0.2,0.3-0.3,0.4c-0.1,0.1-0.1,0.2-0.1,0.4c0,0.1,0,0.1,0,0.2l0.2-0.1l0,0.2
	c0,0.1,0,0.3,0,0.4L3.8,12.8L3.8,12.8z M3.7,9.4L3.7,9.4L3.7,9.4L3.7,9.4C3.4,9.2,3.2,9.3,3.1,9.5C3,9.7,2.9,9.9,2.9,10.1v0
	c0,0,0,0.1,0,0v0c0,0,0.1,0,0.3,0c0.1,0,0.2-0.1,0.3-0.3C3.6,9.7,3.7,9.5,3.7,9.4C3.7,9.4,3.7,9.4,3.7,9.4z M0.9,9
	C0.8,8.9,0.8,8.9,0.8,8.8L0.5,8.4c0.2,0,0.3-0.1,0.5-0.2C1.1,8.2,1.2,8.1,1.3,8c0.2,0,0.4,0,0.5-0.1c-0.3,0.2-0.5,0.5-0.6,1
	C1.1,8.9,1,8.9,0.9,9z M0.7,14L0.7,14L0.7,14c-0.1,0-0.1,0-0.1,0l-0.1,0c0,0-0.1,0-0.1-0.1h0l0,0c0,0,0,0,0.1-0.1
	c0,0,0.1-0.1,0.1-0.2l0,0l0.2-0.3l0,0c0,0,0,0,0,0c-0.1,0.1-0.2,0.1-0.2,0.1c0,0-0.1,0-0.2,0l-0.1-0.1h0l-0.1-0.1c0,0,0,0-0.1,0
	c0,0,0,0,0-0.1c0,0,0,0,0,0l0,0c0,0,0,0,0,0h0l0,0c0.1-0.1,0.1-0.2,0.2-0.3h0l0,0l0.1-0.1c0.1-0.1,0.2-0.2,0.4-0.3L0.9,12
	c-0.1,0-0.1,0.1-0.1,0.1c0,0-0.2,0.1-0.3,0.1c0.1-0.1,0.1-0.2,0.1-0.3l0-0.1h0l0.1-0.3c0-0.1,0.1-0.1,0.2-0.2c0,0,0.1,0,0.1,0
	c-0.2-0.1-0.3-0.1-0.3-0.1c-0.1,0-0.2,0.1-0.2,0.1c0,0,0,0-0.1,0.1c0,0-0.1,0.1-0.1,0.2c0-0.1,0-0.2,0-0.5v0l0-0.2
	c0-0.1,0.1-0.2,0.1-0.2l0-0.1l0,0h0c0,0,0.1,0,0.1,0c0.1,0,0.1,0,0.2,0c0,0-0.1,0-0.1-0.1l0,0c0,0,0,0,0,0l-0.3-0.3h0.1
	c0.1-0.1,0.2-0.1,0.3-0.3C0.8,9.9,0.9,9.8,1,9.7c0.2,0.1,0.4,0.1,0.6,0.1C1.3,9.8,1.1,10.1,1,10.4c0.3-0.1,0.5-0.1,0.8,0.2L2.1,11
	c0,0-0.1-0.1-0.2-0.1c-0.3-0.1-0.6-0.1-0.8,0.1c0,0,0,0,0,0.1v0h0c0.1,0.2,0.3,0.3,0.4,0.3c0.1,0,0.3-0.1,0.4-0.1l0,0
	c-0.2,0.2-0.5,0.3-0.9,0.4c0.2,0.3,0.5,0.5,0.8,0.6c-0.2-0.1-0.3,0-0.3,0.1c-0.1,0.2-0.2,0.3-0.4,0.2l0.3,0.2
	C1.4,12.9,1.5,13,1.5,13c0,0,0,0.1-0.1,0.3l0,0c-0.1,0.1-0.2,0.2-0.4,0.1c0.1,0.1,0.3,0.2,0.4,0.3l0.1,0c0.2-0.1,0.3-0.1,0.4-0.1
	l0.1,0c0,0,0,0,0.1,0.1c0,0,0,0-0.1,0c-0.1,0-0.2,0.2-0.3,0.4c-0.1,0.2-0.2,0.3-0.3,0.3l-0.1,0.1c-0.1,0.1-0.1,0.2-0.1,0.3
	c0,0.1,0,0.1,0,0.2c0,0,0-0.1-0.1-0.2l0-0.1C1,14.6,1,14.5,1,14.4c0-0.1,0-0.2,0.1-0.5l0-0.1l0,0C0.9,14,0.8,14,0.7,14L0.7,14
	C0.7,14,0.7,14,0.7,14z M1.3,14.8L1.3,14.8c0,0.1,0,0.1,0,0.2l0,0.3c0,0.1,0,0.2,0.1,0.3c0,0,0,0,0,0c0-0.1-0.1-0.2-0.1-0.3V15
	L1.3,14.8C1.3,14.8,1.3,14.8,1.3,14.8z M0.5,15.2C0.4,15.2,0.4,15.2,0.5,15.2C0.5,15.2,0.5,15.2,0.5,15.2c0.1-0.1,0.1-0.1,0.1-0.1
	C0.5,15.2,0.5,15.2,0.5,15.2C0.5,15.2,0.5,15.2,0.5,15.2z M0.8,14.7C0.8,14.7,0.7,14.7,0.8,14.7c-0.2,0-0.2,0-0.2,0L0.8,14.7
	L0.8,14.7L0.8,14.7C0.8,14.6,0.8,14.7,0.8,14.7z M2.1,14.6L2,14.7c0-0.3,0-0.5,0-0.6l0-0.1l0,0c0-0.1,0-0.2,0.1-0.3
	c0.1-0.2,0.1-0.3,0.2-0.4c0,0,0.1,0.1,0.1,0.4c0,0.1,0,0.2,0,0.4c0,0.2-0.1,0.3-0.1,0.4C2.2,14.5,2.1,14.5,2.1,14.6z M7.4,15.3
	L7.4,15.3l0.1-0.4L7.4,15.3C7.4,15.2,7.4,15.2,7.4,15.3z M6.4,14.7l0-0.1v0L6.4,14.7z M6.8,15.5C6.8,15.5,6.8,15.5,6.8,15.5
	C6.8,15.4,6.8,15.4,6.8,15.5C6.8,15.4,6.8,15.4,6.8,15.5C6.8,15.5,6.8,15.5,6.8,15.5z M5.7,15.8L5.7,15.8c0-0.1,0-0.3,0-0.5l0-0.7
	l0,0l0,0.7C5.7,15.4,5.7,15.6,5.7,15.8z M5.2,15.9L5.2,15.9c-0.1-0.1-0.1-0.2-0.1-0.3C5.1,15.7,5.2,15.8,5.2,15.9z M4.7,15.5
	L4.7,15.5l-0.1-0.3c-0.1-0.2-0.2-0.4-0.2-0.4l0,0c0,0,0.1,0.1,0.2,0.4L4.7,15.5z M14,14c0.1-0.1,0.2-0.4,0.3-0.7l0.1-0.3v0l0,0
	c0,0.1,0,0.2,0,0.3l0,0l0,0c0-0.1,0-0.2,0-0.2l0,0.1c0,0.1,0,0.1,0,0.1c0,0,0,0.1,0,0.1C14.3,13.4,14.2,13.7,14,14L14,14L14,14z
	 M14.6,13.6c0,0.1,0.1,0.1,0.1,0.1c0,0,0.1,0,0.1-0.1h0c0,0,0,0.1,0,0.1h0c0,0-0.1,0.1-0.1,0.1C14.7,13.8,14.6,13.7,14.6,13.6z
	 M15,12.7L15,12.7l-0.1-0.1C14.9,12.6,15,12.7,15,12.7z M15.5,13.2L15.5,13.2C15.5,13.2,15.5,13.2,15.5,13.2L15.5,13.2
	c0,0,0-0.1,0-0.1C15.5,13.1,15.5,13.2,15.5,13.2L15.5,13.2L15.5,13.2z M15.5,13.2L15.5,13.2L15.5,13.2L15.5,13.2L15.5,13.2z
	 M15.4,12L15.4,12L15.4,12L15.4,12L15.4,12z M15,8.2L15,8.2l0.1,0.2c0.1,0.1,0.1,0.1,0.2,0.2h0c-0.1,0-0.1-0.1-0.2-0.2
	C15.1,8.3,15.1,8.3,15,8.2C15,8.2,15,8.2,15,8.2z M15.4,7.2L15.4,7.2L15.4,7.2c0-0.1,0-0.1,0-0.1C15.4,7.1,15.4,7.1,15.4,7.2
	L15.4,7.2C15.4,7.1,15.4,7.2,15.4,7.2z M15.3,6.6c0,0,0,0.1,0,0.1c0,0.1-0.1,0.1-0.1,0.1c0,0,0,0.1,0.1,0.1c0,0-0.1-0.1-0.1-0.1
	c0,0,0.1,0,0.1-0.1C15.3,6.7,15.3,6.7,15.3,6.6L15.3,6.6z M14.6,5.9L14.6,5.9c0.1,0,0.1,0,0.2,0c0,0,0,0,0.1,0.1l0,0l0,0L14.6,5.9
	L14.6,5.9L14.6,5.9L14.6,5.9z M11.2,9.1c0-0.1,0-0.1,0-0.2c-0.1,0.1-0.2,0.2-0.2,0.4l0,1c0,0.2,0.1,0.4,0.1,0.5
	c0.2-0.2,0.2-0.4,0.3-0.5c0-0.1,0-0.2,0-0.4c0-0.2,0-0.3,0-0.4C11.4,9.4,11.3,9.3,11.2,9.1z M10.3,7.7L10.3,7.7L10.3,7.7L10.3,7.7
	c0-0.1,0-0.1,0-0.1l0-0.1L10.3,7.7C10.1,7.8,10,8,9.8,8.4L9.7,8.7C9.6,9.1,9.5,9.3,9.5,9.4c0,0.1,0,0.1,0,0.1
	c0.2,0.1,0.4-0.2,0.5-0.7C10.2,8.3,10.3,8,10.3,7.7C10.3,7.8,10.3,7.7,10.3,7.7z M11.7,4.8c0,0.1,0,0.3,0,0.5c0,0.2,0,0.3,0.1,0.3
	c0-0.3,0-0.7,0-1.2C11.7,4.6,11.7,4.7,11.7,4.8z M9.5,8.1L9.5,8.1L9.5,8.1L9.5,8.1C9.4,8,9.3,8.1,9.1,8.3C9,8.4,8.9,8.5,8.9,8.6l0,0
	l0,0c0,0,0.1,0,0.3,0c0.1,0,0.2-0.1,0.3-0.3C9.4,8.3,9.5,8.2,9.5,8.1z M10,4.6L9.8,4.4C9.6,4.3,9.3,4.2,9.1,4.3c0,0-0.1,0-0.1,0
	c0,0,0,0,0,0l0,0l0,0c0,0,0,0,0,0h0l0.3,0.4l-0.8,0c0,0,0,0,0,0c0,0,0,0,0,0.1c0,0.1,0,0.1,0.1,0.2L9,5.2L9,5.3
	C8.8,5.4,8.7,5.5,8.6,5.7C8.5,5.9,8.5,6.1,8.5,6.2c0,0.1,0,0.1,0,0.1c0,0,0.1-0.1,0.2-0.2C8.8,6,8.9,5.9,8.9,5.9h0l0,0
	C8.7,6.1,8.7,6.5,8.7,7c0,0.1,0,0.1,0,0.2l0.3-0.5c0.1-0.2,0.2-0.4,0.3-0.4l0,0.4c0,0.1,0,0.2,0,0.4c0.3-0.4,0.4-0.7,0.4-0.9l0-0.1
	l0,0l-0.1,0L9.7,6L9.4,5.8c0,0,0,0,0-0.1c0-0.1,0-0.1,0.1-0.1v0c0.1,0,0.1,0,0.2,0.1l0.1,0l0-0.1c0-0.1,0-0.1-0.1-0.2l0.6,0
	c0,0,0,0,0,0c0,0,0,0,0-0.1c0-0.1-0.1-0.3-0.3-0.4v0C10.1,4.8,10,4.8,10,4.6C10,4.7,10,4.7,10,4.6L10,4.6L10,4.6z M10.3,3.7
	C10.3,3.6,10.3,3.6,10.3,3.7C10.3,3.6,10.3,3.7,10.3,3.7c-0.1,0.1,0,0.2,0,0.5c0.1,0.2,0.1,0.3,0.2,0.4l0,0c0.1,0.1,0.2,0.1,0.3,0.1
	c0,0,0,0,0-0.1V4.2c0-0.1-0.1-0.2-0.1-0.3C10.7,3.8,10.6,3.8,10.3,3.7C10.4,3.7,10.4,3.7,10.3,3.7z M11.3,1.1
	C11.3,1.2,11.3,1.2,11.3,1.1C11.3,1.1,11.3,1.1,11.3,1.1C11.3,1.1,11.3,1.1,11.3,1.1L11.3,1.1z M11.3,0.5c0,0.1,0,0.2,0,0.3
	c0,0,0,0.1,0,0.1c0,0,0-0.1,0-0.1C11.3,0.7,11.3,0.6,11.3,0.5z M9.7,9c0,0.1,0,0.2,0,0.2v0.1l-0.1,0L9.7,9z M10.8,8.7L10.8,8.7
	L10.8,8.7L10.8,8.7L10.8,8.7c-0.2,0.2-0.4,0.5-0.5,0.8c-0.1,0.3-0.2,0.6-0.3,0.9h0v0.1l0,0v0c0,0,0,0,0,0c0.3,0,0.6-0.2,0.7-0.7
	c0.1-0.3,0.1-0.6,0.1-1C10.8,8.8,10.8,8.8,10.8,8.7z M6.7,6.5L6.7,6.5c-0.1,0-0.2,0.1-0.2,0.2l0,0.1C6.5,6.9,6.4,7,6.4,7v0l0,0.1
	c0,0,0.1,0,0.3,0l0.3,0C6.9,7.3,6.8,7.4,6.7,7.5C6.6,7.8,6.6,7.9,6.6,7.9V8l0,0l0.3,0l0.4-0.2c0.3-0.1,0.4-0.3,0.4-0.4
	c0,0,0-0.1,0-0.1c0,0-0.1-0.1-0.2-0.1l0,0l0,0c0,0,0.2-0.1,0.4-0.2l0-0.1c0-0.1-0.1-0.1-0.2-0.2C7.7,6.3,7.4,6.2,7,6.4
	C6.9,6.4,6.9,6.5,6.7,6.5L6.7,6.5C6.8,6.5,6.7,6.5,6.7,6.5z M4.2,8.3L4.2,8.3L4.2,8.3L4.2,8.3L4.2,8.3C4,8,3.9,8,3.6,8.1
	C3.5,8.1,3.3,8.2,3.3,8.3h0c0,0.1,0,0.1,0,0.2l0.1,0.1c0.1,0.1,0.2,0.1,0.4,0.1c0.1,0,0.3,0,0.3-0.1C4.1,8.5,4.2,8.4,4.2,8.3
	C4.2,8.3,4.2,8.3,4.2,8.3z M4.7,5.6l0,0.5L4.1,6H3.9c0,0,0,0,0,0v0.1c0,0.1,0,0.1,0,0.1l0.3,0.3C4.1,6.4,3.9,6.5,3.7,6.7
	C3.5,6.9,3.3,7.1,3.3,7.1c0,0.1,0,0.1,0,0.1c0.2,0,0.4,0.1,0.5,0.1l0.8,0c0,0,0-0.1,0-0.2c0,0,0-0.1,0-0.2L5.1,7c0,0,0.1,0,0.1,0
	c0-0.1,0-0.2,0-0.3l0.1,0.1c0,0,0.1,0,0.1,0c0,0,0.1,0,0.1,0V6.4c0-0.1-0.2-0.3-0.3-0.5C5,5.7,4.8,5.6,4.7,5.6z M7,3.4L7,3.4
	c0,0,0,0.1,0,0.2l0,0L7,3.4z M6.5,7.1L6.5,7.1L6.5,7.1L6.5,7.1z M7.6,6.5L7.4,6.4l0,0C7.5,6.4,7.5,6.5,7.6,6.5z M3.4,7.1L3.4,7.1
	L3.4,7.1C3.4,7.1,3.4,7.1,3.4,7.1z M0.1,13.6L0.1,13.6c0.1-0.1,0.2-0.1,0.3-0.1h0c0,0,0.1,0,0.2,0.1l0,0l0,0c-0.1,0-0.1-0.1-0.2-0.1
	h0C0.3,13.5,0.3,13.6,0.1,13.6C0.1,13.6,0.1,13.6,0.1,13.6z M0.1,13.7L0.1,13.7L0.1,13.7L0.1,13.7z M7.1,12.2l0.1-0.3
	c0-0.1,0.1-0.2,0.1-0.3c0-0.1,0.1-0.1,0.1-0.1c0,0,0,0.1,0.1,0.2l0,0.1c0,0.1,0,0.3,0,0.4c0,0.2-0.1,0.3-0.1,0.4
	c-0.1,0.1-0.1,0.2-0.2,0.2l-0.1,0.1C7.1,12.6,7.1,12.4,7.1,12.2L7.1,12.2z"/>
<path class="st1" d="M12.5,2.5c-0.1,0.1-0.1,0.2-0.2,0.2l-0.1,0c0.1-0.1,0.1-0.3,0.1-0.5l0-0.3C12.2,2,12,2.1,11.9,2.3l0-0.5l0,0
	L12.4,1c0,0.1,0,0.2,0,0.3c0,0.2,0,0.3-0.1,0.4l0.1,0C12.7,1.7,12.7,1.9,12.5,2.5L12.5,2.5z M3.7,9.4L3.7,9.4c0,0.2,0,0.3-0.1,0.4
	c-0.1,0.2-0.2,0.3-0.3,0.3c-0.2,0-0.3,0-0.3,0v0c0,0,0,0,0,0v0c0-0.1,0.1-0.3,0.2-0.5C3.2,9.3,3.4,9.2,3.7,9.4L3.7,9.4L3.7,9.4
	L3.7,9.4z M3.8,12.8L3.7,12c0-0.1,0-0.3,0-0.4l0-0.2l-0.2,0.1c0,0,0-0.1,0-0.2c0-0.1,0.1-0.3,0.1-0.4c0.1-0.2,0.2-0.3,0.3-0.4
	C3.9,10.5,4,10.4,4,10.4l-0.2,0.9l0.1,0.4l0.2-0.4c0,0.1,0,0.3,0.1,0.5c0,0.1,0,0.2,0,0.3c0,0.1,0,0.2-0.1,0.3C4,12.4,4,12.5,4,12.6
	C4,12.6,3.8,12.8,3.8,12.8z M11.3,1.1c0-0.1,0.1-0.2,0.1-0.3c0-0.1,0.1-0.2,0.2-0.3l0.1-0.1c0,0,0.1,0,0.1-0.1l0,0.1
	c0,0,0,0.1,0,0.1l0,0c0,0.1,0,0.1,0,0.2c0,0.2,0,0.3,0,0.5c-0.1,0.1-0.3,0.2-0.4,0.4c0-0.2,0-0.4,0-0.6c-0.1,0.1-0.1,0.1-0.2,0.2
	c-0.1,0.2-0.2,0.4-0.2,0.7c0,0-0.1,0-0.1,0c-0.1,0.1-0.2,0.2-0.3,0.5l-0.1-0.9l-0.1,0.1c-0.1,0.2-0.1,0.4-0.2,0.6c0,0.3,0,0.6,0,0.9
	L10,1.9C9.9,2.1,9.9,2.3,9.9,2.6c0-0.3-0.1-0.6-0.3-0.9C9.5,2,9.4,2.3,9.4,2.7c0-0.3,0-0.6-0.1-0.9L9.1,2.2c0,0,0,0.1,0,0.2
	c0,0.2,0,0.3,0,0.5C8.9,2.6,8.8,2.4,8.6,2.3c-0.1,0.3-0.1,0.7,0,1L8.3,3.1l0,0.1c0,0.3,0,0.6,0.2,0.9C8.3,3.8,8.1,3.6,7.9,3.5l0,0.4
	c0-0.1-0.1-0.1-0.1-0.2C7.6,3.6,7.5,3.5,7.3,3.5v0c0,0.3,0,0.5,0.1,0.7c0,0,0,0.1,0,0.2c0,0.1,0.1,0.2,0.2,0.3L7,4.3
	c0,0.3,0.1,0.5,0.2,0.8c0.1,0.2,0.2,0.3,0.3,0.4l-0.3,0l0,0H6.7l0.2-0.2c-0.2,0.1-0.4,0-0.6-0.2L6.2,4.9c0-0.1-0.1-0.2-0.1-0.3
	l0.4-0.3L6.1,3.8c0.1-0.1,0.2-0.2,0.4-0.2c0.1,0,0.1,0,0.2,0c0.1,0.1,0.2,0.1,0.4,0.2c0,0,0,0,0-0.1V3.4c0,0,0-0.1-0.1-0.1L6.9,3.2
	l0-0.1c0-0.1,0-0.1,0-0.1l0,0.1c-0.1,0-0.3,0.2-0.4,0.4c0-0.2,0-0.4,0-0.6C6.4,2.9,6.4,3,6.3,3.1C6.2,3.3,6.1,3.5,6.1,3.7v0L6,3.7
	C5.8,3.8,5.7,3.9,5.7,4.2L5.6,3.3c0,0,0,0.1-0.1,0.1C5.4,3.5,5.3,3.7,5.3,3.9c0,0.3,0,0.6,0,0.9L4.9,3.7C4.8,3.9,4.8,4.1,4.8,4.4
	C4.7,4.1,4.6,3.8,4.5,3.5C4.4,3.8,4.3,4.1,4.3,4.5c0-0.3,0-0.6-0.1-0.9L4,4c0,0,0,0.1,0,0.2c0,0.2,0,0.3,0,0.5
	C3.8,4.4,3.7,4.2,3.5,4.1c-0.1,0.3-0.1,0.6,0,1L3.2,4.9l0,0.1c0,0.3,0,0.6,0.2,0.9C3.2,5.6,3,5.4,2.8,5.3l0,0.4L2.6,5.5
	C2.5,5.4,2.3,5.3,2.2,5.3c0,0.2,0,0.5,0.1,0.7c0,0.2,0.1,0.3,0.2,0.5C2.3,6.3,2.1,6.2,1.9,6.1c0,0.3,0.1,0.5,0.1,0.8
	c0.1,0.2,0.2,0.3,0.3,0.4L2,7.3c0,0.1,0.1,0.2,0.2,0.4l0,0.1c0,0.1,0.1,0.1,0.1,0.1L2.2,7.8C2,7.7,1.9,7.6,1.8,7.6
	c0,0.1,0,0.1,0.1,0.2L2,8.2c0,0.1,0,0.1,0,0.2L1.9,8.5C1.8,8.6,1.8,8.8,1.8,9.1C1.5,9.3,1.2,9.4,1.2,9.3l0-0.5
	c0.1-0.4,0.3-0.8,0.6-1C1.6,8,1.5,8,1.3,8C1.2,8,1.1,8,0.9,8l0.9-0.9c-0.2,0.1-0.4,0-0.6-0.2c0,0-0.1-0.1-0.1-0.1
	C1.1,6.7,1,6.6,1,6.4l0.4-0.3L1,5.6c0.3-0.3,0.6-0.3,1-0.2C1.8,5.2,1.8,5,1.7,4.7c0.4-0.2,0.8-0.2,1.2,0l0.1,0L2.9,4.7
	C2.7,4.4,2.5,4,2.5,3.4c0.4,0,0.8,0.1,1.2,0.4C3.6,3.6,3.6,3.3,3.6,3.1c0-0.2,0-0.3,0-0.5l0-0.2l0.8,0.8l0-0.1c0-0.1,0-0.3-0.1-0.5
	c0-0.3,0-0.5,0-0.8C4.6,2,4.8,2.3,5,2.6c0,0.1,0.1,0.2,0.2,0.5l0,0.1l0.1-0.7c0,0,0,0,0,0.1l0.1,0.1c0.1,0.1,0.2,0.3,0.2,0.5
	c0,0,0,0.1,0,0.1l0-0.1l0,0c0-0.2,0.1-0.3,0.1-0.5C5.9,2.3,6,2.1,6.1,1.8c0.1,0.2,0.1,0.5,0.1,0.8c0,0.1,0,0.2,0,0.4
	c0-0.1,0.1-0.3,0.1-0.4c0.1-0.2,0.2-0.3,0.3-0.4c0,0,0,0,0,0.1c0.1,0.1,0.1,0.2,0.1,0.4c0,0.1,0,0.2,0,0.3c0.4-0.2,0.8-0.2,1.1,0
	l0.1,0L8,2.9C7.8,2.6,7.6,2.2,7.6,1.6C8,1.6,8.4,1.8,8.9,2C8.8,1.8,8.7,1.5,8.7,1.3c0-0.1,0-0.3,0-0.5l0-0.2l0.8,0.8l0-0.1
	c0-0.2,0-0.3-0.1-0.5c0-0.2,0-0.5,0-0.8c0.3,0.2,0.5,0.5,0.6,0.8c0.1,0.2,0.2,0.3,0.2,0.5l0,0.1l0.1-0.7l0,0.1l0.1,0.1
	c0.1,0.1,0.2,0.3,0.2,0.5l0,0.1l0-0.1c0-0.1,0-0.2,0.1-0.5C11,0.5,11.1,0.3,11.2,0c0,0.1,0,0.1,0,0.2l0.1,0.3c0,0.1,0,0.2,0,0.3
	c0,0,0,0.1,0,0.1l0,0V1C11.3,1,11.3,1.1,11.3,1.1L11.3,1.1C11.3,1.1,11.3,1.1,11.3,1.1C11.3,1.2,11.3,1.2,11.3,1.1L11.3,1.1z
	 M10.3,3.7C10.4,3.7,10.4,3.7,10.3,3.7c0.2,0.1,0.4,0.2,0.4,0.3c0,0.1,0.1,0.2,0.1,0.3v0.4c0,0,0,0.1,0,0.1c-0.1,0-0.2,0-0.3-0.1
	l0,0c-0.1-0.1-0.2-0.2-0.2-0.4C10.3,3.9,10.3,3.7,10.3,3.7C10.3,3.7,10.3,3.6,10.3,3.7C10.3,3.6,10.3,3.6,10.3,3.7z M10,4.6L10,4.6
	C10,4.7,10,4.7,10,4.6c0.1,0.1,0.1,0.2,0.2,0.2v0c0.2,0.2,0.3,0.3,0.3,0.4c0,0,0,0.1,0,0.1c0,0,0,0,0,0l-0.6,0
	c0.1,0,0.1,0.1,0.1,0.2l0,0.1l-0.1,0c-0.1,0-0.2-0.1-0.2-0.1v0c-0.1,0-0.1,0-0.1,0.1c0,0.1,0,0.1,0,0.1L9.7,6L9.6,6.2l0.1,0l0,0
	l0,0.1c0,0.1-0.1,0.4-0.4,0.9c0-0.1,0-0.2,0-0.4l0-0.4C9.2,6.3,9.1,6.5,8.9,6.7L8.7,7.2c0,0,0-0.1,0-0.2c0-0.5,0.1-0.9,0.3-1.1l0,0
	h0c0,0-0.1,0.1-0.2,0.2C8.6,6.2,8.5,6.2,8.5,6.2c0,0,0,0,0-0.1c0-0.1,0-0.3,0.1-0.5C8.7,5.5,8.8,5.4,9,5.3L9,5.2L8.6,5
	C8.6,5,8.5,4.9,8.5,4.9c0,0,0-0.1,0-0.1c0,0,0,0,0,0l0.8,0L9,4.5h0c0,0,0,0,0,0l0,0l0,0c0,0,0,0,0,0c0,0,0.1,0,0.1,0
	c0.3-0.1,0.5-0.1,0.7,0.1C9.8,4.4,10,4.6,10,4.6z M9.5,8.1c0,0.1,0,0.2-0.1,0.3C9.3,8.6,9.3,8.7,9.1,8.7c-0.2,0-0.3,0-0.3,0l0,0l0,0
	c0-0.1,0.1-0.2,0.3-0.4C9.3,8.1,9.4,8,9.5,8.1L9.5,8.1L9.5,8.1C9.5,8.1,9.5,8.1,9.5,8.1z M11.7,4.8c0-0.2,0-0.3,0.1-0.3
	c0,0.5,0,0.9,0,1.2c-0.1-0.1-0.1-0.2-0.1-0.3C11.6,5.2,11.6,5,11.7,4.8z M10.3,7.7L10.3,7.7c0,0.2-0.1,0.6-0.2,1
	C9.9,9.3,9.7,9.6,9.5,9.5c0,0,0,0,0-0.1c0-0.1,0.1-0.3,0.2-0.7l0.1-0.3C10,8,10.1,7.8,10.3,7.7l0-0.2l0,0.1
	C10.2,7.7,10.3,7.7,10.3,7.7L10.3,7.7L10.3,7.7L10.3,7.7L10.3,7.7z M11.2,9.1c0.1,0.2,0.2,0.3,0.3,0.4c0,0,0,0.2,0,0.4
	c0,0.2,0,0.4,0,0.4c0,0.1-0.1,0.3-0.3,0.5c-0.1-0.1-0.1-0.2-0.1-0.5l0-1c0-0.2,0.1-0.3,0.2-0.4C11.2,9,11.2,9.1,11.2,9.1z M11.2,9.4
	C11.2,9.4,11.2,9.3,11.2,9.4L11.2,9.4L11.2,9.4C11.3,9.4,11.2,9.4,11.2,9.4z M10.8,8.7c0,0.1,0,0.1,0,0.2c0,0.4,0,0.7-0.1,1
	c-0.1,0.5-0.3,0.7-0.7,0.7c0,0,0,0,0,0v0l0,0v-0.1h0c0.1-0.3,0.2-0.6,0.3-0.9C10.4,9.2,10.6,9,10.8,8.7L10.8,8.7L10.8,8.7L10.8,8.7
	C10.8,8.7,10.8,8.7,10.8,8.7z M9.7,9L9.6,9.4l0.1,0V9.3C9.6,9.2,9.6,9.1,9.7,9z M7,3.4L7,3.5l0,0C7,3.4,7,3.4,7,3.4L7,3.4z M4.7,5.6
	c0.1,0,0.3,0.2,0.4,0.4c0.2,0.2,0.3,0.4,0.3,0.5v0.3c0,0,0,0-0.1,0c0,0,0,0-0.1,0L5.2,6.7c0,0.1,0,0.2,0,0.3c0,0-0.1,0-0.1,0
	L4.7,6.9c0,0.1,0,0.2,0,0.2c0,0.1,0,0.1,0,0.2l-0.8,0c-0.1,0-0.3-0.1-0.5-0.1c0,0,0,0,0-0.1s0.1-0.2,0.4-0.4
	c0.2-0.2,0.4-0.3,0.5-0.3L3.9,6.1c0,0,0,0,0-0.1V6c0,0,0,0,0,0h0.2l0.6,0.1L4.7,5.6z M4.2,8.3L4.2,8.3c0,0.1,0,0.2-0.1,0.3
	C4,8.6,3.9,8.6,3.7,8.6c-0.2,0-0.3,0-0.4-0.1L3.2,8.5c0-0.1,0-0.1,0-0.2h0c0.1-0.1,0.2-0.2,0.4-0.2C3.9,8,4,8,4.2,8.3L4.2,8.3
	L4.2,8.3L4.2,8.3C4.1,8.3,4.2,8.3,4.2,8.3z M6.7,6.5L6.7,6.5L6.7,6.5C6.9,6.5,6.9,6.4,7,6.4c0.4-0.2,0.6,0,0.7,0.4
	C7.8,6.9,7.9,6.9,7.9,7l0,0.1C7.7,7.2,7.5,7.2,7.5,7.2l0,0l0,0c0.1,0,0.2,0.1,0.2,0.1c0,0,0,0,0,0.1c0,0.2-0.1,0.3-0.4,0.4L6.9,8.1
	L6.6,8l0,0V7.9c0,0,0.1-0.2,0.2-0.4C6.8,7.4,6.9,7.3,7,7.2l-0.3,0c-0.2,0-0.3,0-0.3,0l0-0.1v0c0-0.1,0-0.2,0.1-0.3l0-0.1
	C6.6,6.6,6.6,6.5,6.7,6.5C6.8,6.5,6.7,6.5,6.7,6.5z M6.5,7.1L6.5,7.1L6.5,7.1L6.5,7.1z M7.6,6.5c0-0.1-0.1-0.1-0.1-0.1l0,0
	C7.4,6.4,7.6,6.5,7.6,6.5z M3.4,7.1L3.4,7.1L3.4,7.1C3.4,7.1,3.4,7.1,3.4,7.1z"/>
<path class="st2" d="M14.6,5.9L14.6,5.9L14.6,5.9L14.8,6l0,0c0.2,0.1,0.3,0.2,0.4,0.2c0.1,0.1,0.1,0.2,0.1,0.3v0c0,0,0,0.1,0,0.1
	c0,0.1-0.1,0.1-0.1,0.1c0,0,0.1,0.1,0.1,0.1c0,0,0.1,0.1,0.1,0.1c0,0,0,0,0,0.1l0,0l0,0l0,0l0,0.1l0,0c-0.1,0-0.2-0.1-0.4-0.1
	l0.1,0.2c0.1,0.2,0.1,0.3,0.1,0.4l0.1,0.7l0,0h0c0,0-0.1-0.1-0.2-0.2L15,8.1v0.5l0.3,0l0,0h0L16,9.5l0,0.1c-0.2,0-0.3,0-0.3,0
	l-0.1,0l0.1,0l0,0c0.2,0.1,0.3,0.3,0.3,0.4l0,0.1c0,0.1,0,0.2,0,0.3l0,0.1c0,0,0,0,0,0l-0.6-0.4l0,0v0l0.2,0.5
	c0.1,0.2,0.2,0.4,0.2,0.5l0,0.1c-0.1,0-0.2-0.1-0.3-0.2c0.2,0.2,0.3,0.4,0.4,0.6c0.1,0.2,0.1,0.4,0.1,0.5v0l0,0.1c0,0,0,0,0,0.1
	c-0.1-0.1-0.3-0.2-0.6-0.3l0,0l0,0l0.1,0.4c0,0,0,0.1,0,0.1c0,0.1,0,0.2,0.1,0.3l0,0.2V13c0,0.1,0,0.1,0,0.1h0c0,0,0,0,0,0v0l0,0
	l0,0l0-0.1L15,12.7l-0.1-0.1v0l0,0.4c0,0.2,0,0.3,0,0.4v0.1l0,0h0c0,0.1,0,0.1-0.1,0.1c-0.1,0-0.1,0-0.1-0.1l0,0
	c0-0.1-0.1-0.1-0.1-0.2l0,0v0c0-0.1,0-0.1,0-0.2c0,0,0,0,0,0l0,0c0-0.1,0-0.2,0-0.3l0,0v0l-0.1,0.3c-0.1,0.3-0.2,0.6-0.3,0.7
	c0,0,0,0.1-0.1,0.1l0-1.2c0,0.1-0.1,0.4-0.2,0.7l-0.2,0.7c0-0.1-0.1-0.1-0.1-0.2l0-0.2c0,0.2-0.1,0.4-0.2,0.7
	c-0.1,0.3-0.3,0.5-0.4,0.7l0,0c0-0.2,0-0.4-0.1-0.8l0,0c0,0,0,0.1-0.1,0.3c0,0.1-0.1,0.2-0.1,0.3c0,0,0,0,0,0.1l-0.1-0.4
	c0-0.2-0.1-0.3-0.1-0.4c0,0,0,0,0,0.1c0,0.1,0,0.1,0,0.2l0,0c0,0,0,0.1,0,0.1c0,0.2-0.1,0.3-0.1,0.4c-0.1-0.1-0.2-0.2-0.2-0.3
	l-0.1-0.3h0l0,0.4c0,0.2,0,0.3-0.1,0.4c-0.1-0.2-0.2-0.4-0.2-0.5l0,0c-0.1,0.2-0.3,0.4-0.4,0.5c0-0.1,0-0.1,0-0.2l0-0.2l0,0l0,0.5
	c0,0.2,0,0.3-0.1,0.3c-0.1,0-0.2-0.1-0.3-0.2c-0.1-0.1-0.2-0.2-0.2-0.3l-0.2,0.3c0,0,0,0-0.1,0l0-0.1l-0.2,0.4
	c-0.1,0.2-0.2,0.3-0.2,0.4c-0.1-0.2-0.2-0.5-0.2-1l0,0c0,0-0.1,0.1-0.3,0.3l-0.3,0.4l0-0.5c0,0-0.1,0-0.2,0.1l-0.2,0.1
	c0,0,0,0,0-0.1c0-0.2,0.1-0.5,0.2-0.9l0.1-0.2l-0.3-0.1c0,0.2,0,0.4,0,0.4c0,0.1,0,0.2,0,0.4C8.1,15,8,15,7.9,14.9
	c-0.1,0-0.1-0.1-0.1-0.1l0,0l-0.1-0.3l0,0.3l0,0.1l-0.1,0.4l0,0.1l0,0.1l0,0v-0.2c0-0.1,0-0.2,0-0.3c-0.1,0.1-0.1,0.2-0.1,0.3
	c0,0.1,0,0.1,0,0.1c0,0.1,0,0.2,0,0.2h0c0,0,0,0,0,0h0c0,0-0.1,0-0.2-0.1l-0.1,0c0,0,0,0,0,0c0,0,0,0,0,0c-0.1,0-0.2-0.1-0.2-0.2
	c-0.1-0.1-0.1-0.3-0.1-0.5v0l0-0.2v0l0,0.1v0c0,0.2,0,0.4-0.1,0.5l0,0.1l0,0l-0.6,0.4c0-0.2,0-0.3,0.1-0.5l0-0.7l0,0
	c0,0,0,0.1,0,0.1c0,0,0,0,0,0.1l0,0.1c0,0.1,0,0.2-0.1,0.3l0,0.1c0,0,0,0,0,0.1c-0.1,0.1-0.1,0.3-0.2,0.4l-0.1,0.1
	c0,0.1-0.1,0.1-0.1,0.2c-0.1-0.1-0.1-0.2-0.1-0.3L5,15.2c0-0.2,0-0.3,0-0.5c0-0.1,0-0.1,0-0.2c0,0,0,0,0,0c0-0.1,0-0.1,0,0.1
	c0,0,0,0.1,0,0.2l-0.2,0.8v0l-0.1-0.3c-0.1-0.3-0.2-0.4-0.2-0.4l0,0c0,0,0,0.2,0,0.4v0.1c0,0.2,0,0.4,0,0.5l0,0.2
	c-0.1,0-0.2-0.1-0.3-0.2C4,15.5,4,15.4,3.9,15.2l0-0.1l0,0.1c0,0.1,0,0.3,0,0.5c0,0,0,0,0,0l0,0l0,0c-0.1-0.1-0.1-0.3-0.2-0.5
	c-0.1-0.2-0.1-0.3-0.1-0.3c0,0,0,0.1,0,0.1c0,0.1,0,0.1,0,0.2l0,0c0,0.2,0,0.3,0.1,0.5c-0.1-0.2-0.2-0.3-0.3-0.3
	c-0.1-0.1-0.1-0.2-0.1-0.2h0l0,0c0-0.1,0-0.2,0-0.4C3,15,3,15.1,3,15.2l0,0l0,0.1c-0.1,0.2-0.2,0.2-0.5,0.2l0-0.3l0.1-0.5
	c0-0.1,0-0.1,0-0.1c0,0,0,0-0.1,0.1l-0.1,0.1C2.3,15,2.2,15.1,2,15.2c0-0.1,0-0.2,0-0.4l0-0.1c0.1-0.1,0.1-0.2,0.2-0.2
	c0.1-0.1,0.1-0.2,0.1-0.4c0-0.2,0-0.3,0-0.4c0-0.3-0.1-0.4-0.1-0.4c-0.1,0.1-0.2,0.3-0.2,0.4C2,13.8,2,13.9,2,14l0,0l0,0.1l0,0.2
	l-0.1,0.4c0,0,0,0.1,0,0.1c0,0.1-0.1,0.3-0.2,0.4c-0.1,0.1-0.2,0.3-0.2,0.3v0c0-0.1-0.1-0.2-0.1-0.3l0-0.3c0-0.1,0-0.1,0-0.2h0
	l0-0.1l0,0.1c0,0,0,0,0,0L1.2,15c0,0.1-0.1,0.1-0.1,0.1l0,0.1c-0.1,0.1-0.2,0.2-0.3,0.2c0,0-0.1,0-0.1,0l-0.1-0.1h0l0.1,0l0,0
	c0,0,0-0.1,0.1-0.1c0,0,0-0.1,0-0.1l0.2-0.3l0-0.1h0l-0.1,0l-0.1,0c-0.1,0-0.1,0-0.2-0.1l-0.1-0.1L0,14.1l0.1,0h0.2
	c0.1,0,0.2-0.1,0.2-0.1L0.7,14l0,0h0.1c0.1,0,0.2,0,0.3-0.1l0,0l0,0.1C1,14.1,1,14.3,1,14.4c0,0.1,0,0.2,0.1,0.3l0,0.1
	c0,0.1,0,0.1,0.1,0.2c0-0.1,0-0.1,0-0.2c0-0.1,0.1-0.2,0.1-0.3l0.1-0.1c0.1,0,0.2-0.1,0.3-0.3c0.1-0.2,0.2-0.4,0.3-0.4
	c0,0,0,0,0.1,0c0-0.1,0-0.1-0.1-0.1l-0.1,0c0,0-0.2,0-0.4,0.1l-0.1,0c-0.1-0.1-0.2-0.2-0.4-0.3c0.2,0.1,0.3,0,0.4-0.1l0,0
	C1.5,13.1,1.6,13,1.5,13c-0.1,0-0.2,0-0.3-0.1L1,12.7c0.2,0.1,0.3,0,0.4-0.2c0.1-0.1,0.2-0.2,0.3-0.1C1.4,12.2,1.2,12,1,11.6
	c0.3-0.1,0.6-0.2,0.9-0.4l0,0c-0.1,0.1-0.3,0.1-0.4,0.1c-0.1,0-0.3-0.1-0.4-0.3h0v0c0,0,0,0,0-0.1c0.2-0.2,0.5-0.2,0.8-0.1
	C2,10.9,2.1,11,2.1,11l-0.3-0.4c-0.3-0.2-0.6-0.3-0.8-0.2c0.2-0.4,0.4-0.6,0.6-0.6c-0.2,0-0.4,0-0.6-0.1C0.9,9.6,0.8,9.5,0.7,9.3
	L0.6,9.2C0.7,9.1,0.8,9.1,0.9,9C1,8.9,1.1,8.9,1.2,8.9l0,0.5c0.1,0,0.3-0.1,0.6-0.3l0.1,0.1c0,0,0,0,0.1,0L2.2,9
	C2.1,9.2,2,9.3,1.9,9.4C1.8,9.5,1.8,9.5,1.6,9.5c-0.1,0-0.1,0-0.2,0c0,0,0,0.1,0.1,0.2l0,0.1c0,0.1,0.1,0.1,0.2,0.2
	c0,0,0.1,0.1,0.1,0.1c0.1,0,0.1,0,0.1,0C2.1,10,2.2,10,2.2,9.9c0.1-0.1,0.2-0.2,0.2-0.3L2.3,10c0,0.1-0.1,0.2-0.1,0.2
	c0,0,0,0.1,0,0.2c0,0.1,0,0.2,0,0.3l0.7-0.2l-0.1,0.1c-0.1,0.1-0.2,0.3-0.3,0.4c-0.1,0.1-0.1,0.3-0.1,0.5l0.4-0.1
	c0,0.1-0.1,0.1-0.1,0.2c0,0.1-0.1,0.3-0.1,0.4c0,0.1,0,0.1,0,0.2c0,0,0.1,0,0.2-0.1C2.9,11.9,3,11.9,3,11.8c0.1-0.2,0.2-0.3,0.3-0.5
	L3.1,12c0,0.1-0.1,0.3-0.1,0.4c0,0,0,0.2,0.1,0.4c0,0.2,0.1,0.3,0.1,0.3l0.3-0.6c0,0.1-0.1,0.2-0.1,0.4c0,0.2,0,0.3,0,0.5
	c0,0.2,0.1,0.3,0.1,0.5l0.1-0.3c0-0.2,0.1-0.3,0.1-0.5c0-0.2,0-0.4,0-0.5l0.1,0.4L4,12.6c-0.1,0.5-0.1,0.9,0.1,1l0.3-1.1
	c0,0.1,0,0.2,0.1,0.4l0.2,0.9c0-0.3,0.1-0.6,0.1-1c-0.1-0.3-0.2-0.6-0.2-1.1l0.1-0.6c0,0.1,0,0.2,0,0.4l0.1,0.3l0.1-0.1l0.2-0.5
	c0,0.2,0,0.4-0.1,0.6l0,0.2l0,0.3c0,0.3,0.1,0.6,0.2,0.9c0-0.1,0.1-0.2,0.1-0.2c0-0.1,0-0.2,0-0.3l-0.2-0.3l0.1,0c0,0,0.1,0,0.1,0
	c0-0.2,0-0.4,0-0.6v0l-0.1,0.1l0,0l0.1-0.2l0.1-0.2h0c0,0,0.1,0,0.1,0.1l0.2,0l0,0c0.1,0,0.1-0.1,0.2-0.1l0,0l0,0l-0.2,0.3L5.6,12
	l0-0.3l-0.1,0h0l-0.2,0.1l0.3,0.5l0-0.2c0.1,0,0.1,0.1,0.2,0.1h0.1c0.1,0,0.2-0.1,0.3-0.2l-0.1,0.3c0,0.1,0,0.2,0,0.3
	c0,0.1,0,0.2,0.1,0.3l0,0l0,0l0.1,0.2c0-0.1,0-0.1,0-0.2c0-0.1,0.1-0.2,0.1-0.3l0-0.1l0,0h0l0,0l0,0l0,0l0,0c0.1,0,0.1-0.1,0.2-0.3
	C6.8,12,6.9,11.9,7,11.8c0,0,0,0,0.1,0c0-0.1,0-0.1,0-0.1l-0.1,0c0,0-0.2,0-0.4,0.1l-0.1,0l0,0c-0.1-0.1-0.2-0.2-0.3-0.3
	c0.1,0,0.2,0,0.2,0c0.1,0,0.1-0.1,0.1-0.1l0.2-0.3c0,0-0.1,0-0.1,0c-0.1,0-0.1-0.1-0.2-0.1l-0.2-0.2h0l0,0c0.2,0.1,0.3,0,0.4-0.3
	l0,0h0.2c0.5,0,0.8-0.1,1-0.4l0,0.1L8.1,10c0.1-0.2,0.2-0.3,0.3-0.5c-0.1,0.2-0.1,0.4-0.2,0.6c0,0.1-0.1,0.3-0.1,0.4
	c0,0,0,0.2,0.1,0.4c0,0.2,0.1,0.3,0.1,0.3l0.2-0.4l0,0v0.2c0,0.1,0,0.2,0,0.3V12c0,0.2,0.1,0.4,0.1,0.6c0,0.2,0.1,0.4,0.2,0.6h0l0,0
	l0-0.8c0,0.1,0.1,0.3,0.2,0.7c0.1,0.3,0.3,0.5,0.5,0.5c0.1,0,0.1-0.1,0.1-0.3c0-0.2,0-0.3,0-0.5c0.1,0.2,0.3,0.6,0.6,0.9
	c0-0.2,0-0.5,0-0.8l0.3,0.2c0.1,0.1,0.3,0.1,0.6,0.1c0,0,0.1,0,0.1,0l0-0.2c0-0.1,0-0.1,0-0.2l-0.1-0.3c0.1,0,0.2,0.1,0.4,0.2
	c0.2,0.1,0.4,0.2,0.5,0.2c0.1,0,0.1,0,0.1-0.1c-0.1-0.2-0.1-0.3-0.1-0.4c0.3,0,0.6,0,0.9,0l0-0.1c0-0.1,0-0.2-0.1-0.3
	c0-0.2-0.1-0.3-0.1-0.3H13c0,0,0.1,0,0.2,0c0,0,0,0,0-0.1c0-0.1,0-0.2-0.1-0.3l-0.1-0.2h0.4l0.1-0.1l0,0l0,0h0l0,0v-0.1
	c0-0.2-0.2-0.5-0.5-0.7l0.3,0c0.1,0,0.3,0,0.4-0.1c0.1-0.1,0.2-0.2,0.2-0.3c0-0.1,0-0.2-0.1-0.3c0-0.1-0.1-0.1-0.2-0.2l0.6,0
	c0,0,0,0,0-0.1c0-0.3-0.2-0.7-0.6-1v0c0.3-0.1,0.5-0.3,0.5-0.6c0-0.1,0-0.2-0.1-0.2c0-0.1-0.1-0.1-0.3-0.2l0.5-0.3
	c0.1-0.1,0.2-0.2,0.2-0.3l0,0l0,0l0,0c0,0,0,0,0,0l0,0c-0.1-0.1-0.1-0.2-0.2-0.3c-0.2-0.1-0.4-0.2-0.8-0.2c0.1-0.1,0.1-0.2,0.2-0.3
	C14,5.9,14,5.8,14,5.7v0l0,0c0-0.1-0.1-0.1-0.1-0.2c-0.1-0.1-0.2-0.1-0.3-0.1l0-0.1l-0.1,0c-0.1,0-0.2-0.1-0.3-0.2
	C13.3,5.1,13.5,5,13.6,5c0.1,0,0.2,0,0.2,0c0-0.1,0-0.2-0.1-0.3l0,0l-0.1-0.2c-0.1-0.1-0.1-0.2-0.3-0.3C13.7,4,13.9,3.9,14,3.6
	c0,0,0,0,0,0V4l-0.2,0.6l0,0l0.7-0.5c0,0.3-0.1,0.6-0.2,0.8l-0.1,0.2l-0.1,0.1l0.1-0.1c0.2-0.1,0.4-0.1,0.7,0
	c-0.1,0.3-0.3,0.6-0.5,0.8L14.6,5.9L14.6,5.9L14.6,5.9z M11.2,9.4L11.2,9.4L11.2,9.4L11.2,9.4C11.2,9.3,11.2,9.4,11.2,9.4L11.2,9.4z
	 M15.5,13.1L15.5,13.1L15.5,13.1L15.5,13.1L15.5,13.1z M0.5,12.7L0.5,12.7c-0.1-0.1-0.2-0.1-0.2-0.2c-0.1-0.1-0.1-0.2-0.1-0.3
	c0-0.1-0.1-0.1-0.1-0.2L0,11.8c0,0,0,0,0.1,0.1l0.1,0l0,0l0.1,0l0.1,0c0,0,0.1,0,0.2-0.1h0l0,0.1l0,0.1c0,0.1-0.1,0.2-0.1,0.3
	c0.2,0,0.3-0.1,0.3-0.1c0,0,0.1-0.1,0.1-0.1l-0.1,0.4C0.7,12.5,0.6,12.6,0.5,12.7z M0.1,13.6L0.1,13.6c0,0,0-0.1,0.1-0.2
	c0,0,0,0,0-0.1c0-0.1,0.1-0.1,0.1-0.2l0,0l0.1,0.1c0.1,0,0.1,0,0.2,0c0.1,0,0.2,0,0.2-0.1c0,0,0,0,0,0l0,0l-0.2,0.3l0,0
	c-0.1,0-0.1-0.1-0.2-0.1h0C0.3,13.5,0.3,13.5,0.1,13.6L0.1,13.6L0.1,13.6C0.1,13.6,0.1,13.6,0.1,13.6z M7.1,12.2c0,0.1,0,0.3,0,0.7
	l0.1-0.1c0.1-0.1,0.1-0.1,0.2-0.2c0.1-0.1,0.1-0.2,0.1-0.4c0-0.2,0-0.3,0-0.4l0-0.1c0-0.2-0.1-0.3-0.1-0.2c0,0-0.1,0.1-0.1,0.1
	c-0.1,0.1-0.1,0.2-0.1,0.3L7.1,12.2L7.1,12.2z"/>
</svg>
