<?xml version="1.0" encoding="utf-8"?>
<!-- Generator: Adobe Illustrator 21.1.0, SVG Export Plug-In . SVG Version: 6.00 Build 0)  -->
<svg version="1.1" id="Layer_1" xmlns="http://www.w3.org/2000/svg" xmlns:xlink="http://www.w3.org/1999/xlink" x="0px" y="0px"
	 viewBox="0 0 16 16" style="enable-background:new 0 0 16 16;" xml:space="preserve">
<style type="text/css">
	.st0{fill:#61DAFB;}
</style>
<g id="base-layer_1_">
	<path d="M5.5,0.1c0,0.1,0.2,0.1,0.3,0.2C6,0.3,6.3,0.5,6.5,0.7c-0.1,0-0.2,0-0.3,0.1c0,0.1,0.2,0,0.2,0.1c-0.2,0-0.6-0.1-0.9-0.1
		C5.7,0.9,6,0.9,6.2,1C6.1,1.1,5.9,1.1,5.8,1.3c0,0.1,0.2,0,0.1,0C5.8,1.6,5.5,1.6,5.5,1.9c0.1,0,0.1,0,0.2,0
		c0.1,0.2-0.2,0.3-0.2,0.5c0,0.1,0.1,0,0.2,0c0.1,0.1-0.2,0.4,0,0.6c0.1,0,0-0.2,0.1-0.2c0.1,0.1-0.1,0.4,0.1,0.5
		c0.1,0,0-0.1,0.1-0.1c0.2,0.1-0.1,0.4,0,0.5c0,0,0.1-0.1,0.2-0.1C6.1,3.8,5.8,3.9,6,4.1C6,4.2,6,4,6.1,4C6.3,4.2,5.9,4.3,6,4.5
		c0.1,0,0-0.1,0.1-0.1c0.1,0.2-0.2,0.2-0.2,0.5c0,0.1,0,0,0.1,0c0,0.2-0.2,0.3-0.2,0.5C5,6.3,4,5.5,4.4,4.3c0.1-0.4,0.6-0.8,0.5-1.2
		C4.8,3.2,4.8,3.3,4.6,3.4C4,3.8,2.9,3.7,2.4,4.2C2.6,4.2,3,3.9,3.3,4C2.7,4.4,1.9,4.8,1.5,5.6c-1.1,1.8-1.3,4.8-0.5,6.6
		c-0.3,0.4-0.9,0.7-0.9,1.4c0.5-1,1.3-1.4,2.3-1.2c1.8,0.2,2.9,2.2,5,3.1C8,15.7,8.6,16,9.5,16c4.3,0.4,6.9-2.4,6.6-6
		c-0.3-3.5-2.4-5.4-4.8-6.3C11,3.1,10.1,3.1,9.3,3C8.8,2.9,8.6,2.8,8.1,2.9C8.7,3.1,9.3,3.7,9,4.4C8.9,4.8,8.5,5,8.2,5.1
		C8,5.1,7.6,5,7.5,4.9C7.4,4.8,7.4,4.5,7.4,4.2c-0.1-1-1-1.7-0.7-2.4c0.1,0,0.1,0.1,0.2,0.2c0.4,0,0.8,0.2,0.7,0.5
		c0,0.2-0.3,0.3-0.2,0.5c0.1-0.1,0.1-0.2,0.2-0.3C7.7,2.8,8,2.6,8.1,2.5c0-0.1-0.1,0.1-0.2,0c0-0.2-0.1-0.2-0.2-0.4
		c0.2,0,0.1,0.2,0.3,0.2C8,2.1,7.8,2,7.6,1.8c0.2,0,0.2,0.2,0.5,0.2c0,0.2,0.2,0,0.1,0.2c0,0,0.1,0,0.1,0c0,0.1-0.1,0.1-0.2,0.2
		c0.1,0.1,0.3,0,0.3-0.1c0.1,0,0,0.1,0.1,0.1c0.3-0.1,0.2-0.6,0.1-0.8c-0.1,0,0,0.1,0,0.2C8.4,1.8,8.2,1.6,8,1.5
		c0-0.1,0.1-0.1,0-0.2C8,1.2,7.8,1.2,7.7,1.1C7.3,0.8,7.3,0.3,6.8,0.1c0.1,0.1,0.3,0.3,0.3,0.4C7.1,0.6,7,0.5,6.8,0.5
		c0,0.1,0.1,0.1,0.1,0.2C6.4,0.5,6.1,0.2,5.5,0.1L5.5,0.1z M10.3,6.2c0.6-0.1,1,0.7,0.8,1.3c0.4,0,0.5,0.3,0.6,0.6
		c-0.2-0.1-0.6-0.1-0.7-0.3c-0.1-0.1,0.1-0.1,0.2-0.1c-0.2-0.2-0.6-0.1-0.8-0.2c-0.1-0.2,0.1-0.2,0.1-0.2C10.4,7,10,7.1,9.8,7
		c0-0.2,0.1-0.1,0.1-0.2c0-0.1-0.1-0.1-0.1-0.1C10,6.5,10,6.2,10.3,6.2L10.3,6.2z M6.1,9.1c0.2,0.2,0.2,1,0.2,0.8
		C6.2,10,6,9.5,5.6,9.7c0,0.8,0.6,0.9,0.4,1.8c-0.6,0.4-1.8,0.2-2.2,0.6c-0.9-0.4-2-0.4-2.7,0C1,11.8,0.8,11,0.9,10.3
		c0.1-0.6,0.2-1.4,0.6-1.5C1.8,8.7,1.9,9,2,9c0-0.1,0-0.3,0.1-0.3c0.3,0.4,0.3,1.2,0.8,1.4C2.7,9.7,2.4,9.2,2.6,8.6
		c0-0.1,0.2,0,0.2-0.1c-0.1-0.3,0-1.3,0.4-1.4c0.4-0.1,0.6,0.3,0.6,0.6c0.1,0,0-0.1,0.1-0.1c0.2,0.2,0.3,0.5,0.6,0.6
		C4.5,8.1,4.3,7.8,4.5,7.5c0.1,0,0.2-0.1,0.2-0.3c0.5-0.3,1,0.2,1,0.7c0,0.4-0.4,0.6-0.5,0.9c0,0-0.1,0-0.2,0.1
		c-0.1,0.1-0.3,1.1-0.3,1c0,0,0.1,0.2,0.1,0.4c0,0.2-0.1,0.4,0,0.5C4.7,11,5,11.1,5.1,10.9c-0.1,0-0.2,0-0.3-0.1
		c0-0.1,0.2-0.1,0.2-0.2c0.1,0.2,0.6,0.1,0.5-0.1c-0.1,0.1-0.3,0-0.4-0.1c0.2-0.3,0-0.5-0.1-0.7c0.1-0.1,0.1-0.2,0.2-0.4L6.1,9.1
		L6.1,9.1z M12.3,8.1c0.5-0.4,1.3,0.1,1.1,0.8c0.9,0.2,0.3,1.3,0,1.5c0-0.1-0.1-0.1-0.1-0.2c0-0.1,0.1,0,0.1-0.1
		c-0.1-0.3-0.5-0.3-0.6-0.6C12.8,9.4,13,9.5,13,9.3c-0.2-0.2-0.7-0.2-0.7-0.6c0-0.1,0.1,0.1,0.2,0c-0.1-0.2-0.5-0.2-0.6-0.4
		C11.9,8.3,11.9,8,12,7.8c0.1,0,0.1,0,0.2,0C12.3,7.9,12.2,8.1,12.3,8.1L12.3,8.1z M14.8,11.2c0.1,1.3-0.4,3-1.2,3.3
		c0.6-0.8,0.2-3,0-3.9c0.3-0.2,0.4-0.5,0.7-0.6c0.1,0.1,0.1,0.2,0,0.3C14.8,10.4,14.8,10.8,14.8,11.2L14.8,11.2z M8.5,12.7
		c0.1,0,0.2,0.1,0.4,0.1C9,12.7,9,12.6,9.1,12.5c0.2,0.3,0.4,0.4,0.6,0.3c0.1,0.2-0.1,0.4-0.1,0.5c0.2-0.1,0.3-0.2,0.3-0.6
		c0.2,0.2,0.4,0.4,0.6,0.2c0.1,0.2-0.1,0.4,0,0.4c0.2-0.1,0.3-0.4,0.1-0.7c1.4,0.6-0.4,1.4-1.1,1.5c-1.9,0.3-4.1-1.2-5-1.7
		c0,0,0.1,0,0.1-0.1c0.4,0,0.8,0.3,1.3,0.1C6,12.5,6,12.6,6.2,12.7c0.2,0,0.1-0.2,0.3-0.2c0,0,0,0.1,0.1,0.1
		c0.2,0.2-0.1,0.3-0.1,0.3c0.2,0,0.2-0.1,0.3-0.2c0-0.1-0.1-0.2-0.1-0.3c0.4-0.2,1.1-0.2,1.7,0c0,0.2,0,0.7,0.3,0.8
		C8.6,13,8.5,12.9,8.5,12.7L8.5,12.7z"/>
</g>
<g>
	<path class="st0" d="M6,6.2c0-0.1,0.1-0.2,0.2-0.2c0-0.2,0-0.3,0.1-0.3c0,0,0,0,0,0l0,0.1c0,0,0,0,0,0c0,0,0,0.1,0,0.2
		c0,0,0,0,0,0.1c0,0,0.1,0,0.1,0c0-0.1,0.1-0.1,0.1-0.1C6.5,5.7,6.4,5.7,6.4,5.7l0-0.1l0,0c0.1,0,0.1,0,0.2,0.1
		c0.1-0.1,0.2-0.2,0.3-0.2l0,0.1c-0.1,0-0.1,0.1-0.2,0.2c0,0,0.1,0.1,0.1,0.1c0.1,0,0.1,0,0.2,0c0,0,0-0.1,0-0.1
		c0-0.1,0-0.2-0.1-0.2c0,0,0,0,0,0l0-0.1l0,0c0,0,0,0,0.1,0C7,5.5,7.1,5.7,7,5.9c0.2,0,0.4,0.1,0.4,0.3c0,0.1-0.2,0.2-0.4,0.3
		C7.1,6.7,7.1,6.9,7,7C7,7,7,7,6.9,7C6.8,7,6.7,6.9,6.6,6.7C6.5,6.8,6.4,6.9,6.3,6.8c0,0,0,0-0.1,0c-0.1-0.1-0.1-0.2,0-0.4
		C6.1,6.3,6,6.2,6,6.2z M6.3,6c0,0,0,0.1,0,0.1C6.4,6.1,6.4,6,6.3,6C6.4,6,6.4,6,6.3,6C6.4,6,6.4,6,6.3,6z M6.4,6.3
		c0,0,0,0.1,0.1,0.1c0,0,0.1,0,0.1,0c0,0,0.1,0,0.1,0c0,0,0.1-0.1,0.1-0.1c0,0,0-0.1,0.1-0.1c0,0,0-0.1-0.1-0.1c0,0,0-0.1-0.1-0.1
		c0,0-0.1,0-0.1,0c0,0-0.1,0-0.1,0c0,0,0,0.1-0.1,0.1c0,0,0,0.1-0.1,0.1C6.4,6.2,6.4,6.2,6.4,6.3z M6.3,6.2c0,0,0,0.1,0,0.1
		c0,0,0.1,0,0.1,0C6.4,6.4,6.4,6.3,6.3,6.2C6.4,6.3,6.3,6.3,6.3,6.2z M6.6,6.6c0,0,0.1-0.1,0.1-0.1c0,0-0.1,0-0.1,0c0,0-0.1,0-0.1,0
		C6.5,6.5,6.6,6.6,6.6,6.6z M6.8,6.4c0,0,0.1,0,0.1,0c0,0,0-0.1-0.1-0.1C6.9,6.3,6.9,6.3,6.8,6.4C6.8,6.4,6.8,6.4,6.8,6.4z M6.6,5.8
		C6.6,5.8,6.6,5.8,6.6,5.8C6.6,5.9,6.6,5.9,6.6,5.8C6.6,5.9,6.7,5.9,6.6,5.8C6.7,5.8,6.6,5.8,6.6,5.8z M6.8,5.9
		C6.8,5.9,6.8,6,6.8,5.9C6.9,6,6.9,6,6.9,6.1c0,0,0-0.1,0-0.1C6.9,5.9,6.9,5.9,6.8,5.9z M7.1,6.3c0.1-0.1,0.2-0.1,0.2-0.2
		C7.4,6.1,7.3,6,7.1,6c0,0-0.1,0-0.1,0C7,6,7,6.1,6.9,6.2C7,6.2,7,6.3,7,6.4C7.1,6.4,7.1,6.4,7.1,6.3z M7,6.9C7,6.9,7,6.8,7,6.6
		c0,0,0-0.1,0-0.1c-0.1,0-0.1,0-0.2,0c0,0.1-0.1,0.1-0.1,0.2C6.7,6.8,6.8,6.9,7,6.9C6.9,6.9,6.9,6.9,7,6.9z M6.3,6.5
		c0,0.1,0,0.2,0,0.2c0,0,0,0,0,0c0.1,0,0.1,0,0.2-0.1c0-0.1-0.1-0.1-0.1-0.2C6.4,6.4,6.3,6.4,6.3,6.5C6.3,6.4,6.3,6.5,6.3,6.5z
		 M6.2,6.3C6.2,6.3,6.2,6.3,6.2,6.3c0.1,0,0.1-0.1,0.1-0.1c0-0.1,0-0.1,0-0.2c0,0,0,0-0.1,0c-0.1,0-0.1,0.1-0.1,0.1
		C6.1,6.2,6.1,6.3,6.2,6.3z"/>
	<path class="st0" d="M6.9,5.5L6.9,5.5L6.9,5.5z"/>
	<path class="st0" d="M6.6,6C6.5,6,6.5,6.1,6.5,6.2c0,0.1,0,0.1,0.1,0.1c0.1,0,0.1-0.1,0.1-0.1C6.7,6.1,6.7,6,6.6,6z"/>
	<path class="st0" d="M6.4,5.6L6.4,5.6L6.4,5.6z"/>
</g>
</svg>
