<?xml version="1.0" encoding="utf-8"?>
<!-- Generator: Adobe Illustrator 21.1.0, SVG Export Plug-In . SVG Version: 6.00 Build 0)  -->
<svg version="1.1" id="Layer_1" xmlns="http://www.w3.org/2000/svg" xmlns:xlink="http://www.w3.org/1999/xlink" x="0px" y="0px"
	 viewBox="0 0 16 16" style="enable-background:new 0 0 16 16;" xml:space="preserve">
<style type="text/css">
	.st0{fill:#1B1F2E;}
	.st1{fill:url(#SVGID_1_);}
	.st2{fill:url(#SVGID_2_);}
	.st3{fill:url(#SVGID_3_);}
	.st4{fill:url(#SVGID_4_);}
	.st5{fill:url(#SVGID_5_);}
	.st6{fill:url(#SVGID_6_);}
	.st7{fill:url(#SVGID_7_);}
	.st8{fill:url(#SVGID_8_);}
	.st9{fill:url(#SVGID_9_);}
	.st10{fill:url(#SVGID_10_);}
	.st11{fill:url(#SVGID_11_);}
	.st12{fill:url(#SVGID_12_);}
	.st13{fill:url(#SVGID_13_);}
	.st14{fill:url(#SVGID_14_);}
	.st15{fill:url(#SVGID_15_);}
	.st16{fill:url(#SVGID_16_);}
	.st17{fill:url(#SVGID_17_);}
	.st18{fill:url(#SVGID_18_);}
	.st19{fill:url(#SVGID_19_);}
	.st20{fill:url(#SVGID_20_);}
	.st21{fill:url(#SVGID_21_);}
	.st22{fill:url(#SVGID_22_);}
	.st23{fill:url(#SVGID_23_);}
	.st24{fill:#938780;}
	.st25{fill:url(#SVGID_24_);}
	.st26{fill:url(#SVGID_25_);}
	.st27{fill:url(#SVGID_26_);}
	.st28{fill:url(#SVGID_27_);}
	.st29{fill:url(#SVGID_28_);}
	.st30{fill:url(#SVGID_29_);}
	.st31{fill:url(#SVGID_30_);}
	.st32{fill:url(#SVGID_31_);}
	.st33{fill:url(#SVGID_32_);}
	.st34{fill:url(#SVGID_33_);}
	.st35{fill:url(#SVGID_34_);}
	.st36{fill:url(#SVGID_35_);}
	.st37{fill:url(#SVGID_36_);}
	.st38{fill:url(#SVGID_37_);}
	.st39{fill:url(#SVGID_38_);}
	.st40{fill:url(#SVGID_39_);}
	.st41{fill:url(#SVGID_40_);}
	.st42{fill:url(#SVGID_41_);}
	.st43{fill:url(#SVGID_42_);}
	.st44{fill:url(#SVGID_43_);}
	.st45{fill:url(#SVGID_44_);}
	.st46{fill:url(#SVGID_45_);}
	.st47{fill:url(#SVGID_46_);}
	.st48{fill:url(#SVGID_47_);}
	.st49{fill:url(#SVGID_48_);}
	.st50{fill:url(#SVGID_49_);}
	.st51{fill:url(#SVGID_50_);}
	.st52{fill:url(#SVGID_51_);}
	.st53{fill:url(#SVGID_52_);}
	.st54{fill:url(#SVGID_53_);}
	.st55{fill:url(#SVGID_54_);}
	.st56{fill:url(#SVGID_55_);}
	.st57{fill:url(#SVGID_56_);}
	.st58{fill:url(#SVGID_57_);}
	.st59{fill:url(#SVGID_58_);}
	.st60{fill:url(#SVGID_59_);}
	.st61{fill:url(#SVGID_60_);}
	.st62{fill:url(#SVGID_61_);}
	.st63{fill:url(#SVGID_62_);}
	.st64{fill:url(#SVGID_63_);}
	.st65{fill:url(#SVGID_64_);}
	.st66{fill:url(#SVGID_65_);}
	.st67{fill:url(#SVGID_66_);}
	.st68{fill:url(#SVGID_67_);}
	.st69{fill:url(#SVGID_68_);}
	.st70{fill:url(#SVGID_69_);}
	.st71{fill:url(#SVGID_70_);}
	.st72{fill:#786A7A;}
	.st73{fill:url(#SVGID_71_);}
	.st74{fill:url(#SVGID_72_);}
	.st75{fill:url(#SVGID_73_);}
	.st76{fill:url(#SVGID_74_);}
	.st77{fill:url(#SVGID_75_);}
	.st78{fill:url(#SVGID_76_);}
	.st79{fill:#6C5B4E;}
	.st80{fill:url(#SVGID_77_);}
	.st81{fill:url(#SVGID_78_);}
	.st82{fill:url(#SVGID_79_);}
	.st83{fill:url(#SVGID_80_);}
	.st84{fill:url(#SVGID_81_);}
	.st85{fill:url(#SVGID_82_);}
	.st86{fill:url(#SVGID_83_);}
	.st87{fill:url(#SVGID_84_);}
	.st88{fill:url(#SVGID_85_);}
	.st89{fill:url(#SVGID_86_);}
	.st90{fill:url(#SVGID_87_);}
	.st91{fill:url(#SVGID_88_);}
	.st92{fill:url(#SVGID_89_);}
</style>
<symbol  id="fa" viewBox="-97 -50.2 193.9 100.3">
	<path class="st0" d="M70.7-35.7c-3.1,1.6-5.4,2.9-7.1,3.9c-1.8,1.2-3.9,3-6.4,5.6c-2.9,2.9-4.9,4.8-6.2,5.8
		c-5.6,4.4-13.7,7.5-24.2,9.2C23-10.6,14.2-9.8,0.5-8.8c-8.9,0.6-16.8,1.6-23.5,3c-8.1,1.7-15.6,4.2-22.5,7.4
		c-15.4,7.2-30.8,17-46.2,29.3c-1.7,1.4-3,2.4-3.7,3.2c-1,1-1.5,1.9-1.7,2.7c-0.1,0.8,1,2.5,3.2,5c2.3,2.7,4.3,4.3,6,4.9
		c3.3,1.2,10,2.1,20.1,2.8c10.5,0.7,19.8,0.8,27.9,0.3c3.4-0.2,11.6-0.4,24.5-0.5c10.7-0.1,18.9-0.5,24.6-1.3
		c12.4-1.7,20.4-2.8,24.1-3.5c9.3-1.8,16.3-4.1,21.2-6.9c2.3-2,4.3-5.3,5.9-10.1c0.8-2.3,1.8-6.1,3.1-11.6c0.4-1.6,1.4-6.5,3-14.5
		c1.2-5.9,2.4-10.7,3.4-14.3c3.3-10.6,8.6-19,15.9-25.3c0.9-0.8,2.7-2.9,5.4-6.5c2.3-3,4.2-4.9,5.7-5.6c-2.7,1.3-5.9,3-9.6,5.1
		c-4.2,2.5-7.4,4.4-9.5,5.6C76.6-38.7,74.2-37.4,70.7-35.7L70.7-35.7z"/>
</symbol>
<symbol  id="fb" viewBox="-4 -4.6 7.9 9.2">
	
		<linearGradient id="SVGID_1_" gradientUnits="userSpaceOnUse" x1="26664.3633" y1="4186.4478" x2="26684.3633" y2="4186.4478" gradientTransform="matrix(0.312 0.9501 -0.9501 0.312 -4343.1279 -26644.2188)">
		<stop  offset="0" style="stop-color:#BAAFA2"/>
		<stop  offset="0.3255" style="stop-color:#998C82"/>
		<stop  offset="1" style="stop-color:#4A3836"/>
	</linearGradient>
	<path class="st1" d="M1.5,4.5L4,4.6C2.8,1.3,1.2-1.3-1-3C-2.1-3.9-3.1-4.4-4-4.6C-2.3-3.5-0.9-1.7,0.3,1C0.8,2.3,1.2,3.4,1.5,4.5z"
		/>
</symbol>
<symbol  id="fc" viewBox="-5.8 -6 11.6 11.9">
	
		<linearGradient id="SVGID_2_" gradientUnits="userSpaceOnUse" x1="25750.0605" y1="4627.4585" x2="25777.0605" y2="4627.4585" gradientTransform="matrix(0.3535 0.9354 -0.9354 0.3535 -4776.8242 -25729.6133)">
		<stop  offset="0" style="stop-color:#BAAFA2"/>
		<stop  offset="0.3255" style="stop-color:#998C82"/>
		<stop  offset="1" style="stop-color:#4A3836"/>
	</linearGradient>
	<path class="st2" d="M2.2,6l3.6-0.1C4.1,1.5,1.6-1.8-1.5-4c-1.6-1.1-3-1.8-4.3-1.9c2.4,1.4,4.5,3.8,6.2,7.2C1.3,2.9,1.9,4.5,2.2,6z
		"/>
</symbol>
<symbol  id="fd" viewBox="-2.7 -1.4 5.5 2.9">
	
		<linearGradient id="SVGID_3_" gradientUnits="userSpaceOnUse" x1="3063.1409" y1="2560.0601" x2="3072.741" y2="2560.0601" gradientTransform="matrix(0.9849 0.1729 -0.1729 0.9849 -2577.1016 -3051.5337)">
		<stop  offset="0" style="stop-color:#91D8D6"/>
		<stop  offset="0.2471" style="stop-color:#81B4B2"/>
		<stop  offset="0.7961" style="stop-color:#595B59"/>
		<stop  offset="1" style="stop-color:#4A3836"/>
	</linearGradient>
	<path class="st3" d="M0.8,1.4c1.7-0.1,2.3-0.7,1.8-1.6C2-1.2,0.8-1.6-0.9-1.4s-2.3,0.7-1.5,1.6C-1.8,1.1-0.7,1.5,0.8,1.4z"/>
</symbol>
<symbol  id="fe" viewBox="-2.7 -2.8 5.3 5.6">
	
		<linearGradient id="SVGID_4_" gradientUnits="userSpaceOnUse" x1="27629.5254" y1="3668.5242" x2="27641.5254" y2="3668.5242" gradientTransform="matrix(0.2665 0.9638 -0.9638 0.2665 -3828.4961 -27610.4395)">
		<stop  offset="0" style="stop-color:#BAAFA2"/>
		<stop  offset="0.3255" style="stop-color:#998C82"/>
		<stop  offset="1" style="stop-color:#4A3836"/>
	</linearGradient>
	<path class="st4" d="M0.9,2.7l1.8,0.1C2,0.9,0.9-0.7-0.6-1.8c-0.8-0.6-1.5-0.9-2.1-1C-1.5-2.1-0.5-1,0.2,0.6
		C0.5,1.4,0.8,2.1,0.9,2.7z"/>
</symbol>
<symbol  id="ff" viewBox="-1.3 -0.6 2.7 1.3">
	
		<linearGradient id="SVGID_5_" gradientUnits="userSpaceOnUse" x1="4874.2681" y1="3700.0164" x2="4878.9678" y2="3700.0164" gradientTransform="matrix(0.9646 0.2636 -0.2636 0.9646 -3727.8066 -4854.2822)">
		<stop  offset="0" style="stop-color:#91D8D6"/>
		<stop  offset="0.2471" style="stop-color:#81B4B2"/>
		<stop  offset="0.7961" style="stop-color:#595B59"/>
		<stop  offset="1" style="stop-color:#4A3836"/>
	</linearGradient>
	<path class="st5" d="M0.3,0.6c0.9,0,1.2-0.2,0.9-0.6C1-0.4,0.5-0.6-0.4-0.6c-0.9,0-1.1,0.2-0.9,0.6C-1,0.4-0.4,0.6,0.3,0.6z"/>
</symbol>
<symbol  id="fg" viewBox="-24.8 -39.3 49.6 78.5">
	
		<linearGradient id="SVGID_6_" gradientUnits="userSpaceOnUse" x1="-1074.8716" y1="-1130.4786" x2="-1039.2416" y2="-1130.4786" gradientTransform="matrix(0.9977 -6.740000e-02 6.740000e-02 0.9977 1136.7734 1055.9814)">
		<stop  offset="0" style="stop-color:#A48058"/>
		<stop  offset="0.5608" style="stop-color:#6C4D2C"/>
		<stop  offset="1" style="stop-color:#45290D"/>
	</linearGradient>
	<path class="st6" d="M17.1,39.3c1-0.8,2.3-1.7,3.9-2.7c1.2-0.8,1.9-1.6,2.3-2.5c0.8-1.6,1.3-5.6,1.5-12c0-1.7-0.1-3.2-0.3-4.6
		c-0.2-1-0.7-3-1.4-6c-1.4-6.2-2.4-10.3-3-12.3c-1.2-4.5-2.7-8.5-4.3-12c-0.9-1.9-2.2-4-3.8-6.5c-2.1-3.2-3.7-5-4.7-5.3
		c-0.1,1,0.7,3,2.5,6c1.8,3.2,2.8,5.2,3,6c0.5,2,0.8,3.5,1,4.3c0.4,1.5,0.4,3,0.2,4.3c-0.7-0.1-1.4-0.8-2-1.8
		c-0.3-0.6-0.7-1.5-1.3-2.7c-1.7-2.9-2.9-4.9-3.7-6.1c-1.5-2.2-3-4-4.5-5.5c-0.7-0.6-2-2.1-4-4.5c-1.6-1.9-3-3.3-4.3-4.2
		c-0.6-0.4-1.7-1.6-3.4-3.5c-1.6-1.6-2.9-2.2-3.9-1.9c-0.9-0.6-2.1-1.3-3.6-1.9c-2.5-1.2-3.7-1.8-3.8-1.8c-3.5-1.6-4.9-2-4.4-1
		c0.5,0.9,1.5,1.9,3.1,3c1.9,1.1,3.1,1.9,3.8,2.3c2.7,1.8,5.3,4.5,7.9,8.2c0.3,0.4,2.3,3.6,6,9.7c0.8-0.2,1.9,1.5,3.5,5.1
		c1.6,4,2.6,6.3,3,7c0.3,0.4,0.9,1.2,1.9,2.3c0.8,1,1.4,1.8,1.6,2.3C6.5,1.8,6.7,2.8,6.9,4c0.2,1.4,0.4,2.3,0.5,3
		c0.4,2.4,1.3,5.4,2.5,9.2c1.6,4.9,2.6,8,3,9.1c0.7,3.1,1.3,5.5,1.7,7.1C15.4,35.4,16.2,37.6,17.1,39.3z"/>
</symbol>
<symbol  id="fh" viewBox="-89.9 -44.2 179.8 88.4">
	
		<linearGradient id="SVGID_7_" gradientUnits="userSpaceOnUse" x1="441.2015" y1="510.3611" x2="619.2305" y2="510.3611" gradientTransform="matrix(0.9995 3.200000e-02 -3.200000e-02 0.9995 -514.1778 -527.6182)">
		<stop  offset="0" style="stop-color:#A48058"/>
		<stop  offset="0.5608" style="stop-color:#6C4D2C"/>
		<stop  offset="1" style="stop-color:#45290D"/>
	</linearGradient>
	<path class="st7" d="M77.7-4.7c0.4-1.7,1.1-5.5,1.9-11.3c0.7-4.7,1.5-8.4,2.4-11.3c0.6-1.9,1.9-4.7,4.1-8.4
		c2.1-3.5,3.3-6.3,3.8-8.4c-1.5,2.3-3.5,4.6-5.9,7c-1.7,1.7-4.1,3.7-7.1,6.1c-2.7,2.1-5.7,5.3-8.9,9.6c-5.1,6.6-7.8,10.1-8.1,10.4
		c-2.1,2.4-5,5-8.7,7.7c-4.2,2.9-7.3,5.2-9.4,6.8c-3.1,2.4-7.1,4.1-12.2,5c-4.4,0.8-8.8,1-13.3,0.5C11.8,8.4,6.1,7.4-0.7,6
		c-7.5-1.7-13.2-2.9-16.9-3.7C-31.2-0.4-42.7-1.1-52,0.2c-7.5,1-16.4,3-26.6,5.9c-2.4,0.8-4.3,1.4-5.6,1.8c-2.3,0.6-4.2,0.8-5.8,0.4
		c0.4,2.6,1.2,5.5,2.5,8.5c0.9,2.2,1.5,4.2,1.7,5.9c0.2,2.3,0.6,4.3,1.2,6.1c0.7,2.5,1.8,4.7,3.3,6.7c0.9,1.1,2.3,2.8,4.2,5.1
		c1.5,1.1,4.6,2.1,9.4,2.8c3.5,0.5,6.9,0.8,10,0.9c8,0.1,15.4-0.1,22.3-0.5c3.1-0.2,8.5-0.3,16.3-0.3c6.9,0,12.3-0.2,16.2-0.5
		c4.8-0.4,10.4-0.8,16.9-1.2c3.8-0.2,9.4-0.5,17-0.8c3.1-0.2,7.7-0.3,13.9-0.4c5.4-0.3,9.9-1.3,13.4-3c6.5-3.1,11.3-9.2,14.3-18.4
		C74.3,13.8,76,5.9,77.7-4.7L77.7-4.7z"/>
</symbol>
<symbol  id="fi" viewBox="-1 -4.8 1.9 9.7">
	
		<linearGradient id="SVGID_8_" gradientUnits="userSpaceOnUse" x1="26650.877" y1="4194.71" x2="26666.877" y2="4194.71" gradientTransform="matrix(0.3127 0.9499 -0.9499 0.3127 -4350.7163 -26629.8418)">
		<stop  offset="0" style="stop-color:#BAAFA2"/>
		<stop  offset="0.3255" style="stop-color:#998C82"/>
		<stop  offset="1" style="stop-color:#4A3836"/>
	</linearGradient>
	<path class="st8" d="M-0.9,4.8H1l-1.5-9.7C-0.8-3.7-1-0.5-0.9,4.8z"/>
</symbol>
<symbol  id="fj" viewBox="-1.4 -6.6 2.8 13.1">
	
		<linearGradient id="SVGID_9_" gradientUnits="userSpaceOnUse" x1="25758.5273" y1="4624.3247" x2="25781.5273" y2="4624.3247" gradientTransform="matrix(0.3532 0.9356 -0.9356 0.3532 -4774.3086 -25737.7109)">
		<stop  offset="0" style="stop-color:#BAAFA2"/>
		<stop  offset="0.3255" style="stop-color:#998C82"/>
		<stop  offset="1" style="stop-color:#4A3836"/>
	</linearGradient>
	<path class="st9" d="M-1.2,6.6l2.7-0.2L-1-6.6C-1.5-5-1.5-0.7-1.2,6.6z"/>
</symbol>
<symbol  id="fk" viewBox="-6.6 -3.5 13.3 6.9">
	
		<linearGradient id="SVGID_10_" gradientUnits="userSpaceOnUse" x1="20488.457" y1="6294.1514" x2="20507.457" y2="6294.1514" gradientTransform="matrix(0.5662 0.8243 -0.8243 0.5662 -6414.2407 -20455.2305)">
		<stop  offset="0" style="stop-color:#91D8D6"/>
		<stop  offset="0.2471" style="stop-color:#81B4B2"/>
		<stop  offset="0.7961" style="stop-color:#595B59"/>
		<stop  offset="1" style="stop-color:#4A3836"/>
	</linearGradient>
	<path class="st10" d="M2.8,2.5c2.2-1,3.4-2,3.8-3C6.8-1.3,6.4-2,5.1-2.6C2.1-4-1.1-3.7-4.3-1.7c-2.9,1.8-3.1,3.3-0.5,4.3
		C-2.2,3.8,0.3,3.7,2.8,2.5z"/>
</symbol>
<symbol  id="fl" viewBox="-0.6 -2.8 1.3 5.7">
	
		<linearGradient id="SVGID_11_" gradientUnits="userSpaceOnUse" x1="27652.5859" y1="3655.3193" x2="27662.5859" y2="3655.3193" gradientTransform="matrix(0.2654 0.9641 -0.9641 0.2654 -3816.0537 -27632.9141)">
		<stop  offset="0" style="stop-color:#BAAFA2"/>
		<stop  offset="0.3255" style="stop-color:#998C82"/>
		<stop  offset="1" style="stop-color:#4A3836"/>
	</linearGradient>
	<path class="st11" d="M-0.6,2.8l1.3,0l-0.7-5.7C-0.3-2.2-0.5-0.3-0.6,2.8z"/>
</symbol>
<symbol  id="fm" viewBox="-3.4 -1.5 6.8 2.9">
	
		<linearGradient id="SVGID_12_" gradientUnits="userSpaceOnUse" x1="22574.791" y1="5799.0869" x2="22583.791" y2="5799.0869" gradientTransform="matrix(0.4871 0.8734 -0.8734 0.4871 -5931.9063 -22542.6855)">
		<stop  offset="0" style="stop-color:#91D8D6"/>
		<stop  offset="0.2471" style="stop-color:#81B4B2"/>
		<stop  offset="0.7961" style="stop-color:#595B59"/>
		<stop  offset="1" style="stop-color:#4A3836"/>
	</linearGradient>
	<path class="st12" d="M1.2,1.2C3.6,0.6,4-0.2,2.6-0.9c-1.4-0.7-3-0.7-4.8,0C-3.7-0.3-3.8,0.4-2.6,1C-1.3,1.5-0.1,1.6,1.2,1.2z"/>
</symbol>
<symbol  id="fn" viewBox="-8.1 -34.6 16.2 69.2">
	
		<linearGradient id="SVGID_13_" gradientUnits="userSpaceOnUse" x1="4398.7329" y1="3425.2324" x2="4418.5332" y2="3425.2324" gradientTransform="matrix(0.9706 0.2408 -0.2408 0.9706 -3452.5503 -4386.7871)">
		<stop  offset="0" style="stop-color:#A48058"/>
		<stop  offset="0.6549" style="stop-color:#504333"/>
		<stop  offset="1" style="stop-color:#292621"/>
	</linearGradient>
	<path class="st13" d="M8,30.5c0.2-3.6,0-7.5-0.8-11.8c-0.4-2.7-0.7-6.8-0.9-12.5C6.3,0.9,6-3.2,5.5-6c-0.2-1.3-0.6-6.1-1.1-14.5
		C4-26.4,3-31.1,1.4-34.6c-0.8,0.3-1.7,0.4-2.7,0.4c-0.6,0-1.5-0.1-2.8-0.3c-2.8-0.4-4.2-0.2-4.1,0.8c0,0.4,0.9,1.9,2.5,4.5
		c1.3,2,2.3,4.9,3.1,8.5c0.8,4.2,1.4,7.2,1.8,9.1C0.2-7.9,0-7-1.2-8.7c-0.7-1-2.1-3.2-4-6.6c-1-1.6-1,0.4,0.1,6
		c1.8,9.8,2.8,14.8,2.8,15c0.5,3.2,1,5,1.6,5.4c0.5-0.2,0.8-0.2,0.9,0c0.4,0.4,0.9,1.1,1.4,2c1,1.8,1.9,4.4,2.8,7.9
		c0.8,3,1.4,6.1,1.8,9.3c0.3,2.2,0.6,3.5,0.9,4C7.5,35.2,7.9,33.9,8,30.5z"/>
</symbol>
<symbol  id="fo" viewBox="-3 -4.8 5.9 9.7">
	
		<linearGradient id="SVGID_14_" gradientUnits="userSpaceOnUse" x1="26668.0664" y1="4185.8335" x2="26682.0664" y2="4185.8335" gradientTransform="matrix(0.3119 0.9501 -0.9501 0.3119 -4341.8096 -26646.0391)">
		<stop  offset="0" style="stop-color:#BAAFA2"/>
		<stop  offset="0.3255" style="stop-color:#998C82"/>
		<stop  offset="1" style="stop-color:#4A3836"/>
	</linearGradient>
	<path class="st14" d="M-3,4.7l2,0.2c0.1-2.1,0.7-4.3,2-6.7C1.7-3,2.3-4,3-4.8C0.8-3.5-0.8-1.5-2,1.1C-2.5,2.4-2.8,3.6-3,4.7z"/>
</symbol>
<symbol  id="fp" viewBox="-4 -6.7 7.9 13.4">
	
		<linearGradient id="SVGID_15_" gradientUnits="userSpaceOnUse" x1="25753.3086" y1="4626.1689" x2="25772.3086" y2="4626.1689" gradientTransform="matrix(0.3535 0.9355 -0.9355 0.3535 -4777.4443 -25731.4316)">
		<stop  offset="0" style="stop-color:#BAAFA2"/>
		<stop  offset="0.3255" style="stop-color:#998C82"/>
		<stop  offset="1" style="stop-color:#4A3836"/>
	</linearGradient>
	<path class="st15" d="M-4,6.5l2.8,0.2c0-2.8,0.8-5.9,2.5-9.2C2.3-4.2,3.1-5.6,4-6.7c-3,2-5.2,4.8-6.7,8.4C-3.4,3.5-3.8,5.1-4,6.5z"
		/>
</symbol>
<symbol  id="fq" viewBox="-7.6 -3.8 15.3 7.7">
	
		<linearGradient id="SVGID_16_" gradientUnits="userSpaceOnUse" x1="25768.1465" y1="4620.3403" x2="25789.1465" y2="4620.3403" gradientTransform="matrix(0.3529 0.9357 -0.9357 0.3529 -4771.1738 -25743.9883)">
		<stop  offset="0" style="stop-color:#91D8D6"/>
		<stop  offset="0.2471" style="stop-color:#81B4B2"/>
		<stop  offset="0.7961" style="stop-color:#595B59"/>
		<stop  offset="1" style="stop-color:#4A3836"/>
	</linearGradient>
	<path class="st16" d="M6.5,2.1C8.2,0.7,8-0.7,6-2.1c-2.2-1.5-4.9-2-8.1-1.6c-3.2,0.4-5,1.4-5.4,3.1c-0.3,1.4,0.7,2.5,3.1,3.3
		c1.1,0.4,2.8,0.7,5.1,1C2.9,4.1,4.8,3.6,6.5,2.1z"/>
</symbol>
<symbol  id="fr" viewBox="-2.3 -2.8 4.5 5.6">
	
		<linearGradient id="SVGID_17_" gradientUnits="userSpaceOnUse" x1="27668.377" y1="3646.6973" x2="27675.377" y2="3646.6973" gradientTransform="matrix(0.2647 0.9643 -0.9643 0.2647 -3807.6646 -27647.291)">
		<stop  offset="0" style="stop-color:#BAAFA2"/>
		<stop  offset="0.3255" style="stop-color:#998C82"/>
		<stop  offset="1" style="stop-color:#4A3836"/>
	</linearGradient>
	<path class="st17" d="M-2.3,2.6l1.4,0.2c0.1-1.2,0.7-2.5,1.6-3.8c0.5-0.7,1-1.3,1.5-1.7C0.7-2.1-0.5-1-1.4,0.5
		C-1.8,1.3-2.1,2-2.3,2.6z"/>
</symbol>
<symbol  id="fs" viewBox="-3.8 -1.7 7.6 3.5">
	
		<linearGradient id="SVGID_18_" gradientUnits="userSpaceOnUse" x1="27636.1191" y1="3665.335" x2="27645.1191" y2="3665.335" gradientTransform="matrix(0.2663 0.9639 -0.9639 0.2663 -3826.5793 -27614.8984)">
		<stop  offset="0" style="stop-color:#91D8D6"/>
		<stop  offset="0.2471" style="stop-color:#81B4B2"/>
		<stop  offset="0.7961" style="stop-color:#595B59"/>
		<stop  offset="1" style="stop-color:#4A3836"/>
	</linearGradient>
	<path class="st18" d="M3.1,1.2C4,0.7,4,0,3-0.7c-1-0.7-2.3-1.1-4-1c-1.6,0-2.5,0.4-2.8,1.1C-4-0.1-3.5,0.5-2.4,0.9
		C-2,1.1-1.1,1.3,0.1,1.6C1.3,1.9,2.3,1.7,3.1,1.2z"/>
</symbol>
<symbol  id="ft" viewBox="-36 -40.6 72 81.2">
	
		<linearGradient id="SVGID_19_" gradientUnits="userSpaceOnUse" x1="4382.9038" y1="3422.5552" x2="4438.1035" y2="3422.5552" gradientTransform="matrix(0.9706 0.2407 -0.2407 0.9706 -3451.5305 -4385.6689)">
		<stop  offset="0" style="stop-color:#A48058"/>
		<stop  offset="0.6549" style="stop-color:#504333"/>
		<stop  offset="1" style="stop-color:#292621"/>
	</linearGradient>
	<path class="st19" d="M34.7,24.3c-0.4-3.5-0.7-6.2-0.8-8.1c-0.1-2-0.4-4.3-0.8-7c-0.3-2.2-0.5-4-0.6-5.5c0-1,0.1-2.5,0.4-4.7
		c0.3-1.6,0.2-3.3-0.2-5.2c-0.3-1.7-0.8-5.4-1.4-11.1c-0.7-6-1.2-9.9-1.4-11.8c-0.4-2.7-1.4-5.4-3.1-8.2c-1.6-2.5-2.7-3.7-3.5-3.4
		c-1.8,0.5-4.2,0.9-7,1.1c-0.8,0.1-2.7,0.1-5.5,0.1c-2.2,0-4,0.2-5.6,0.4c-1.5,0.3-4.8,0.4-10,0.6c-5.8,0.1-9.3,0.2-10.7,0.3
		c-3.3,0.3-10.1,0.5-20.5,0.4c2.6,1.1,5.1,2.6,7.4,4.5c1.6,1.2,2.5,1.5,2.7,0.9c0.2-0.5-0.1-1.5-0.9-2.8c-0.7-1.4-0.1-1.2,1.9,0.5
		c2.1,1.8,4.3,4.3,6.6,7.3c2,2.8,2.8,3.2,2.4,1.1c-0.2-1.2-0.8-3.4-1.8-6.6c-0.3-1.7,0.7-1.1,3,2c2.4,3.1,4.1,6.2,5.3,9.4
		c1.1,2.8,1.5,3.1,1.4,0.9c-0.1-1.3-0.4-3.7-1-7.3c-0.3-2,0.4-1.4,2.3,1.9c1.4,2.5,3.1,6,5.1,10.4C0.3-11.8,1.5-9,2.1-7.2
		C3-4.9,3.7-2,4.5,1.4c0.7,3.2,0.3,4.1-1.2,2.5C2.2,2.7,0.6,0.4-1.4-3C-2.9-5.6-4.1-7.3-5-8c-0.8-0.7-1.1-0.4-0.8,0.8
		c0.2,0.9,1.2,3,2.9,6.3c2,4,3,6.2,3.2,6.5C0.9,7.1,1.8,9.5,3,13c1.3,3.8,2.3,7,3,9.6c0.7,2.6,0.5,3.2-0.8,1.7
		c-1.1-1.3-2.5-3.5-4.2-6.6c-1.5-2.8-2.6-5-3.3-6.6C-3,9.5-4.1,6.8-5.4,3.3c-1.1-3-2.8-6.3-4.9-10c-1.1-1.8-2-3.3-2.9-4.5
		c0,0.3,0,0.9,0.2,1.8c0.4,1.6,1.1,3.7,2.3,6.1c1.1,2.5,1.9,4.5,2.2,6C-8.3,4-8.1,5.2-7.9,6.1c0.3,1.3,1.2,3.8,2.7,7.7
		c1.4,3.6,2.7,6.9,4.1,10c1.1,2.4,2,5.4,3,9c0.1,0.3,0.6,2.8,1.7,7.4c0.4,0.4,1.1,0.6,2.3,0.4c0.4-0.1,2-0.4,4.8-1
		c1.6-0.4,6.2-0.7,13.5-1c7.2-0.2,11-0.4,11.3-0.5c0.4-0.2,0.6-0.7,0.6-1.5c-0.3-2.5-0.5-4.2-0.6-5C35.3,29.8,35.1,27.4,34.7,24.3z"
		/>
</symbol>
<symbol  id="fu" viewBox="-6.6 -4.9 13.2 9.9">
	
		<linearGradient id="SVGID_20_" gradientUnits="userSpaceOnUse" x1="26676.2617" y1="4182.9653" x2="26686.2617" y2="4182.9653" gradientTransform="matrix(0.3116 0.9502 -0.9502 0.3116 -4338.2744 -26653.3164)">
		<stop  offset="0" style="stop-color:#BAAFA2"/>
		<stop  offset="0.3255" style="stop-color:#998C82"/>
		<stop  offset="1" style="stop-color:#4A3836"/>
	</linearGradient>
	<path class="st20" d="M-6.6,4.4l0.7,0.6c1.4-2.6,3.9-5.1,7.5-7.3c1.8-1.1,3.5-1.9,5.1-2.6C2.7-4.1-0.6-2.3-3.5,0.5
		C-4.9,1.9-5.9,3.2-6.6,4.4z"/>
</symbol>
<symbol  id="gv" viewBox="-9.1 -7.1 18.3 14.3">
	
		<linearGradient id="SVGID_21_" gradientUnits="userSpaceOnUse" x1="25749.6699" y1="4628.2681" x2="25762.6699" y2="4628.2681" gradientTransform="matrix(0.3537 0.9354 -0.9354 0.3537 -4779.2612 -25725.9727)">
		<stop  offset="0" style="stop-color:#BAAFA2"/>
		<stop  offset="0.3255" style="stop-color:#998C82"/>
		<stop  offset="1" style="stop-color:#4A3836"/>
	</linearGradient>
	<path class="st21" d="M-9.1,6.4l0.9,0.8C-6.4,3.5-2.9,0,2.1-3.3c2.5-1.7,4.8-2.9,7-3.9C3.7-5.7-0.9-3-4.9,0.9
		C-6.8,2.9-8.2,4.7-9.1,6.4z"/>
</symbol>
<symbol  id="hw" viewBox="-4.8 -2.7 9.6 5.3">
	
		<linearGradient id="SVGID_22_" gradientUnits="userSpaceOnUse" x1="27693.1797" y1="3632.8823" x2="27698.1797" y2="3632.8823" gradientTransform="matrix(0.2635 0.9646 -0.9646 0.2635 -3793.5044 -27672.5859)">
		<stop  offset="0" style="stop-color:#BAAFA2"/>
		<stop  offset="0.3255" style="stop-color:#998C82"/>
		<stop  offset="1" style="stop-color:#4A3836"/>
	</linearGradient>
	<path class="st22" d="M-4.8,2.3l0.4,0.3c1.1-1.5,2.9-2.8,5.6-4c1.3-0.6,2.6-1,3.6-1.3C2.1-2.3-0.3-1.3-2.5,0.1
		C-3.5,0.9-4.3,1.6-4.8,2.3z"/>
</symbol>
<symbol  id="ix" viewBox="-1.2 -1.8 2.5 3.6">
	
		<linearGradient id="SVGID_23_" gradientUnits="userSpaceOnUse" x1="-4837.3394" y1="-7032.7451" x2="-4826.4395" y2="-7032.7451" gradientTransform="matrix(0.9313 -0.3643 0.3643 0.9313 7060.8013 4789.791)">
		<stop  offset="0" style="stop-color:#A48058"/>
		<stop  offset="0.5608" style="stop-color:#6C4D2C"/>
		<stop  offset="1" style="stop-color:#45290D"/>
	</linearGradient>
	<path class="st23" d="M1.1,0.7c-0.2-0.8-0.6-1.4-1.3-2c-0.5-0.5-0.9-0.6-1-0.3C-1.3-1.3-1.2-0.8-1-0.3C-0.7,0.4-0.5,0.9-0.4,1
		c0.3,0.4,0.6,0.6,1,0.8C1.2,1.9,1.4,1.5,1.1,0.7z"/>
</symbol>
<symbol  id="jh" viewBox="-65.1 -10.6 130.2 21.1">
	<path class="st24" d="M59.1-3.2c-9.6-2.3-17.8-3.7-24.8-4.1L16.7-8.6c-0.2,0-0.5,0-0.7,0c1,0.1,1.8,0.3,2.5,0.5
		c1.4,0.5,2.9,0.9,4.3,1c1,0.1,2.7,0.2,4.9,0.3c2.2,0.1,3.9,0.1,5.1,0.3l1.3,0c6,0.4,10.5,0.9,13.4,1.6c0.9,0.2,1.9,0.5,3.3,1
		c1.7,0.6,2.8,1,3.2,1.1c1.1,0.3,3.5,1,7.2,1.9c1.9,0.5,2.2,1.4,0.9,2.7c-0.9,1-2.2,1.8-3.8,2.4c-3.8,1.7-8,2.8-12.8,3.3
		c-3,0.4-7.4,0.6-13.3,0.7L16.9,8.5c-0.9,0-2.7-0.1-5.3-0.3L8.2,7.9c-1.8,0-3.7,0.1-5.8,0.5c-2.9,0.5-5.7,0.9-8.2,1.1
		c-2.5,0.2-5.2,0.3-8,0.2l-8-0.4c-3.4-0.2-6-0.3-7.8-0.4c-6.2-0.2-10.8-0.5-14-0.9c-5.1-0.7-9.6-1.9-13.5-3.6c-4-1.8-6-3.4-6.1-4.8
		c0-0.8,0.5-1.6,1.7-2.3l1.9-1.3c0.8-0.5,1.4-0.9,2-1.1c0.5-0.2,1.4-0.3,2.7-0.5c1.2-0.1,2-0.3,2.6-0.5c0.5-0.2,1.2-0.5,2-1
		c0.9-0.6,1.5-0.9,1.9-1.1c1.1-0.5,2.6-0.8,4.4-1c2.8-0.2,4.3-0.3,4.5-0.4c3.5-0.6,6.5-0.9,8.8-0.8l0.8,0c2.2,0.2,7.3,0.4,15.3,0.7
		C-7-9.3-2.1-9.1-0.1-8.9c1.5,0.2,4.2,0.2,8.2,0.1c2.5-0.1,4.3-0.1,5.5,0c0.1,0,0.1,0,0.2,0c-1.7-0.1-3.1-0.3-4.1-0.5
		C8.5-9.4,6.9-9.5,4.9-9.5C2.6-9.6,1-9.7,0-9.8c-2.5-0.3-4.4-0.5-5.7-0.6c-2.3-0.2-4.2-0.2-5.7,0c-2.4,0.2-5.6,0.3-9.7,0.1
		c-4.7-0.2-7.9-0.2-9.6-0.1c-0.7,0-1.8,0.1-3.3,0.2c-4.3,0.2-7.5,0.3-9.6,0.5c-3.8,0.2-6.9,1-9.3,2.3c-1.1,0.6-2.9,1.2-5.4,1.9
		c-2.4,0.6-4.2,1.3-5.3,1.9c-1.3,0.8-1.8,1.9-1.5,3.2c0.3,1.1,1.1,2.1,2.3,3.1c0.9,0.7,2.1,1.3,3.6,1.9c0.8,0.3,2.1,0.8,3.8,1.5
		c3.6,1.5,7.8,2.6,12.6,3.1c2.8,0.3,7.1,0.6,13,0.8c1.9,0.1,4.4,0.2,7.7,0.4l8.1,0.3c5.1,0.2,10.6-0.3,16.4-1.3
		C4.9,8.9,7.9,8.8,11.4,9c2,0.2,3.8,0.3,5.4,0.4h7.6C31,9.3,36,9.2,39.3,9.1c4.7-0.2,7-0.3,7.1-0.3c2.8-0.2,5.1-0.6,7-1.1
		C55.3,7.1,58,6,61.5,4.3c2.6-1.2,3.8-2.6,3.5-4.1C64.9-1.1,62.9-2.2,59.1-3.2z"/>
</symbol>
<symbol  id="ji" viewBox="-9.3 -7.9 18.6 15.7">
	
		<linearGradient id="SVGID_24_" gradientUnits="userSpaceOnUse" x1="22424.3555" y1="-38482.2539" x2="22447.3555" y2="-38482.2539" gradientTransform="matrix(-0.8731 -0.4875 0.4875 -0.8731 38349.9492 -22660.7207)">
		<stop  offset="0" style="stop-color:#A48058"/>
		<stop  offset="0.5608" style="stop-color:#6C4D2C"/>
		<stop  offset="1" style="stop-color:#45290D"/>
	</linearGradient>
	<path class="st25" d="M-9.3,7.9c1.1-0.4,2-1.2,2.9-2.3C-5.9,5-5,3.8-3.8,2c0.7-0.9,1.5-2.2,2.3-3.7C-0.7-2.9,0.4-3.6,1.8-4
		C3.5-4.6,5.3-5.2,7-6c1.7-0.9,2.5-1.4,2.3-1.8c-0.1-0.2-0.8,0-2,0.6C5.4-6.5,3.8-6,2.3-5.8C0.4-5.6-1.1-4.7-2.3-3.2
		C-3-2.3-3.9-0.7-4.9,1.6C-5.9,3.8-7.3,5.9-9.3,7.9z"/>
</symbol>
<symbol  id="jj" viewBox="-21.9 -12.4 43.7 24.7">
	
		<linearGradient id="SVGID_25_" gradientUnits="userSpaceOnUse" x1="2343.1528" y1="2080.7771" x2="2481.5527" y2="2080.7771" gradientTransform="matrix(0.9905 0.1379 -0.1379 0.9905 -2095.7317 -2392.6738)">
		<stop  offset="0" style="stop-color:#A89A8A"/>
		<stop  offset="0.3882" style="stop-color:#86776C"/>
		<stop  offset="1" style="stop-color:#4A3836"/>
	</linearGradient>
	<path class="st26" d="M21.6-0.9l-0.3-0.3L21-1.4l-0.1-0.1c-0.1-0.1-0.2-0.4-0.5-1.1c-0.2-0.6-0.5-0.9-0.7-1
		c-5.3-3.5-8.4-5.4-9.1-5.8c-4.7-2.4-9.3-3.4-13.8-3c-1.2,2.6-4.6,5.3-10.1,8.1c-5.4,2.7-8.2,4.5-8.4,5.3v0.1
		c-0.4,0.9,0.7,2,3.3,3.4c1,0.5,2.9,1.3,5.7,2.3c2.9,1,4.9,1.8,6.2,2.5c0.8,0.4,1.9,1.1,3.2,1.9c1.1,0.6,1.9,0.9,2.5,0.9
		c2.4-0.1,5.2-1.1,8.5-3.2c4-2.5,6.7-4,8.1-4.4c1.7-0.6,3.3-1.4,4.6-2.4C21.8,1.1,22.2,0,21.6-0.9C21.5-0.9,21.6-0.9,21.6-0.9z"/>
</symbol>
<symbol  id="jk" viewBox="-11.1 -30.6 22.2 61.2">
	
		<linearGradient id="SVGID_26_" gradientUnits="userSpaceOnUse" x1="22408.8027" y1="-38484.0859" x2="22447.8027" y2="-38484.0859" gradientTransform="matrix(-0.8729 -0.4879 0.4879 -0.8729 38352.5938 -22650.8066)">
		<stop  offset="0" style="stop-color:#A48058"/>
		<stop  offset="0.5608" style="stop-color:#6C4D2C"/>
		<stop  offset="1" style="stop-color:#45290D"/>
	</linearGradient>
	<path class="st27" d="M-11.1,30.6C-8.8,21.3-7,13.9-5.6,8.2C-3.8,0.7-2.7-3.9-2.2-5.6c1.4-5.3,2.7-9,3.9-11.3
		c1.1-2.1,2.7-4.5,4.7-7.3c1.1-1.5,2.6-3.6,4.6-6.4c-1.2,1.2-3,3-5.3,5.5c-2.5,2.4-4.3,4.4-5.5,6c-2.1,2.7-3.6,5.6-4.5,8.9
		c-1.3,4.7-2.2,8-2.7,10.1C-7.8,3.4-8.5,6.7-9,9.8C-9.7,14.8-10.4,21.7-11.1,30.6z"/>
</symbol>
<symbol  id="jl" viewBox="-2.5 -1.4 5 2.8">
	
		<linearGradient id="SVGID_27_" gradientUnits="userSpaceOnUse" x1="-6057.3247" y1="-22104.9746" x2="-6044.625" y2="-22104.9746" gradientTransform="matrix(0.5042 -0.8636 0.8636 0.5042 22140.1484 5920.6426)">
		<stop  offset="0" style="stop-color:#A48058"/>
		<stop  offset="0.5608" style="stop-color:#6C4D2C"/>
		<stop  offset="1" style="stop-color:#45290D"/>
	</linearGradient>
	<path class="st28" d="M2.2,1.2c0.6-0.3,0.4-0.8-0.4-1.4s-1.9-1-3-1.2c-1-0.1-1.4,0-1.2,0.5C-2.4-0.4-1.9,0-1.2,0.4
		c0.9,0.5,1.5,0.8,1.8,0.9C1.2,1.4,1.7,1.4,2.2,1.2z"/>
</symbol>
<symbol  id="jm" viewBox="-2.6 -2.1 5.1 4.2">
	
		<linearGradient id="SVGID_28_" gradientUnits="userSpaceOnUse" x1="-6797.459" y1="-16338.8887" x2="-6782.6592" y2="-16338.8887" gradientTransform="matrix(0.7045 -0.7097 0.7097 0.7045 16378.3115 6692.7847)">
		<stop  offset="0" style="stop-color:#A48058"/>
		<stop  offset="0.5608" style="stop-color:#6C4D2C"/>
		<stop  offset="1" style="stop-color:#45290D"/>
	</linearGradient>
	<path class="st29" d="M2,2.1c0.7-0.1,0.7-0.7-0.2-1.6c-0.8-1-1.8-1.7-3-2.2c-1-0.4-1.5-0.4-1.4,0.2c0,0.5,0.4,1.1,1.1,1.8
		c0.8,0.8,1.4,1.3,1.7,1.5C0.8,2,1.4,2.2,2,2.1z"/>
</symbol>
<symbol  id="jn" viewBox="-4.6 -4 9.2 8.1">
	
		<linearGradient id="SVGID_29_" gradientUnits="userSpaceOnUse" x1="-6800.9766" y1="-16332.0371" x2="-6780.4766" y2="-16332.0371" gradientTransform="matrix(0.7047 -0.7095 0.7095 0.7047 16371.3359 6692.7881)">
		<stop  offset="0" style="stop-color:#A48058"/>
		<stop  offset="0.5608" style="stop-color:#6C4D2C"/>
		<stop  offset="1" style="stop-color:#45290D"/>
	</linearGradient>
	<path class="st30" d="M3.9,4c1.2,0,0.9-1-0.7-2.9C1.6-0.6-0.2-2.1-2.2-3.3c-1.8-1-2.6-1-2.4-0.1c0.2,0.9,1,2,2.3,3.3
		c1.5,1.5,2.6,2.5,3.2,3C1.9,3.7,2.9,4.1,3.9,4z"/>
</symbol>
<symbol  id="jo" viewBox="-1.9 -9.3 3.8 18.6">
	
		<linearGradient id="SVGID_30_" gradientUnits="userSpaceOnUse" x1="-380.122" y1="-370.5706" x2="-355.782" y2="-370.5706" gradientTransform="matrix(0.9997 -2.260000e-02 2.260000e-02 0.9997 373.4051 362.2085)">
		<stop  offset="0" style="stop-color:#A48058"/>
		<stop  offset="0.5608" style="stop-color:#6C4D2C"/>
		<stop  offset="1" style="stop-color:#45290D"/>
	</linearGradient>
	<path class="st31" d="M1.8,4.9C2,1,1.7-2.6,0.9-6c-0.7-3.1-1.4-4-2-2.6c-0.6,1.2-0.8,3.3-0.8,6.1c0,3.4,0.1,5.7,0.3,6.8
		C-1.4,6.3-0.9,7.9,0,8.9C1,10.1,1.6,8.8,1.8,4.9z"/>
</symbol>
<symbol  id="jp" viewBox="-8.9 -12.3 17.9 24.5">
	
		<linearGradient id="SVGID_31_" gradientUnits="userSpaceOnUse" x1="4403.5234" y1="3429.1082" x2="4418.0234" y2="3429.1082" gradientTransform="matrix(0.9705 0.2409 -0.2409 0.9705 -3453.5518 -4390.0259)">
		<stop  offset="0" style="stop-color:#A48058"/>
		<stop  offset="0.5608" style="stop-color:#6C4D2C"/>
		<stop  offset="1" style="stop-color:#45290D"/>
	</linearGradient>
	<path class="st32" d="M3.4,11.3c1.3,0.4,2.7,0.7,4.1,0.9c1.5,0.1,1.8-0.1,0.8-0.8c-1.5-0.8-2.6-1.5-3.4-2C3.5,8.6,2.3,7.6,1.4,6.3
		C0.6,5.2-0.4,4.1-1.7,2.8c-1.5-1.5-2.6-2.6-3.2-3.4c-0.9-1-1.6-3.1-2.2-6.1c-0.6-3.1-1.1-4.9-1.4-5.4c-0.5-0.8-0.6,0.3-0.1,3.1
		c0.8,3.7,1.3,6.2,1.5,7.6c0.3,1.9,1,3.4,2.1,4.8C-4.3,4.1-3.3,5-1.9,6.1c0.6,0.4,1.5,1.4,2.7,2.9C1.8,10.3,2.6,11.1,3.4,11.3z"/>
</symbol>
<symbol  id="jq" viewBox="-12.8 -42.2 25.6 84.4">
	
		<linearGradient id="SVGID_32_" gradientUnits="userSpaceOnUse" x1="-1070.6376" y1="-1133.7648" x2="-1051.7676" y2="-1133.7648" gradientTransform="matrix(0.9977 -6.760000e-02 6.760000e-02 0.9977 1140.2933 1059.2482)">
		<stop  offset="0" style="stop-color:#A48058"/>
		<stop  offset="0.5608" style="stop-color:#6C4D2C"/>
		<stop  offset="1" style="stop-color:#45290D"/>
	</linearGradient>
	<path class="st33" d="M8.6,37.2c0.1-0.6,0.4-1.1,1-1.4c0.3-0.2,0.5-1.5,0.4-4C9.4,21.1,9,13.2,8.6,8.4C8.2,3.8,8.2,1.3,8.5,0.8
		c0.2-0.4,0.8,0.9,1.6,3.8c0.7,2.6,1.2,0.7,1.3-5.9c0.1-6.4-0.1-11.4-0.6-15c-0.4-2.7-0.2-3.9,0.6-3.5c0.4,0.2,0.9,0.6,1.4,1.3
		l-0.1-3.3c-0.3-2.7-1-5.2-2.1-7.7C7.9-35,4.9-39,1.7-41.3c-1.5-1.1-2.2-1.2-2-0.4c0.2,0.8,1,2,2.3,3.8c2.2,2.7,0.4,2.5-5.6-0.8
		c-2.3-1.2-4.3-2.1-6-2.4c-1.6-0.4-2.6-0.3-3.1,0.2c-0.3,0.1,0,0.4,0.8,1.1c1.1,0.8,1.8,1.5,2.3,1.9c2.5,2.2,4.1,4.4,4.7,6.6
		c1.2,4.1,2,8,2.4,11.8c0.1,0.8,0.3,3.9,0.8,9.5C-1.5-5.8-1.2-2.8-0.9-1c0.4,2.2,0.6,4,0.6,5.3c0,1.2-0.1,3-0.4,5.3
		C-1.1,11.4-1,13.5-0.5,16c0.7,3.2,1.3,5.9,1.8,8c0.4,2,0.9,5.7,1.4,11.2C3,39.5,3.4,41.8,3.8,42c1,0.5,2,0.2,3-0.9
		C7.7,40.1,8.3,38.8,8.6,37.2z"/>
</symbol>
<symbol  id="jr" viewBox="-30.8 -16.7 61.7 33.4">
	
		<linearGradient id="SVGID_33_" gradientUnits="userSpaceOnUse" x1="1532.36" y1="1464.9622" x2="1727.97" y2="1464.9622" gradientTransform="matrix(0.9955 9.480000e-02 -9.480000e-02 0.9955 -1474.4323 -1611.993)">
		<stop  offset="0" style="stop-color:#A89A8A"/>
		<stop  offset="0.3882" style="stop-color:#86776C"/>
		<stop  offset="1" style="stop-color:#4A3836"/>
	</linearGradient>
	<path class="st34" d="M30.3-3L30.3-3l-0.2-0.2L30-3.3l-0.5-0.3l-0.2-0.1c-0.1-0.1-0.3-0.5-0.8-1.4c-0.4-0.7-0.7-1.2-1-1.3
		c-7.7-4.3-12.1-6.7-13.2-7.1c-6.8-2.8-13.3-3.8-19.5-2.9c-1.6,3.6-6.3,7.5-14,11.8c-3.7,2-6.3,3.4-7.7,4.3
		c-2.4,1.4-3.7,2.6-3.9,3.4v0.3C-31.3,4.5-29.7,6-26,7.7c1.4,0.6,4.1,1.5,8.2,2.7c4,1.1,6.9,2.1,8.8,2.9c1.2,0.5,2.7,1.3,4.7,2.4
		c1.6,0.7,2.7,1.1,3.5,1c3.3-0.3,7.3-2,11.8-5c5.5-3.7,9.3-5.9,11.3-6.6c2.4-0.8,4.5-2,6.3-3.6C30.8-0.3,31.4-1.8,30.3-3z"/>
</symbol>
<symbol  id="js" viewBox="-3.7 -1.9 7.4 3.7">
	
		<linearGradient id="SVGID_34_" gradientUnits="userSpaceOnUse" x1="1606.3979" y1="1461.9406" x2="1629.1281" y2="1461.9406" gradientTransform="matrix(0.9955 9.460000e-02 -9.460000e-02 0.9955 -1471.0823 -1608.3162)">
		<stop  offset="0" style="stop-color:#54D8D6"/>
		<stop  offset="0.2471" style="stop-color:#52B4B2"/>
		<stop  offset="0.7961" style="stop-color:#4C5B59"/>
		<stop  offset="1" style="stop-color:#4A3836"/>
	</linearGradient>
	<path class="st35" d="M1.4,1.3c2.3-1.1,2.9-2,1.8-2.7C2.1-2.1,0.5-2-1.7-1.2C-3.8-0.5-4.3,0.3-3,1.2C-1.8,2.1-0.4,2.1,1.4,1.3z"/>
</symbol>
<symbol  id="jt" viewBox="-15.5 -7.2 31 14.5">
	
		<linearGradient id="SVGID_35_" gradientUnits="userSpaceOnUse" x1="3276.3933" y1="2734.8892" x2="3374.3933" y2="2734.8892" gradientTransform="matrix(0.9825 0.1861 -0.1861 0.9825 -2753.6003 -3304.9424)">
		<stop  offset="0" style="stop-color:#A89A8A"/>
		<stop  offset="0.3882" style="stop-color:#86776C"/>
		<stop  offset="1" style="stop-color:#4A3836"/>
	</linearGradient>
	<path class="st36" d="M15.3,0.2L15.3,0.2l-0.1-0.1l0-0.1l-0.3-0.2l0-0.1c-0.3-0.7-0.5-1.1-0.8-1.3c-3.9-2.3-6-3.5-6.3-3.7
		C4.5-6.6,1.3-7.3-1.9-7.2c-0.9,1.5-3.4,3-7.5,4.4c-3.9,1.4-5.9,2.4-6.1,2.8v0.1c-0.3,0.5,0.4,1.2,2.2,2.1c0.7,0.3,2,0.8,4,1.5
		C-7.3,4.4-5.8,5-5,5.4c0.6,0.3,1.3,0.7,2.2,1.2C-2,7-1.4,7.2-1,7.2c1.7,0,3.7-0.5,6.1-1.6c2.9-1.3,4.8-2.1,5.8-2.3
		c1.2-0.3,2.3-0.7,3.3-1.2C15.4,1.4,15.7,0.8,15.3,0.2z"/>
</symbol>
<symbol  id="ju" viewBox="-1.9 -0.7 3.7 1.5">
	
		<linearGradient id="SVGID_36_" gradientUnits="userSpaceOnUse" x1="3329.2949" y1="2743.7883" x2="3340.6951" y2="2743.7883" gradientTransform="matrix(0.9824 0.1868 -0.1868 0.9824 -2763.2217 -3318.3914)">
		<stop  offset="0" style="stop-color:#54D8D6"/>
		<stop  offset="0.2471" style="stop-color:#52B4B2"/>
		<stop  offset="0.7961" style="stop-color:#4C5B59"/>
		<stop  offset="1" style="stop-color:#4A3836"/>
	</linearGradient>
	<path class="st37" d="M0.6,0.6c1.2-0.4,1.5-0.7,1-1C1.1-0.8,0.3-0.8-0.9-0.6c-1.1,0.2-1.3,0.6-0.7,0.9C-1,0.8-0.3,0.9,0.6,0.6z"/>
</symbol>
<symbol  id="jv" viewBox="-21.5 -8.2 42.9 16.3">
	
		<linearGradient id="SVGID_37_" gradientUnits="userSpaceOnUse" x1="29994.7012" y1="2104.4722" x2="30010.7012" y2="2104.4722" gradientTransform="matrix(0.1454 0.9894 -0.9894 0.1454 -2281.334 -30000.9707)">
		<stop  offset="0" style="stop-color:#BAAFA2"/>
		<stop  offset="0.3255" style="stop-color:#998C82"/>
		<stop  offset="1" style="stop-color:#4A3836"/>
	</linearGradient>
	<path class="st38" d="M20.1-1.6c1.5-1.1,1.8-2.2,0.9-3.2C19.5-6.6,15-7.6,7.4-8C-0.3-8.4-6.9-7.9-12.3-6.4
		c-4.2,1.1-6.9,2.1-8.1,2.9c-1.9,1.3-1.4,2.8,1.6,4.5c1,0.5,2.9,1.2,5.7,2.1c2.9,0.8,4.9,1.6,6.2,2.3C-6,5.8-4.9,6.4-3.5,7.3
		c1.1,0.6,1.9,0.9,2.4,0.9C1.3,8.1,4.1,7,7.4,4.9c4-2.5,6.7-4,8.1-4.4C17.4-0.1,18.9-0.8,20.1-1.6z"/>
</symbol>
<symbol  id="jw" viewBox="-30.3 -11.3 60.5 22.5">
	
		<linearGradient id="SVGID_38_" gradientUnits="userSpaceOnUse" x1="29191.3418" y1="2674.7566" x2="29212.3418" y2="2674.7566" gradientTransform="matrix(0.1874 0.9823 -0.9823 0.1874 -2847.0415 -29200.4629)">
		<stop  offset="0" style="stop-color:#BAAFA2"/>
		<stop  offset="0.3255" style="stop-color:#998C82"/>
		<stop  offset="1" style="stop-color:#4A3836"/>
	</linearGradient>
	<path class="st39" d="M10.8,6.2c5.5-3.7,9.3-5.9,11.3-6.6c2.6-0.9,4.7-2,6.3-3.3c2-1.6,2.4-3.1,1.2-4.4c-2.1-2.2-8.6-3.3-19.3-3.3
		C-0.7-11.2-10-10-17.5-7.6c-5.9,1.9-9.7,3.4-11.3,4.6c-2.7,2-1.9,3.9,2.5,5.9c1.4,0.6,4.1,1.4,8.2,2.3c4,0.9,7,1.8,8.8,2.7
		c1.2,0.5,2.7,1.3,4.7,2.4c1.6,0.7,2.8,1.1,3.5,1C2.3,10.9,6.2,9.3,10.8,6.2z"/>
</symbol>
<symbol  id="jx" viewBox="-3.9 -1.4 7.7 2.9">
	
		<linearGradient id="SVGID_39_" gradientUnits="userSpaceOnUse" x1="-2072.8015" y1="-2358.3513" x2="-2055.4016" y2="-2358.3513" gradientTransform="matrix(0.9907 -0.136 0.136 0.9907 2370.5112 2055.0642)">
		<stop  offset="0" style="stop-color:#91D8D6"/>
		<stop  offset="0.2471" style="stop-color:#81B4B2"/>
		<stop  offset="0.7961" style="stop-color:#595B59"/>
		<stop  offset="1" style="stop-color:#4A3836"/>
	</linearGradient>
	<path class="st40" d="M3.4,0.1C2.2-1,0.5-1.5-1.8-1.4C-4-1.4-4.4-1-3.2-0.1C-2,0.7-0.6,1.2,1.2,1.4C3.8,1.6,4.5,1.2,3.4,0.1z"/>
</symbol>
<symbol  id="jy" viewBox="-1.5 -3.8 3 7.6">
	
		<linearGradient id="SVGID_40_" gradientUnits="userSpaceOnUse" x1="-385.1403" y1="-379.1642" x2="-365.6803" y2="-379.1642" gradientTransform="matrix(0.9997 -2.310000e-02 2.310000e-02 0.9997 381.8651 370.4305)">
		<stop  offset="0" style="stop-color:#A48058"/>
		<stop  offset="0.5608" style="stop-color:#6C4D2C"/>
		<stop  offset="1" style="stop-color:#45290D"/>
	</linearGradient>
	<path class="st41" d="M0.1,3.6c0.8,0.5,1.3,0,1.4-1.6c0.1-1.5-0.2-3-0.8-4.4C0-3.7-0.5-4.1-1-3.5C-1.4-3-1.6-2.2-1.5-1
		c0.1,1.5,0.2,2.4,0.3,2.8C-1,2.6-0.6,3.2,0.1,3.6z"/>
</symbol>
<symbol  id="jz" viewBox="-15.2 -4.7 30.4 9.5">
	
		<linearGradient id="SVGID_41_" gradientUnits="userSpaceOnUse" x1="30882.6523" y1="1412.6021" x2="30892.6523" y2="1412.6021" gradientTransform="matrix(9.710000e-02 0.9953 -0.9953 9.710000e-02 -1593.6263 -30885.3145)">
		<stop  offset="0" style="stop-color:#BAAFA2"/>
		<stop  offset="0.3255" style="stop-color:#998C82"/>
		<stop  offset="1" style="stop-color:#4A3836"/>
	</linearGradient>
	<path class="st42" d="M14.9-2.1c-1-1.1-4.1-1.8-9.5-2.3C0-4.9-4.7-4.8-8.6-4.1c-3,0.6-4.9,1-5.8,1.4C-15.7-1.9-15.4-1-13.4,0
		c0.6,0.3,2,0.8,4.1,1.3c2,0.6,3.4,1.1,4.2,1.5c0.6,0.3,1.3,0.7,2.3,1.2C-2,4.5-1.5,4.7-1.1,4.7c1.7,0,3.7-0.5,6.1-1.6
		C7.9,1.8,9.9,1,10.9,0.8c1.4-0.3,2.5-0.7,3.3-1.1C15.2-0.9,15.5-1.5,14.9-2.1z"/>
</symbol>
<symbol  id="ka" viewBox="-1.9 -0.7 3.8 1.5">
	
		<linearGradient id="SVGID_42_" gradientUnits="userSpaceOnUse" x1="-685.5792" y1="-709.6838" x2="-676.8292" y2="-709.6838" gradientTransform="matrix(0.9991 -4.280000e-02 4.280000e-02 0.9991 713.4254 679.7855)">
		<stop  offset="0" style="stop-color:#91D8D6"/>
		<stop  offset="0.2471" style="stop-color:#81B4B2"/>
		<stop  offset="0.7961" style="stop-color:#595B59"/>
		<stop  offset="1" style="stop-color:#4A3836"/>
	</linearGradient>
	<path class="st43" d="M1.7,0.2C1.2-0.3,0.3-0.6-0.8-0.7c-1.1-0.1-1.3,0.1-0.8,0.5c0.5,0.4,1.2,0.7,2.1,0.9C1.8,0.9,2.2,0.7,1.7,0.2
		z"/>
</symbol>
<symbol  id="kb" viewBox="-17.8 -31.2 35.6 62.4">
	
		<linearGradient id="SVGID_43_" gradientUnits="userSpaceOnUse" x1="22344.8086" y1="-38479.4258" x2="22504.8086" y2="-38479.4258" gradientTransform="matrix(-0.873 -0.4878 0.4878 -0.873 38352.5938 -22653.4453)">
		<stop  offset="0" style="stop-color:#A48058"/>
		<stop  offset="0.5608" style="stop-color:#6C4D2C"/>
		<stop  offset="1" style="stop-color:#45290D"/>
	</linearGradient>
	<path class="st44" d="M15,18.1c-0.9-3.9-1.6-6.9-2.1-8.8c-1.2-4-2-6.7-2.5-8C9.4-1.3,8.2-4.3,6.6-7.9c-1.8-3.9-3.1-6.5-3.9-7.8
		c-0.7-1.3-1.9-3-3.5-5.2c-2.1-2.8-4.3-6.3-6.8-10.3c0,0.9-1.4,1.6-4,1.9c-3.1,0.2-5.2,0.5-6.2,0.8c7.5,6.8,12.6,11.9,15.3,15.3
		c1.8,2.4,3.7,5,5.4,8c1.3,2.1,3.3,5.4,5.9,10c1.9,3.2,3.6,8,5.4,14.4c0.9,3.3,1.8,6.9,2.7,10.9c0.6,1.7,0.8,1.7,0.8,0
		c0-1.7-0.3-3.4-1-5.1C16.3,23.6,15.7,21.3,15,18.1z"/>
</symbol>
<symbol  id="kc" viewBox="-2.7 -1.9 5.3 3.7">
	
		<linearGradient id="SVGID_44_" gradientUnits="userSpaceOnUse" x1="26684.9727" y1="4178.894" x2="26693.9727" y2="4178.894" gradientTransform="matrix(0.3112 0.9503 -0.9503 0.3112 -4333.8208 -26661.416)">
		<stop  offset="0" style="stop-color:#BAAFA2"/>
		<stop  offset="0.3255" style="stop-color:#998C82"/>
		<stop  offset="1" style="stop-color:#4A3836"/>
	</linearGradient>
	<path class="st45" d="M2.5,1.9C3,1.4,2.3,0.7,0.4-0.4c-1-0.5-2-1-3-1.5C-0.5-0.7,1.2,0.5,2.5,1.9z"/>
</symbol>
<symbol  id="kd" viewBox="-3.8 -2.3 7.7 4.6">
	
		<linearGradient id="SVGID_45_" gradientUnits="userSpaceOnUse" x1="25767.0547" y1="4619.5996" x2="25779.0547" y2="4619.5996" gradientTransform="matrix(0.3529 0.9357 -0.9357 0.3529 -4771.4736 -25742.9883)">
		<stop  offset="0" style="stop-color:#BAAFA2"/>
		<stop  offset="0.3255" style="stop-color:#998C82"/>
		<stop  offset="1" style="stop-color:#4A3836"/>
	</linearGradient>
	<path class="st46" d="M3.6,2.3c0.7-0.6-0.3-1.6-3.1-2.9c-1.4-0.6-2.9-1.2-4.4-1.7C-0.7-1,1.7,0.5,3.6,2.3z"/>
</symbol>
<symbol  id="ke" viewBox="-3.6 -2.2 7.1 4.5">
	
		<linearGradient id="SVGID_46_" gradientUnits="userSpaceOnUse" x1="2411.5693" y1="2094.1775" x2="2434.0693" y2="2094.1775" gradientTransform="matrix(0.9903 0.1388 -0.1388 0.9903 -2107.9751 -2410.0791)">
		<stop  offset="0" style="stop-color:#54D8D6"/>
		<stop  offset="0.2471" style="stop-color:#52B4B2"/>
		<stop  offset="0.7961" style="stop-color:#4C5B59"/>
		<stop  offset="1" style="stop-color:#4A3836"/>
	</linearGradient>
	<path class="st47" d="M0.1,1.9c2.8-1,3.9-2.1,3.3-3.3C2.8-2.5,1.3-2.5-1.1-1.5c-2.2,1-2.9,1.9-2.2,2.8C-2.5,2.3-1.4,2.5,0.1,1.9z"
		/>
</symbol>
<symbol  id="kf" viewBox="-1.8 -1.2 3.7 2.3">
	
		<linearGradient id="SVGID_47_" gradientUnits="userSpaceOnUse" x1="27670.0664" y1="3645.7715" x2="27676.0664" y2="3645.7715" gradientTransform="matrix(0.2646 0.9643 -0.9643 0.2646 -3806.4463 -27649.1113)">
		<stop  offset="0" style="stop-color:#BAAFA2"/>
		<stop  offset="0.3255" style="stop-color:#998C82"/>
		<stop  offset="1" style="stop-color:#4A3836"/>
	</linearGradient>
	<path class="st48" d="M1.7,1.2C2.3,0.8,1.1,0-1.8-1.2C-0.4-0.5,0.8,0.3,1.7,1.2z"/>
</symbol>
<symbol  id="kg" viewBox="-1.8 -0.9 3.6 1.8">
	
		<linearGradient id="SVGID_48_" gradientUnits="userSpaceOnUse" x1="4183.8008" y1="3294.4692" x2="4195.1011" y2="3294.4692" gradientTransform="matrix(0.9732 0.23 -0.23 0.9732 -3319.0691 -4169.6802)">
		<stop  offset="0" style="stop-color:#54D8D6"/>
		<stop  offset="0.2471" style="stop-color:#52B4B2"/>
		<stop  offset="0.7961" style="stop-color:#4C5B59"/>
		<stop  offset="1" style="stop-color:#4A3836"/>
	</linearGradient>
	<path class="st49" d="M0,0.8c1.4-0.3,2-0.8,1.8-1.3C1.5-0.9,0.8-1-0.5-0.7C-1.6-0.4-2,0-1.7,0.4S-0.8,1,0,0.8z"/>
</symbol>
<symbol  id="kh" viewBox="-25.2 -33.9 50.4 67.8">
	
		<linearGradient id="SVGID_49_" gradientUnits="userSpaceOnUse" x1="-1081.4293" y1="-1137.688" x2="-1044.9194" y2="-1137.688" gradientTransform="matrix(0.9977 -6.780000e-02 6.780000e-02 0.9977 1143.8234 1062.515)">
		<stop  offset="0" style="stop-color:#A48058"/>
		<stop  offset="0.5608" style="stop-color:#6C4D2C"/>
		<stop  offset="1" style="stop-color:#45290D"/>
	</linearGradient>
	<path class="st50" d="M22.6,28.6c0.5-0.1,1,0.2,1.5,0.8c0.3-3.7,0-6.8-1-9.3c0-0.1-0.6-1.1-1.7-3.1c-0.7-1.3-1.1-2.4-1-3.3
		c0.2,0.2,1,1.3,2.3,3.2c0.9,1.4,1.8,2.2,2.7,2.4c-1-5.1-2.9-10.3-5.8-15.5c-0.4-0.7-1-1.6-1.9-2.8C16.6-0.1,16-1,15.6-1.7
		c-0.5-0.9-1-2.3-1.4-4.2c-0.4-2-0.8-3.5-1.2-4.3c-1-2.4-2.1-4.3-3.2-5.8c-0.8-1.1-2-2.4-3.5-3.7c-0.9-0.8-2.2-1.9-4-3.3
		c-2.5-2.2-3.4-3-2.7-2.2c2.3,2.5,3.8,4.3,4.6,5.4C5.5-18,5-18,2.5-19.8c-2.2-1.5-4.8-3.6-7.9-6.4c-2.8-2.5-5.2-4.3-7.1-5.4
		c-2.3-1.3-4.8-2-7.4-2.2c-4.7-0.3-6.3,0-4.8,0.9c8.9,5.6,15.1,9.6,18.6,12c2.6,1.8,4.9,3.7,7.1,5.8c2.1,2.1,4.3,4.8,6.5,8
		c1.9,2.8,4,6.9,6.2,12.5c0.9,2.4,2.4,6.8,4.6,13.1c1,2.9,1.8,6.7,2.5,11.5l0.5,3.9C21.3,30.6,21.6,28.8,22.6,28.6z"/>
</symbol>
<symbol  id="ki" viewBox="-1.2 -2.8 2.3 5.5">
	
		<linearGradient id="SVGID_50_" gradientUnits="userSpaceOnUse" x1="4360.3945" y1="3399.6199" x2="4361.7944" y2="3399.6199" gradientTransform="matrix(0.9711 0.2385 -0.2385 0.9711 -3424.0823 -4341.4644)">
		<stop  offset="0" style="stop-color:#A48058"/>
		<stop  offset="0.5608" style="stop-color:#6C4D2C"/>
		<stop  offset="1" style="stop-color:#45290D"/>
	</linearGradient>
	<path class="st51" d="M1,1c0.3-1.8,0.2-3-0.5-3.6c-0.6-0.5-1,0.1-1.4,1.7c-0.4,1.6-0.3,2.7,0.1,3.2C0.1,3.2,0.7,2.8,1,1z"/>
</symbol>
<symbol  id="kj" viewBox="-1.2 -2.8 2.3 5.5">
	
		<linearGradient id="SVGID_51_" gradientUnits="userSpaceOnUse" x1="4360.3535" y1="3399.6206" x2="4361.7534" y2="3399.6206" gradientTransform="matrix(0.9711 0.2385 -0.2385 0.9711 -3424.0823 -4341.4644)">
		<stop  offset="0" style="stop-color:#A48058"/>
		<stop  offset="0.5608" style="stop-color:#6C4D2C"/>
		<stop  offset="1" style="stop-color:#45290D"/>
	</linearGradient>
	<path class="st52" d="M1,1c0.3-1.8,0.2-3-0.5-3.6c-0.6-0.5-1,0.1-1.4,1.7c-0.3,1.6-0.3,2.7,0.2,3.2C0.1,3.2,0.7,2.8,1,1z"/>
</symbol>
<symbol  id="kk" viewBox="-1.2 -2.1 2.4 4.3">
	
		<linearGradient id="SVGID_52_" gradientUnits="userSpaceOnUse" x1="-1245.3538" y1="-1339.2262" x2="-1243.7538" y2="-1339.2262" gradientTransform="matrix(0.9968 -7.940000e-02 7.940000e-02 0.9968 1347.0488 1236.1096)">
		<stop  offset="0" style="stop-color:#A48058"/>
		<stop  offset="0.5608" style="stop-color:#6C4D2C"/>
		<stop  offset="1" style="stop-color:#45290D"/>
	</linearGradient>
	<path class="st53" d="M1.1,0.5C0.9-1,0.5-1.9-0.3-2.1C-1-2.3-1.3-1.7-1.2-0.4c0.1,1.3,0.4,2.1,1,2.3C0.9,2.4,1.3,2,1.1,0.5z"/>
</symbol>
<symbol  id="kl" viewBox="-1.2 -2.1 2.4 4.2">
	
		<linearGradient id="SVGID_53_" gradientUnits="userSpaceOnUse" x1="-1245.3618" y1="-1339.2264" x2="-1243.7518" y2="-1339.2264" gradientTransform="matrix(0.9968 -7.940000e-02 7.940000e-02 0.9968 1347.0488 1236.1096)">
		<stop  offset="0" style="stop-color:#A48058"/>
		<stop  offset="0.5608" style="stop-color:#6C4D2C"/>
		<stop  offset="1" style="stop-color:#45290D"/>
	</linearGradient>
	<path class="st54" d="M1.1,0.5C0.9-1,0.5-1.8-0.3-2.1C-1-2.3-1.3-1.7-1.2-0.4c0.1,1.3,0.4,2.1,1,2.3C0.9,2.4,1.3,1.9,1.1,0.5z"/>
</symbol>
<symbol  id="km" viewBox="-1.9 -4.7 3.8 9.3">
	
		<linearGradient id="SVGID_54_" gradientUnits="userSpaceOnUse" x1="-1330.3367" y1="-1439.8478" x2="-1328.2866" y2="-1439.8478" gradientTransform="matrix(0.9964 -8.510000e-02 8.510000e-02 0.9964 1447.1725 1321.5284)">
		<stop  offset="0" style="stop-color:#A48058"/>
		<stop  offset="0.5608" style="stop-color:#6C4D2C"/>
		<stop  offset="1" style="stop-color:#45290D"/>
	</linearGradient>
	<path class="st55" d="M1.7,1.3C1-1.9,0.2-3.8-0.9-4.5c-1-0.6-1.2,0.5-0.8,3.3S-0.6,3.3,0.2,4C1.8,5.4,2.3,4.5,1.7,1.3z"/>
</symbol>
<symbol  id="kn" viewBox="-2.5 -5.7 5.1 11.4">
	
		<linearGradient id="SVGID_55_" gradientUnits="userSpaceOnUse" x1="11589.3145" y1="6222.4976" x2="11591.3145" y2="6222.4976" gradientTransform="matrix(0.8366 0.5477 -0.5477 0.8366 -6288.4746 -11553.8564)">
		<stop  offset="0" style="stop-color:#A48058"/>
		<stop  offset="0.5608" style="stop-color:#6C4D2C"/>
		<stop  offset="1" style="stop-color:#45290D"/>
	</linearGradient>
	<path class="st56" d="M0.3,2.4c1.7-3.7,2.5-6.2,2.2-7.6C2.2-6.4,1.3-5.4-0.3-2.3C-1.8,0.9-2.6,3-2.5,4.2C-2.4,6.7-1.4,6.1,0.3,2.4z
		"/>
</symbol>
<symbol  id="ko" viewBox="-1.6 -6.2 3.1 12.5">
	
		<linearGradient id="SVGID_56_" gradientUnits="userSpaceOnUse" x1="4492.6675" y1="3478.5535" x2="4494.9673" y2="3478.5535" gradientTransform="matrix(0.9695 0.245 -0.245 0.9695 -3504.1882 -4473.3799)">
		<stop  offset="0" style="stop-color:#A48058"/>
		<stop  offset="0.5608" style="stop-color:#6C4D2C"/>
		<stop  offset="1" style="stop-color:#45290D"/>
	</linearGradient>
	<path class="st57" d="M1.3,2.3c0.5-4.2,0.3-6.9-0.6-8.1c-0.8-1.1-1.4,0.1-1.9,3.8s-0.5,6,0.1,7.1C0,7.3,0.8,6.4,1.3,2.3z"/>
</symbol>
<symbol  id="kp" viewBox="-7.2 -4.2 14.3 8.4">
	
		<linearGradient id="SVGID_57_" gradientUnits="userSpaceOnUse" x1="26647.3145" y1="4196.2612" x2="26668.3145" y2="4196.2612" gradientTransform="matrix(0.3128 0.9498 -0.9498 0.3128 -4351.3154 -26627.2031)">
		<stop  offset="0" style="stop-color:#BAAFA2"/>
		<stop  offset="0.3255" style="stop-color:#998C82"/>
		<stop  offset="1" style="stop-color:#4A3836"/>
	</linearGradient>
	<path class="st58" d="M5.1,4.1l2.1,0.1C5.3,1.5,2.3-0.7-1.7-2.4c-2-0.9-3.8-1.5-5.4-1.8C-4-3.5-1.1-2,1.8,0.6
		C3.2,1.8,4.3,3,5.1,4.1z"/>
</symbol>
<symbol  id="kq" viewBox="-9.4 -4.9 18.9 9.9">
	
		<linearGradient id="SVGID_58_" gradientUnits="userSpaceOnUse" x1="25749.2109" y1="4627.2891" x2="25778.2109" y2="4627.2891" gradientTransform="matrix(0.3535 0.9354 -0.9354 0.3535 -4777.0239 -25729.6133)">
		<stop  offset="0" style="stop-color:#BAAFA2"/>
		<stop  offset="0.3255" style="stop-color:#998C82"/>
		<stop  offset="1" style="stop-color:#4A3836"/>
	</linearGradient>
	<path class="st59" d="M-9.4-4.9c3.8,0.9,7.5,2.6,11,5.3c2,1.6,3.6,3.1,4.8,4.6h3C6.6,1.5,2.3-1.3-3.4-3.3C-5.6-4.1-7.6-4.6-9.4-4.9
		z"/>
</symbol>
<symbol  id="kr" viewBox="-1.6 -0.7 3.2 1.4">
	
		<linearGradient id="SVGID_59_" gradientUnits="userSpaceOnUse" x1="3066.6389" y1="2561.5068" x2="3072.3389" y2="2561.5068" gradientTransform="matrix(0.9849 0.173 -0.173 0.9849 -2578.8215 -3053.6519)">
		<stop  offset="0" style="stop-color:#54D8D6"/>
		<stop  offset="0.2471" style="stop-color:#52B4B2"/>
		<stop  offset="0.7961" style="stop-color:#4C5B59"/>
		<stop  offset="1" style="stop-color:#4A3836"/>
	</linearGradient>
	<path class="st60" d="M0.4,0.7c1-0.1,1.4-0.4,1-0.9s-1-0.6-2-0.6c-1,0.1-1.3,0.4-0.9,0.9S-0.4,0.8,0.4,0.7z"/>
</symbol>
<symbol  id="ks" viewBox="-4.5 -2.6 9 5.1">
	
		<linearGradient id="SVGID_60_" gradientUnits="userSpaceOnUse" x1="27643.8496" y1="3660.365" x2="27657.8496" y2="3660.365" gradientTransform="matrix(0.2658 0.964 -0.964 0.2658 -3820.3071 -27625.8164)">
		<stop  offset="0" style="stop-color:#BAAFA2"/>
		<stop  offset="0.3255" style="stop-color:#998C82"/>
		<stop  offset="1" style="stop-color:#4A3836"/>
	</linearGradient>
	<path class="st61" d="M-4.5-2.6C-2.6-2-0.9-1.1,0.8,0.3C1.7,1,2.5,1.7,3,2.4l1.5,0.1c-1.3-1.6-3.3-3-6.1-4.2
		C-2.6-2-3.6-2.3-4.5-2.6z"/>
</symbol>
<symbol  id="kt" viewBox="-0.8 -0.3 1.6 0.6">
	
		<linearGradient id="SVGID_61_" gradientUnits="userSpaceOnUse" x1="4786.5034" y1="3649.4106" x2="4789.3032" y2="3649.4106" gradientTransform="matrix(0.9658 0.2593 -0.2593 0.9658 -3677.2671 -4765.9512)">
		<stop  offset="0" style="stop-color:#54D8D6"/>
		<stop  offset="0.2471" style="stop-color:#52B4B2"/>
		<stop  offset="0.7961" style="stop-color:#4C5B59"/>
		<stop  offset="1" style="stop-color:#4A3836"/>
	</linearGradient>
	<path class="st62" d="M0.8,0c-0.1-0.2-0.5-0.3-1-0.3c-0.5,0-0.7,0.1-0.5,0.3c0.2,0.2,0.5,0.3,0.9,0.3C0.7,0.3,0.9,0.2,0.8,0z"/>
</symbol>
<symbol  id="ku" viewBox="-13 -6.4 26 12.8">
	
		<linearGradient id="SVGID_62_" gradientUnits="userSpaceOnUse" x1="-2259.0686" y1="-2602.8542" x2="-2227.2686" y2="-2602.8542" gradientTransform="matrix(0.9888 -0.1491 0.1491 0.9888 2615.0811 2236.6943)">
		<stop  offset="0" style="stop-color:#A48058"/>
		<stop  offset="0.5608" style="stop-color:#6C4D2C"/>
		<stop  offset="1" style="stop-color:#45290D"/>
	</linearGradient>
	<path class="st63" d="M3.8,5.3C7,4.6,10.1,3.8,13,2.9C2.5,3.5-3.8,3.6-6,3.4c-1.4-0.2-2.7-1.5-4.1-4.1C-10.8-2-11.7-3.8-12.6-6
		c-0.7-1.4-0.5,0.6,0.7,6.1c0.2,0.6,0.6,1.6,1.3,2.8c0.9,1.5,1.6,2.4,2.3,2.8C-6.7,6.8-2.7,6.6,3.8,5.3z"/>
</symbol>
<symbol  id="kv" viewBox="-34 -46.7 68.1 93.4">
	
		<linearGradient id="SVGID_63_" gradientUnits="userSpaceOnUse" x1="4373.6626" y1="3421.9885" x2="4416.1626" y2="3421.9885" gradientTransform="matrix(0.9707 0.2405 -0.2405 0.9707 -3449.1091 -4380.6118)">
		<stop  offset="0" style="stop-color:#A48058"/>
		<stop  offset="0.6549" style="stop-color:#504333"/>
		<stop  offset="1" style="stop-color:#292621"/>
	</linearGradient>
	<path class="st64" d="M15.5-2.7c1.5-7.9,3.4-13.8,5.5-18c1.6-3,4.6-7.1,9-12.4c3.3-3.8,4.6-5.9,3.8-6.3s-2.9-0.8-6.3-1.4
		c-4.2-0.8-7.4-1.5-9.6-2.1c-5.3-1.3-12.8-2-22.5-1.9c-2.9,0-6.5-0.2-10.8-0.7c-6.1-0.7-9.4-1.1-9.9-1.2c-3.4-0.3-5.8-0.2-7,0.1
		c-1.5,0.5-2,1.5-1.5,3.2c0.6,1.9,1.1,4.7,1.6,8.2c0.5,3.8,0.9,7.6,1,11.3c0.2,4.5,0.5,8.2,1.1,10.9c0.6,3.1,1.1,2.8,1.5-1
		c1.8-17.4,3.6-23.7,5.4-18.8c1.7,5.6,2.9,9.7,3.6,12.2c1.3,4.3,2.3,5.4,3,3.3c1-3.1,1.8-4.2,2.6-3.3c0.9,1.1,1,4.7,0.4,10.7
		c-0.6,5.7-0.9,10.4-1,14c-0.1,4.5-0.2,8.6-0.4,12.4c-0.3,7.4-0.5,11.6-0.5,12.5c-0.3,2.6-0.8,3.4-1.7,2.6
		c-0.8-0.7-1.2-4.8-1.2-12.3c0-5.3-0.1-7.1-0.3-5.6c-0.7,6.5-1.3,10.8-1.6,12.7c-0.7,4.7-1.4,6.5-2,5.4c-0.7-1.4-1.7-1.9-2.9-1.3
		c-1.3,0.6-1.8,1.9-1.6,3.9c0.2,2.1,0.8,3.6,1.6,4.6s2.4,1.9,4.7,2.7c2.9,1.1,11.9,2.8,26.9,5c1.2-0.7,2.3-3.4,3.3-8.3
		c0.9-4.2,1.8-10.4,2.7-18.6C13.3,10.5,14.4,3,15.5-2.7z"/>
</symbol>
<symbol  id="kw" viewBox="-14 -39.4 28 78.7">
	
		<linearGradient id="SVGID_64_" gradientUnits="userSpaceOnUse" x1="524.5123" y1="516.6709" x2="549.9854" y2="516.6709" gradientTransform="matrix(0.9995 3.240000e-02 -3.240000e-02 0.9995 -520.2278 -533.8218)">
		<stop  offset="0" style="stop-color:#A48058"/>
		<stop  offset="0.6549" style="stop-color:#504333"/>
		<stop  offset="1" style="stop-color:#292621"/>
	</linearGradient>
	<path class="st65" d="M-10.1,39.3c0.5-3.6,1.1-7.5,1.8-11.7c0.1-0.5,0.8-3.1,2.1-7.8c0.9-3.2,1.4-6.8,1.5-10.9
		c0.1-4.7,0.5-8.5,1-11.6c0.3-1.4,1.1-4.7,2.4-10c0.8-3.4,1.3-3.5,1.3-0.5c-0.1,4.6-0.1,7.7-0.1,9.2c0.1,1.6,0.4,0.5,1-3.1
		c0.9-5.5,1.6-9.2,2.2-11.1c0.7-2.7,2.6-6.6,5.5-11.7c2.6-4.4,4.3-7.1,5.2-7.9c0.5-0.5,0.3-0.9-0.6-1.3l-1.6-0.4
		c-0.7,0.5-1.7,1.4-3,2.8c-2.5,2.7-5,6.1-7.6,10.4C-1.8-21.8-3.8-16.4-5-10C-6.2-1.7-7.2,5-8,10.1c-1.9,12.6-3.9,22.2-6,28.8
		C-12.6,39.3-11.3,39.5-10.1,39.3z"/>
</symbol>
<symbol  id="kx" viewBox="-34.9 -43.3 69.9 86.5">
	
		<linearGradient id="SVGID_65_" gradientUnits="userSpaceOnUse" x1="22364.4238" y1="-38483.9609" x2="22497.4238" y2="-38483.9609" gradientTransform="matrix(-0.8729 -0.4879 0.4879 -0.8729 38352.5938 -22650.8066)">
		<stop  offset="0" style="stop-color:#A48058"/>
		<stop  offset="0.5608" style="stop-color:#6C4D2C"/>
		<stop  offset="1" style="stop-color:#45290D"/>
	</linearGradient>
	<path class="st66" d="M-4.1,43.3c0.8-11.5,0.9-16,0.5-13.6c-0.4,2.1-1,3.9-2,5.6c-1.1,2-2.3,3.3-3.7,3.8c-1.3,0.5-1.7-2.8-1.4-9.8
		c0.2-3.4,0.4-6.5,0.8-9.3c-0.1,2,0.1,3.8,0.5,5.3c0.5,2.2,1.3,2,2.4-0.5c0.5-1.2,1-4.6,1.6-10.3C-4.9,9.1-3.4,4.1-0.9-0.6
		c3-5.7,5-8.6,6-8.5c0.8,0,0.8,2.2,0,6.4C4,3.2,3.1,7.8,2.5,11c-1.1,5.8-1.9,9.7-2.4,11.6c-0.8,2.7-0.2,2.1,1.6-1.8
		c1.8-3.9,3.2-7.6,4.2-11.1c1-3.8,3.5-9.4,7.3-16.8c3.9-7.4,7.3-13.1,10.5-17.1c0.9-1.2,4.2-4.3,9.8-9.3c1.2-1.1,1.7-1.8,1.4-2.2
		c-0.4-0.4-1.8-0.5-4.3-0.3c-4.9,0.4-8.9,0.5-12,0.2c-1.8-0.2-5.5-0.7-11-1.7c-3.9-0.7-7.9-1.9-12-3.6l-5.1-2.3
		C-21-34.5-27.5-18-29.1,6.2c-0.5,6.8-1.5,12.8-3,17.9c-1.7,5.5-2.6,9.3-2.9,11.2C-24.4,37.7-14.1,40.4-4.1,43.3z"/>
</symbol>
<symbol  id="ky" viewBox="-150.5 -64.9 301.1 129.9">
	
		<linearGradient id="SVGID_66_" gradientUnits="userSpaceOnUse" x1="379.8711" y1="511.0283" x2="680.3254" y2="511.0283" gradientTransform="matrix(0.9995 3.200000e-02 -3.200000e-02 0.9995 -514.2979 -527.7382)">
		<stop  offset="0" style="stop-color:#897152"/>
		<stop  offset="3.140000e-02" style="stop-color:#836C50"/>
		<stop  offset="0.2392" style="stop-color:#5B4C41"/>
		<stop  offset="0.4431" style="stop-color:#3C3435"/>
		<stop  offset="0.6392" style="stop-color:#26222D"/>
		<stop  offset="0.8275" style="stop-color:#191828"/>
		<stop  offset="1" style="stop-color:#141426"/>
	</linearGradient>
	<path class="st67" d="M103.8,33.2c3.1-13.2,5.6-22.4,7.6-27.5c3.8-9.5,9.2-17.2,16.3-23.1c1.1-0.9,2.6-2.2,4.6-3.8
		c1.7-1.5,3.2-2.8,4.4-3.9c0.7-0.7,3.5-2.1,8.6-4.2c4.2-1.7,5.8-3,5-3.8c-4.1-3-9.5-5-16.3-5.9c-4.4-0.6-10.2-0.8-17.5-0.6
		c-3.6,0.2-6.4,0.4-8.4,0.4c-3.4,0-6.1-0.3-8.1-0.9c-10.4-3.8-15.7-5.6-15.9-5.4c1.7-1.6,4.3-3.4,8-5.4c1.9-1.6,0.7-3-3.7-4.3
		c-3.9-1.1-9.5-2.2-16.8-3.1c-8.1-1-13.8-1.6-17-2c-5.2-0.6-9.2-1.1-12.1-1.4c-5.1-0.6-9.1-1.1-11.9-1.6c-5.6-0.9-10.7-1.4-15.4-1.5
		c-4.8-0.2-9.9,0-15.4,0.6c-1.5,0.2-3.9,0.6-7.1,1.4c-3.1,0.7-5.5,1.2-7.2,1.3c-4.5,0-8.6,0.1-12.3,0.3c-7,0.3-11.3,1-12.8,2
		c-0.8,0.5-0.1,1.5,2.1,2.9c2.3,1.5,3,2.7,2.2,3.4c-1.6,0.9-2.7,1.5-3.3,1.7c-0.2,0-1.5,0.2-3.9,0.3c-2.6,0.2-5.3,0.3-8.3,0.2
		c-3.5-0.1-6.3-0.1-8.3,0.1c-22.3,1.1-35.1,1.8-38.5,2.1c-21.8,2.1-33.5,5.6-35.2,10.3c-0.2,0.5,0.9,1.4,3.1,2.8
		c3.1,1.7,5.4,3.1,6.9,4c5.9,3.6,6.8,5.8,2.7,6.6c-8.6,0.8-15.2,1.4-19.8,2c-8.4,1-12,2.9-10.8,5.5c0.2,0.8,1.1,1.6,2.8,2.3
		c2.5,1.1,4.7,2,6.5,2.7c8,3.3,15.2,7.6,21.8,12.9c4.9,3.9,9.2,9.1,12.7,15.4c3.1,5.6,5.5,11.9,7.2,18.7c0.2,0.7,0.7,3.6,1.5,8.5
		c0.8,4.8,1.3,7.5,1.5,8.2c1,3.4,2.8,5.3,5.4,5.6c0.5,0.1,2.2,0.2,5.1,0.3c2.7,0.1,5.3,0.3,7.7,0.7c4.9,0.7,11.5,1.8,19.6,3.1
		c7.3,1.2,14,2.1,20.2,2.7c5.7,0.6,12.1,0.9,19.2,1.1C-11.5,65-4.9,65,0.6,64.6c5-0.3,12.9-0.7,23.9-1.1c10-0.5,18-1.2,24-2
		c3-0.4,7-0.5,12.1-0.3c2.8,0.1,7.1,0.2,12.8,0.4c10.2,0.1,17.5-1.8,21.9-5.5c2.3-1.9,4.2-5.5,5.7-10.7
		C101,45.2,101.9,41.2,103.8,33.2L103.8,33.2z"/>
</symbol>
<use xlink:href="#fh"  width="179.8" height="88.4" x="-89.9" y="-44.2" transform="matrix(5.314337e-02 0 0 -0.1139 9.5789 5.0614)" style="overflow:visible;"/>
<use xlink:href="#fa"  width="193.9" height="100.3" x="-97" y="-50.2" transform="matrix(5.314329e-02 0 0 -0.1139 10.1799 5.9733)" style="overflow:visible;"/>
<use xlink:href="#ky"  width="301.1" height="129.9" x="-150.5" y="-64.9" transform="matrix(5.314339e-02 0 0 -0.1139 7.9672 8.6274)" style="overflow:visible;"/>
<linearGradient id="SVGID_67_" gradientUnits="userSpaceOnUse" x1="-1.9189" y1="9.5049" x2="18.6312" y2="9.5049" gradientTransform="matrix(0.9996 -2.680000e-02 -2.680000e-02 -0.9996 0.4564 18.02)">
	<stop  offset="0" style="stop-color:#897152"/>
	<stop  offset="6.670000e-02" style="stop-color:#725E4B"/>
	<stop  offset="0.1725" style="stop-color:#534442"/>
	<stop  offset="0.2745" style="stop-color:#3D313B"/>
	<stop  offset="0.3725" style="stop-color:#302637"/>
	<stop  offset="0.4588" style="stop-color:#2B2236"/>
	<stop  offset="0.6353" style="stop-color:#2F2D3C"/>
	<stop  offset="0.949" style="stop-color:#3A4B4E"/>
	<stop  offset="1" style="stop-color:#3C5151"/>
</linearGradient>
<path class="st68" d="M13.5,4.6c0.2,1.5,0.3,2.5,0.4,3.1c0.2,1.1,0.5,2,0.9,2.6c0.1,0.1,0.1,0.3,0.2,0.5c0.1,0.3,0.2,0.4,0.2,0.5
	c0,0.1,0.2,0.2,0.4,0.4c0.2,0.2,0.2,0.3,0.2,0.4c-0.2,0.3-0.5,0.6-0.8,0.6c-0.2,0.1-0.5,0.1-0.9,0c-0.2,0-0.3,0-0.4,0
	c-0.1,0-0.2,0.1-0.4,0.2c-0.6,0.5-0.9,0.7-0.9,0.7c0.1,0.2,0.2,0.4,0.3,0.6c0,0.1-0.1,0.3-0.3,0.4c-0.3,0.2-0.6,0.3-0.8,0.4
	c-0.3,0.1-0.6,0.2-0.8,0.3c-0.1,0-0.3,0-0.6,0c-0.2,0-0.4,0-0.6,0.1c-0.6,0.2-1.2,0.2-1.8,0.1c-0.2,0-0.3-0.1-0.4-0.1
	c-0.1,0-0.3-0.1-0.4-0.1c-0.2,0-0.3,0-0.4,0c-0.2,0-0.3-0.1-0.4-0.2c0,0,0-0.1,0.1-0.3c0.1-0.2,0.1-0.3,0.1-0.4
	c-0.1-0.1-0.2-0.2-0.2-0.2c0,0-0.1,0-0.3-0.1c-0.3-0.1-0.7-0.1-1.1-0.1c-0.7,0-1.3-0.1-1.8-0.2c-1-0.2-1.6-0.6-1.7-1.1
	c0-0.1,0-0.2,0.1-0.3c0.1-0.2,0.2-0.4,0.3-0.5C2,11.6,2,11.3,1.8,11.2C1.5,11.1,1.2,11,1,11c-0.3-0.1-0.6-0.3-0.8-0.5
	c0,0,0.1-0.2,0.3-0.4c0.3-0.4,0.7-0.9,1-1.5c0.3-0.4,0.5-1.1,0.7-1.9C2.4,6,2.6,5.3,2.7,4.4c0-0.1,0-0.4,0.1-1
	c0-0.5,0.1-0.9,0.1-0.9C2.9,2.1,3,1.9,3.1,1.9c0,0,0.1,0,0.3,0c0.1,0,0.3,0,0.4-0.1c0.3-0.1,0.6-0.2,1-0.4c0.4-0.1,0.7-0.2,1.1-0.3
	C6.2,1.1,6.5,1,6.9,1c0.4,0,0.8,0,1,0c0.3,0,0.7,0.1,1.3,0.1c0.5,0.1,1,0.1,1.3,0.2c0.2,0,0.4,0.1,0.6,0c0.2,0,0.4,0,0.7,0
	c0.5,0,0.9,0.2,1.2,0.6c0.1,0.2,0.2,0.6,0.3,1.2C13.3,3.2,13.4,3.7,13.5,4.6L13.5,4.6z"/>
<linearGradient id="SVGID_68_" gradientUnits="userSpaceOnUse" x1="-5.2936" y1="9.8889" x2="-2.6271" y2="9.8889" gradientTransform="matrix(7.000000e-02 -0.9975 -0.9975 -7.000000e-02 17.8875 3.1874)">
	<stop  offset="0" style="stop-color:#75656E"/>
	<stop  offset="0.2039" style="stop-color:#7C7072"/>
	<stop  offset="1" style="stop-color:#939780"/>
</linearGradient>
<path class="st69" d="M12.9,3.4c0,0.2-0.1,0.4,0,0.6c0,0.3,0,0.5,0,0.7c0-0.1-0.1-0.2-0.1-0.5c0-0.2-0.1-0.3-0.1-0.4
	c-0.1-0.1-0.2-0.1-0.4,0.1C12.1,4.1,12,4.2,12,4.3c-0.3,0.2-0.6,0.4-1,0.5C10.5,5,10,5.1,9.6,5.2C9.3,5.3,9.1,5.4,9,5.4
	C8.8,5.5,8.6,5.7,8.5,5.9C8.5,6.1,8.4,6.2,8.4,6.3C8.3,6.4,8.3,6.5,8.2,6.6C8.2,6.8,8.1,7.1,8.1,7.5c0,0.2,0,0.6-0.1,1
	C8,8.4,8,8.2,7.9,8C7.9,7.8,7.9,7.6,7.8,7.6c0-0.1,0-0.3,0-0.6c0-0.3,0-0.5,0-0.6c0-0.2,0-0.3,0-0.4c0-0.2,0-0.3-0.1-0.4
	c0-0.1-0.1-0.1-0.2-0.2c0,0-0.1,0-0.2,0c-0.5,0-0.9-0.1-1.5-0.3C5.5,5,5.3,4.9,5,4.8C4.8,4.7,4.7,4.7,4.6,4.7c-0.1,0-0.3,0-0.3,0.2
	c0,0,0,0.1-0.1,0.2c0,0,0,0.1,0,0.1c0,0.1,0,0.1,0,0.1c0,0.1,0,0.2,0,0.4c0,0.2,0,0.3,0,0.4c0,0,0,0.1,0,0.2c0,0.1,0,0.2,0,0.2V6
	c0,0,0-0.1,0-0.2c0-0.1,0-0.1,0-0.2C4,5.5,4,5.3,4,5.2c0-0.1,0-0.1,0-0.2c0-0.1,0-0.2,0-0.2c0-0.1,0-0.2,0-0.2c0,0,0,0,0-0.1
	c0,0,0-0.1,0-0.1c0,0,0,0-0.1-0.1c0,0,0,0-0.1-0.1c0,0-0.1-0.1-0.2-0.3C3.6,3.8,3.5,3.7,3.4,3.7c0,0-0.1-0.1-0.1-0.1
	C3.3,3.5,3.3,3.5,3.2,3.4C3.2,3.4,3.2,3.3,3.1,3.3c0,0,0,0-0.1,0c0,0,0,0,0,0c0,0,0,0,0,0c0,0,0,0-0.1,0c0,0,0,0-0.1-0.2
	c0-0.1,0-0.2,0-0.3l0-0.1c0-0.2,0-0.3,0-0.4C2.9,2,3.1,1.7,3.3,1.5c0.1-0.1,0.3-0.2,0.5-0.3c0.3-0.1,0.7-0.2,1-0.3
	c0.2,0,0.6-0.1,1.1-0.2c0.3-0.1,0.6-0.1,1-0.1c0.4,0,0.8,0,1,0c0,0,0.5,0,1.3,0.1c0.5,0.1,1,0.1,1.3,0.2c0.3,0.1,0.7,0.2,1.3,0.2
	c0.5,0.1,0.9,0.3,1.1,0.5c0.1,0.3,0.2,0.7,0.2,1c0,0.1,0,0.2,0,0.3c0,0.1,0,0.2,0,0.3c0,0,0-0.1,0-0.2c0-0.1,0-0.2,0-0.2
	C13,3,13,3.2,12.9,3.4L12.9,3.4z"/>
<linearGradient id="SVGID_69_" gradientUnits="userSpaceOnUse" x1="-1.7848" y1="23.7725" x2="6.011" y2="23.7725" gradientTransform="matrix(0.1049 0.9945 0.9945 -0.1049 -16.0112 1.7888)">
	<stop  offset="0" style="stop-color:#878070"/>
	<stop  offset="0.5765" style="stop-color:#564C34"/>
	<stop  offset="1" style="stop-color:#36290D"/>
</linearGradient>
<path class="st70" d="M12.9,2.4c0,0.1,0,0.3-0.1,0.4L12.8,3c0,0.1-0.1,0.1-0.1,0.2c0,0,0,0,0,0.1c0,0,0,0,0,0c0,0.1,0.1,0.3,0.1,0.5
	c0,0.4,0,0.6,0,0.7c0,0,0-0.1,0-0.1c0-0.1,0-0.1,0-0.1c0,0,0-0.1,0-0.2c0-0.1,0-0.2,0-0.2c0,0,0-0.1-0.1-0.2c0-0.1-0.1-0.1-0.1-0.2
	c0,0-0.1,0-0.1,0.1c-0.1,0.1-0.1,0.2-0.1,0.2C12,3.9,11.5,4.2,11,4.5c-0.4,0.2-0.9,0.3-1.3,0.5C9.4,5,9.2,5,9.1,5.1
	C8.8,5.2,8.7,5.4,8.6,5.7C8.5,5.8,8.5,6,8.4,6.1C8.3,6.3,8.2,6.4,8.2,6.5C8.1,6.7,8.1,6.9,8,7.2C8,7.3,8,7.6,8,7.9
	c0-0.1,0-0.2,0-0.3c0-0.2,0-0.3,0-0.3c0-0.1,0-0.3,0-0.6c0-0.3,0-0.5,0-0.6c0-0.2,0-0.3,0-0.4c0-0.2,0-0.3-0.1-0.4
	c0-0.1-0.1-0.1-0.2-0.2c0,0-0.1,0-0.2,0C6.7,5,6,4.9,5.3,4.6L5,4.5c-0.1,0-0.1,0-0.2-0.1c-0.1,0-0.1,0-0.2,0c0,0,0,0-0.1,0
	c0,0,0,0-0.1,0c0,0,0,0-0.1,0c0,0-0.1,0-0.1,0.1c0,0,0,0.1-0.1,0.2c0,0.1,0,0.2-0.1,0.2C4.2,5.2,4.1,5.3,4.1,5.4c0,0.2,0,0.4,0,0.5
	l0-0.4c0,0,0-0.1,0-0.2c0-0.1,0-0.1,0-0.2c0,0,0-0.1,0-0.2c0-0.1,0-0.1,0-0.2c0-0.2,0-0.3,0-0.4c0-0.1,0-0.1,0-0.2c0,0,0-0.1,0-0.1
	C3.9,4.1,3.9,4.1,3.8,4C3.8,3.8,3.7,3.7,3.6,3.6C3.2,3.3,3,3,3,2.5c0-0.3,0-0.6,0.1-0.8c0.1-0.3,0.4-0.5,0.8-0.6
	c0.3-0.1,0.6-0.2,1-0.4C5.3,0.7,5.6,0.6,6,0.5c0.3-0.1,0.6-0.1,1-0.1c0.4,0,0.8,0,1,0c0,0,0.5,0,1.3,0.1c0.5,0.1,1,0.1,1.3,0.2
	c0.9,0.3,1.7,0.6,2.3,0.9c0,0,0.1,0.1,0.1,0.3C12.9,2.1,12.9,2.3,12.9,2.4L12.9,2.4z"/>
<radialGradient id="SVGID_70_" cx="-132.1915" cy="-513.5605" r="94.7515" gradientTransform="matrix(5.311686e-02 -3.657206e-03 4.570336e-04 3.044254e-02 15.2024 17.8175)" gradientUnits="userSpaceOnUse">
	<stop  offset="0.4353" style="stop-color:#D7C8BA"/>
	<stop  offset="0.5882" style="stop-color:#CDC1B5"/>
	<stop  offset="0.8471" style="stop-color:#B3AEA8"/>
	<stop  offset="1" style="stop-color:#A0A09E"/>
</radialGradient>
<path class="st71" d="M10.9,4.3c-0.2-0.2-0.2-0.4-0.3-0.4c0,0,0.1,0.1,0.1,0.2C10.8,4.2,10.8,4.3,10.9,4.3c-0.2,0.1-0.4,0.2-0.9,0.4
	C9.1,5,8.3,5,7.4,5c-0.5,0-1-0.1-1.5-0.3C5.2,4.5,4.7,4.3,4.3,4C3.5,3.5,3.1,3,3,2.4c0-0.3,0-0.5,0.2-0.7C3.4,1.4,3.6,1.2,4,1.1
	C4.2,1,4.6,0.9,5,0.8c0.4-0.1,0.7-0.2,1-0.3c0.3-0.1,0.6-0.1,1-0.1c0.4,0,0.7,0,1,0c0.3,0,0.7,0.1,1.2,0.1c0.5,0,0.9,0.1,1.2,0.2
	c0.7,0.2,1.1,0.3,1.2,0.4c0.5,0.2,0.8,0.4,1.1,0.6c0,0,0.1,0.1,0.1,0.3c0,0.1,0,0.3,0,0.4c0,0.3-0.1,0.5-0.2,0.7
	c-0.1,0.1-0.2,0.3-0.4,0.4c-0.1,0.1-0.2,0.2-0.3,0.3C11.8,3.9,11.7,4,11.6,4C11.4,4.2,11.1,4.3,10.9,4.3L10.9,4.3z"/>
<path class="st72" d="M9.1,4.9C9,5,8.9,5,8.8,5.1C8.8,5.2,8.7,5.3,8.6,5.5c0,0.1-0.1,0.2-0.2,0.4C8.3,6.1,8.3,6.2,8.2,6.3
	C8.1,6.4,8.1,6.6,8,7C8,7.2,8,7.4,8,7.5c0-0.1,0-0.3,0-0.4c0-0.1,0-0.3,0-0.7c0-0.1,0-0.2,0-0.3c0-0.2,0-0.3,0-0.5
	c0-0.4-0.1-0.6-0.3-0.7C7.5,5,9.1,4.9,9.1,4.9z"/>
<use xlink:href="#kx"  width="69.9" height="86.5" x="-34.9" y="-43.3" transform="matrix(5.314328e-02 0 0 -0.1139 12.7934 8.8142)" style="overflow:visible;"/>
<path class="st24" d="M10.1,2.6c0.1,0,0.2-0.1,0.3-0.1c0,0,0.1-0.1,0.1-0.1c0,0,0-0.1-0.1-0.1c-0.1-0.1-0.2-0.1-0.3-0.2
	C10,2,9.7,2,9.3,2L9,2.1c-0.4,0-0.6,0-0.8,0L8.1,2C7.4,1.9,7,1.8,6.7,1.8c-0.2,0-0.3,0-0.4,0.1C6.1,2.1,5.9,2.2,5.9,2.4
	c0,0.1,0,0.2,0.2,0.4C6.2,3,6.6,3,7.1,3c0.2,0,0.6-0.1,1.2-0.2l0.2,0c0.2,0,0.4-0.1,0.8-0.1l0.4,0C9.8,2.6,10,2.6,10.1,2.6L10.1,2.6
	z M9.7,2.8l-0.4,0c-0.3,0-0.6,0.1-0.9,0.1l-0.1,0C7.8,3,7.4,3.1,7.1,3.1c-0.4,0-0.8,0-1.1-0.2C5.9,2.8,5.8,2.8,5.8,2.7
	C5.7,2.6,5.7,2.5,5.7,2.5c0-0.1,0-0.2,0.1-0.3c0,0,0.1-0.1,0.1-0.1C6,2,6.1,2,6.2,2c0.2-0.1,0.4-0.2,0.5-0.2c0,0,0,0,0.1,0
	c0,0,0.1,0,0.1,0c0.1,0,0.1,0,0.1,0c0.1,0,0.1,0,0.3,0c0.2,0,0.3,0.1,0.5,0.1l0.4,0.1C8.4,2,8.6,2,9,2C9,2,9,2,9.1,2
	c0,0,0.1,0,0.1,0l0.2,0c0.2,0,0.4,0,0.4,0c0.2,0,0.3,0,0.4,0.1c0.1,0,0.1,0.1,0.2,0.1c0.1,0.1,0.2,0.2,0.2,0.2
	c0,0.2-0.1,0.3-0.5,0.4C10,2.7,9.8,2.7,9.7,2.8z"/>
<path class="st24" d="M9.3,2.5c-0.4,0-0.6-0.1-0.7-0.1c-0.1,0-0.2,0-0.4,0.1C8,2.6,7.9,2.6,7.8,2.6c-0.2,0-0.4,0.1-0.5,0.1
	c-0.2,0-0.3,0-0.3-0.1c-0.1-0.1-0.1-0.2,0-0.2c0,0,0.1-0.1,0.2-0.2c0.1-0.1,0.3-0.1,0.7,0c0.2,0,0.4,0.1,0.7,0.1c0.1,0,0.3,0,0.7,0
	c0.3,0,0.5,0,0.5,0.1C9.7,2.5,9.6,2.6,9.3,2.5z M9.5,2.5C9.6,2.5,9.6,2.5,9.5,2.5c0.1-0.1,0.1-0.1,0-0.1c-0.1,0-0.1,0-0.2,0
	c0,0,0,0-0.1,0c0,0-0.1,0-0.1,0c0,0-0.1,0-0.1,0c-0.2,0-0.3,0-0.4,0c-0.1,0-0.2,0-0.4,0L8,2.3c-0.1,0-0.2,0-0.2,0
	c-0.1,0-0.1,0-0.2,0c-0.1,0-0.1,0-0.2,0c-0.1,0-0.1,0-0.2,0C7,2.4,6.9,2.5,7.1,2.5c0.1,0,0.1,0,0.2,0c0,0,0.1,0,0.2,0
	c0.1,0,0.2,0,0.4,0l0.4-0.1c0.2,0,0.3,0,0.4,0L9.5,2.5L9.5,2.5z"/>
<use xlink:href="#kw"  width="28" height="78.7" x="-14" y="-39.4" transform="matrix(5.314375e-02 0 0 -0.1139 11.6724 9.2574)" style="overflow:visible;"/>
<use xlink:href="#kv"  width="68.1" height="93.4" x="-34" y="-46.7" transform="matrix(5.314353e-02 0 0 -0.1139 10.4025 10.2428)" style="overflow:visible;"/>
<use xlink:href="#ko"  width="3.1" height="12.5" x="-1.6" y="-6.2" transform="matrix(5.314026e-02 0 0 -0.1139 9.0612 10.7455)" style="overflow:visible;"/>
<use xlink:href="#kn"  width="5.1" height="11.4" x="-2.5" y="-5.7" transform="matrix(5.313824e-02 0 0 -0.1139 12.3547 12.348)" style="overflow:visible;"/>
<use xlink:href="#km"  width="3.8" height="9.3" x="-1.9" y="-4.7" transform="matrix(5.313813e-02 0 0 -0.1139 4.9446 6.968)" style="overflow:visible;"/>
<use xlink:href="#kl"  width="2.4" height="4.2" x="-1.2" y="-2.1" transform="matrix(5.313258e-02 0 0 -0.1139 5.1817 6.2421)" style="overflow:visible;"/>
<use xlink:href="#kk"  width="2.4" height="4.3" x="-1.2" y="-2.1" transform="matrix(5.313258e-02 0 0 -0.1139 4.1082 8.8198)" style="overflow:visible;"/>
<use xlink:href="#kj"  width="2.3" height="5.5" x="-1.2" y="-2.8" transform="matrix(5.314032e-02 0 0 -0.1139 9.2892 10.0733)" style="overflow:visible;"/>
<use xlink:href="#ki"  width="2.3" height="5.5" x="-1.2" y="-2.8" transform="matrix(5.313778e-02 0 0 -0.1139 8.7501 7.8744)" style="overflow:visible;"/>
<path class="st24" d="M10.8,1.8c-0.1,0-0.2-0.1-0.2-0.1c-0.1-0.1-0.3-0.1-0.5-0.1c-0.2,0-0.4,0.1-0.5,0.1c-0.1,0-0.2,0-0.3,0
	c-0.1,0-0.2,0-0.3,0.1c0,0-0.1,0-0.2,0c-0.1,0-0.2,0-0.2,0c-0.1,0-0.2,0-0.3-0.1c0,0-0.1-0.1,0-0.1c0,0,0,0,0.1-0.1
	c0,0-0.1-0.1-0.1-0.1c0,0-0.1,0-0.1,0c-0.1,0-0.2,0-0.3,0C7.7,1.4,7.5,1.4,7.3,1.5c-0.1,0-0.1,0-0.2,0H6.9c0,0-0.1,0-0.2,0
	c-0.1,0-0.2,0-0.2,0.1c-0.2,0-0.4,0.1-0.4,0.1c-0.1,0-0.2,0-0.3,0.1C5.7,1.9,5.6,2,5.6,2C5.5,2.1,5.5,2.2,5.4,2.3c0,0.1,0,0.2,0,0.4
	c0,0.1,0.1,0.3,0.3,0.4C5.9,3.2,6,3.2,6.2,3.3c0.1,0,0.2,0,0.4,0c0.1,0,0.2,0,0.3,0c0,0,0.1,0,0.1,0c0,0,0.1,0,0.2-0.1
	c0.1,0,0.1,0,0.2-0.1c0,0,0.1,0,0.2,0c0.1,0,0.2,0,0.2,0c0.1,0,0.1,0,0.2-0.1l0.1,0c0,0,0.1,0,0.2,0c0.1,0,0.2,0,0.3,0
	c0.1,0,0.2,0,0.3,0C9,3,9.1,3,9.2,3c0,0,0.1,0,0.2,0c0.1,0,0.1,0,0.2,0c0,0,0.1,0,0.2-0.1c0.1,0,0.3-0.1,0.5-0.1
	c0.1,0,0.2,0,0.2-0.1c0,0,0.1-0.1,0.2-0.1C10.9,2.5,11,2.4,11,2.4c0.1-0.1,0.1-0.2,0-0.3C11,2,10.9,1.9,10.8,1.8L10.8,1.8z
	 M10.9,2.7c-0.2,0.1-0.3,0.1-0.3,0.1c-0.1,0-0.3,0.1-0.4,0.1c-0.1,0-0.2,0-0.4,0c-0.1,0-0.1,0-0.3,0C9.4,3,9.3,3,9.2,3.1
	C9.1,3.1,9,3.2,9,3.2c0,0-0.1,0-0.1,0c0,0-0.1,0-0.2,0c-0.1,0-0.1,0-0.2,0l-0.2,0c-0.1,0-0.2,0-0.2,0c-0.1,0-0.2,0.1-0.2,0.1
	c-0.1,0-0.1,0-0.2,0L7.4,3.3c-0.1,0-0.1,0-0.1,0.1l-0.4,0c-0.2,0-0.4,0-0.6,0C6,3.3,5.9,3.3,5.7,3.2c0,0-0.1,0-0.1-0.1
	C5.6,3,5.6,3,5.5,3C5.4,2.9,5.4,2.8,5.3,2.7c-0.1-0.2-0.1-0.3,0-0.5c0-0.1,0.1-0.1,0.1-0.2c0,0,0.1-0.1,0.1-0.1c0,0,0.1-0.1,0.1-0.1
	c0-0.1,0.1-0.1,0.1-0.1C5.9,1.6,6,1.6,6.2,1.5c0.1,0,0.2,0,0.5-0.1c0.2,0,0.4,0,0.5-0.1c0.1,0,0.1,0,0.2,0c0.1,0,0.3,0,0.6,0.1
	c0.2,0,0.4,0.1,0.5,0.2c0.1,0.1,0.3,0.1,0.6,0.1c0.1,0,0.2,0,0.5,0c0.3,0,0.5-0.1,0.6-0.1c0.2,0,0.5,0,0.7,0.2
	c0.2,0.1,0.4,0.3,0.4,0.4c0,0.1,0,0.3-0.1,0.4C11,2.6,11,2.7,10.9,2.7L10.9,2.7z"/>
<use xlink:href="#jh"  width="130.2" height="21.1" x="-65.1" y="-10.6" transform="matrix(5.314360e-02 0 0 -0.1139 8.194 2.4043)" style="overflow:visible;"/>
<path class="st24" d="M11.9,2.5c-0.1,0.1-0.1,0.1-0.1,0.1c0,0-0.1,0-0.1,0.1c-0.1,0-0.1,0.1-0.1,0.1c0,0.1-0.1,0.1-0.1,0.2
	c0,0.1-0.1,0.1-0.1,0.1c-0.2,0.1-0.3,0.2-0.6,0.2c-0.1,0-0.2,0-0.3,0c-0.1,0-0.2,0-0.3,0c0,0-0.1,0.1-0.3,0.1
	c-0.1,0-0.2,0.1-0.3,0.1L9.1,3.6c-0.3,0-0.5,0.1-0.6,0.1L7.9,3.7c-0.3,0-0.6,0.1-0.9,0.1c-0.2,0-0.3,0-0.4,0c-0.1,0-0.3,0-0.4,0
	c-0.3,0-0.6-0.1-0.9-0.2C5.3,3.5,5.2,3.4,5,3.3c0,0-0.1-0.1-0.2-0.1C4.7,3.1,4.7,3.1,4.6,3C4.4,2.8,4.4,2.6,4.4,2.4
	c0-0.1,0.1-0.2,0.1-0.3c0-0.1,0.1-0.1,0.1-0.2c0.1-0.2,0.2-0.3,0.4-0.4c0.2-0.1,0.5-0.2,0.7-0.3C6,1.1,6.3,1.1,6.6,1.1
	C6.9,1.1,7.2,1,7.4,1c0,0,0.1,0,0.1,0C7.6,1,7.8,1,8,1c0.2,0,0.3,0,0.4,0.1l0.3,0c0.3,0,0.6,0,0.8,0c0.2,0,0.4,0,0.6,0
	c0.4,0,0.7,0.1,1,0.3c0.1,0,0.2,0.1,0.3,0.2c0.1,0,0.1,0.1,0.2,0.2c0,0,0.1,0.1,0.2,0.2C12,2,12,2.1,12,2.2C12,2.3,12,2.4,11.9,2.5
	L11.9,2.5z M11.4,1.6c0,0-0.1,0-0.2-0.1c-0.1,0-0.1,0-0.2-0.1c-0.3-0.1-0.6-0.2-0.9-0.3c-0.2,0-0.4,0-0.6,0c-0.5,0-0.8,0-0.9,0
	l-0.3,0c-0.1,0-0.2,0-0.4,0c0,0-0.1,0-0.3-0.1C7.7,1,7.6,1,7.5,1c0,0,0,0-0.1,0c0,0-0.1,0-0.1,0c-0.1,0-0.3,0-0.5,0.1
	c-0.2,0-0.3,0-0.4,0c-0.3,0-0.5,0-0.7,0.1C5.6,1.3,5.4,1.4,5.2,1.5C5.1,1.6,4.9,1.7,4.8,1.9C4.7,2.1,4.6,2.3,4.6,2.5
	c0,0.2,0.1,0.4,0.2,0.6C5,3.3,5.3,3.5,5.6,3.6c0.2,0.1,0.5,0.1,0.9,0.2c0.1,0,0.1,0,0.2,0c0.1,0,0.2,0,0.2,0c0,0,0.1,0,0.2,0
	c0.1,0,0.2,0,0.2,0c0.1,0,0.3,0,0.6,0c0.3,0,0.5-0.1,0.6-0.1c0.2,0,0.4,0,0.6-0.1c0,0,0.1,0,0.3,0c0.1,0,0.2,0,0.3-0.1
	c0,0,0.1,0,0.3-0.1c0.1,0,0.2-0.1,0.3-0.1c0.1,0,0.1,0,0.3,0c0.1,0,0.2,0,0.2,0c0.3,0,0.5-0.1,0.6-0.3c0.1-0.1,0.2-0.2,0.2-0.3
	c0.1-0.1,0.2-0.1,0.2-0.2c0.1-0.1,0-0.3-0.2-0.6C11.6,1.7,11.5,1.6,11.4,1.6L11.4,1.6z"/>
<path class="st24" d="M12.2,2.5c0.1-0.1,0.1-0.3,0.1-0.4c0-0.1-0.1-0.2-0.2-0.3c-0.2-0.1-0.3-0.2-0.6-0.3c-0.1,0-0.3-0.1-0.5-0.2
	l-0.5-0.1C10.1,1,9.9,1,9.8,1c-0.3,0-0.5,0-0.7,0C9,1,8.9,1,8.9,1c0,0-0.1,0-0.2,0c-0.1,0-0.2,0-0.4,0c-0.2,0-0.3,0-0.4,0
	c-0.3,0-0.5,0-0.6,0c-0.1,0-0.1,0-0.2,0L6.6,1C6.1,1.1,5.8,1.2,5.5,1.2C5.3,1.3,5.1,1.3,5,1.3C4.9,1.4,4.7,1.5,4.6,1.6
	C4.4,1.8,4.2,2.1,4.1,2.3C4,2.6,4.1,2.8,4.2,3c0.1,0.1,0.2,0.2,0.4,0.3c0,0,0.1,0.1,0.2,0.1C5,3.5,5,3.5,5.1,3.5
	c0.1,0.1,0.3,0.2,0.5,0.3c0,0,0.1,0.1,0.2,0.2C5.9,4,5.9,4,6,4c0.1,0,0.3,0,0.5,0C6.6,4,6.7,4,6.9,4c0.1,0,0.1,0,0.2,0
	c0.1,0,0.2,0,0.2-0.1l0.1,0c0.1,0,0.2,0,0.4,0.1C8,4,8,4,8.1,4l0.1,0C8.3,4,8.3,4,8.4,4c0.2-0.1,0.3-0.1,0.5-0.2
	c0.1,0,0.3,0,0.6-0.1c0.3-0.1,0.6-0.1,0.8-0.1l0.2,0c0.2,0,0.3,0,0.5-0.1c0.2,0,0.2,0,0.3-0.1c0.1,0,0.2-0.1,0.3-0.2
	c0,0,0.1-0.1,0.1-0.2c0-0.1,0-0.2,0.1-0.2c0.1-0.1,0.1-0.1,0.3-0.2C12.1,2.6,12.2,2.5,12.2,2.5z M12,2.8c-0.1,0-0.2,0.1-0.2,0.2
	c0,0,0,0.1-0.1,0.1c0,0.1,0,0.1-0.1,0.1c0,0.1-0.1,0.1-0.2,0.2c0,0-0.1,0-0.2,0.1c-0.1,0-0.1,0-0.2,0.1c-0.1,0-0.2,0-0.2,0
	c-0.1,0-0.2,0-0.4,0.1c-0.2,0-0.3,0-0.4,0c-0.3,0-0.5,0.1-0.6,0.1C9.3,3.8,9.1,3.9,8.9,3.9C8.8,3.9,8.6,4,8.4,4.1
	C8.3,4.1,8.3,4.1,8.2,4.1c0,0-0.1,0-0.1,0C8,4.1,7.9,4.1,7.9,4C7.7,4,7.6,3.9,7.3,4C7.1,4.1,6.9,4.1,6.8,4.1c0,0-0.1,0-0.2,0
	c-0.1,0-0.2,0-0.2,0c-0.1,0-0.2,0-0.2,0c-0.1,0-0.1,0-0.2,0C5.9,4.1,5.8,4,5.7,4C5.5,3.9,5.4,3.8,5.3,3.7C5.2,3.7,5.1,3.6,5,3.6
	c-0.2,0-0.3-0.1-0.4-0.1c-0.1,0-0.1,0-0.2-0.1C4.3,3.3,4.3,3.3,4.2,3.2C4.1,3.1,4,3,3.9,2.8c0-0.1,0-0.3,0-0.4C4,2.3,4,2.2,4.1,2
	c0-0.1,0.1-0.2,0.2-0.3c0,0,0.1-0.1,0.2-0.2c0.1-0.1,0.2-0.2,0.3-0.3c0.1,0,0.2-0.1,0.3-0.1c0.2,0,0.3-0.1,0.3-0.1
	C5.6,1.1,5.9,1,6.2,1l0.9-0.1c0.1,0,0.2,0,0.2,0c0.1,0,0.3,0,0.6,0c0.2,0,0.4,0,0.5,0c0,0,0.1,0,0.2,0c0.1,0,0.2,0,0.2,0.1
	c0,0,0.1,0,0.1,0c0,0,0.1,0,0.1,0c0.1,0,0.2,0,0.3,0c0.1,0,0.2,0,0.3,0C10,0.9,10.2,1,10.5,1L11,1.1c0.4,0.1,0.8,0.3,1.2,0.6
	c0.2,0.1,0.3,0.3,0.3,0.5c0,0.1,0,0.2-0.1,0.3c0,0-0.1,0.1-0.2,0.2C12.2,2.7,12.1,2.7,12,2.8L12,2.8z"/>
<path class="st24" d="M12.7,2.2c-0.1-0.4-0.6-0.8-1.5-1C10.4,1,9.7,0.8,9.1,0.7c-0.6-0.1-1-0.1-1.2-0.2c-0.5,0-0.9,0-1.2,0
	c-0.2,0-0.3,0-0.3,0.1c0,0,0,0.1,0,0.1c0,0,0,0.1-0.1,0.1c0,0-0.1,0-0.3,0l-0.2,0C5.6,0.9,5.5,0.9,5.3,1C5.1,1,4.8,1.1,4.6,1.2
	c0,0-0.1,0-0.3,0.1c0,0-0.1,0-0.2,0.1C4,1.5,4,1.5,3.9,1.5C3.7,1.6,3.5,1.8,3.4,2C3.3,2.1,3.3,2.3,3.4,2.5c0,0.1,0,0.1,0.1,0.2
	c0,0,0,0.1,0.1,0.2c0,0.2,0,0.3,0.2,0.4c0,0,0.1,0.1,0.2,0.2C3.9,3.4,4,3.5,4,3.5c0,0,0.1,0.1,0.3,0.1c0.1,0.1,0.2,0.1,0.3,0.1
	C5,4,5.4,4.1,5.6,4.2C6,4.3,6.3,4.4,6.5,4.4c0.1,0,0.3,0,0.4,0c0.1,0,0.2,0,0.4-0.1c0.1,0,0.2-0.1,0.3-0.1c0.1,0,0.1,0,0.2,0l0.2,0
	c0.3,0,0.5,0.1,0.6,0.1c0.2,0,0.4-0.1,0.5-0.2c0,0,0.1,0,0.1-0.1c0,0,0.1-0.1,0.1-0.1C9.5,4,9.7,4,9.8,4c0.1,0,0.2,0,0.3,0
	c0,0,0.1,0,0.3-0.1c0.1,0,0.4-0.1,0.6-0.2l0.3-0.1c0.3-0.1,0.4-0.1,0.4-0.1c0.2-0.1,0.3-0.2,0.4-0.4c0-0.1,0.1-0.1,0.1-0.1
	c0.1,0,0.1-0.1,0.2-0.1c0.1-0.1,0.1-0.2,0.2-0.3C12.7,2.5,12.7,2.3,12.7,2.2L12.7,2.2z M12.8,2.5c0,0.2-0.1,0.4-0.2,0.5
	c-0.1,0.2-0.2,0.3-0.3,0.3c-0.2,0.2-0.5,0.3-0.9,0.4l-0.3,0.1C10.8,4,10.7,4,10.5,4c-0.2,0-0.4,0.1-0.6,0.1c-0.1,0-0.3,0-0.4,0.1
	c-0.1,0-0.2,0.1-0.3,0.1C9.2,4.4,9.1,4.5,9,4.5c-0.1,0-0.2,0-0.3,0c-0.1,0-0.4,0-0.7-0.1l-0.2,0c-0.1,0-0.1,0-0.2,0
	c-0.1,0-0.2,0-0.3,0.1C7.1,4.5,7,4.6,6.9,4.6c-0.1,0-0.3,0-0.4,0C6.2,4.5,5.9,4.4,5.6,4.3C5.4,4.2,5,4.1,4.5,3.9
	C4.2,3.7,4,3.6,3.8,3.4c-0.1,0-0.1-0.1-0.2-0.1C3.5,3.2,3.5,3.2,3.4,3.1c0,0,0-0.1,0-0.2c0-0.1,0-0.1,0-0.2c0,0,0-0.1-0.1-0.1
	c0,0-0.1-0.1-0.1-0.1c-0.1-0.2,0-0.4,0.1-0.7c0.1-0.2,0.3-0.3,0.4-0.4c0,0,0.1,0,0.2,0c0.1,0,0.1,0,0.2-0.1c0.1-0.1,0.2-0.1,0.4-0.2
	c0,0,0.1,0,0.2-0.1C4.8,1,4.9,1,4.9,1c0.3-0.1,0.6-0.2,0.9-0.2c0.1,0,0.2,0,0.3,0c0.1,0,0.2,0,0.2-0.1c0-0.1,0-0.1,0.1-0.2
	c0.2,0,0.4-0.1,0.5-0.1c0.1,0,0.3,0,0.8,0c0.2,0,0.6,0,0.9,0.1c0.2,0,0.5,0.1,0.9,0.2c0.1,0,0.2,0,0.3,0.1c0.2,0,0.3,0.1,0.3,0.1
	c0.2,0,0.5,0.1,0.9,0.2c0.1,0,0.2,0.1,0.4,0.1c0.2,0,0.3,0.1,0.4,0.2c0.1,0,0.2,0.1,0.3,0.2c0.1,0.1,0.2,0.2,0.3,0.3
	c0.1,0.1,0.1,0.2,0.1,0.3C12.8,2.3,12.8,2.4,12.8,2.5L12.8,2.5z"/>
<linearGradient id="SVGID_71_" gradientUnits="userSpaceOnUse" x1="-5.8182" y1="21.9154" x2="-5.6415" y2="21.9154" gradientTransform="matrix(-0.9885 0.1513 0.1513 0.9885 -0.5833 -15.9558)">
	<stop  offset="0" style="stop-color:#6B8087"/>
	<stop  offset="0.651" style="stop-color:#403E34"/>
	<stop  offset="1" style="stop-color:#2B1F0D"/>
</linearGradient>
<polygon class="st73" points="8.4,4.9 8.3,5.9 8.4,4.9 8.2,3.9 "/>
<linearGradient id="SVGID_72_" gradientUnits="userSpaceOnUse" x1="5.7348" y1="20.5921" x2="6.5911" y2="20.5921" gradientTransform="matrix(0.5417 0.8406 0.8406 -0.5417 -13.8318 9.3687)">
	<stop  offset="0" style="stop-color:#6B8087"/>
	<stop  offset="0.651" style="stop-color:#403E34"/>
	<stop  offset="1" style="stop-color:#2B1F0D"/>
</linearGradient>
<path class="st74" d="M7,3.1C6.7,3.5,6.4,3.8,6.2,4l0.5-0.6C7,3,7.2,2.7,7.3,2.7C7.2,2.8,7.1,2.9,7,3.1z"/>
<linearGradient id="SVGID_73_" gradientUnits="userSpaceOnUse" x1="2.4491" y1="20.5031" x2="2.7366" y2="20.5031" gradientTransform="matrix(5.660000e-02 0.9984 0.9984 -5.660000e-02 -16.0291 0.9641)">
	<stop  offset="0" style="stop-color:#6B8087"/>
	<stop  offset="0.651" style="stop-color:#403E34"/>
	<stop  offset="1" style="stop-color:#2B1F0D"/>
</linearGradient>
<path class="st75" d="M4.8,2.4c-0.7,0-1.2,0-1.5-0.1l1.1,0c0.8,0,1.3,0,1.4,0C5.6,2.4,5.2,2.4,4.8,2.4z"/>
<linearGradient id="SVGID_74_" gradientUnits="userSpaceOnUse" x1="3.081" y1="26.8688" x2="3.5986" y2="26.8688" gradientTransform="matrix(0.1331 0.9911 0.9911 -0.1331 -15.982 2.2712)">
	<stop  offset="0" style="stop-color:#6B8087"/>
	<stop  offset="0.651" style="stop-color:#403E34"/>
	<stop  offset="1" style="stop-color:#2B1F0D"/>
</linearGradient>
<path class="st76" d="M11.4,1.9c-0.7,0.2-1.3,0.2-1.7,0.3l1.1-0.2c0.8-0.2,1.3-0.2,1.5-0.3C12.1,1.8,11.8,1.8,11.4,1.9z"/>
<linearGradient id="SVGID_75_" gradientUnits="userSpaceOnUse" x1="1.6055" y1="25.1581" x2="2.2966" y2="25.1581" gradientTransform="matrix(0.1332 0.9911 0.9911 -0.1332 -15.9821 2.2737)">
	<stop  offset="0" style="stop-color:#6B8087"/>
	<stop  offset="0.651" style="stop-color:#403E34"/>
	<stop  offset="1" style="stop-color:#2B1F0D"/>
</linearGradient>
<path class="st77" d="M9.1,1l0.1-0.2c0.1-0.2,0.1-0.3,0.2-0.3C9.2,0.7,9.2,0.9,9.1,1z"/>
<path class="st72" d="M4.5,4.1c0.2,0.1,0.3,0.2,0.4,0.2c0,0-0.1,0-0.2,0c-0.1,0-0.1,0.1-0.2,0.1c0,0,0,0-0.1,0c0,0-0.1,0-0.1,0
	c0,0-0.1,0-0.1,0.1c0,0,0,0.1-0.1,0.2c0,0,0,0.1-0.1,0.2c0,0.1,0,0.1-0.1,0.2c0,0.1,0,0.2,0,0.3c0,0.1,0,0.1,0,0.2L4,5.3
	c0-0.1,0-0.1,0-0.2C4,5,4,4.9,4,4.9c0-0.1,0-0.1,0-0.2c0-0.1,0-0.1,0-0.2c0-0.1,0-0.2,0-0.2c0,0,0-0.1,0-0.1c0,0-0.1-0.1-0.1-0.3
	c0,0,0-0.1-0.1-0.2c0-0.1,0-0.1-0.1-0.1C3.9,3.8,4.2,3.9,4.5,4.1z"/>
<linearGradient id="SVGID_76_" gradientUnits="userSpaceOnUse" x1="5.1428" y1="19.1111" x2="5.5116" y2="19.1111" gradientTransform="matrix(0.5426 0.84 0.84 -0.5426 -13.8229 9.3838)">
	<stop  offset="0" style="stop-color:#6B8087"/>
	<stop  offset="0.651" style="stop-color:#403E34"/>
	<stop  offset="1" style="stop-color:#2B1F0D"/>
</linearGradient>
<polygon class="st78" points="6.5,2.8 4.3,4 4.2,4.8 4.2,4 "/>
<path class="st72" d="M3,2.5C3.1,2.8,3.2,3,3.3,3.2c0.1,0.1,0.1,0.2,0.2,0.2c-0.1,0-0.2-0.1-0.3-0.2C3.2,3.1,3.1,3,3.1,2.8
	C3,2.7,3,2.6,3,2.5z"/>
<path class="st79" d="M6.9,2.8C6.9,2.8,6.8,2.8,6.9,2.8C6.8,2.9,6.7,2.9,6.7,2.9s-0.1,0-0.1,0c0,0,0,0,0-0.1c0,0,0,0,0-0.1
	c0,0,0.1,0,0.1,0C6.7,2.7,6.8,2.7,6.9,2.8C6.8,2.7,6.9,2.8,6.9,2.8z"/>
<path class="st79" d="M9.7,4.7C9.7,4.7,9.6,4.7,9.7,4.7C9.6,4.7,9.6,4.7,9.7,4.7c-0.2,0.1-0.2,0-0.2,0C9.5,4.6,9.5,4.6,9.7,4.7
	C9.6,4.6,9.7,4.6,9.7,4.7L9.7,4.7z"/>
<path class="st79" d="M10.4,4.3C10.4,4.3,10.4,4.3,10.4,4.3c-0.1,0.1-0.1,0.1-0.1,0.1c0,0-0.1,0-0.1,0c0,0,0,0,0-0.1c0,0,0,0,0-0.1
	c0,0,0.1,0,0.1,0C10.3,4.2,10.3,4.2,10.4,4.3C10.4,4.2,10.4,4.3,10.4,4.3z"/>
<path class="st79" d="M11,2.1C11,2.2,11,2.2,11,2.1c-0.1,0.1-0.1,0.1-0.1,0.1c0,0-0.1,0-0.1,0c0,0,0,0,0-0.1c0-0.1,0-0.1,0.1-0.1
	S11,2.1,11,2.1L11,2.1z"/>
<path class="st79" d="M8.4,0.7c0,0,0,0.1-0.2,0.1c-0.1,0-0.2,0-0.2-0.1c0,0,0,0,0,0c0,0,0.1,0,0.1,0C8.3,0.6,8.4,0.7,8.4,0.7
	L8.4,0.7z"/>
<path class="st79" d="M10.5,4.4C10.5,4.4,10.5,4.4,10.5,4.4c-0.1,0.1-0.1,0-0.1,0C10.4,4.3,10.4,4.3,10.5,4.4
	C10.5,4.3,10.5,4.3,10.5,4.4z"/>
<path class="st79" d="M6.4,2.6c0,0,0,0-0.1,0c-0.1,0-0.1,0-0.1,0c0,0,0-0.1,0.1-0.1C6.3,2.5,6.4,2.5,6.4,2.6z"/>
<path class="st79" d="M7.7,2.3C7.7,2.4,7.7,2.4,7.7,2.3c-0.1,0-0.1,0-0.1,0S7.6,2.3,7.7,2.3C7.7,2.3,7.7,2.3,7.7,2.3z"/>
<path class="st79" d="M4.5,3.5C4.5,3.6,4.5,3.6,4.5,3.5c-0.1,0-0.1,0-0.1,0C4.4,3.5,4.4,3.5,4.5,3.5C4.5,3.5,4.5,3.5,4.5,3.5z"/>
<use xlink:href="#jq"  width="25.6" height="84.4" x="-12.8" y="-42.2" transform="matrix(5.314257e-02 0 0 -0.1139 7.2007 10.394)" style="overflow:visible;"/>
<use xlink:href="#jp"  width="17.9" height="24.5" x="-8.9" y="-12.3" transform="matrix(5.314405e-02 0 0 -0.1139 8.562 6.9776)" style="overflow:visible;"/>
<use xlink:href="#jo"  width="3.8" height="18.6" x="-1.9" y="-9.3" transform="matrix(5.314430e-02 0 0 -0.1139 8.1028 10.3983)" style="overflow:visible;"/>
<use xlink:href="#jn"  width="9.2" height="8.1" x="-4.6" y="-4" transform="matrix(5.314247e-02 0 0 -0.1139 2.5148 12.1794)" style="overflow:visible;"/>
<use xlink:href="#jm"  width="5.1" height="4.2" x="-2.6" y="-2.1" transform="matrix(5.314597e-02 0 0 -0.1139 2.6652 11.2012)" style="overflow:visible;"/>
<use xlink:href="#jl"  width="5" height="2.8" x="-2.5" y="-1.4" transform="matrix(5.313681e-02 0 0 -0.1139 1.5562 12.904)" style="overflow:visible;"/>
<use xlink:href="#jy"  width="3" height="7.6" x="-1.5" y="-3.8" transform="matrix(5.314029e-02 0 0 -0.1139 8.0167 13.4174)" style="overflow:visible;"/>
<use xlink:href="#ix"  width="2.5" height="3.6" x="-1.2" y="-1.8" transform="matrix(5.314526e-02 0 0 -0.1139 7.8155 14.2126)" style="overflow:visible;"/>
<use xlink:href="#ft"  width="72" height="81.2" x="-36" y="-40.6" transform="matrix(5.314313e-02 0 0 -0.1139 5.3663 9.7713)" style="overflow:visible;"/>
<use xlink:href="#fn"  width="16.2" height="69.2" x="-8.1" y="-34.6" transform="matrix(5.314349e-02 0 0 -0.1139 6.2937 10.0534)" style="overflow:visible;"/>
<use xlink:href="#fg"  width="49.6" height="78.5" x="-24.8" y="-39.3" transform="matrix(5.314333e-02 0 0 -0.1139 2.6427 8.412)" style="overflow:visible;"/>
<use xlink:href="#ku"  width="26" height="12.8" x="-13" y="-6.4" transform="matrix(5.314324e-02 0 0 -0.1139 4.8115 5.4482)" style="overflow:visible;"/>
<use xlink:href="#kh"  width="50.4" height="67.8" x="-25.2" y="-33.9" transform="matrix(5.314335e-02 0 0 -0.1139 1.5791 6.6653)" style="overflow:visible;"/>
<use xlink:href="#kb"  width="35.6" height="62.4" x="-17.8" y="-31.2" transform="matrix(5.314273e-02 0 0 -0.1139 2.406 7.7923)" style="overflow:visible;"/>
<use xlink:href="#jk"  width="22.2" height="61.2" x="-11.1" y="-30.6" transform="matrix(5.314343e-02 0 0 -0.1139 13.6471 6.2365)" style="overflow:visible;"/>
<use xlink:href="#ji"  width="18.6" height="15.7" x="-9.3" y="-7.9" transform="matrix(5.314238e-02 0 0 -0.1139 15.0097 11.2653)" style="overflow:visible;"/>
<use xlink:href="#jj"  width="43.7" height="24.7" x="-21.9" y="-12.4" transform="matrix(5.314367e-02 0 0 -0.1139 3.0975 7.5209)" style="overflow:visible;"/>
<linearGradient id="SVGID_77_" gradientUnits="userSpaceOnUse" x1="-5.6526" y1="13.0792" x2="-3.1852" y2="13.0792" gradientTransform="matrix(0.3127 -0.9499 -0.9499 -0.3127 16.8354 7.2656)">
	<stop  offset="0" style="stop-color:#C7C7B7"/>
	<stop  offset="0.2745" style="stop-color:#A8A397"/>
	<stop  offset="0.8824" style="stop-color:#5A4A46"/>
	<stop  offset="1" style="stop-color:#4A3836"/>
</linearGradient>
<path class="st80" d="M2.8,8.7C2.6,8.6,2.4,8.4,2.2,8.1C2,7.8,1.9,7.6,1.8,7.4c0-0.1,0.1-0.1,0.4-0.1c0.5,0,0.7,0,0.7,0
	c0.3,0,0.7,0.1,1.2,0.3C4,7.8,3.9,8,3.7,8.2C3.4,8.6,3.1,8.7,2.8,8.7z"/>
<use xlink:href="#fu"  width="13.2" height="9.9" x="-6.6" y="-4.9" transform="matrix(5.314343e-02 0 0 -0.1139 2.2691 8.0879)" style="overflow:visible;"/>
<use xlink:href="#fo"  width="5.9" height="9.7" x="-3" y="-4.8" transform="matrix(5.314343e-02 0 0 -0.1139 2.5268 8.1192)" style="overflow:visible;"/>
<use xlink:href="#fi"  width="1.9" height="9.7" x="-1" y="-4.8" transform="matrix(5.313051e-02 0 0 -0.1139 2.7366 8.1534)" style="overflow:visible;"/>
<use xlink:href="#fb"  width="7.9" height="9.2" x="-4" y="-4.6" transform="matrix(5.314343e-02 0 0 -0.1139 3.1898 8.142)" style="overflow:visible;"/>
<use xlink:href="#kp"  width="14.3" height="8.4" x="-7.2" y="-4.2" transform="matrix(5.314343e-02 0 0 -0.1139 3.4422 8.1506)" style="overflow:visible;"/>
<use xlink:href="#kc"  width="5.3" height="3.7" x="-2.7" y="-1.9" transform="matrix(5.314343e-02 0 0 -0.1139 3.8294 7.9768)" style="overflow:visible;"/>
<use xlink:href="#jv"  width="42.9" height="16.3" x="-21.5" y="-8.2" transform="matrix(5.314290e-02 0 0 -0.1139 2.9878 7.1341)" style="overflow:visible;"/>
<linearGradient id="SVGID_78_" gradientUnits="userSpaceOnUse" x1="-0.3785" y1="23.373" x2="2.641" y2="23.373" gradientTransform="matrix(-0.9692 0.2464 0.2464 0.9692 -2.219 -15.7225)">
	<stop  offset="0" style="stop-color:#3D3D73"/>
	<stop  offset="0.1333" style="stop-color:#3C457D"/>
	<stop  offset="0.3529" style="stop-color:#385B96"/>
	<stop  offset="0.4431" style="stop-color:#40659A"/>
	<stop  offset="0.5961" style="stop-color:#557EA3"/>
	<stop  offset="0.7922" style="stop-color:#78A9B3"/>
	<stop  offset="1" style="stop-color:#A3DCC6"/>
</linearGradient>
<path class="st81" d="M1.9,7.4C1.8,7.3,1.8,7.2,2,7c0.1-0.1,0.2-0.1,0.3-0.3c0.2-0.1,0.3-0.2,0.3-0.3c0,0,0.1-0.1,0.2-0.2
	c0.1-0.1,0.1-0.1,0.1-0.1c0.1,0,0.3,0.1,0.4,0.4C3.6,6.8,3.7,6.9,3.8,7C3.9,7.1,4,7.2,4.1,7.3c0.1,0.2,0.1,0.3,0.1,0.4
	C4.1,7.8,3.8,7.8,3.4,7.9c-0.5,0-0.9,0-1.1-0.2C2,7.6,1.9,7.5,1.9,7.4z"/>
<linearGradient id="SVGID_79_" gradientUnits="userSpaceOnUse" x1="-4.6967" y1="13.7556" x2="-3.1946" y2="13.7556" gradientTransform="matrix(0.3123 -0.95 -0.95 -0.3123 16.8374 7.2588)">
	<stop  offset="0" style="stop-color:#54D8D6"/>
	<stop  offset="0.2471" style="stop-color:#52B4B2"/>
	<stop  offset="0.7961" style="stop-color:#4C5B59"/>
	<stop  offset="1" style="stop-color:#4A3836"/>
</linearGradient>
<path class="st82" d="M2.4,6.9c0.1,0,0.2,0,0.2,0.1c0.1,0.1,0.1,0.2,0,0.4C2.5,7.5,2.4,7.6,2.3,7.6c-0.1,0-0.2-0.1-0.2-0.2
	c0-0.1,0-0.2,0.1-0.3C2.2,7,2.3,7,2.4,6.9z"/>
<linearGradient id="SVGID_80_" gradientUnits="userSpaceOnUse" x1="-3.3514" y1="11.8353" x2="-2.4702" y2="11.8353" gradientTransform="matrix(0.5307 -0.8476 -0.8476 -0.5307 14.8785 10.869)">
	<stop  offset="0" style="stop-color:#54D8D6"/>
	<stop  offset="0.2471" style="stop-color:#52B4B2"/>
	<stop  offset="0.7961" style="stop-color:#4C5B59"/>
	<stop  offset="1" style="stop-color:#4A3836"/>
</linearGradient>
<path class="st83" d="M3.3,7c0.1,0.1,0.1,0.2,0.1,0.2c0,0.1,0,0.1-0.1,0.2C3.3,7.6,3.2,7.6,3,7.4C2.9,7.3,2.9,7.1,3,7
	C3.1,6.9,3.2,6.9,3.3,7z"/>
<linearGradient id="SVGID_81_" gradientUnits="userSpaceOnUse" x1="1.352" y1="11.1291" x2="1.7389" y2="11.1291" gradientTransform="matrix(0.977 -0.213 -0.213 -0.977 3.6443 17.8218)">
	<stop  offset="0" style="stop-color:#54D8D6"/>
	<stop  offset="0.2471" style="stop-color:#52B4B2"/>
	<stop  offset="0.7961" style="stop-color:#4C5B59"/>
	<stop  offset="1" style="stop-color:#4A3836"/>
</linearGradient>
<path class="st84" d="M2.7,6.5c0.1,0,0.1,0.1,0.1,0.1c0,0.1-0.1,0.1-0.1,0.1c-0.1,0-0.1,0-0.1-0.1C2.6,6.5,2.7,6.5,2.7,6.5z"/>
<linearGradient id="SVGID_82_" gradientUnits="userSpaceOnUse" x1="1.5064" y1="11.3804" x2="1.7291" y2="11.3804" gradientTransform="matrix(0.9771 -0.2129 -0.2129 -0.9771 3.6419 17.8234)">
	<stop  offset="0" style="stop-color:#54D8D6"/>
	<stop  offset="0.2471" style="stop-color:#52B4B2"/>
	<stop  offset="0.7961" style="stop-color:#4C5B59"/>
	<stop  offset="1" style="stop-color:#4A3836"/>
</linearGradient>
<path class="st85" d="M2.8,6.3C2.8,6.3,2.8,6.3,2.8,6.3c0,0.1,0,0.1,0,0.1C2.7,6.4,2.7,6.4,2.8,6.3C2.7,6.3,2.7,6.3,2.8,6.3z"/>
<linearGradient id="SVGID_83_" gradientUnits="userSpaceOnUse" x1="1.7268" y1="11.2103" x2="2.5585" y2="11.2103" gradientTransform="matrix(0.9832 -0.1825 -0.1825 -0.9832 3.1195 17.8968)">
	<stop  offset="0" style="stop-color:#54D8D6"/>
	<stop  offset="0.2471" style="stop-color:#52B4B2"/>
	<stop  offset="0.7961" style="stop-color:#4C5B59"/>
	<stop  offset="1" style="stop-color:#4A3836"/>
</linearGradient>
<path class="st86" d="M3.2,6.3c0.1,0.1,0.1,0.2,0.1,0.3c0,0.1-0.1,0.1-0.2,0C3,6.5,3,6.5,3,6.4C3.1,6.3,3.1,6.3,3.2,6.3z"/>
<linearGradient id="SVGID_84_" gradientUnits="userSpaceOnUse" x1="2.642" y1="11.3177" x2="3.2782" y2="11.3177" gradientTransform="matrix(0.9957 9.310000e-02 9.310000e-02 -0.9957 -1.5782 17.8343)">
	<stop  offset="0" style="stop-color:#54D8D6"/>
	<stop  offset="0.2471" style="stop-color:#52B4B2"/>
	<stop  offset="0.7961" style="stop-color:#4C5B59"/>
	<stop  offset="1" style="stop-color:#4A3836"/>
</linearGradient>
<path class="st87" d="M2.3,6.7C2.4,6.7,2.4,6.7,2.3,6.7c0,0.2,0,0.2-0.1,0.3c-0.1,0-0.1,0-0.1-0.1C2.2,6.8,2.2,6.7,2.3,6.7z"/>
<linearGradient id="SVGID_85_" gradientUnits="userSpaceOnUse" x1="2.425" y1="10.3635" x2="3.272" y2="10.3635" gradientTransform="matrix(0.9904 -0.1386 -0.1386 -0.9904 2.3656 17.9754)">
	<stop  offset="0" style="stop-color:#54D8D6"/>
	<stop  offset="0.2471" style="stop-color:#52B4B2"/>
	<stop  offset="0.7961" style="stop-color:#4C5B59"/>
	<stop  offset="1" style="stop-color:#4A3836"/>
</linearGradient>
<path class="st88" d="M3.8,7.2c0.1,0.1,0.1,0.2,0.1,0.2c0,0.1-0.1,0.1-0.2,0C3.6,7.4,3.5,7.3,3.6,7.2C3.6,7.2,3.7,7.1,3.8,7.2z"/>
<use xlink:href="#jr"  width="61.7" height="33.4" x="-30.8" y="-16.7" transform="matrix(5.314324e-02 0 0 -0.1139 7.634 10.7263)" style="overflow:visible;"/>
<linearGradient id="SVGID_86_" gradientUnits="userSpaceOnUse" x1="-7.2393" y1="7.5148" x2="-4.0581" y2="7.5148" gradientTransform="matrix(0.3533 -0.9355 -0.9355 -0.3533 16.5505 7.9411)">
	<stop  offset="0" style="stop-color:#C7C7B7"/>
	<stop  offset="0.2745" style="stop-color:#A8A397"/>
	<stop  offset="0.8824" style="stop-color:#5A4A46"/>
	<stop  offset="1" style="stop-color:#4A3836"/>
</linearGradient>
<path class="st89" d="M5.8,10.4c0-0.1,0.2-0.1,0.5-0.1c0.2,0,0.5,0.1,1,0.2c0.2,0,0.6,0.1,1.1,0.3c0.2,0.1,0.5,0.2,0.7,0.3
	c-0.2,0.2-0.4,0.5-0.6,0.7c-0.5,0.4-0.9,0.6-1.2,0.5c-0.3-0.1-0.6-0.4-0.9-0.9C6,11,5.9,10.6,5.8,10.4L5.8,10.4z"/>
<use xlink:href="#gv"  width="18.3" height="14.3" x="-9.1" y="-7.1" transform="matrix(5.314343e-02 0 0 -0.1139 6.6335 11.352)" style="overflow:visible;"/>
<use xlink:href="#fp"  width="7.9" height="13.4" x="-4" y="-6.7" transform="matrix(5.314343e-02 0 0 -0.1139 6.9975 11.4432)" style="overflow:visible;"/>
<use xlink:href="#fj"  width="2.8" height="13.1" x="-1.4" y="-6.6" transform="matrix(5.314343e-02 0 0 -0.1139 7.3008 11.5058)" style="overflow:visible;"/>
<use xlink:href="#fc"  width="11.6" height="11.9" x="-5.8" y="-6" transform="matrix(5.314343e-02 0 0 -0.1139 7.7508 11.5884)" style="overflow:visible;"/>
<use xlink:href="#kq"  width="18.9" height="9.9" x="-9.4" y="-4.9" transform="matrix(5.314343e-02 0 0 -0.1139 8.1554 11.6226)" style="overflow:visible;"/>
<use xlink:href="#kd"  width="7.7" height="4.6" x="-3.8" y="-2.3" transform="matrix(5.314080e-02 0 0 -0.1139 8.6564 11.4688)" style="overflow:visible;"/>
<use xlink:href="#jw"  width="60.5" height="22.5" x="-30.3" y="-11.3" transform="matrix(5.314313e-02 0 0 -0.1139 7.4789 10.2152)" style="overflow:visible;"/>
<linearGradient id="SVGID_87_" gradientUnits="userSpaceOnUse" x1="6.0014" y1="8.1264" x2="9.0786" y2="8.1264" gradientTransform="matrix(0.9997 2.550000e-02 2.550000e-02 -0.9997 -0.4332 17.9694)">
	<stop  offset="0" style="stop-color:#7CD18E"/>
	<stop  offset="1" style="stop-color:#2B979A"/>
</linearGradient>
<path class="st90" d="M8.7,10.1c0.1,0.1,0.3,0.2,0.4,0.4c0.1,0.2,0.1,0.4,0.1,0.5C9,11.2,8.6,11.3,8,11.3c-0.7,0-1.2-0.2-1.6-0.4
	c-0.3-0.2-0.5-0.3-0.5-0.4c-0.1-0.2,0-0.3,0.2-0.6c0.1-0.1,0.2-0.2,0.4-0.3C6.8,9.4,6.9,9.3,7,9.2c0.1-0.1,0.1-0.1,0.2-0.3
	c0.1-0.1,0.1-0.1,0.2-0.1c0.2,0,0.4,0.2,0.6,0.6C8.4,9.8,8.6,10.1,8.7,10.1L8.7,10.1z"/>
<use xlink:href="#fq"  width="15.3" height="7.7" x="-7.6" y="-3.8" transform="matrix(5.314393e-02 0 0 -0.1139 6.7832 10.2308)" style="overflow:visible;"/>
<use xlink:href="#fk"  width="13.3" height="6.9" x="-6.6" y="-3.5" transform="matrix(5.314505e-02 0 0 -0.1139 7.7629 10.3689)" style="overflow:visible;"/>
<use xlink:href="#fd"  width="5.5" height="2.9" x="-2.7" y="-1.4" transform="matrix(5.314438e-02 0 0 -0.1139 7.2829 9.4643)" style="overflow:visible;"/>
<use xlink:href="#kr"  width="3.2" height="1.4" x="-1.6" y="-0.7" transform="matrix(5.314023e-02 0 0 -0.1139 7.3575 9.1111)" style="overflow:visible;"/>
<use xlink:href="#ke"  width="7.1" height="4.5" x="-3.6" y="-2.2" transform="matrix(5.314362e-02 0 0 -0.1139 7.7361 9.3534)" style="overflow:visible;"/>
<use xlink:href="#jx"  width="7.7" height="2.9" x="-3.9" y="-1.4" transform="matrix(5.314454e-02 0 0 -0.1139 6.6265 9.6418)" style="overflow:visible;"/>
<use xlink:href="#js"  width="7.4" height="3.7" x="-3.7" y="-1.9" transform="matrix(5.314035e-02 0 0 -0.1139 8.5021 10.5689)" style="overflow:visible;"/>
<use xlink:href="#jt"  width="31" height="14.5" x="-15.5" y="-7.2" transform="matrix(5.314431e-02 0 0 -0.1139 8.331 13.6652)" style="overflow:visible;"/>
<linearGradient id="SVGID_88_" gradientUnits="userSpaceOnUse" x1="-9.9354" y1="6.645" x2="-8.3271" y2="6.645" gradientTransform="matrix(0.2656 -0.9641 -0.9641 -0.2656 17.1244 6.4789)">
	<stop  offset="0" style="stop-color:#C7C7B7"/>
	<stop  offset="0.2745" style="stop-color:#A8A397"/>
	<stop  offset="0.8824" style="stop-color:#5A4A46"/>
	<stop  offset="1" style="stop-color:#4A3836"/>
</linearGradient>
<path class="st91" d="M9.1,13.7C9,13.8,8.9,13.9,8.8,14c-0.2,0.2-0.4,0.3-0.6,0.3c-0.2,0-0.3-0.1-0.5-0.3c-0.1-0.1-0.2-0.3-0.2-0.4
	c0,0,0.1-0.1,0.3-0.1c0.1,0,0.3,0,0.5,0C8.4,13.5,8.7,13.6,9.1,13.7L9.1,13.7z"/>
<use xlink:href="#hw"  width="9.6" height="5.3" x="-4.8" y="-2.7" transform="matrix(5.314343e-02 0 0 -0.1139 7.8478 14.0209)" style="overflow:visible;"/>
<use xlink:href="#fr"  width="4.5" height="5.6" x="-2.3" y="-2.8" transform="matrix(5.314343e-02 0 0 -0.1139 8.0298 14.018)" style="overflow:visible;"/>
<use xlink:href="#fl"  width="1.3" height="5.7" x="-0.6" y="-2.8" transform="matrix(5.314343e-02 0 0 -0.1139 8.1706 14.0266)" style="overflow:visible;"/>
<use xlink:href="#fe"  width="5.3" height="5.6" x="-2.7" y="-2.8" transform="matrix(5.314343e-02 0 0 -0.1139 8.4071 14.018)" style="overflow:visible;"/>
<use xlink:href="#ks"  width="9" height="5.1" x="-4.5" y="-2.6" transform="matrix(5.314343e-02 0 0 -0.1139 8.6097 13.9881)" style="overflow:visible;"/>
<use xlink:href="#kf"  width="3.7" height="2.3" x="-1.8" y="-1.2" transform="matrix(5.314292e-02 0 0 -0.1139 8.858 13.8756)" style="overflow:visible;"/>
<use xlink:href="#jz"  width="30.4" height="9.5" x="-15.2" y="-4.7" transform="matrix(5.314246e-02 0 0 -0.1139 8.2534 13.4432)" style="overflow:visible;"/>
<linearGradient id="SVGID_89_" gradientUnits="userSpaceOnUse" x1="6.5372" y1="4.1765" x2="8.0726" y2="4.1765" gradientTransform="matrix(0.9978 -6.670000e-02 -6.670000e-02 -0.9978 1.1357 18.0291)">
	<stop  offset="0" style="stop-color:#7CD18E"/>
	<stop  offset="1" style="stop-color:#2B979A"/>
</linearGradient>
<path class="st92" d="M8.8,13.3c0.1,0,0.1,0.1,0.2,0.1c0.1,0.1,0.1,0.2,0,0.2c0,0.1-0.2,0.1-0.5,0.2c-0.3,0.1-0.6,0-0.8,0
	c-0.1-0.1-0.2-0.1-0.3-0.1c0-0.1,0-0.1,0.1-0.3c0,0,0.1-0.1,0.2-0.2c0.1-0.1,0.2-0.1,0.2-0.2c0,0,0.1-0.1,0.1-0.1
	c0,0,0.1-0.1,0.1-0.1c0.1,0,0.2,0.1,0.3,0.2C8.7,13.2,8.8,13.3,8.8,13.3L8.8,13.3z"/>
<use xlink:href="#fs"  width="7.6" height="3.5" x="-3.8" y="-1.7" transform="matrix(5.314348e-02 0 0 -0.1139 7.8998 13.5219)" style="overflow:visible;"/>
<use xlink:href="#fm"  width="6.8" height="2.9" x="-3.4" y="-1.5" transform="matrix(5.314116e-02 0 0 -0.1139 8.3941 13.4884)" style="overflow:visible;"/>
<use xlink:href="#ff"  width="2.7" height="1.3" x="-1.3" y="-0.6" transform="matrix(5.314343e-02 0 0 -0.1139 8.135 13.1436)" style="overflow:visible;"/>
<use xlink:href="#kt"  width="1.6" height="0.6" x="-0.8" y="-0.3" transform="matrix(5.315620e-02 0 0 -0.114 8.1648 12.984)" style="overflow:visible;"/>
<use xlink:href="#kg"  width="3.6" height="1.8" x="-1.8" y="-0.9" transform="matrix(5.313820e-02 0 0 -0.1139 8.3589 13.0509)" style="overflow:visible;"/>
<use xlink:href="#ka"  width="3.8" height="1.5" x="-1.9" y="-0.7" transform="matrix(5.314758e-02 0 0 -0.1139 7.8116 13.2844)" style="overflow:visible;"/>
<use xlink:href="#ju"  width="3.7" height="1.5" x="-1.9" y="-0.7" transform="matrix(5.314137e-02 0 0 -0.1139 8.7632 13.502)" style="overflow:visible;"/>
</svg>
